<?xml version="1.0" encoding="utf-8"?>
<!-- Generator: Adobe Illustrator 22.1.0, SVG Export Plug-In . SVG Version: 6.00 Build 0)  -->
<svg version="1.1" id="Слой_1" xmlns="http://www.w3.org/2000/svg" xmlns:xlink="http://www.w3.org/1999/xlink" x="0px" y="0px"
	 viewBox="0 0 1024 1024" style="enable-background:new 0 0 1024 1024;" xml:space="preserve">
<path d="M1012.6,310.9c-5.4,11.9-15.3,14.3-15.3,14.3c12.9-7.9,22.7-40.1,22.7-40.1l-8.4,6.4c14.8-24.7,5.4-65.8,5.4-65.8l-8.4,14.3
	c7.4-23.3-4.5-48.5-4.5-48.5l-4,10.4c3-19.8-6.9-26.7-6.9-26.7c0,4-3,7.9-3,7.9c-14.8,21.8-16.8,73.2-16.8,73.2
	c-14.3,51.5-49,85.1-49,85.1l2-6.4c-12.9,15.8-35.1,15.8-35.1,15.8l8.4-3.5c-38.6,2-120.2,27.7-120.2,27.7c-4-3.5-20.3-3.5-20.3-3.5
	c-89.1-22.8-140-11.9-140-11.9c-53.4,9.4-117.9,10.6-117.9,10.6c-49.5-7.9-115.6-2.2-115.6-2.2c-52.4,2.5-72.2,24.7-72.2,24.7
	c-7.9-2-47.5,21.3-47.5,21.3c-12.9,0-38.1,16.3-38.1,16.3c0-2,4-4.9,4-4.9c-19.3,4.5-30.2,18.8-30.2,18.8c-0.5-3.5,3-7.4,3-7.4
	c-13.4,6.9-21.8,30.7-21.8,30.7c-4.9-0.5-14.3,10.4-14.3,10.4c-5.4-3-22.3,5.4-22.3,5.4l1.5-5.4c-3,0-10.4,6.4-10.4,6.4
	c0-3,4.5-6.4,4.5-6.4c-9.9,1.5-27.8,17-27.8,17s-26.2,15.3-35.6,20.2c0,0-18.3,9.9-24.7,35.1c0,0-4,18.8-9.9,22.7
	c0,0-3,8.4,5.4,16.3c0,0,1.5,12.6-11.4,23.4c0,0-23.3,22.6-27.7,31c0,0-18.3,13.9-3.5,22.3c0,0,12.4,7.4,13.4,11.4
	c0,0,9.9,25.2,51.9,7.9c0,0,5.9-1.6,10.9-0.1c0,0,12.4,6.1,31.2-19.7c0,0,8.9-10,17.3-9.5c0,0,25.2-6.9,26.7-8h-7
	c0,0,42.2-14.4,50.6-21.8c0,0-2.5-0.1-5.9-0.6c0,0,2.5-1.1,5.9-6.5c0,0,20.8-2.5,20.8-5.5c0-6.9,3.5,11.9,3.5,11.9
	c-10.4,3-49,24.7-49,24.7L137.9,665c-16.3,5.4-26.7,18.3-26.7,18.3c-18.3,21.8-48.9,37-48.9,37c-10.2,5.1-15.7,11-13.7,22.1
	c0,0-3.8,9.1,1.5,11c0,0,3.4,4.2,6.1,4.6c0,0,2.7,1.8,2.1-4.5c0,0,1.2,0.6,3.7,0.6c0.8,2.5,2.4,5.2,5.4,4.8c0,0,3.1,1,0.9-4.9
	c0,0,12.7,6.2,26.1-9.3c0,0,25.8-23.8,31.3-28.3c0,0,13.9,4,23.3-11.4c0,0,12.9-14.3,32.2-11.4c0,0,41.6-4.5,54.9-11.4
	c0,0-11.9,0.5-13.9-0.5c0,0,53.9-6.4,62.8-13.9l-5.4-1c0,0,19.5-5.8,31.7-8.1c0,0,18.3-6.7,9.9-28c0,0,6.9-11.4,8.9-17.3
	c0,0,30.7-5.4,44.5,2c0,0,36.6,10.9,45,9.9c0,0-6.4-2-8.4-3.9c0,0,26.2,6.4,27.7,3.9c0,0,13.8,15.3,16.3,19.8
	c0,0,27.3,108.3,25.8,158.2c0,0,0.9,13.3-4.6,20.5c-6.5,3.4-24.3,1.9-22.9,12.2c0,0-7.8,5.9-4.2,10.2c0,0,0.5,1.7,2.2,0.6
	c-1,2.2-1.3,4.8,0.8,6.4c0,0,1.5,2.9,4.1-2.9c0,0,0.7,1.1,2.9,2.4c-0.6,2.6-0.5,5.7,2.3,6.9c0,0,2.2,2.4,3.2-3.8
	c0,0,8.9,4.9,28.2-1.9c2.5-0.4,7.1-1.4,10-2.1c0,0,6.3-3.6,6.8-11.5c0,0,0.5-12.4,3-16.8c0,0,5-3.5,3-17.8c0,0,2.9-112.2,4.8-125.1
	c0,0,3.1-55.4-6.1-64.3l7.2,2.9c-4.9-3-7.4-20.3-7.4-20.3l4.1,4.5c-8.7-11.9,7.2-16.8,7.2-16.8c10.9,0.5,28.2-4,28.2-4l-5.9-3
	c18.8-2,37.1-9.9,37.1-9.9l-13.9-3.5c9.9,2,36.4-1.9,36.4-1.9l-6.2-2.6c24.2-7.4,25.9,10.9,25.9,10.9c-1,35.1,75.5,60.4,75.5,60.4
	c28.7,11.9,35.1,20.3,35.1,20.3c11.4,9.4,3.5,17.8,3.5,17.8c-3,7.4-47.5,40.6-47.5,40.6c-22.6,14.9-35.8,59.2-35.8,59.2
	c0,7.3-9.6,22.4,0.3,26c0,0,1.7,9.7,7.2,8.4c0,0,1.7,0.4,1.5-1.7c1.5,1.9,3.6,3.4,6.1,2.3c0,0,3.3,0-0.7-4.9c0,0,1.3-0.1,3.4-1.4
	c2.1,1.7,4.8,3.1,7.2,1.2c0,0,3.2-0.8-1.9-4.6c0,0,11.9-2.9,14.9-23.1c0,0,5.4-14.2,12.9-30c0,0,0.2-0.2,0.6-0.5
	c3.6,1.8,8.8,1.3,13.5-10.8c22.3-17.9,63.9-51.3,72.5-58.1c0,0,14.1-9.2,17.3-18.2c11.2,10,21.4,18.6,27.8,22.6
	c0,0,43.1,29.7,55.1,65c0,0,9.3,28.1,10.4,32.3c0,0,6,18.4,0.8,25.5c-6.2,3.4-23.2,1.9-21.8,12.2c0,0-7.5,5.9-4,10.2
	c0,0,0.4,1.7,2.1,0.6c-0.9,2.2-1.3,4.8,0.8,6.4c0,0,1.4,2.9,3.9-2.9c0,0,0.7,1.1,2.7,2.4c-0.5,2.6-0.5,5.7,2.2,6.9
	c0,0,2.1,2.4,3.1-3.8c0,0,6.4,4.9,24.8-1.9c2.4-0.4,3.6-1.4,6.4-2.1c0,0,9.2-3.6,9.6-11.5c0,0-2.8-16.8-0.4-21.2
	c1.2-0.9,7.8-3.5,2.9-17.8c0,0-13.9-37.4-21.3-76.2c-4.5-23.9-14.7-27.4-14.7-27.4c-34.1-23.3-53-98.7-53-98.7
	c4.5,5.9,9.4,5.4,9.4,5.4c-10.9-0.5-11.9-56-11.9-56c1,0.9,8.1,1.6,8.1,1.6c-5.9-3-7.7-15-7.7-15c3,5.8,9.9,2.4,9.9,2.4
	c-9.9-2.4-17.1-35.5-17.1-35.5c-1.7-20.8-18.1-48-18.1-48c0-14.3,16.8-16.8,16.8-16.8l-9.4,1c12.4-11.4,30.7-9.9,30.7-9.9l-9.9-4
	c13.4,2.5,50.5-4,50.5-4l-14.3-2.5c9.4,2,47-4.5,47-4.5l-13.9-2c38.1-3.1,70.6-37.6,76.3-44c-9.1,9.7-30.8,13.8-30.8,13.8
	C998.3,350.5,1012.6,310.9,1012.6,310.9z M758.8,604.3c0,0,17.8,7.7,26.5,25.7C772.8,621.1,760.3,610.8,758.8,604.3z"/>
</svg>
