<?xml version="1.0" encoding="utf-8"?>
<!-- Generator: Adobe Illustrator 22.1.0, SVG Export Plug-In . SVG Version: 6.00 Build 0)  -->
<svg version="1.1" id="Слой_1" xmlns="http://www.w3.org/2000/svg" xmlns:xlink="http://www.w3.org/1999/xlink" x="0px" y="0px"
	 viewBox="0 0 1024 1024" style="enable-background:new 0 0 1024 1024;" xml:space="preserve">
<path d="M852.5,481.2l3.1,2.8C854.2,483.6,853.2,482.6,852.5,481.2z M1018.3,417.1c0,0-3.3,9.3-11.3,14c0,0-12.5,13.1-35.7,1.2
	l-20.1-5.1c0,0-24.6-6-33.2-15.3c0,0-0.9,2.8,2.7,11.3c18.8,4,34.4,7.6,43.8,27.2c0,0,9.3,38.5-10.6,33.2c0,0-2.9-2.6-6.5-6.5
	c1,4.7,1,8.7-0.8,11.1c0,0-6.6,8-19.9,4c0,0-17.3-8.6-29.9-21.9c0,0-20.6-22.6-25.9-12.7c0,0-11.3,5.3-19.3,4.7
	c0,0-2.2,12.9,0.9,18.9l-6.9-6.3c0,0-2.7,17.3,3.3,23.3l-9.3-9.3c0,0,4,21,3.3,25.5c0,0,8,26.4,4.7,34.3c0,0,4,21.9,12,24.6l-8-2.7
	c0,0,21.3,27.9,35.2,78.4c0,0,23.2,23.9,29.9,23.9c0,0,34.5,0.7,38.5,14.6l-1.3,4.7c0,0,2,5.3-5.3,12.6c0,0-10.6,13.3-17.3,12
	c0,0,25.9,30.6,27.2,34.6c0,0,26.6,0,31.2,4c0,0,17.9-0.7,16.6,8.6c0,0,12,2,6,14c0,0-12.6,22.6-34.5,18.6c0,0-13.3,5.3-23.9-2.7
	c0,0-13.3-16.6-21.9-15.9c0,0-6.6,2.7-12-10c0,0-9.9-22.7-18.6-25.2c-6.6-2-23.9-27.9-23.9-27.9c-7.3-4.7-21.9-24.6-21.9-24.6
	l-4.7,2.7c2.7-10.6-11.5-18.6-11.5-18.6l-2.5,5.3c1.3-5.3-4-14-4-14l-2.7,5.3l-1.3-11.3c-4-12.6-33.9-13.3-33.9-13.3
	c-4.7,2-35.9,2.7-35.9,2.7l13.3-6c-8,4-46.5,2-46.5,2l11-5.3c-13.6,3.9-39.6-6.7-39.6-6.7l14.8-3.4c-11.7,1.3-38.1-11.9-38.1-11.9
	c5.3,2.7,17.3-2.7,17.3-2.7c-12.6,4.7-29.2-9.3-29.2-9.3s-10,10.6-18.6,14c0,0,7.3-8.6,9.3-14c0,0-23.9,3.3-49.8,14
	c0,0,10.6-8.6,14-10.6c0,0-43.2,11.3-54.5,10.6c0,0,13.3-0.6,15.9-7l-30.6,7l6.6-7.3c-9.3,7.3-62.5,12.6-62.5,12.6
	c8.6-4,12-15.3,12-15.3l-25.9,10c1-0.6,2-1.2,2.9-2c9.5-7.7,11.7-22.6,11.7-22.6c-4.7,8-23.3,12-23.3,12c6.6-4.7,9.3-19.9,9.3-19.9
	l-7.3,9.3c5.3-23.3-12.6-32.6-12.6-32.6l-3.3,14.6c-2.7-22.6-23.9-31.2-23.9-31.2c0,2.7,6.6,8.6,6.6,8.6l-18.6-11.3
	c-15.3,10-23.3,52.5-23.3,52.5c-5.3,29.2-34.5,59.8-34.5,59.8l0.7-8c-26.6,33.2-63.1,37.1-63.1,37.1c-34.5,4.8-55.5,38.7-55.5,38.7
	c-8,5.3-2.3,38.5-2.3,38.5c6.6,27.9,19.3,32.6,19.3,32.6c14,2.7,16.6,16.6,16.6,16.6c-0.7,4.7-8,4.7-8,4.7
	c-3.3,6.6-12.6,5.4-12.6,5.4c-3.3,4.1-13.3-0.1-13.3-0.1c-20.6,2-21.9-22.6-21.9-22.6c-10-5.3-15.9-74.4-15.9-74.4l-2-12.6
	C200.4,685,217,687,217,687c17.3-8,47.8-40.5,47.8-40.5c10.6-16.6,8-23.3,8-23.3l-4,7.3c-3.3-12.6,1.3-25.2,1.3-25.2
	c-4.7,0.7-6,6.6-6,6.6c-6.6-12.6,0.7-43.2,0.7-43.2s-15.3,3.3-27.2,15.9c0,0-27.9,26.6-53.2,25.2c0,0-33.9,12-43.2,11.3
	c0,0-15.3-3.3-37.9,19.3c0,0-21.3,21.3-31.9,47.8c0,0-8,32.6-40.5,39.2c0,0-11,4.7-15-4c0,0-12.9,2-10.3-9.3c0,0-8.6-4,4.7-19.9
	c0,0,8.6-10.6,19.3-11.3c0,0,6.6-12,16.6-16.6l41-67.8c5.7-12.9,11.4-15.3,11.4-15.3c5.3,1.3,15.9-6,15.9-6
	c18.6-12.6,19.9-30.3,19.9-30.3c-3.3-1.8-1.3-19-1.3-19l6.7,5.7c-6.6-16.3,2-30.6,2-30.6l4.6,5.7c-0.9-21.7,19.7-40.8,19.7-40.8
	c-7.1,2.8-40.1-13.6-40.1-13.6l8.6-2c-31.9-9.3-27.9-37.2-27.9-37.2c-0.7,6,6.6,12,6.6,12c-5.3-4,1.2-27.2,1.2-27.2
	c0.7-12.6-1.2-25.2-1.2-25.2c4,2,12,24.6,12,24.6c0.7-12-12-34.5-12-34.5c8.6,3.3,18.6,22.6,18.6,22.6c0-14.6-10-21.3-10-21.3
	c13.3,1.3,17.9,15.9,17.9,15.9c22.6,45.2,40.5,27.2,40.5,27.2l-7.3-1.3c20.6-9.3,31.2-7,31.2-7c22.6,0.7,29.2-8,29.2-8
	c19.3-20.6,37.9-24.9,37.9-24.9l-9.3-1.3c19.3-6.6,36.1,2.5,36.1,2.5c57.8-36.5,145.2-7.1,145.2-7.1l-5.3-6
	c75.1,26.6,121.6,8.6,121.6,8.6c10.7-6.6,49.8-21.9,49.8-21.9l-14,2.7c24.6-19.3,75.7-15.9,75.7-15.9l-4-3.3
	c10.6,0.7,35.2-12.6,35.2-12.6l-10.6,1.3c15.3-12,52.5-12,52.5-12c-6.6-2.7-18.6-0.7-18.6-0.7c20.6-12.6,58.5-1.3,58.5-1.3
	s0,0-0.7-2s-10-8-10-8c4-0.7,14,4,14,4c-4-12-17.9-15.3-17.9-15.3c10.1-2.5,19.6,7,20.5,7.9c-7.3-7.3-12.5-21.8-12.5-21.8l9.3,6.6
	c-6-8-9.3-23.9-9.3-23.9l10,11.3c-4.7-5.3-5.3-19.9-5.3-19.9l7.3,10c-1.3-6,0-21.9,0-21.9l3.3,10c2.7-6,0-21.9,0-21.9
	c2-27.2,17.3,2.7,17.3,2.7c8.9,17.1,17.1,24.6,17.1,24.6c12.6,6,16.1,16.6,16.1,16.6c4,0,23.9,3.3,23.9,3.3l-14.6-6.6
	c15.3-3.3,30.6,5.3,30.6,5.3l-6-5.3c25.9,4.7,40.5,35.9,40.5,35.9s51.2,21.9,52.5,47.2l3.3,10c0,0-2,4.7,0,10c0,0-2,7.3,8.6,16.6
	C982.5,375.9,1036.3,409.1,1018.3,417.1z M784.1,557.9c-2.7,5.3-11.6,9.3-11.6,9.3c4.7,6,14,8,14,8
	C783.8,566.6,784.1,557.9,784.1,557.9z M931.3,441.9c0,0,4.6,7.3,8.9,16.3C942.9,452.9,944.2,445.3,931.3,441.9z"/>
</svg>
