<?xml version="1.0" encoding="utf-8"?>
<!-- Generator: Adobe Illustrator 22.1.0, SVG Export Plug-In . SVG Version: 6.00 Build 0)  -->
<svg version="1.1" id="Слой_1" xmlns="http://www.w3.org/2000/svg" xmlns:xlink="http://www.w3.org/1999/xlink" x="0px" y="0px"
	 viewBox="0 0 1024 1024" style="enable-background:new 0 0 1024 1024;" xml:space="preserve">
<path d="M1009.9,800.5c0,0-15.4-10.4-21.8-80.9c0,0,3.1-63.4-17.2-86.5c0,0-0.8-21.1-19.5-21.1c0,0-4.4-7.2-10.8-6.8
	c0,0-20.3-8.8-33.1-12.4c0,0-34.7-10.8-71.6-24c-34.6-12.3-66.3-29.8-83.4-18.3c0,0-7.2-9.2-10.8-10.8c0,0-3.2-10.2-6.4-28.5
	c8.7-1.1-0.7-4.4-0.8-4.4c-0.1-0.4-0.1-0.7-0.2-1.1l-0.3-2.1c0-0.3-0.1-0.5-0.1-0.8c6.8-1.7,2.7-3.4-0.7-4.3
	c-0.3-1.8-0.5-3.6-0.8-5.5c4.9-1.3,2.4-2.5-0.4-3.2c-0.2-1.4-0.3-2.8-0.5-4.3c6-1.6,2.5-3.8-0.6-5c-0.2-1.9-0.4-3.7-0.6-5.7
	c7-1.9,2.7-4-0.4-5c-0.3-3.5-0.6-7.2-0.8-11c7.7-2.4,3-3.9-0.3-4.5c-0.1-2-0.2-4.1-0.3-6.1c5.2-1.5,2.2-3.1-0.2-4
	c-0.1-1.4-0.4-4.3-0.9-7.9c6.4-3.6,2.3-5.6-0.9-6.4c-0.1-0.7-0.2-1.4-0.3-2c6.5-4.1,2.3-5.8-1.2-6.5c-2.3-11.7-5.8-23.8-10.9-26.7
	c0,0,0.4-11.2-2.4-11.6c0,0,5.6-8,3.6-12.4c0,0,7.2-10,14-13.2c0,0,12.8-3.6,15.1-8.8c0,0,9.6,10,24.7,10c0,0,17.9,23.5,24.7,10
	c0,0,3.6,5.6,9.2-9.2c0,0,6-9.2-1.2-15.9c0,0,5.2-8.8,4.4-14.7l0.4-2.4c0,0,21.9-33.1-12.4-36.7c0,0-6.8,0-11.8,2.8c0,0-0.8,0-2.1,0
	c-25.6-23.9-53.7-89.3-54-89.9c-22.7-57.9-41-54.6-41.7-54.4c-0.9,0.2-1.4,1.1-1.2,1.9c0.2,0.9,1.1,1.4,1.9,1.2
	c0.2,0,16.6-2,38,52.5c1.2,2.8,27.1,63.1,52.5,88.9c-4.1,0.2-9.6,0.6-15.4,1.4c-8.9-14.8-35.8-55.6-73-74.9
	c-0.5-0.3-47.2-26.7-56.7-42.3c-0.5-0.8-1.5-1-2.2-0.5c-0.8,0.5-1,1.5-0.6,2.2c9.9,16.3,55.9,42.3,57.9,43.4
	c35.6,18.5,61.7,57.2,71,72.5c-6.2,1-12.5,2.5-17.3,4.7c0,0-19.1-3.2-21.1,19.9c0,0-42.7,28.3-40.7,40.7c0,0-27.9,15.5-57.8,61
	c0,0-37.5,51.8-54.6,65c0,0-8.8,6.4-10.8,16.3c0,0-7.2,2-7.2,4.4c0,0-37.5,17.3-85.8,40.2c-0.8-2.2-1.9-4.4-3.1-5.9
	c0,0-8.8-43.1-8-49.4c0,0-0.8-11.6-9.6-8c0,0-6,0.8-5.2,8.4l-37.9,85.6c-26.7,13.1-53.4,26.4-76.4,38.4c-18.7-6.9-22.8-2.5-22.8-2.5
	c-6.8-0.4-19.5,11.2-19.5,11.2C245,643.8,60.4,822.4,60.4,822.4l-8,7.6c-3.2,4-15.9,7.2-15.9,7.2c-17.8-0.1-31.9,9.6-31.9,9.6
	c-6.8,7.6,4.8,4,4.8,4c5.2-3.2,14-5.2,14-5.2c0,4.8,13.6-0.4,13.6-0.4c2.8,2.4,13.2-7.2,13.2-7.2c4.4,1.6,9.2-5.6,9.2-5.6
	c15.7-19.3,94.7-88.6,147.1-134c4.1,2.4,12.5,5.2,28.6,4c0,0,28.7,1.8,33.5,0.3c0,0,30.3-1.9,43.4-7.5c0,0,14.9-1.4,43.9-12.1
	l-6.4,30.1c0,0-8,6.8-15.1,4.4c0,0-6.8,0.8-8.8,2.4c0,0,6.8,0,10.8,2.8c0,0,9.2,0.8,14.4-4.4c0,0,4.4,2,4.8-6.4
	c0,0,2.4-15.2,6.5-31.2c10.8-4.2,23.3-9.6,37.5-16.5l13.8,5.9c18.7,13.6,35.1,4,35.1,4c8.8,0,15.5-10.4,15.5-10.4
	c22.3-13.2,27.5-37.9,27.5-37.9c3.8-2.7,4.7-6.8,4.6-10.5c11.9-7.2,22.5-14.4,29.8-21c-14.2,21.1-9.7,51.4-9.7,51.4
	c2.7,10.8,18.8,5.6,18.8,5.6c27.9-10,43.1-5.6,43.1-5.6c4,0,4.9,5.2,4.9,5.2l-17.2,197.3c-2.4,8.8,2.4,12,2.4,12
	c0.4,7.6,9.2,10.8,9.2,10.8c5.2,2.8,22.3,4.8,22.3,4.8c0.4-4.8-20.3-11.2-20.3-11.2c-7.6-4.4-7.2-14.7-7.2-14.7
	c-1.2-7.6,19.5-191.3,19.5-191.3c4-19.1-0.8-24.3-0.8-24.3c2-4.4-3.2-9.8-3.2-9.8c20.3-12.1,59.3-15.1,59.3-15.1
	c8.6,1.5,14.1,0,14.1,0l0.8,2.1l44,104.4c-1.6,5.6,3.5,10.4,3.5,10.4c4,2.4,13.2,14,13.2,14c6,12.4,10,6.4,10,6.4
	c4.4-3.2,17.5,6.8,12-2c-5.6-8.8-15.1-4-15.1-4c-1.6-3.6-13.2-16.7-13.2-16.7c0.4-6-3.2-9.6-3.2-9.6L671,612.1
	c-5.2-15.1-9.9-12.1-9.9-12.1v-3.8c-7.6-6-110.2,24.7-110.2,24.7l1.9-22.7c1.7-6.1,0.9-9.9-0.5-12.2c4.3-3.1,8.5-8.6,11.4-17.8
	c0,0,4-3.6,5.6-11.2c0,0,6.8-4.8,6.8-12.4c0,0,10-10,11.2-18.7c0,0,6.8-8.4,14.8-24.3c0,0,47.4-75.3,74.1-91.3l4.4-2
	c0,0,2,5.2,5.2,4l0.4,4.8c0,0-4.8,18.7-8.4,52.2c0,0-14.4,96.1-4,103.6c0,0-2.8,5.9,4.8,13.9c0,0-3.2-2.5-6.4,0s-0.4,1.7-0.4,1.7
	l46.2,37.1c0,0,44.2,39.9,49.8,41.1c0,0,5.2,19.9,74.1,10.8c0,0,19.9,2.8,24.7-9.2c0,0,6.4-15.5-8-21.9c0,0-35.9-25.5-61.8-33.1
	c0,0-43.7-20.4-55.3-31.2c0,0-28.4-20.2-41.2-17c0,0-2.1-7.6-3.1-18.3c6.2-1.3,2.9-3.7-0.4-5.3c-0.1-2-0.1-4.1-0.1-6.2
	c7.2-1.4,3.4-4.1,0.2-5.8c0.1-1.9,0.3-3.9,0.6-5.8c6.8-0.7,3.9-2.9,0.7-4.5c0.3-1.7,0.7-3.3,1.2-5c5.5,0,3.6-2.6,1.4-4.5
	c1.1-3.1,2.5-6.2,4.2-9.2c0,0,8,71.4,27.5,66.2c0,0,17.5,17.9,39.5,14.7c0,0,12.1,9.4,33.6,19.1c0,5.8,0.7,13,5.1,6.8
	c0,0,3.2,12.3,8,2.4c0,0,2.8,11.7,7.2,3.9c0,0,3.4,7.5,6.4,2.7c0,0,5.6,5.5,8.8,1.6c0,0,7.1,4.6,9.6,1.4c0,0,6.4,5.9,8.8,1.1
	c0,0,4.5,5,7.6,1.8c0,0,4,5.4,7.2-0.6c0,0,4.8,6.4,8-1.2l0,0c0.2,0,0.4,0,0.6,0c1.3,2.5,4.4,7.2,7.7,0.5c0,0,3.1,7.6,7.4,0.3l0,0
	h1.1l0,0c0,0,2.3,7.3,6.7,0c0,0,4.9,5,9.3,0c5.6,0.5,17,2.3,19.6,9.4c0,0,3.6,2.8,14.4-4c0,0,2.8,4,7.6,0.4c0,0,3.6,4.4,3.2,8.8
	c0,0-2.3,4.8,0,13.2c0,0,31.5,76.9-6.8,88.9c0,0,20.7,1.6,30.7-18.7c0,0,4.8,73.7,26.7,86.9c0,0,6.3,7.6,6.3,11.2
	c0,0,4.9,3.2,5.3-2.4C1021.5,814.8,1015.5,804.5,1009.9,800.5z M262.9,649.4c0,0-0.2,0-0.4,0.1c13.7-11.8,33.5-25.6,33.5-25.6
	c-1,1.9,0.2,3.3,2.5,4.4C283.4,636.6,271,643.9,262.9,649.4z M437.5,662.2l-17.9-7.1c7.9-3.7,17.6-8.3,28-13.5L437.5,662.2z
	 M407.7,572.9l31-69.4c0,0,9.1,25,10.7,49.3C436,559.2,421.9,566,407.7,572.9z M761.2,641.4c0,0,0.4,12.4,6,3.6s2.8,9.2,8.4-0.4
	c0,0,2.4,12.7,6,3.5c0,0,4,9,6.8,3.3c0,0,5.2,7.8,7.6,1.9c0,0,5.6,6.4,6.8,0.5c0,0,3.6,6.7,6,2.5c0,0,6,5.6,8,1.4
	c0,0,4.4,3.9,6.8,1.6c0,0,9.2,1.7,11.6,5.7c0,0-57.4-7.2-63-6.4c0,0-19.5-8-19.1-19.9L761.2,641.4z M747.3,633.9c0,0-1.2,2.8,0,6
	l-33.5-28.3L747.3,633.9z"/>
</svg>
