<?xml version="1.0" encoding="utf-8"?>
<!-- Generator: Adobe Illustrator 22.1.0, SVG Export Plug-In . SVG Version: 6.00 Build 0)  -->
<svg version="1.1" id="Layer_1" xmlns="http://www.w3.org/2000/svg" xmlns:xlink="http://www.w3.org/1999/xlink" x="0px" y="0px"
	 viewBox="0 0 1062 1062" style="enable-background:new 0 0 1062 1062;" xml:space="preserve">
<g id="Слой_2">
	<g>
		<path d="M63.5,498.8c-0.2,1-0.2,1.7-0.5,2.2C63.3,500.3,63.5,499.5,63.5,498.8z"/>
		<path d="M1052.8,464.1c0,0-101.8,42.8-116.3,89.8c0,0-4.4,2-2.9,6.9c1.5,4.9-1.2,14.4-3.4,14.4c-2.2,0.2-2.7,3.2-1,6.4
			c2.2,3.7-1.7,14-2,13.2c0,0-3.2,1.7,0.2,6.1c3.4,4.4,1,21.8-0.7,24.5s-1,6.4,2,8.3c2.9,2,1.5,10.3-0.5,11.7c-2,1.5,4.6,6.9,3.7,12
			c-1,5.4-1.5,4.4-1.5,7.1c0,2.7,2.4,4.2,1,10c-1.7,5.9-3.2,2.4-4.2,5.1c-1.2,2.9,2.4,5.9-1,8.8c-3.4,2.9-4.4-1.5-5.9,1.2
			c-1.2,2.7,2.2,6.1-2.4,9.1c-4.9,2.9-5.1-1.2-8.3,1.2c-3.4,2.4,2.2,4.6-1.7,6.6c-3.7,2.2-5.6-11.3-3.7-14.2
			c2.2-2.9,6.4-4.7,6.1-7.8c0-3.2-5.1-9.1-4.4-12.7c0.7-3.7,3.2-1.2,2.7-5.9c-0.5-4.4-3.4-4.4-4.9-9.3c-1.5-4.9,1-4.2,0.2-7.1
			c-0.7-3.2-2.2-3.9-2.2-6.4s3.2-2,3.2-5.1c0-3.2-8.6-6.4-8.8-11.7c-0.2-5.4,4.4-7.3,3.2-11.7s-7.3-4.4-7.3-9.5s4.7-2.7,4.4-6.4
			c-0.2-3.7-2.2-3.4-2.7-8.8c-0.7-5.6,2.7-6.1,2.4-8.8c0-2.9-1.2-2.2-1-7.3c0.2-5.4,2.2-4.2,2.9-7.1c0.7-2.9-1.5-4.7,0.2-8.1
			c1.7-3.4,3.4-3.9,5.1-7.3c1.7-3.4-1.2-4.4,1-7.3c11.3-18.6,42.3-39.9,51.6-44.8s61.4-33.3,62.2-36.2c1-2.9-26.2,8.6-37.2,11.7
			c-11,3.2-73.2,24.2-94.2,60.9c-1,1.5-2.9,1.5-3.9,3.4c-1,1.7,1.2,4.9-2,10c-3.2,5.1-3.9,3.9-5.9,7.3c-1.7,3.7,2.2,5.9,0.7,10.3
			c-1.5,4.2-5.1,2.9-5.6,6.9c-0.2,4.2,2.9,4.9,2.2,9.8c-0.7,5.1-2.4,2.7-2.7,6.1c-0.2,3.7,2,4.2,1.7,7.1c-0.2,2.9-4.6,2.2-4.2,5.1
			c0.2,2.9,5.4,8.3,6.1,14c0.7,5.6-2.9,5.9-2.4,9.5c0.5,3.7,3.7,2.4,4.2,7.6c0.7,5.4-2.9,5.1-2,8.8c1,3.7,3.4,4.7,4.9,8.3
			c1.5,3.7-2.7,3.9-2.2,7.6c0.5,3.7,2.7,4.9,2.7,7.6c0,2.9-3.4,1.7-2.9,4.9s4.2,4.6,3.7,8.8s-3.2,3.7-4.4,7.1
			c-1.2,3.4,1,3.9-0.2,6.6c-1.2,2.7-2,2-4.4,5.4s-1,5.6-2.7,7.6s-5.4,0.2-7.3,2.4c-2,2.2,0.2,4.2-2,6.4c-2.2,2.4-6.4-0.5-11,4.4l0,0
			c-5.9-8.1-12.2-16.6-18.8-25c35.7-40.1,12.5-88.9-4.4-88.9c-7.8,0-11.5,3.7-14,9.1c-14.2,33.5-28.4,20.3-40.9-13.5
			c-39.2-98.4-111.1-310.4-143.2-356.4c-21.1-30.4-27.9-40.1-72.9-66.8s-41.9-9.3-87.1-32.3c-60.7-30.4-81.5-36-131.4-41.4
			c-49.9-5.4-48.7,6.9-86.7,6.9c-37.9,0-29.9-2.9-61.4,8.8c-31.6,11.7-56.5,26.9-70.5,36.2c-13.7,9.4-33.3,21.4-33.3,21.4
			c-32.6,18.4-38.7,32.1-37,50.9c0,0,0.7,4.9,2,12.5c-5.9,16.9-13.5,43.1-13,63.6c0.7,33,2,81.5,7.1,127.5s-3.9,62.9-16.9,80.8
			s-9.8,38.2-9.8,38.2s7.1-25.9,14.4-28.6c0,0.2-1.2,6.4,0.5,14.4c0.2-2.9,5.6-16.9,9.5-24.2c0.5,0,3.9,11.3,0.5,19.1
			c2.7-4.9,10-21.8,9.5-29.6c1,6.1,4.7,7.6,3.7,14.2c1.5-7.3,6.4-25,4.2-31.6c3.9,7.8,6.6,10.5,6.1,14.4c1.5-8.1,1.2-30.1-2.4-35
			c5.9,4.4,8.3,9.5,8.3,9.5l-5.9-24l6.6,3.2l-7.3-17.4c0,0-7.3-62.4-4.9-116.3c0.7,6.1,1,10.8,1,13.2c-0.5,13.5,21.5,58,30.1,94.5
			c8.6,36.7-37.2,119.2-45,132.4S23.1,583.5,29,594c11.3,17.1,7.6,207.3,7.6,206.8c-21.8,29.9-2.9,50.4,0.5,55.6
			c3.4,5.1-2.2,30.6,0.5,35.5s12.5,14,16.6,22.5c4.2,8.8-6.6,26.2-0.7,34.5s47.2,2.9,48.2-1c0-10.5-21.5-49-23.7-60
			c-2-11-7.6-40.6-8.1-72.2c-0.5-31.3,14-191.4,15.4-211.2c1.5-20.1,75.6-131.7,75.6-131.7c13-6.9,28.4-39.9,30.8-50.7
			c25.2,16.4,19.1,64.9,17.6,89.1c-1.2,24.5-31.3,101.3-36.2,110.9c-4.9,9.5,8.6,37.5,18.1,45.5c9.5,8.1,75.9,155.2,71.5,164.5
			c-4.4,9.3,0.7,36.7,6.4,37.5c5.6,0.5,15.4,13.7,19.8,25.7s0.7,17.1,22,25.2c21.3,8.1,12.2,22.5,19.6,32.6
			c7.3,10,44.8,4.4,44.8,4.4c-0.2-6.1-10.5-16.4-10.5-16.4c-3.4-16.2-21.5-35-31.6-43.6c-2.4-10.3-16.4-36.5-16.4-36.5
			c-9.3-12.2-63.9-161.3-66.1-186.5c-1.7-17.6,0.5-64.4,5.6-77.8c4.9-13.2,62.2-166,61.7-168.9c8.1,3.9,39.7-2.2,46,0.7
			c6.4,3.2,38.9,16.4,50.4,25.9c11.5,9.3,23,76.6,23,76.6c-1,4.2-8.3,65.4-10.5,80c-2.2,14.7-9.1,39.2-8.3,51.9
			c0.7,12.7-13.2,73.9-16.4,97.4c-3.2,23.5-19.6,95.2-24,112.6c-4.2,17.4,7.8,17.9,15.9,36c7.8,18.4-6.1,35.2-1.2,46
			s49.2,3.4,49.2,3.4s-5.6-14.2-10.8-21.5c2.9-12.5-9.5-28.9-13.7-49c-2.7-7.3,2.7-19.8-1.2-35.2c-0.2-5.4,23-157.6,30.4-169.6
			c7.3-12,22.8-54.8,21.3-60c11.7,23.3,28.9,154.5,28.9,154.5c8.1,38.2,4.9,80.5,3.7,94s9.3,12.2,19.6,23.5
			c10.3,11.3-2.7,32.6-0.2,42.8c8.8,14.2,48.5,4.9,48.5,4.9s-9.1-19.6-9.5-18.6c4.2-23.5-1.5-29.1-11.8-38.7
			c-10.3-9.8-11.7-37.9-17.1-49.9c-5.4-12-14.9-132.7-15.4-142.2c-0.5-9.3,8.3-54.1,1.7-69.3c-6.9-15.4-18.1-99.9-17.6-103.1
			s12-19.1,12-19.1s3.2,4.2,21.5,11.3c18.6,7.1,26.2,0,30.1-0.2c4.2-0.2,16.4,0.5,18.8-2.7c10.3-15.2,16.2,15.2,30.8,30.4
			c14.7,15.2,49.4,80.5,49.4,80.5c11.8,15.9,27.2,63.9,30.1,75.4s-1.7,25.9,1.5,30.4c3.2,4.2,9.8,24,8.6,36.2
			c-4.9,46.3,26.9,114.3,22,144.4c-5.1,30.1,22.3,38.4,22.3,38.4c5.4,0,11-12,12-19.3c-0.2,27.7,25.5,19.6,26.4,17.1
			c5.6,2.7,12.2-2.9,11.7-7.8c-0.7-4.7,23.6-111.7,34.6-120.2c11-8.6,17.9-19.1,19.8-27.2c1.7-7.6,14.2-20.3,16.2-28.6
			c0.2,0,0.5,0,0.7,0c5.9-2,3.2-4.6,9.5-4.6c6.4,0,1.2-3.2,6.9-5.9c5.6-2.7,4.9-3.2,8.3-3.4c3.4-0.2,2.4-5.6,7.6-7.8
			c5.1-2.2,5.4,0.2,9.3-4.9c3.9-4.9,7.3-3.2,9.5-3.7c2-0.5,0.2-3.2,3.7-6.1c3.4-2.9,12.5-3.9,14.2-5.6c1.7-1.7-0.5-5.9,2.4-9.1
			c2.9-3.2,12.5-3.4,14.4-6.6c2-3.2-2.9-8.6-1.5-12c1.5-3.4,10.8-8.3,10.5-10.8c0-2.7-4.9-6.6-5.1-10.8c-0.2-4.2,5.9-7.8,5.4-10.8
			c-0.5-3.2-8.3-9.5-8.8-13.5c-0.5-3.9,4.9-9.5,4.4-12.2c-0.2-2.7-7.6-7.3-8.1-11.3c-0.7-3.9,4.6-8.3,4.4-12
			c-0.2-3.4-4.9-6.6-4.6-9.8c0-2.9,3.2-4.6,3.7-8.1c0.5-3.4-4.4-8.6-3.7-11.5c0.7-2.9,4.9-3.9,5.4-6.6s-2.7-6.1-1.2-10
			c1.5-3.9,3.9-3.7,4.9-6.4c1.2-2.7,0.7-5.4,1.2-7.8c0.2-1,12.7-21.5,31.8-37.5C1021.1,488.3,1053.9,467.2,1052.8,464.1z"/>
	</g>
</g>
</svg>
