<?xml version="1.0" encoding="utf-8"?>
<!-- Generator: Adobe Illustrator 22.1.0, SVG Export Plug-In . SVG Version: 6.00 Build 0)  -->
<svg version="1.1" id="Слой_2" xmlns="http://www.w3.org/2000/svg" xmlns:xlink="http://www.w3.org/1999/xlink" x="0px" y="0px"
	 viewBox="0 0 1590 1590" style="enable-background:new 0 0 1590 1590;" xml:space="preserve">
<path d="M1567.3,851.7c14.3-23.9,28-94.3,10.2-144.2s-33-88.2-70.6-133.6c-37.6-45.4-116.7-82.9-172-109.7
	c-55.3-26.8-85.9-30.7-172.5-30.7S954.4,445,893,448.1s-185.8-6.1-242.6,4.6c0,0-97.5,22.3-111.3,26.9c-13.8,4.6-24.5,10.7-33,16.8
	s-13-3.8-31.5,3c-18.4,6.9-39.1,20-59.1,30.7S328,582.3,300.4,593c-27.7,10.7-59.9,27.7-74.5,39.9c-14.6,12.3-15.4,22.3-40.5,39.9
	c-0.7-2.5-1.2-4.8-1.7-6.8c-1.6-6.9-12.3-8.5-18.4,0c-3.6,4.9-7.2,20.9-10.1,36.7c-4.5,6.1-8.5,11.8-13.8,17.1
	c-13,13-18.4,29.9-24.5,37.6s-5.4,6.9-25.3,18.4s-16.8,23.8-15.4,36c1.6,12.3,18.4,35.2,18.4,35.2s-39.1,78.3-43.7,95.1
	s-16.8,33-22.3,43.7c-5.4,10.7-9.9,8.5-19.2,17.6c-9.3,9.3-7.7,22.3-3.8,39.1c3.9,16.8,6.9,23.8,19.2,37.6
	c12.3,13.8,19.2,26.9,50.6,42.3c31.4,15.4,39.1,5.4,67.6,0s50-40.7,59.1-50.6c9.3-9.9,14.6-2.3,23.9-13.8
	c9.3-11.5,30.7-33.8,42.3-39.9c11.6-6.1,33.8-6.1,44.5-9.3c10.7-3,20.7-16.8,20.7-16.8s31.5-2.3,46.8-16.8
	c15.2-14.6,20.7-24.5,20.7-24.5s12.3,8.5,31.5,1.6s22.3-36,22.3-36s3,7.7,9.9,10.7s13,0.8,13,0.8s0.5,0.1,1.3,0.5
	c-1.6,21.6-4.5,48.9-6,57.1c-2.3,12.3-8.5,15.4-9.3,24.5c-0.8,9.3-3,30.7-11.5,42.9c-8.5,12.3-48.4,42.3-71.4,51.4
	c-23.1,9.3-27.7,22.3-26.9,30.7s13,9.9,18.4,6.9s-5.4,9.9,9.9,11.5c15.4,1.6,44.5,0,44.5,0s3,9.9,24.5,6.9s33.8-4.6,42.3-13.8
	c8.5-9.3,24.5-42.3,34.6-60.7c9.9-18.4,6.9-13,23.9-34.6c16.8-21.5,33.8-65.2,42.3-82.2c8.5-16.8,10.7-9.3,16.8-8.5
	s33,23.8,39.1,29.9c6.1,6.1,19.2,23.8,23.9,35.2c4.6,11.5,2.3,30.7,0,39.9c-2.3,9.3-11.5,11.5-21.5,13.8c-10,2.3-23.9,4.6-29.9,17.6
	c-6.1,13-3.8,17.6-3.8,17.6s0,4.6,13,6.9s19.2-0.8,19.2-0.8s-6.9,4.9,7.7,9.7c14.6,4.9,42.9,7.4,53,0c9.9-7.4,8.5,3.3,20-5.8
	c11.5-9.3,15.4-26.9,15.4-42.9s-6.1-9.9-5.4-27.7c0.8-17.6,9.3-23.8,5.4-39.9c-2-8.6-1.9-17.9-5.2-29.7c28.5,3.7,47.8,8.1,85.1,23.6
	c50,20.7,167.3,32.2,238.8,22.3c31.9-4.5,69.4-12.6,108-22.5c-8.2,13.4-18,28.9-23.6,36.4c-8.5,11.5-13.8,20.7-28.4,24.5
	c-14.6,3.8-21.5-3-28.4,0s-20.7,14.6-22.3,20c-1.6,5.4,6.1,8.5,6.1,8.5s-2.3,8.5,6.1,10.7c8.3,2.3,44.4,3.8,44.4,3.8
	s5.4,13.8,22.4,11.5c16.8-2.3,29.2-8.5,39.9-12.3c10.7-3.8,15.4,3.8,21.5-4.6c6.1-8.5,12.3-26.1,27.7-41.5
	c15.4-15.4,33-16.2,50-44.5c11.8-19.9,23.2-40.8,30.1-55.8c17-5.6,28.1-9.4,35.6-11.9c7.9,3.3,16.6,6.8,24.8,8.6
	c23.8,5.4,36.8,13,42.9,15.4s13.8,16.8,19.2,30.7c5.4,13.8,7.7,34.6,6.9,45.3c-0.8,10.7,0.1,24.5,0.1,24.5s-8.6,10.7-21.6,16.8
	s-15.4,14.6-14.6,18.4c0.8,3.8-7.7,20.7,1.6,21.5c9.3,0.8,29.2,0,29.2,0s-1.6,12.3,12.3,11.5c13.9-0.8,46.1-6.1,46.1-6.1
	s3.8,10.9,13.8,6.2c10-4.7,18.4-20,17.6-29.2c-0.8-9.3-4.6-28.4-3.8-30.7c0.8-2.3,0.1-6.1,3.8-18.4c3.8-12.3,4.6-55.3,0-83.6
	s1.1-29.1-2.9-46.8c-1.7-7.4-4.4-17.2-7-26C1543.8,891.6,1557.9,867.5,1567.3,851.7z"/>
</svg>
