<?xml version="1.0" encoding="utf-8"?>
<!-- Generator: Adobe Illustrator 22.1.0, SVG Export Plug-In . SVG Version: 6.00 Build 0)  -->
<svg version="1.1" id="Layer_1" xmlns="http://www.w3.org/2000/svg" xmlns:xlink="http://www.w3.org/1999/xlink" x="0px" y="0px"
	 viewBox="0 0 1023 1023" style="enable-background:new 0 0 1023 1023;" xml:space="preserve">
<title>african-lion</title>
<path d="M1020.4,717.4c-2.7-52.3-42.3-57.7-42.3-57.7c-45.9-7.2-54.1-112.6-54.1-112.6C914.1,432.7,890.7,403,890.7,403
	c-19.8-37.8-112.6-63.1-112.6-63.1c-32.4-18-94.6-15.3-94.6-15.3c-37.8,0-126.1-4.5-126.1-4.5c-44.1,0.9-125.2,6.5-125.2,6.5
	c-35.1,2.7-41.4-15.5-41.4-15.5c32.4,11.7,40.5,1.8,40.5,1.8c-9,2.7-21.1-5.4-21.1-5.4c-16.6-17.1-77.1-30.6-77.1-30.6
	c20.7,0.9,27-9.9,27-9.9c-14.4,8.8-58-5.2-67.5-8.4c9.6,2.1,27-10.5,27-10.5c-22.5,12.6-71.2-10.8-71.2-10.8
	c10.8-7.2,23.4-4.5,23.4-4.5c-13.5-13.5-56.2-8-56.2-8c4.5-9.9,13.9-4.6,13.9-4.6c-25.4-17.2-66.8,0.8-66.8,0.8s-19.6-10.6-41.8-3.7
	c0,0,16.6,2.9,13.3,13.8c0,0-40.1-16.9-51.2,10.8c0,0,16.7-9.9,16.7,9.9c0,0-21.1,0-27.8,22.7c0,0,7.8-6.9,12.2-5
	c0,0-44.5,28.7-46.7,50.4c0,0,8.9-14.8,25.6-14.8c0,0-12.2,11.9-11.1,28.7c0,0-8.9,14.8-4.4,19.8c0,0-26.7,30.7-28.9,40.6
	c0,0-21.7,29.7-16.1,39.6l10.6,8.9c0,0,5.6,21.4,21.1,24c0,0,0,23.4,25.6,25.4l-5.6-5.2c0,0,12.2,4,20,0.3l-8.4-2.5
	c0,0,16-6.5,18.9-13.4c0,0,18.4,1.6,21.7-9.6c0,0,25.6,38.3,17.8,54.1c0,0,7.8-10.9,6.7-20.8c0,0,13.3,29.7,3.3,44.5
	c0,0,12.2-12.9,12.2-24.7c0,0,11,43.1,2.9,53c0,0,11.7-15.3,12.6-20.7c0,0,2.7,28.8,16.2,39.6c0,0-5.4-8.1,0-13.5
	c0,0,0.9,14.4,8.1,20.7c0,0,0-9,7.2-12.6c0,0-20.7,80.2-24.3,87.4c0,0-20.7,47.8-22.5,63.1c0,0-6.3,11.7-9,17.1l-18,23.5
	c0,0-23.4-10.9-37.8,13.4c0,0-9.9,13.5,2.7,9c0,0,2.7,16.2,26.1,11.7l35.1,0.8c0,0,18.9-8,22.5-28.7c0,0,8.1-15.3,14.4-14.4
	c0,0,8.1,8.1,10.8-14.4c0,0,25.2-53.2,38.7-64.9c0,0,35.1-45,39.6-69.4c0,0,2.7,15.3,17.1,23.4c0,0-14.4-14.4-4.5-28.8
	c0,0-4.1,11.2,9,20.7c0,0,0.7-27.3,2.7-31.5c0,0,18,26.1,9,37.8c0,0,17.1-9,17.1-56.8c0,0,9,21.6,7.2,32.4c0,0,9-14.4,7.2-28.8
	c0,0,11.7,7.2,9.9,24.3c0,0,11.7-18,8.1-29.7c0,0,12.6,25.2,11.7,44.1c0,0,4.5,31.5,12.6,48.7c3.1,11.8,5,23.8,5.6,36
	c0,0-1.1,30.6,7,38.7c0,0,4.5,35.1-10.8,38.7c0,0-29.7,0.9-33.3,29.7c0,0,2.7,5.4,5.4,0c0,0,5.4,12.6,30.6,7.2c0,0,9,9,38.7,1.3
	c0,0,17.1-16.7,15.3-32.9c0,0-0.9-27,7.2-26.1c0,0,9-3.6,0-27c0,0-8.7-49.6,1.8-71.2c0,0,5.8-56.8,0-71.2l9.8-2.5l-6.4-5
	c6.4,5,18.5-0.7,18.5-0.7c-7.8,0.7-12.8-7.1-12.8-7.1c7.1,5,18.5,1.4,18.5,1.4c-5.6-0.1-11-2.4-15-6.4
	c69.1,12.8,121.9-15.7,121.9-15.7c27.1-21.4,65.6-34.9,65.6-34.9c23.5-0.7,37.8,32.8,37.8,32.8c7.8,35.6,49.9,67,49.9,67
	c0.7,15,15.8,38.8,15.8,38.8c24.1,30.4,24.1,63.2,24.1,63.2c-3.6,28.5-19.2,54.2-19.2,54.2c-4.3,6.4-28.5,3.6-28.5,3.6
	c-17.8,2.1-20,18.5-20,18.5c-5.7,7.8,1.3,7.4,1.3,7.4c7.2,15.3,24.3,6.3,24.3,6.3c9.9,9,32.4,2.7,32.4,2.7c9,0.9,18-12.6,18-12.6
	c11-20.6,31.4-50.2,39.6-61.8c2.9,14.1,4.1,28.4,3.8,42.8c-1.2,7.9-21.5,17-21.5,17c-16.3,10.5-11,26.4-11,26.4c-2,9.9,4.6,6,4.6,6
	c13.9,10.4,21.9-0.4,21.9-0.4c13.7,3.4,37.1-6.4,37.1-6.4c9.1-3.5,11.8-25.7,11.8-25.7c1.8-30.4,3.8-86.3,3.8-86.3l2-22.4
	c17.1-57.7-9.2-56.8-9.2-56.8c-25.2-5.4-38.7-49.6-38.7-49.6c-10.6-20.4,19.1-85.3,19.1-85.3c18.9-8.1,17.1-42.3,17.1-42.3
	c-0.9-12.6,5.4-19.8,5.4-19.8c20.7,17.1,31.5,106.3,31.5,106.3c14.4,96.4,64.9,123.4,64.9,123.4c2.7,50.5,38.7,70.3,38.7,70.3
	c-7.5-4.6-7.2-27-7.2-27c21.6,7.2,13.5,38.7,13.5,38.7c19.8-21.6,0.9-51.4,0.9-51.4C1015.9,703.9,1020.4,717.4,1020.4,717.4z"/>
</svg>
