<?xml version="1.0" encoding="utf-8"?>
<!-- Generator: Adobe Illustrator 15.1.0, SVG Export Plug-In . SVG Version: 6.00 Build 0)  -->
<!DOCTYPE svg PUBLIC "-//W3C//DTD SVG 1.1//EN" "http://www.w3.org/Graphics/SVG/1.1/DTD/svg11.dtd">
<svg version="1.1" id="Layer_1" xmlns="http://www.w3.org/2000/svg" xmlns:xlink="http://www.w3.org/1999/xlink" x="0px" y="0px"
	 width="599.788px" height="589.028px" viewBox="0 0 599.788 589.028" enable-background="new 0 0 599.788 589.028"
	 xml:space="preserve">
<path fill="#FFFFFF" d="M244.119,300.467c4.519,0,8.446,5.805,11.707,11.091c0,0,7.923,6.675,12.528,6.675
	c4.518,0,3.937-7.194,7.838-12.426c0,0-0.547-4.826,1.219-13.88c0,0-2.512-4.12-3.32-9.034c-0.808-4.914-2.691-12.425-2.691-12.425
	s-2.189-4.559-3.422-12.684c-1.232-8.125,0.921-12.282,4.279-12.282c2.978,0,5.546,5.398,6.439,10.413
	c1.412,7.926,1.826,10.638,1.826,10.638s3.426,10.085,4.588,13.5c1.112,3.267,1.507,10.91,5.835,10.455
	c4.328-0.455,2.259-7.394,2.772-11.193c0.514-3.799,1.129-10.68,1.129-10.68s0.21-9.207,0.518-14.547
	c0.311-5.394,0.749-7.426,0.749-7.426s0.21-2.488,0.324-6.198c0.098-3.215,3.031-6.435,6.009-6.435c2.979,0,4.04,4.45,3.731,7.12
	c-0.308,2.67-0.62,5.442-0.62,5.442s0.072,5.523,0.072,10.098c0,4.569-0.514,12.049-0.514,12.049s0.825,8.831,0.516,12.733
	c-0.311,3.902,0.306,7.692,3.694,7.491c3.39-0.2,6.043-5.751,7.326-11.256c1.188-5.101,3.492-9.93,3.492-9.93
	s1.011-4.44,1.642-7.596c0.685-3.423,2.752-6.504,2.752-6.504s0.211-1.568,0.809-3.56c0.788-2.631,1.923-5.477,5.887-5.477
	c2.474,0,2.612,4.944,2.224,7.451c-0.378,2.437-1.676,4.871-1.676,4.871s-0.411,2.67-1.605,6.873
	c-1.043,3.669-3.118,8.736-3.118,8.736s-0.727,6.843-2.316,11.621c-1.38,4.145-4.516,13.503-0.203,15.043
	c4.312,1.541,7.934-2.923,11.282-5.442c3.586-2.698,5.714-3.658,5.714-3.658s1.337-0.929,3.802-3.188
	c2.465-2.259,4.604-3.628,4.604-3.628s1.169-2.844,4.416-4.21c3.379-1.422,5.34-2.002,6.675,0.154
	c1.335,2.156-0.455,4.415-2.876,6.675c-1.949,1.82-3.132,3.024-3.132,3.024s-1.324,2.271-2.978,4.215
	c-1.518,1.784-4.076,3.219-4.076,3.219s-3.773,4.465-5.987,6.091c-2.416,1.775-8.599,9.558-10.611,15.198
	c-2.012,5.641-5.511,8.66-5.408,12.459c0.103,3.8-4.929,25.262-19.407,24.851c-14.479-0.411-13.945-7.599-20.435-7.599
	c-9.447,0-17.046-2.875-24.748-14.479c-4.444-6.695-4.509-11.938-8.728-13.657c-4.219-1.72-10.954-4.792-12.597-7.872
	c-1.577-2.958-2.556-5.574-0.833-8.195C240.936,300.569,244.119,300.467,244.119,300.467z"/>
</svg>
