<?xml version="1.0" encoding="utf-8"?>
<!-- Generator: Adobe Illustrator 22.1.0, SVG Export Plug-In . SVG Version: 6.00 Build 0)  -->
<svg version="1.1" id="Слой_1" xmlns="http://www.w3.org/2000/svg" xmlns:xlink="http://www.w3.org/1999/xlink" x="0px" y="0px"
	 viewBox="0 0 1024 1024" style="enable-background:new 0 0 1024 1024;" xml:space="preserve">
<path d="M628.4,848.1c0,0,29.7,4.9,52,0.5l-2.6-9.3h7.9l-15.9-20c0-6.2-11.5-10.9-11.5-10.9c-15-4.4-23.8-20.4-23.8-20.4
	c1.8-5.3-3.5-24.7-3.5-24.7c-1.8-4.4,1.8-52.9,1.8-52.9c-1.8-24.7,21.1-44.1,21.1-44.1c8.8,10.6,16.7-8.8,16.7-8.8
	c7.9,10.6,15.9-4.4,15.9-4.4c1.8,20.3,8.8,0.9,8.8,0.9c2.6,4.4,10.6-9.7,10.6-9.7c8.8,11.5,24.7-11.5,24.7-11.5
	c2.6,3.5,15-9.7,15-9.7c7.9,11.5,19.4-4.4,19.4-4.4c3.5,6.2,10.6-2.6,10.6-2.6c8.8,13.2,21.1-9.7,21.1-9.7c7,7,9.7-6.2,9.7-6.2
	c1.8,13.2,6.2,5.3,6.2,5.3c0.9-9.7,10.6-11.5,10.6-11.5c1.8,7,10.6,7.9,10.6,7.9c16.7,32.6,23.8,32.6,23.8,32.6l3.5,15
	c7.1,40.5,20.3,26.4,20.3,26.4c6.2,6.2,28.2-31.7,28.2-31.7c8.8,6.2,22.7-41.4,22.7-41.4c0.9-4.4,14.3-4.4,14.3-4.4s0,0,0.9-3.5
	s8.8-3.5,8.8-3.5c39.7-7.9,33.5-28.2,33.5-28.2c0-15.9,6.2-18.5,6.2-18.5c12.3-10.6,9.7-47.6,9.7-47.6c-13-35.2,13-60.8,13-60.8
	c-6.4-5.3,0-26.4,0-26.4c5-33.5-32.4-62.6-32.4-62.6c-2.6-5.3,7.9-2.6,7.9-2.6c-7.1-17.6-33.5-37-33.5-37
	c-6.2-18.5-20.3-30.8-20.3-30.8c-13.2-26.4-60.8-14.1-60.8-14.1c-17.6,7-24.7,1.8-24.7,1.8c-23.8,15-19.4,6.2-19.4,6.2
	c-15.9-1.8-37.9,19.2-37.9,19.2c-10.6,13-15.9-8.6-15.9-8.6c-9.7-41.4-24.7-37.9-43.2-50.2s-37.9-15.9-37.9-15.9
	c-17.6-15.9-71.8-25.1-71.8-25.1c-23.4-8.2-46.8-4.7-46.8-4.7c-39.8-14-104.2,0-104.2,0c-62,1.2-158,39.3-158,39.3l-124.1,0.5
	c-31.6-3.5-50.3,12.9-50.3,12.9c-8.2,10.5-45.7,30.4-45.7,30.4c-22.2,3.5-49.2,29.2-49.2,29.2c-33.9,12.9-35.2,60.3-35.2,60.3
	C14,401.7,13,400.3,13,400.3l-4.3,26.4C-3.4,444.3,1,457.5,1,457.5c-4.4,31.7,7,41.4,7,41.4c1.8-19.4,5.2,4.4,5.2,4.4
	c8.1-12.3,9.8-1.8,9.8-1.8c22.9-21.1,11.5-87.2,11.5-87.2c-5.3-37.9,3.5-45.8,3.5-45.8c-5.3,26.4,42.3,150.7,42.3,150.7
	c13.2,50.2-22.9,87.2-22.9,87.2c-13.2,7.1-0.9,37.9-0.9,37.9c-2.6,9.7,9.7,57.3,9.7,57.3c4.4,16.7,6.1,91.6,6.1,91.6
	c-5.3,23.8,4.6,18.5,4.6,18.5c3.5-5.3,6.7-6.4,6.7-6.4v20.5l9.8,7.9c0,0,19,5,43.2,1.8l1.8-5.3l9.7-1.8l-11.4-22
	c-4.4-5.3-21.1-19.4-21.1-19.4c-17.6-36.1-8.8-116.3-8.8-116.3l15-32.6c3.5-9.7,7.9-9.7,7.9-9.7c0,15,37.9,82.8,37.9,82.8
	c15,29.1,17.6,74,17.6,74c-3.5,29.1,10.6,13.2,10.6,13.2c4.4-5.3,11.5,0,11.5,0l1.8,8.8l7,7c5.3,1.8,47.6-1.8,47.6-1.8l-4.4-14.1
	l-8.8-9.7c0-14.1-16.7-16.7-16.7-16.7c-2.6-8.8-15-24.7-21.1-36.1s-22.9-65.2-22.9-65.2c-11.5-30.8,1.8-44.9,1.8-44.9
	c8.8-5.3,29.1-79.3,29.1-79.3c4.4-28.2,11.5-23.8,11.5-23.8c22,35.2,74,74.9,74,74.9c27.3,32.6,34.4,14.1,34.4,14.1
	c0.9-14.1,32.6-12.3,32.6-12.3c28.2,7.9,83.7,7.9,83.7,7.9c43.2,0,30.8,7.9,30.8,7.9c-9.7,15.9-0.9,41.4-0.9,41.4
	c-8.8,27.3-4.4,32.6-4.4,32.6c-7.9,22.9,0,32.6,0,32.6c2.6,27.3,12.3,19.4,12.3,19.4c-0.1,23.8,12.9,15,12.9,15
	c10.2,22,18.9-5.3,18.9-5.3c2.6,20.3,7.9,19.4,7.9,19.4c7.1,15,11.5-4.4,15,3.5s7.9,6.2,7.9,6.2l2.6,9.7c-7.1,4.4-2.7,14.8-2.7,14.8
	c3.5,4.4,11.5-5.9,11.5-5.9s2-2.7,3.8,12.9c0,0,3.5,8.6,10.4,12.6c0,0,22.2,2.6,26.4-2.4C609,821.8,619.1,847,628.4,848.1z"/>
</svg>
