<?xml version="1.0" encoding="utf-8"?>
<!-- Generator: Adobe Illustrator 22.1.0, SVG Export Plug-In . SVG Version: 6.00 Build 0)  -->
<svg version="1.1" id="Layer_2_1_" xmlns="http://www.w3.org/2000/svg" xmlns:xlink="http://www.w3.org/1999/xlink" x="0px" y="0px"
	 viewBox="0 0 1024 1024" style="enable-background:new 0 0 1024 1024;" xml:space="preserve">
<path d="M916.5,639.2c-4.7-27.2-7.1-45-18.9-68.6c2.4,0,3.6,0,5.9-1.2c-10.7-18.9-22.5-35.5-40.2-47.3c-26-18.9-49.7-37.9-75.7-56.8
	c1.2-1.2,2.4,0,3.6,0c-20.1-20.1-47.3-40.2-74.6-47.3c0,0,2.4,0,2.4-1.2c-5.9-7.1-16.6-10.7-26-11.8c2.4-1.2,3.6-2.4,5.9-3.6
	c-45-20.1-86.4-33.1-136.1-37.9c-46.2-4.7-112.4,13-156.2-5.9c-20.3-9.5-25-34.4-34.5-51c-6-10.6-12.3-21.5-19.6-31.6
	c0-0.1-0.1-0.3-0.1-0.4c6.6-6.6,14.8-14.4,17.4-18.9c11.8-17.8,10.7-37.9,16.6-58s17.8-36.7,23.7-56.8c3.6-16.6,5.9-32,8.3-48.5
	c3.5-23.7,14.2-55.6-3.6-73.4C389.9-4.7,360.4,48.6,345,68.7c-32.5,43.7-62.8,101.1-63,154.3c-4.5-0.2-9-0.2-13.4-0.1
	c-11.8-24.6-14.2-59.5-24.2-84.4c-17.8-45-48.5-78.1-88.8-105.3c-17.8-11.8-53.3-45-58-4.7c-2.4,22.5,17.8,54.4,24.9,73.4
	c11.8,28.4,17.8,59.2,34.3,84c13.4,20.1,29.1,39.4,44,58.6c-12,9-22.3,21.2-29.8,37.3c-10.7,23.7,0,42.6-1.2,66.3
	c-1.2,27.2-20.1,45-11.8,75.7c1.7,5.4,3.9,10.3,6.6,14.7c-9.5,8.5-18.1,17.2-21.9,24.3c-2.4,3.6-2.4,9.5-3.6,14.2
	c0-1.2,1.2-1.2,2.4-1.2c-2.4,5.9-5.9,13-7.1,20.1c2.4-1.2,4.7-2.4,5.9-3.6c-4.7,9.5-9.5,20.1-8.3,30.8c0-1.2,1.2-2.4,2.4-3.6
	c-4.7,15.4-2.4,33.1-1.2,47.3c1.2,0,2.4,0,2.4-1.2c-2.4,14.2-3.6,40.2,5.9,50.9c-2.4,9.5-2.4,21.3,2.4,30.8c1.2-1.2,2.4-2.4,3.6-2.4
	c-1.2,15.4,11.8,39.6,20.1,52.7c2.4,0,1.2-3,3.6-3c3.6,6.3,13.4,24.4,18.9,26.2c1.7,0.6,3-0.4,3.6-3.8c7.4,7.4,25.2,30.2,33.6,32.8
	c2.3,0.7,2.3,0.7,4.3-3.2c9.5,13,20.8,31.7,33.1,40.2c1.2-1.2,1.2-2.4,2.4-3.6c3.8,2.7,7.4,6,11.1,9.2c1.3,43.4-6.7,82.7-27.7,118.6
	c-4.7,10.7-11.8,28.4-20.1,35.5c-8.3,8.3-21.3,5.9-32,11.8c-8.3,3.6-30.8,16.6-30.8,27.2c0,14.2,10.7,5.4,16.6,4.7
	c1-0.1,2.3-1.3,3.5-2.7c-1.3,2.5-1.2,4.5,2.5,7.4c17.8,4.7,44.2-13.5,64.4-12.3c3.7,0.2,7.1,0.6,10.4,1.1c-0.5,0.9-1,1.9-1.4,2.9
	c-8.3,20.1,11.8,16.6,24.9,7.1c-6.6,14.3,22.1,14.3,41,5.3c1.2,18,28.4,2.4,40.2,0c22.4-4.7,23.7-4.7,31.9-27.1
	c21.5,2.2,45.6-0.7,65.1-4.9c1.4-0.3,3.8-0.4,6.8-0.2c-11.9,15.1-18.2,33.8-0.9,44c18.9,11.8,50.9,4.2,72.2-2.9
	c28.4-10.7,53.3-1.9,84-3c33.1-2.4,129.2,14.1,141.5-21.2c1.7-4.9,1.8-16.8,1.1-29.4c0.6-0.4,1.2-0.9,1.8-1.5
	c18.9,17.8,36.4,17.1,59.2,19.8c12.6,1.5,30.8-0.9,35.5-12.7c-3.2-10.4-4.6-40.9-16.4-43.6c5.7-0.2,9.8-4.4,12.9-9.6
	c17.8,4.7,26-23.7,28.4-36.7c3.6-14.2,10.7-26,10.7-42.6c15.4-2.4,21.3-42.6,22.5-54.4c2.4-20.1,2.4-43.8,3.6-62.7
	C929.6,685.4,920.1,662.9,916.5,639.2z M367.4,878.3c-8.3,21.3-16.6,62.7-36.7,75.7c-6.6,4.2-15.5,6-24.7,7.8
	c5.4-16.9,2.2-35.7,9.3-52.8c8.3-21.3,18.9-39.1,20.1-61.5c1.2,2.4,2.4,4.7,3.6,7.1c1.2-8.3,1.2-15.4,2.4-22.5
	c1.2,1.2,1.2,3.6,2.4,4.7c0-4.7,2.4-9.5,2.4-15.4c2.4,1.2,2.4,2.4,3.6,2.4c1.2-3.5,1.7-7.2,2.2-10.9c3.6,4.1,6.9,8.7,12,12.1
	c1.2-4.7,3.6-11.8,3.6-16.6c3.5,5.9,7.1,11.8,11.8,16.6c1.2-1,2.2-2.1,3-3.4C383.9,842.6,377.3,855.5,367.4,878.3z M418.3,913
	c3.2-12.8,6.4-25.6,10.6-38.2c1.2,2.4,2.4,5.9,3.6,8.3c0-4.7,1.2-9.5,1.2-14.2c1.2,3.6,4.7,7.1,4.7,9.5c1.2-4.7,2.4-11.8,3.6-16.6
	c1.2,4.7,3.5,9.5,4.7,13c0-8.3,1.2-15.4,3.5-22.5c1.2,2.4,2.4,5.9,3.6,8.3c1.2-7.1,1.2-15.4,3.6-22.5c1.2,4.7,4.7,9.5,7.1,14.2
	c0-7.1,0-14.2,0-21.3c1.2,3.6,4.7,9.5,5.9,14.2c2.4-7.1,3.5-15.4,3.5-22.5c1.2,2.4,2.4,4.7,2.4,7.1c1.5-8.5,1.8-20.4,0.9-33.1
	c9.6,1.8,24.5,0.5,33.7-2.1c-2.5,7.2-6.2,18.8-6.2,25.2c1.2-2.4,2.4-1.9,3.6-4.3c0,14.2,1.2,22.5,7.1,34.3v-1.2
	c5.9,23.7,56.8,27.2,56.8,48.5C517.8,897.2,469.1,884.8,418.3,913z M849.1,916.2c1.2-0.6,0.9-0.3,0.4,0
	C849.4,916.2,849.2,916.1,849.1,916.2c0.1,0,0.3,0,0.4,0C849,916.5,848.5,916.7,849.1,916.2z"/>
</svg>
