<?xml version="1.0" encoding="utf-8"?>
<!-- Generator: Adobe Illustrator 22.1.0, SVG Export Plug-In . SVG Version: 6.00 Build 0)  -->
<svg version="1.1" id="Слой_2" xmlns="http://www.w3.org/2000/svg" xmlns:xlink="http://www.w3.org/1999/xlink" x="0px" y="0px"
	 viewBox="0 0 1590 1590" style="enable-background:new 0 0 1590 1590;" xml:space="preserve">
<path d="M1453.1,804.7l21.6-5c0,0-43.1-38-92.1-44s-75.3-8.5-75.3-8.5l83.7-50.7c0,0,3.4-7.6-5-11.8c-8.5-4.2-17-7.6-17-7.6
	s16-6,27-9.3c11-3.4,20.3-10.2,20.3-18.5c0-8.5-34.7-112.4-99.8-167.3c-65.1-55-53.3-45.7-53.3-45.7l-0.8-57.5l-24.5-41.5
	l-22.8,63.3c0,0-32.1-18.6-47.3-27c-15.2-8.5-22.9-10.9-22.9-10.9s-52.5,7.6-70.2,17.8c-17.8,10.2-30.5,33.8-30.5,33.8l20.3,38.8
	c0,0,33.1,10.2,61.3,19.5c16.2,5.3,30.9,10.2,36.7,12.7c16,6.8,49,28.8,49,28.8l1.7,11.8l22.8,11.8l6.8-1.7l16.4,14.3v17l-0.3,0.1
	c-13.5-4-31.8-9.1-40.7-11.1c-15.2-3.4-44.8-10.2-44.8-10.2v-5.7h6.8c0,0,3.4,5,9.3,3.4c6-1.7,6-1.7,6-1.7l4.2-5l-6-4.2
	c0,0,1.7-4.2-2.5-4.2s-9.3-0.8-9.3-0.8l3.4-23.7l-24.5-10.2l-17,13.5l-21.1-4.2l11.8-9.3l-8.5-15.2h-15.2l-5.6-6l-24,11.8v4.2
	l-44.8,22.8l7.6,22.8c0,0-86.3-47.3-153-51.5c-66.8-4.2-142.8,22.8-193.6,53.3c-50.8,30.5-80.3,69.3-80.3,69.3s-82.8,17-154.6-11.8
	s-100.6-75.3-104.8-82c-4.2-6.8-15.2-12.7-31.3-14.3c-16-1.7-131.8-16-151.3-17.8c-19.5-1.7-24.5,0-24.5,0v8.5l-7.6-6l-44-2.5
	l22.8,17l-22.4,2.9l-7.6,8.5l22,17l41.5,6l22.8,22l-20.3-6l-40.5-2.5c0,0,4.2,34.7,6.8,38.8c2.5,4.2,16,12.7,16,12.7l-63.3,23.7
	c0,0-13.5-1.7-21.1-1.7s-24.5,3.4-24.5,3.4s-16,14.3,0,17.8c16,3.4,29.5,4.2,29.5,4.2S25.3,711,24,721.2s-8.1,45.7-8.1,45.7l7.6-6
	c0,0,10.2,1.7,15.2-6.8s77.8-118.3,77.8-118.3s151.3-2.5,158.9,1.7s47.3,29.5,55.8,33.8s62.5,5,62.5,5l32.9,16.3l-62.2,68.9
	c-7.7-3.7-14.2-6.9-19.7-9.5L322,712.7l-8.5,2.5l10.3,26.1c-7-3.6-10.9-4.9-10.3-1.6s7.3,15.5,13.5,26.2
	c-24-7.7-49.6-11.8-76.1-11.8C113,754.1,1.3,865.6,1.3,1003.4s111.7,249.4,249.4,249.4c124.8,0,228.2-91.7,246.5-211.3l40.9-7.7
	l-26.2,32.1c0,0,60.8,44,71.8,49.8c11,5.8-11.8,8.5,161.5,10.2c173.3,1.7,336.4-6,336.4-6s-29.5-132.6-20.3-164.7
	s45.7-64.3,61.7-75.3s22-11.8,22-11.8l18.2-5.3c-35.9,41.9-57.5,96.3-57.5,155.7c0,132.2,107.2,239.6,239.6,239.6
	s239.4-107.2,239.4-239.4C1584.7,925.1,1531.2,844.2,1453.1,804.7z M574.4,853.7l18.7-9l5.8,9.9l-0.8,16l-13.5-7.6l-20.3-1.7
	l-2.5,8.5l-17-10.2l24.5-13.5L574.4,853.7z M439.6,699.1l65.5,32.6l-100.2,50.2c-11.3-6-21.1-10.9-29.5-15.1L439.6,699.1z
	 M325.2,1051.7l3.8,14.3l-19.9,4.2C315.1,1064.8,320.7,1058.6,325.2,1051.7z M292,924.9l-1.6-4.4h75.4c-1.1,8-1.9,14.3-1.9,14.3
	l-20.4,9l-29-2.1C307.9,935.1,300.4,929.4,292,924.9z M323.4,952.7c-0.9-1.3-1.9-2.7-2.9-4l10.2,0.8L323.4,952.7z M388.5,1053.3
	l-53.7,11.4l-4.4-16.7L388.5,1053.3z M336,1027.6c0.5-2.1,1.1-4.2,1.6-6.4l0.3-0.3l7.7,8.3L336,1027.6z M339.3,1004
	c0-0.3,0-0.4,0-0.7c0-10.3-1.9-20.4-5-29.5l47.6-20.7l25.7,1.9c0.7,2.1,1.3,4.2,1.9,6.5l-59.1,43.6
	C346.9,1004.6,343,1004.2,339.3,1004z M394.9,947.5l8.9-3.8c0.7,1.6,1.2,3,1.7,4.6L394.9,947.5z M368.2,903
	c-0.4,2.9-0.8,6.1-1.3,9.4l-78.6,2.4l-4-10.9C306.3,903.9,340,903.4,368.2,903z M358.3,879.4c-24.9,0-56.3-0.3-82.9-0.5l-14.2-39.4
	C298.1,841.9,331.9,856.5,358.3,879.4z M284.2,921.3c-0.7-0.3-1.2-0.5-1.9-0.7h1.6L284.2,921.3z M282,914.9l-19.6,0.5
	c-3.8-0.5-7.7-0.8-11.7-0.8c-11.7,0-22.7,2.3-32.9,6.4l12.6-32.3c7.8,6.8,20.7,14.6,39,15c2.4,0,5.3,0.1,8.6,0.1L282,914.9z
	 M250.7,839.3c1.3,0,2.5,0,3.8,0l14.3,39.5c-13.8-0.1-26-0.3-34.6-0.4l15.2-39.2C249.9,839.3,250.3,839.3,250.7,839.3z M242.9,839.4
	l-15.1,39c-4.2,0-6.6-0.1-6.6-0.1s1.5,2.4,4.5,5.7l-15.8,40.7c-7.8,4.1-15.1,9.4-21.3,15.5l-91,4.2
	C120.2,885.3,176.4,842.5,242.9,839.4z M95,951.1l87.2-4.1c-12.6,15.4-20.3,35-20.3,56.4c0,3,0.1,6,0.4,8.9l-69.6-53.9
	C93.4,955.9,94.2,953.5,95,951.1z M86.5,1003.4c0-13.5,1.6-26.8,4.8-39.4l72.3,56c1.5,7.3,3.7,14.3,6.8,20.8l-25.6,87.8
	C109,1098.7,86.5,1053.7,86.5,1003.4z M149.9,1132.9l24.5-84.3c12.3,20.7,32.6,35.8,56.7,41.2l-72.6,49.4
	C155.6,1137.3,152.6,1135.2,149.9,1132.9z M250.7,1167.6c-32.1,0-62-9.1-87.3-25l75.3-51.1c4,0.5,8,0.8,11.9,0.8c3,0,6-0.1,8.9-0.4
	l74.3,53.3C309.5,1159.3,281,1167.6,250.7,1167.6z M338.9,1141.9l-71.6-51.3c1.5-0.3,3-0.7,4.5-0.9l0,0l59.8-13.6l15.9,60.2
	C344.6,1138.1,341.9,1140.1,338.9,1141.9z M352.6,1132.1l-15.2-57.5l67.7-15.4C394.7,1088.1,376.3,1113.3,352.6,1132.1z
	 M410.4,1041.5l-42.9-8.1l46-8.7C412.7,1030.5,411.7,1036,410.4,1041.5z M364.8,1010.2c-0.4-1.6-3.2-2.9-7.2-3.8l53.1-39.2
	c2.7,11.5,4,23.6,4,35.9C396.3,1007.8,366,1014.8,364.8,1010.2z M415.5,787.6c-0.9-0.5-2-1.1-2.9-1.6l107.1-47l15,7.4l32.5,54.7
	l-13.9,8.7l1.7,9.3l-28,14.3l-4.2,12.7c0,0-6-3.4-11-2.5c-5,0.8-11.8,4.2-11.8,4.2S456.1,809.2,415.5,787.6z M462.4,871.6
	c-5.3-8.5-11.1-16.7-17.4-24.4c16.2,9.3,33,21.9,33,21.9S471.8,870.2,462.4,871.6z M484.8,917.2c-0.8-2.3-1.7-4.5-2.6-6.8l33.1-14.4
	l46.5,15.2l0.8,6.8L484.8,917.2z M500.1,1005.4l11-2l-11.3,11.7C499.9,1011.9,500.1,1008.6,500.1,1005.4z M507.6,1030.6l33-31.4
	l33.8,17.8L507.6,1030.6z M603.1,957.7l-20.3-21.1l10.2-11l10.2,6.8v25.3H603.1z M714.7,914.7H675v-13.5c0,0,7.6,3.4,19.9,3.4
	c12.3,0,19.9-10.2,19.9-10.2v20.3H714.7z M769.7,838.6c-7.6,7.6-1.7,23.7-6.8,36.3c-5,12.7-31.3,7.6-31.3,7.6s-5-4.2-11-7.6l8.5-4.2
	c0,0,5-0.8,11.8-6c6.8-5,11.8-14.3,19.5-24.5c7.6-10.2,5-17,5-17l11.8-4.2l5.3,10.2C782.5,829.2,777.4,830.9,769.7,838.6z
	 M938,1059.2l-19.5-24.5l9.3-10.2c0,0,12.7,5,24.5,17c11.8,11.9,33.8,40.5,33.8,43.1L938,1059.2z M1497.6,978.3l-37.6,17.2
	c-1.2-6.2-3-12.2-5.2-18l41.1-5.4C1496.6,974.2,1497.1,976.3,1497.6,978.3z M1373.2,863.4c56,10.1,101.8,49.7,120.6,102.3l-41.2,6.2
	c-14.4-33.3-43.6-58.6-79.4-67.7V863.4z M1391.4,1042.7c2.3-4.2,3.8-8.7,4.8-13.6l40.8-17.9c0.3,2.6,0.4,5.4,0.4,8.2
	c0,24.6-9.5,47-25,63.7L1391.4,1042.7z M1410.5,1104.8c0,2.5-2.1,4.6-4.6,4.6s-4.6-2.1-4.6-4.6s2.1-4.6,4.6-4.6
	C1408.3,1100.2,1410.5,1102.3,1410.5,1104.8z M1386.1,986.6l42.9-5.7c3.6,7.9,6.1,16.6,7.3,25.6l-39.6,18.2c0.3-2,0.4-4,0.4-6
	C1397.2,1006.5,1393.1,995.4,1386.1,986.6z M1438.8,1061.3c2.5,0,4.6,2.1,4.6,4.6s-2.1,4.6-4.6,4.6s-4.6-2.1-4.6-4.6
	C1434.2,1063.5,1436.2,1061.3,1438.8,1061.3z M1440.9,987.8c0-2.5,2.1-4.6,4.6-4.6s4.6,2.1,4.6,4.6s-2.1,4.6-4.6,4.6
	C1443.1,992.4,1440.9,990.3,1440.9,987.8z M1448.1,1016c2.5,0,4.6,2.1,4.6,4.6s-2.1,4.6-4.6,4.6s-4.6-2.1-4.6-4.6
	S1445.4,1016,1448.1,1016z M1427.3,949.3c0,2.5-2.1,4.6-4.6,4.6s-4.6-2.1-4.6-4.6s2.1-4.6,4.6-4.6
	C1425.2,944.6,1427.3,946.7,1427.3,949.3z M1391.1,921.8c0,2.5-2.1,4.6-4.6,4.6s-4.6-2.1-4.6-4.6s2.1-4.6,4.6-4.6
	S1391.1,919.3,1391.1,921.8z M1373.2,955.2v-24.8c23.1,7.7,42.3,24.1,53.4,45.4l-44,6.6c-3.8-4-8.2-7.3-13.1-9.9l-1.9-14
	C1370.8,956.4,1373.2,955.2,1373.2,955.2z M1356.7,967.9c2.1-2.4,4.5-4.6,6.9-6.4l1.3,9C1362.2,969.4,1359.6,968.6,1356.7,967.9
	L1356.7,967.9z M1388.9,1046.9l19.7,39.8c-6.8,6.5-14.6,12.1-23.1,16.3l-30.5-33.4C1369.1,1067,1381.2,1058.6,1388.9,1046.9z
	 M1345.1,1070.6c1.7,0,3.4-0.1,5.2-0.3l30.7,34.7c-11.5,5-24.2,7.8-37.5,7.8c-13.5,0-26.4-2.9-38-8.1l32.5-34.7
	C1340.5,1070.5,1342.8,1070.6,1345.1,1070.6z M1377.5,1121.8c0,2.5-2.1,4.6-4.6,4.6s-4.6-2.1-4.6-4.6s2.1-4.6,4.6-4.6
	S1377.5,1119.1,1377.5,1121.8z M1324.6,1121.8c0,2.5-2.1,4.6-4.6,4.6s-4.6-2.1-4.6-4.6s2.1-4.6,4.6-4.6
	C1322.5,1117.1,1324.6,1119.1,1324.6,1121.8z M1333.7,1069.4l-32.3,33.5c-8.5-4.2-16.2-9.8-22.9-16.3l22-41.3
	C1307.6,1057.2,1319.6,1066.3,1333.7,1069.4z M1241,986.9c0-2.5,2.1-4.6,4.6-4.6s4.6,2.1,4.6,4.6s-2.1,4.6-4.6,4.6
	S1241,989.5,1241,986.9z M1243.9,1030.1c0,2.5-2.1,4.6-4.6,4.6s-4.6-2.1-4.6-4.6s2.1-4.6,4.6-4.6
	C1241.8,1025.4,1243.9,1027.6,1243.9,1030.1z M1251.1,1066c2.5,0,4.6,2.1,4.6,4.6s-2.1,4.6-4.6,4.6s-4.6-2.1-4.6-4.6
	C1246.4,1068.1,1248.5,1066,1251.1,1066z M1249.9,1019.2c0-3.7,0.3-7.4,0.7-11.1l43.5,20.3c0.8,4.2,2.1,8.3,4,12.2l-23.3,42.1
	C1259.3,1066,1249.9,1043.7,1249.9,1019.2z M1281.5,1100.2c2.5,0,4.6,2.1,4.6,4.6s-2.1,4.6-4.6,4.6s-4.6-2.1-4.6-4.6
	S1279,1100.2,1281.5,1100.2z M1303.3,987.8c-6.4,8.6-10.2,19.3-10.2,30.9c0,1.7,0.1,3.6,0.3,5.3l-42.1-20.4c1.5-8.9,4.2-17.2,8-25
	l42.8,6.8C1302.5,986,1302.9,986.9,1303.3,987.8z M1283.9,947c5.6,11.8,11.1,23.5,15.6,33l-37.6-6.6
	C1267.6,963.3,1275.2,954.3,1283.9,947z M1261.7,944.6c0-2.5,2.1-4.6,4.6-4.6s4.6,2.1,4.6,4.6s-2.1,4.6-4.6,4.6
	C1263.8,949.3,1261.7,947.3,1261.7,944.6z M1272.9,923.8c-15.6,11.7-28.4,27-36.8,44.9l-38.2-6.8c11.5-29.9,31.9-55.5,58-73.4
	C1259.7,896.1,1265.9,909.2,1272.9,923.8z M1233.7,974.4c-2.4,5.7-4.2,11.7-5.7,17.8l-34.4-16.7c0.7-2.4,1.3-4.6,2.1-6.9
	L1233.7,974.4z M1171.2,601l-13.5-30.5c0,0,7.6,0,11-4.2s17-3.4,37.2,1.7c10.2,2.5,23.6,7.2,34.4,11.3l-0.7,0.7l-26.2,6.8l-2.5,5
	l-19.5,2.5l-0.8,6.8L1171.2,601L1171.2,601z M1187.5,1018.7c0-13,1.6-25.7,4.5-37.8l34.8,16.3c-1.3,7.2-2.1,14.6-2.1,22.1
	c0,33.9,14.3,64.5,37.1,86.3l-18.7,33.5C1209.2,1110.1,1187.5,1066.9,1187.5,1018.7z M1248.3,1143.1l18-33.8
	c5.3,4.5,11,8.6,17.1,12.2l-26.6,27.6C1253.8,1147.2,1251.1,1145.2,1248.3,1143.1z M1345.1,1176.4c-30.7,0-59.5-8.9-83.9-24.1
	l26.4-28.2c16.7,8.9,35.6,13.9,55.9,13.9c19.7,0,38.4-4.9,54.9-13.4l26.6,29.9C1401.7,1168.4,1374.3,1176.4,1345.1,1176.4z
	 M1429.9,1151.6l-27-29.5c6.1-3.6,11.9-7.6,17.2-12.1l17.9,36C1435.4,1148,1432.7,1149.9,1429.9,1151.6z M1443.1,1142.3l-18.7-35.9
	c23.3-21.7,38-52.6,38-87.1c0-6.4-0.5-12.6-1.5-18.7l38.2-16.8c2.5,11.3,3.8,22.9,3.8,34.8
	C1502.8,1068.8,1479.5,1113.4,1443.1,1142.3z"/>
</svg>
