<?xml version="1.0" encoding="utf-8"?>
<!-- Generator: Adobe Illustrator 22.1.0, SVG Export Plug-In . SVG Version: 6.00 Build 0)  -->
<svg version="1.1" id="Слой_2" xmlns="http://www.w3.org/2000/svg" xmlns:xlink="http://www.w3.org/1999/xlink" x="0px" y="0px"
	 viewBox="0 0 1200 1200" style="enable-background:new 0 0 1200 1200;" xml:space="preserve">
<circle cx="982" cy="790.8" r="32"/>
<ellipse cx="982" cy="747.1" rx="10.1" ry="3.4"/>
<ellipse transform="matrix(0.309 -0.9511 0.9511 0.309 -89.2006 1431.5892)" cx="940.6" cy="777.2" rx="10.1" ry="3.4"/>
<ellipse transform="matrix(0.5879 -0.8089 0.8089 0.5879 -273.9911 1114.0033)" cx="956.4" cy="825.9" rx="3.4" ry="10.1"/>
<ellipse transform="matrix(0.809 -0.5878 0.5878 0.809 -293.0418 749.9615)" cx="1007.5" cy="825.9" rx="10.1" ry="3.4"/>
<ellipse transform="matrix(0.9511 -0.3089 0.3089 0.9511 -190.0434 354.1384)" cx="1023.4" cy="777.3" rx="3.4" ry="10.1"/>
<circle cx="163.9" cy="790.8" r="32"/>
<ellipse cx="163.9" cy="747.1" rx="10.1" ry="3.4"/>
<ellipse transform="matrix(0.309 -0.9511 0.9511 0.309 -654.5254 653.6149)" cx="122.5" cy="777.2" rx="10.1" ry="3.4"/>
<ellipse transform="matrix(0.588 -0.8089 0.8089 0.588 -611.0158 452.2039)" cx="138.4" cy="825.9" rx="3.4" ry="10.1"/>
<ellipse transform="matrix(0.809 -0.5878 0.5878 0.809 -449.2461 269.1762)" cx="189.6" cy="825.9" rx="10.1" ry="3.4"/>
<ellipse transform="matrix(0.9511 -0.3089 0.3089 0.9511 -230.0607 101.4419)" cx="205.3" cy="777.3" rx="3.4" ry="10.1"/>
<path d="M1115.1,498.8l-8.2-1l3.6-5.6l-12.8-43.9l3.1-1.5l0.5-7.7l30.7-22l-3.6-7.7l14.8-11.8l-13.3-19.4l-19.4,13.8l-4.1-0.5
	l-14.8,9.2l-4.1-2.6l-6.1,3.6l-5.6,6.6l-32.2-98.1l-8.2,3.6l17.4,64.9l-31.7,6.1l-8.7,4.6l-17.4,9.7l-3.6-3.1l-7.2,3.1l-2.3,5.1
	l2.8,12.8l4.6-0.5l1,3.1l-29.6,14.3l-3.1-3.6L692.5,535.7l-60.3-142.2h-30.1l1,12.3l1,16.9l5.1,0.5L643.5,602l-16.9,0.5
	c0,0-2-41.4-6.6-68c-4.6-26.6-35.3-118-35.3-118s-50.6-1.5-74.1,0c-23.5,1.5-68.5,3.1-82.3,11.2c-13.8,8.2-58.8,36.3-82.3,56.2
	S273.4,537,273.4,537s-84.3,10.7-119.7,14.8s-91.3,16.4-110.2,25.5c-18.9,9.1-20.9,17.4-20.9,17.4v69c0,0-3.1,3.6-8.2,6.6
	S3.8,682.8,3.8,682.8s1,60.8,3.6,67.7s14.3,10.2,14.3,10.2s5.1,9.4,11.2,14s15.3,2.5,15.3,2.5l-2.6-18.4c0,0,13.8-8.7,18.9-11.7
	c2.2-1.3,6.8-2.1,11.4-2.6c-7.3,13.8-11.4,29.6-11.4,46.3c0,54.9,44.5,99.4,99.4,99.4s99.4-44.5,99.4-99.4c0-9.5-1.3-18.7-3.8-27.3
	l3.8-0.5c0,0,7.2,14.3,9.7,17.9c2.6,3.6,13.3,6.1,27.6,2.6c14.3-3.6,18.4-24.6,18.4-24.6l569.9-3c-4.1,10.9-6.3,22.7-6.3,35
	c0,54.9,44.5,99.4,99.4,99.4c54.9,0,99.4-44.5,99.4-99.4c0-7.4-0.8-14.6-2.4-21.6l2.4,0.4l3.6,21.2c0,0,3.1,11.5,8.2,17.6
	s10.2,14.3,10.2,14.3s1-2.1-1-8.2s4.6-43.4,4.6-43.4l3.1-27.4l-7.2-3.3l33.7-0.5l1-13.3l5.1-0.5v5.1h4.1c0,0,3.6-5.1,5.1-4.6
	c0.6,0.2,2.8-0.9,5.2-2.3l0.5,1.3l6.2-2.4l5.6-2.2l10.2,3.6l14.3-8.2L1115.1,498.8z M163.9,857.5c-36.8,0-66.6-29.8-66.6-66.6
	s29.8-66.6,66.6-66.6s66.6,29.8,66.6,66.6S200.8,857.5,163.9,857.5z M538.2,442.6v105.3c0,0-105.3,4.1-110.9,4.1s-5.6,0-12.8,2.6
	c-7.2,2.6-25,14.3-29.1,15.3s-47,0-47,0l-4.6-56.7c0,0,81.8-61.8,97.1-68.5c15.3-6.7,93-8.7,101.7-7.7
	C541.3,438,538.2,442.6,538.2,442.6z M719.6,599.5l-7.3-17.2l116.1-48.2l-27.8,62.7L719.6,599.5z M814.8,596.4l30.4-62.3l-1-5.6
	l92-33.2l20.9,4.1l11.2,13.8l52.6,84.3l-21.5-7.2L814.8,596.4z M982.3,861.8c-38.6,0-69.9-31.3-69.9-69.9
	c0-38.6,31.3-69.9,69.9-69.9c38.6,0,69.9,31.3,69.9,69.9C1052.2,830.5,1020.9,861.8,982.3,861.8z M1116.6,629.6l-115-166.1l3.6-3.1
	l-7.2-6.6c0,0,18.9-10.2,30.1-14.8c11.2-4.6,9.2-10.2,9.2-10.2l-3.6-11.8l29.6-3.6l1.5,5.1l-26.5,15l-5.1,2.9l0.5,9.7l-10.2,11.2
	l2,11.8l12.8-3.6l2.6,6.6l20.4-8.7l0.5,9.7l3.6,1l4.6,14.8l-4.1,3.1l15.3,42.4l5.6,0.5l35.7,94.3L1116.6,629.6z"/>
</svg>
