<?xml version="1.0" encoding="utf-8"?>
<!-- Generator: Adobe Illustrator 18.0.0, SVG Export Plug-In . SVG Version: 6.00 Build 0)  -->
<!DOCTYPE svg PUBLIC "-//W3C//DTD SVG 1.1//EN" "http://www.w3.org/Graphics/SVG/1.1/DTD/svg11.dtd">
<svg version="1.1" id="Слой_2" xmlns="http://www.w3.org/2000/svg" xmlns:xlink="http://www.w3.org/1999/xlink" x="0px" y="0px"
	 viewBox="0 0 1200 1200" enable-background="new 0 0 1200 1200" xml:space="preserve">
<circle fill="#000000"    cx="266.7" cy="597.1" r="55.7"/>
<path fill="#000000"    d="M1011.8,614.5c-19.3-0.6-35.3,14.6-35.9,33.9
	c-0.6,19.3,14.6,35.3,33.9,35.9c19.3,0.6,35.3-14.6,35.9-33.9C1046.2,631.1,1031.1,615,1011.8,614.5z"/>
<path fill="#000000"    d="M1187.2,649.7c0,0,0.8-3.6-1.7-18
	c-1-5.8-3.2-10.9-5.5-14.9c-0.1-0.6-0.2-1.2-0.3-1.8l3.7-2c0,0,0.1-3.7-5.4-17.2c-2.2-5.5-5.4-10-8.4-13.4c-0.2-0.6-0.5-1.2-0.7-1.7
	l3.2-2.7c0,0-0.7-3.6-8.8-15.8c-3.3-4.9-7.4-8.7-11.1-11.4c-0.3-0.5-0.7-1-1-1.5l2.6-3.4c0,0-1.4-3.4-11.9-13.6
	c-4.3-4.2-9.1-7-13.3-8.9c-0.4-0.4-0.8-0.8-1.3-1.2l1.8-3.8c0,0-2.1-3-14.5-10.8c-5-3.2-10.3-4.9-14.8-5.9c-0.5-0.3-1-0.6-1.6-0.9
	l1-4.1c0,0-0.6-0.5-2.5-1.6l16.9-39.9l1.1-39.6l-17-52.5l-50.2-7.6l-11.6-27.1l-240-19.9l0.6-21.4l-5.3-2.2c0,0-5.7-176.2-4.9-185.9
	c0.8-9.8,7-11.6,9.1-13.1c2.1-1.5,5.2-3.5,7-10.6c1.7-7.2-4.2-13.5-4.2-13.5s-19.2,4.1-27.2,15.2c-8,11.1-7.5,29.1-7.5,29.1
	l1.5,181.2l-32.5,3.7l-0.4,12.3l-65.2-5.4l-38.9-168.9l23.2-1.9l-14.1-46.2L292.8,66.2l-9,7.5l-39.2,0.8L239.5,4l1.3,70.6L202,75.5
	l-1.8,9.7l-7.7-0.2l-3.7-15.5l-5-6.3l-14,3.2l4.9,26.4l11.9-1.7l4.1,2.2l-0.4,13.9l5.8,0.2l-0.8,4.1l80.1,4.9l-64.6,190.1l-17,0
	l0.6-3.1l-0.7-28.3l-40.6-1.2l-6.8,5.5l3.3,28.4l6.2,0.2l-11,25.4l57.6,1.7l-11.3,27l-0.2-0.3c0,0-5.2,0.4-23.3,10
	c-7.4,3.9-13.2,9.1-17.5,13.8c-0.7,0.4-1.5,0.8-2.2,1.2l-4.3-4.1c0,0-5,1.5-20.7,14.6c-6.4,5.4-11.1,11.7-14.3,17.2
	c-0.6,0.5-1.2,1.1-1.8,1.6l-5.1-3.1c0,0-4.5,2.5-17.2,18.6C79.2,437.9,76,445,74,451.2c-0.5,0.7-1,1.3-1.5,2l-5.6-2
	c0,0-3.9,3.4-12.9,21.8c-3.6,7.4-5.3,15-6,21.4c-0.4,0.8-0.8,1.6-1.1,2.4l-5.9-0.8c0,0-3.1,4.1-8.1,24c-2,8-2.1,15.8-1.5,22.2
	c-0.2,0.8-0.4,1.7-0.6,2.5l-5.9,0.4c0,0-2.2,4.7-3,25.2c-0.3,8.4,1.3,16,3.2,22.2c0,0.8,0,1.6,0,2.4l-5.7,1.7c0,0-1.2,5,2.3,25.2
	c1.4,8.2,4.5,15.3,7.7,20.9c0.2,0.8,0.3,1.7,0.5,2.5l-5.2,2.8c0,0-0.1,5.2,7.5,24.2c3.1,7.7,7.6,14,11.8,18.8c0.3,0.8,0.7,1.6,1,2.4
	l-4.5,3.8c0,0,1,5.1,12.4,22.1c4.6,6.9,10.4,12.2,15.6,16c0.5,0.7,1,1.4,1.4,2l-3.7,4.7c0,0,2,4.8,16.7,19c6,5.8,12.8,9.8,18.7,12.4
	c0.6,0.6,1.2,1.1,1.8,1.7l-2.6,5.4c0,0,2.9,4.3,20.3,15.2c7,4.4,14.4,6.9,20.7,8.3c0.7,0.4,1.5,0.9,2.2,1.3l-1.4,5.8
	c0,0,3.8,3.5,23,10.6c7.8,2.8,15.5,3.7,21.9,3.8c0.8,0.3,1.7,0.6,2.5,0.8l-0.2,5.9c0,0,4.4,2.7,24.7,5.6c8.3,1.2,16,0.4,22.4-0.9
	c0.8,0.1,1.6,0.2,2.5,0.3l1.1,5.9c0,0,4.9,1.7,25.3,0.3c8.3-0.6,15.8-2.9,21.7-5.5c0.8-0.1,1.6-0.1,2.5-0.2l2.3,5.5
	c0,0,5.1,0.7,24.8-5c8-2.3,14.7-6.1,19.9-9.8c0.8-0.3,1.7-0.5,2.5-0.8l3.3,4.9c0,0,5.2-0.4,23.3-10c7.4-3.9,13.2-9.1,17.5-13.8
	c0.7-0.4,1.5-0.8,2.2-1.2l4.3,4.1c0,0,5-1.5,20.7-14.6c6.4-5.4,11.1-11.7,14.3-17.2c0.6-0.5,1.2-1.1,1.8-1.6l5.1,3.1
	c0,0,4.5-2.5,17.2-18.6c5.1-6.6,8.4-13.7,10.4-19.8c0.5-0.7,1-1.3,1.5-2l5.6,2c0,0,3.9-3.4,12.9-21.8c3.6-7.4,5.3-15,6-21.4
	c0.4-0.8,0.8-1.6,1.1-2.4l5.9,0.8c0,0,3-3.9,7.8-22.8l18.9-5.3l13.4,0.4l-0.3,9.3l-7.2-0.2l-0.1,5.1l3.6,0.1l5.6,20.2l20,3.7
	l0.6-22.4l21.6,0.6l-3.9-6l-18-0.5l0-9.3l285.7,8.2c0.4,0.9,0.9,1.7,1.3,2.5c0.1,0.6,0.2,1.2,0.3,1.8l-3.7,2c0,0-0.1,3.7,5.4,17.2
	c2.2,5.5,5.4,10,8.4,13.4c0.2,0.6,0.5,1.1,0.7,1.7l-3.2,2.7c0,0,0.7,3.6,8.8,15.8c3.3,4.9,7.4,8.7,11.1,11.4c0.3,0.5,0.7,1,1,1.4
	l-2.6,3.4c0,0,1.4,3.4,11.9,13.6c4.3,4.2,9.1,7,13.3,8.9c0.4,0.4,0.8,0.8,1.3,1.2l-1.8,3.8c0,0,2.1,3,14.5,10.8
	c5,3.1,10.3,4.9,14.8,5.9c0.5,0.3,1,0.6,1.6,0.9l-1,4.1c0,0,2.7,2.5,16.4,7.6c5.5,2,11,2.7,15.6,2.7c0.6,0.2,1.2,0.4,1.8,0.6
	l-0.1,4.2c0,0,3.1,1.9,17.6,4c5.9,0.8,11.4,0.3,15.9-0.6c0.6,0.1,1.2,0.1,1.7,0.2l0.8,4.2c0,0,3.5,1.2,18.1,0.2
	c5.9-0.4,11.2-2.1,15.5-3.9c0.6,0,1.2-0.1,1.8-0.2l1.6,3.9c0,0,3.7,0.5,17.7-3.5c5.7-1.6,10.5-4.3,14.2-7c0.6-0.2,1.2-0.4,1.8-0.6
	l2.4,3.5c0,0,3.7-0.3,16.6-7.1c5.2-2.8,9.4-6.5,12.5-9.9c0.5-0.3,1.1-0.6,1.6-0.9l3.1,2.9c0,0,3.5-1.1,14.7-10.4
	c4.6-3.8,7.9-8.3,10.2-12.3c0.4-0.4,0.9-0.8,1.3-1.1l3.6,2.2c0,0,3.2-1.8,12.3-13.3c3.7-4.7,6-9.7,7.4-14.1c0.4-0.5,0.7-1,1.1-1.4
	l4,1.4c0,0,2.8-2.4,9.2-15.5c2.6-5.3,3.8-10.7,4.3-15.3c0.3-0.6,0.5-1.1,0.8-1.7l4.2,0.6c0,0,2.2-2.9,5.8-17.1
	c1.4-5.7,1.5-11.3,1-15.8c0.1-0.6,0.3-1.2,0.4-1.8l4.2-0.3c0,0,1.6-3.3,2.1-17.9c0.2-6-0.9-11.4-2.3-15.8c0-0.6,0-1.2,0-1.7
	L1187.2,649.7z M286.8,124c0-2.8,2.3-5.1,5.1-5.1l64.4,2.1c2.8,0,5.1,2.3,5.1,5.1l-14.4,148.5c0,2.8-2.3,5.1-5.1,5.1l-97.4-3.1
	c-2.8,0-5.1-2.3-5.1-5.1L286.8,124z M414.3,601.3c-2.3,81.5-70.3,145.6-151.8,143.3c-81.5-2.3-145.6-70.3-143.3-151.8
	c2.3-81.5,70.3-145.6,151.8-143.3C352.5,451.9,416.6,519.8,414.3,601.3z M407.2,282.8c-2.8,0-5.1-2.3-5.1-5.1l13.4-149.2
	c0-2.8,2.3-5.1,5.1-5.1l155.3,1c2.8,0,5.1,2.3,5.1,5.1l38.1,158.4c0,0.6-0.1,1.3-0.4,1.8L590,274.5l-15.1,16.6l-29.3-1.5l-20-23.3
	c0,0,14.4-13.7,26.7-26.1c12.3-12.3-11.7-4.1-11.7-4.1l-63.9,50.1L407.2,282.8z M520.1,288.4l-27-1.3l16.6-11.8L520.1,288.4z
	 M524.8,463.8c-2.8,0-5.1-2.3-5.1-5.1l-44.2-133.1c0-2.8,2.3-5.1,5.1-5.1l68.6,4.8l10.3,13.1l-6.5,4.1l6.5,8.9l-8.6,8.2l19.9,58.3
	l-32.2,14.8l6.9,8.6l28.1-11.7c0,0,6.9,10.3,6.9,18.5c0,5.2-5.4,12.8-9.5,17.8L524.8,463.8z M1116,652.4
	c-1.7,58.1-50.1,103.8-108.2,102.2c-58.1-1.7-103.8-50.1-102.1-108.2c1.7-58.1,50.1-103.8,108.2-102.2
	C1071.9,545.8,1117.6,594.3,1116,652.4z"/>
</svg>
