<?xml version="1.0" encoding="utf-8"?>
<!-- Generator: Adobe Illustrator 22.1.0, SVG Export Plug-In . SVG Version: 6.00 Build 0)  -->
<svg version="1.1" id="Слой_2" xmlns="http://www.w3.org/2000/svg" xmlns:xlink="http://www.w3.org/1999/xlink" x="0px" y="0px"
	 viewBox="0 0 1200 1200" style="enable-background:new 0 0 1200 1200;" xml:space="preserve">
<path d="M1190.5,752.7h4.2v-9.8h-4.2c-0.1-3.7-0.3-7.3-0.6-10.9l4.1-0.4l-1-9.7l-4.1,0.4c-0.5-3.6-1-7.2-1.7-10.8l4.1-0.9l-2-9.6
	l-4,0.9c-0.8-3.6-1.8-7.1-2.8-10.6l3.9-1.3l-3-9.3l-3.9,1.3c-1.2-3.4-2.5-6.8-3.9-10.2l3.8-1.7l-4-8.9l-3.8,1.7
	c-1.6-3.3-3.2-6.5-5-9.7l3.6-2.1l-4.9-8.5l-3.6,2.1c-1.9-3.1-3.9-6.2-6-9.2l3.4-2.5l-5.8-7.9l-3.4,2.5c-2.2-2.9-4.5-5.7-6.9-8.5
	l3.1-2.8l-6.6-7.3l-3.1,2.8c-2.5-2.6-5.1-5.2-7.7-7.7l2.8-3.1l-7.3-6.5l-2.8,3.1c-2.8-2.4-5.6-4.7-8.5-6.9l2.5-3.4l-7.9-5.8
	l-2.4,3.4c-3-2.1-6-4.1-9.2-6l2.1-3.6l-8.5-4.9l-2.1,3.6c-3.2-1.7-6.4-3.4-9.7-5l1.7-3.8l-8.9-4l-1.7,3.8c-3.4-1.4-6.8-2.7-10.2-3.9
	l1.3-3.9l-9.3-3l-1.3,3.9c-3.5-1-7-2-10.6-2.8l0.9-4.1l-9.6-2l-0.9,4.1c-3.6-0.7-7.2-1.2-10.8-1.7l0.4-4.1l-9.7-1l-0.4,4.1
	c-3.6-0.3-7.2-0.5-10.9-0.6v-4.2h-9.8v4.2c-3.7,0.1-7.3,0.3-10.9,0.6l-0.4-4.2l-9.7,1l0.4,4.1c-3.6,0.5-7.2,1-10.8,1.7l-0.9-4.1
	l-9.6,2l0.9,4.1c-3.6,0.8-7.1,1.8-10.6,2.8l-1.3-3.9l-9.3,3l1.3,3.9c-3.4,1.2-6.8,2.5-10.2,3.9l-1.7-3.8l-8.9,4l1.7,3.8
	c-3.3,1.6-6.5,3.2-9.7,5l-2.1-3.6l-8.5,4.9l2.1,3.6c-3.1,1.9-6.2,3.9-9.2,6l-2.5-3.4l-1,0.7l-5.9-1.2l2.5-5.5l-6.8-1.4l-1.9,1.1l0,0
	l1.9-1.1l2.6-5.7l-6.8-1.4l-2,1.2l0,0l2-1.2l2.6-5.7l-6.8-1.4l-2.2,1.3l0,0l2.2-1.3l2.6-5.7l-6.8-1.4l-2.4,1.4l0,0l2.4-1.4l2.6-5.7
	l-6.8-1.4l-2.5,1.5l0,0l2.5-1.5l2.6-5.7l-6-1.2l2.3-5l-6.8-1.4l-2.8,1.7l0,0l2.8-1.7l2.6-5.7l-6.8-1.4l-3,1.8l0,0l3-1.8l2.6-5.7
	l-6.8-1.4l-3.2,1.9l0,0l3.2-1.9l2.6-5.7l-6.8-1.4l-3.3,2l0,0l3.3-2l2.6-5.7l-6.8-1.4l-3.5,2.1l0,0l3.5-2.1l2.6-5.7l-6-1.2
	c3.9-2.3,8.9-5.3,15.4-9.2c29.4-17.5,79.9-23.7,140.2-24.2s126.2,28.3,126.2,28.3s3.6-3.1,0-14.4s-30.4-22.2-51-31.4
	c-20.6-9.3-67.5-26.3-136-24.7c-48.7,1.1-82.9,18.3-108.2,34.7l1-2.2l-6.7-11.9h-7.2L785,428.9c0,0,23.7-5.2,27.3-35
	c3.6-29.9-1-37.1-4.6-40.7s-17-5.2-17-5.2l-21.1-92.2l-5.2,7.2l-2.6-2.6l-41.2,6.2l-3.6,38.1l-8.2,1.5l1,4.6l-9.3,5.7l-4.1-2.6
	l-4.1,3.6l-8.8-10.8l0.5-8.8c0,0,7.7,0.5,8.8-4.1c1-4.6-17.5-10.8-17.5-10.8s0.5-18-3.6-24.2c-4.1-6.2-20.6-3.1-20.6-3.1l-3.1,5.2
	l-31.4,10.8L614,281c0,0-3.6,3.1-5.2,7.2c-1.5,4.1-36.1,6.2-36.1,6.2s-10.3,2.1-8.2,13.9c2.1,11.9,11.3,10.8,11.3,10.8l33-3.1
	c0,0,6.2,10.8,13.9,8.2s17.5-8.8,17.5-8.8l3.1,6.7l12.9-1l14.4-8.8c0,0,14.9,15.5,18,25.2c3.1,9.8,7.7,16.5,7.7,16.5
	s-8.2,4.1-6.7,8.2c1.5,4.1,6.2,6.2,6.2,6.2l5.2,4.1c0,0-2.6,0.5-10.8-0.5s-24.7,1-24.7,1l-4.6-14.4c0,0-9.3-3.6-19.6-1
	s-21.1,9.8-21.1,9.8l-0.5,10.8c0,0-111.8,46.9-118,51.5s-10.3,7.2-10.3,7.2s2.1-4.6-3.1-4.6s-105.6-12.9-138.6-18.5
	c-33-5.7-82.4-20.6-95.3-20.1s-20.6,1.5-28.3,7.7s-16.5,13.4-16.5,13.4l-98.4-3.1l-16-1.5l-13.9,6.7L78,436.1l9.8,3.6
	c0,0-18,10.8-28.9,21.1c-10.8,10.3-29.9,36.1-37.1,38.6s-19.1,10.3-17,16.5s16,10.8,25.8,2.6c9.8-8.2,36.6-32.5,56.2-34.5
	c19.6-2.1,49-2.6,49-2.6l1.5,9.3l-36.6,2.6c0,0-6.7,6.2-5.2,17.5c1.5,11.3,7.7,19.1,7.7,19.1l103.1-2.1l3.5,32.7
	c-3.1-0.2-6.3-0.4-9.4-0.5v-3.7h-8.7v3.7c-3.3,0.1-6.5,0.3-9.7,0.5l-0.4-3.7l-8.7,0.9l0.4,3.7c-3.2,0.4-6.4,0.9-9.6,1.5l-0.8-3.6
	l-8.5,1.8l0.8,3.6c-3.2,0.8-6.3,1.6-9.4,2.5l-1.1-3.5l-8.3,2.7l1.1,3.5c-3.1,1.1-6.1,2.2-9.1,3.5l-1.5-3.4l-8,3.6l1.5,3.4
	c-2.9,1.4-5.8,2.9-8.7,4.4l-1.8-3.2l-7.6,4.4l1.9,3.2c-2.8,1.7-5.5,3.5-8.2,5.3l-2.2-3l-7.1,5.1l2.2,3c-2.6,2-5.1,4-7.6,6.1
	l-2.5-2.8l-6.5,5.8l2.5,2.8c-2.4,2.2-4.7,4.5-6.9,6.9l-2.8-2.5l-5.8,6.5l2.8,2.5c-2.1,2.5-4.2,5-6.1,7.6l-3-2.2l-5.1,7.1l3,2.2
	c-1.8,2.7-3.6,5.4-5.3,8.2l-3.2-1.9l-4.4,7.6l3.2,1.8c-1.6,2.8-3,5.7-4.4,8.7l-3.4-1.5l-3.6,8l3.4,1.5c-1.2,3-2.4,6-3.5,9.1
	l-3.5-1.1l-2.7,8.3L27,686c-0.9,3.1-1.8,6.2-2.5,9.4l-3.6-0.8l-1.8,8.5l3.6,0.8c-0.6,3.2-1.1,6.4-1.5,9.6l-3.7-0.4l-0.9,8.7l3.7,0.4
	c-0.3,3.2-0.4,6.5-0.5,9.7h-3.7v8.7h3.7c0.1,3.3,0.3,6.5,0.5,9.7l-3.7,0.4l0.9,8.7l3.7-0.4c0.4,3.2,0.9,6.4,1.5,9.6l-3.6,0.8
	l1.8,8.5l3.6-0.8c0.8,3.2,1.6,6.3,2.5,9.4l-3.5,1.1l2.7,8.3l3.5-1.1c1.1,3.1,2.2,6.1,3.5,9.1l-3.4,1.5l3.6,8l3.4-1.5
	c1.4,2.9,2.9,5.8,4.4,8.7l-3.2,1.8l4.4,7.6l3.2-1.9c1.7,2.8,3.5,5.5,5.3,8.2l-3,2.2l5.1,7.1l3-2.2c2,2.6,4,5.1,6.1,7.6l-2.8,2.5
	l5.8,6.5l2.8-2.5c2.2,2.4,4.5,4.7,6.9,6.9l-2.5,2.8l6.5,5.8l2.5-2.8c2.5,2.1,5,4.2,7.6,6.1l-2.2,3l7.1,5.1l2.2-3
	c2.7,1.8,5.4,3.6,8.2,5.3l-1.9,3.2l7.6,4.4l1.8-3.2c2.8,1.6,5.7,3,8.7,4.4l-1.5,3.4l8,3.6l1.5-3.4c3,1.2,6,2.4,9.1,3.5l-1.1,3.5
	l8.3,2.7l1.1-3.5c3.1,0.9,6.2,1.8,9.4,2.5l-0.8,3.6l8.5,1.8l0.8-3.6c3.2,0.6,6.4,1.1,9.6,1.5l-0.4,3.7l8.7,0.9l0.4-3.7
	c3.2,0.3,6.5,0.4,9.7,0.5v3.7h8.7v-3.7c3.3-0.1,6.5-0.3,9.7-0.5l0.4,3.7l8.7-0.9l-0.4-3.7c3.2-0.4,6.4-0.9,9.6-1.5l0.8,3.6l8.5-1.8
	l-0.8-3.6c3.2-0.8,6.3-1.6,9.4-2.5l1.1,3.5l8.3-2.7l-1.1-3.5c3.1-1.1,6.1-2.2,9.1-3.5l1.5,3.4l8-3.6l-1.5-3.4
	c2.9-1.4,5.8-2.9,8.7-4.4l1.8,3.2l7.6-4.4l-1.9-3.2c2.8-1.7,5.5-3.5,8.2-5.3l2.2,3l7.1-5.1l-2.2-3c2.6-2,5.1-4,7.6-6.1l2.5,2.8
	l6.5-5.8l-2.5-2.8c2.4-2.2,4.7-4.5,6.9-6.9l2.8,2.5l5.8-6.5L330,851c2.1-2.5,4.2-5,6.1-7.6l3,2.2l5.1-7.1l-3-2.2
	c1.8-2.7,3.6-5.4,5.3-8.2l3.2,1.9l4.4-7.6l-3.2-1.8c1.6-2.8,3-5.7,4.4-8.7l3.4,1.5l3.5-8l-3.4-1.5c1.2-3,2.4-6,3.5-9.1l3.5,1.1
	l2.7-8.3l-3.5-1.1c0.9-3.1,1.8-6.2,2.5-9.4l3.6,0.8l1.8-8.5l-3.6-0.8c0.6-3.2,1.1-6.4,1.5-9.6l3.7,0.4l0.9-8.7l-3.7-0.4
	c0.3-3.2,0.4-6.5,0.5-9.7h3.7v-6.9l54.3-14.5v8.8l-5.7,2.1l5.7,11.3c0,0,25.8,35,41.7,32.5c16-2.6,12.4-3.6,12.4-3.6l21.1,3.7v4.5
	c0,0,20.1,8.2,29.4,3.6c9.3-4.6,18.5-11.9,24.7-13.9s54.6-15.1,63.9-16.8c9.3-1.7,19.6-5.9,23.7-15.2c4.1-9.3,8.2-19.6,8.2-19.6
	l9.3-16.5c0,0,20.1,18.5,29.9,3.1c9.8-15.5,5.2-43.3,0-58.7s-9.3-20.6-9.3-20.6L745,474l18-8.2v8.8l3.6,11.3l1.5-0.4
	c-21.8,22.1-41.8,59.1-52.6,83c-12.9,28.5-5.2,94.1-6.7,97.8c-1.5,3.6-3.1,7.7,0,7.7s9.8-1.5,13.4-10.3c3.6-8.8,4.6-51.5,22.7-91.1
	c11.7-25.6,34.3-46.1,48.9-57.5l-0.8,3.4l6.5,0.9l2.2-1.3l0,0l-2.2,1.3l-2.3,6.2l6.5,0.9l2.4-1.4l0,0l-2.4,1.4l-2.3,6.2l6.5,0.9
	l2.6-1.5l0,0l-2.6,1.5l-2.3,6.2l6.5,0.9l2.7-1.6l0,0l-2.7,1.6l-2.3,6.2l6.5,0.9l2.9-1.7l0,0l-2.9,1.7L814,554l5.7,0.8l-2,5.4
	l6.5,0.9l3.1-1.9l0,0l-3.1,1.9l-2.3,6.2l6.5,0.9l3.3-2l0,0l-3.3,2l-2.3,6.2l6.5,0.9l3.5-2.1l0,0l-3.5,2.1l-2.3,6.2l6.5,0.9l3.6-2.1
	l0,0l-3.6,2.1l-2.3,6.2l6.5,0.9l3.8-2.2l0,0l-3.8,2.2l-2.3,6.2l6.3,0.9l-2.2,5.9l6.5,0.9l4-2.4l2.4,3.9c-2.4,2.3-4.7,4.6-7,7
	l-3.1-2.8l-6.6,7.3l3.1,2.8c-2.4,2.8-4.7,5.6-6.9,8.5l-3.4-2.5l-5.8,7.9l3.4,2.5c-2.1,3-4.1,6-6,9.2l-3.6-2.1l-4.9,8.5l3.6,2.1
	c-1.7,3.2-3.4,6.4-5,9.7l-3.8-1.7l-4,8.9l3.8,1.7c-1.4,3.4-2.7,6.8-3.9,10.2l-3.9-1.3l-3,9.3l3.9,1.3c-1,3.5-2,7-2.8,10.6l-4.1-0.9
	l-2,9.6l4.1,0.9c-0.7,3.6-1.2,7.2-1.7,10.8L792,722l-1,9.7l4.1,0.4c-0.3,3.6-0.5,7.3-0.6,10.9h-4.2v9.8h4.2
	c0.1,3.7,0.3,7.3,0.6,10.9l-4.1,0.4l1,9.7l4.1-0.4c0.5,3.6,1,7.2,1.7,10.8l-4.1,0.9l2,9.6l4.1-0.9c0.8,3.6,1.8,7.1,2.8,10.6
	l-3.9,1.3l3,9.3l3.9-1.3c1.2,3.4,2.5,6.9,3.9,10.2l-3.8,1.7l4,8.9l3.8-1.7c1.6,3.3,3.2,6.5,5,9.7l-3.6,2.1l4.9,8.5l3.6-2.1
	c1.9,3.1,3.9,6.2,6,9.2l-3.4,2.5l5.8,7.9l3.4-2.5c2.2,2.9,4.5,5.7,6.9,8.5l-3.1,2.8l6.6,7.3l3.1-2.8c2.5,2.6,5.1,5.2,7.7,7.7
	l-2.8,3.1l7.3,6.6l2.8-3.1c2.8,2.4,5.6,4.7,8.5,6.9l-2.5,3.4l7.9,5.8l2.5-3.4c3,2.1,6,4.1,9.2,6l-2.1,3.6l8.5,4.9l2.1-3.6
	c3.2,1.7,6.4,3.4,9.7,5l-1.7,3.8l8.9,4l1.7-3.8c3.4,1.4,6.8,2.7,10.2,3.9l-1.3,3.9l9.3,3l1.3-3.9c3.5,1,7,2,10.6,2.8l-0.9,4.1l9.6,2
	l0.9-4.1c3.6,0.7,7.2,1.2,10.8,1.7l-0.4,4.1l9.7,1l0.4-4.1c3.6,0.3,7.2,0.5,10.9,0.6v4.2h9.8v-4.2c3.7-0.1,7.3-0.3,10.9-0.6l0.4,4.1
	l9.7-1l-0.4-4.1c3.6-0.5,7.2-1,10.8-1.7l0.9,4.1l9.6-2l-0.9-4.1c3.6-0.8,7.1-1.8,10.6-2.8l1.3,3.9l9.3-3l-1.3-3.9
	c3.4-1.2,6.8-2.5,10.2-3.9l1.7,3.8l8.9-4l-1.7-3.8c3.3-1.6,6.5-3.2,9.7-5l2.1,3.6l8.5-4.9l-2.1-3.6c3.1-1.9,6.2-3.9,9.2-6l2.5,3.4
	l7.9-5.8l-2.5-3.4c2.9-2.2,5.7-4.5,8.5-6.9l2.8,3.1l7.3-6.6l-2.8-3.1c2.6-2.5,5.2-5.1,7.7-7.7l3.1,2.8l6.5-7.3l-3.1-2.8
	c2.4-2.8,4.7-5.6,6.9-8.5l3.4,2.5l5.8-7.9l-3.4-2.5c2.1-3,4.1-6,6-9.2l3.6,2.1l4.9-8.5l-3.6-2.1c1.7-3.2,3.4-6.4,5-9.7l3.8,1.7
	l4-8.9l-3.8-1.7c1.4-3.4,2.7-6.8,3.9-10.2l3.9,1.3l3-9.3l-3.9-1.3c1-3.5,2-7,2.8-10.6l4.1,0.9l2-9.6l-4.1-0.9
	c0.7-3.6,1.2-7.2,1.7-10.8l4.1,0.4l1-9.7l-4.1-0.4C1190.2,760,1190.4,756.4,1190.5,752.7z M242.2,704.1
	c-7.3-10.4-17.9-18.2-30.4-21.8c16.3-1.7,43.3-3.9,72.8-6.2l-14.5,20.7C261.9,698.9,251.2,701.7,242.2,704.1z M261.8,703.1
	c-1.5,1-3,2.5-4,4.5c-2.6,5.7-5.5,12.4-5.5,12.4l-2.1,1c-1.4-4.8-3.3-9.3-5.9-13.5C249.9,706.1,256.1,704.5,261.8,703.1z M241.3,770
	l48.9-13c-16.7,8.1-40.3,15.8-55.5,20.5C237.1,775.1,239.3,772.7,241.3,770z M279,727.7l2.1-5.7l0.5-6.2l12.3-20.4
	c2.7-0.5,5.6-1,8.7-1.6c3.1,7.7,5.3,15.8,6.7,24.1L279,727.7z M296.5,691.1l2.8-4.6c0.6,1.2,1.2,2.5,1.7,3.8
	C299.5,690.6,298,690.9,296.5,691.1z M276.4,524.2c0-4.6,2.6-7.2,2.6-7.2s19.1,21.9,21.6,28.2c2.5,6.3,4.6,10.4,2.1,17.1
	c-2,5.2-7.1,16.9-6.9,28.6c-2.5-1.7-5.1-3.4-7.8-5l1.9-3.2l-7.6-4.4l-1.8,3.2c-2.8-1.6-5.7-3-8.7-4.4l1.5-3.4l-8-3.5l-0.5,1.1
	l-1.3-26C263.5,545.2,276.4,528.8,276.4,524.2z M196,851.1c-63.3,0-114.7-51.3-114.7-114.7c0-63.3,51.3-114.7,114.7-114.7
	c36.8,0,69.6,17.4,90.6,44.4c-32.8,2.3-62.3,4.7-77.2,7c-20.6,3.1-31.7,8.1-37.8,12.6c-18.9,9.1-32,28.4-32,50.8
	c0,31.1,25.2,56.3,56.3,56.3c3.8,0,7.4-0.4,11-1.1c30.4-2.4,74.9-23.7,102.5-38.5C301.4,808.6,253.7,851.1,196,851.1z M346.7,644.4
	c-0.4-0.6-0.8-1.2-1.1-1.8c0.9,0.3,1.9,0.5,2.9,0.8L346.7,644.4z M358.9,659.2l-3.4,1.5c-1.4-2.9-2.9-5.8-4.4-8.7l3.2-1.8l-3.6-6.2
	c5.1,1.1,10.8,1.7,16.9,1.3c15.5-1,26.3-1,26.3-1l28.3,12.4l0.5,1.5c-12.1,0.6-35.5,1.9-62.8,3.4L358.9,659.2z M372.1,698.1
	l-0.7-3.3l-3.6,0.8c-0.8-3.2-1.6-6.3-2.5-9.4l3.5-1.1l-0.3-1c4.8-0.5,8.3-0.7,10-0.6c4.8,0.4,13.5,3.1,21.5,5.8L372.1,698.1z
	 M409.9,686c-12.6-4.3-30.3-6.4-42.9-6.7l-0.9-2.7l-3.5,1.1c-0.9-2.5-1.8-4.9-2.8-7.3c29.5-2.2,54.4-3.9,65.5-4.7l1.1,3.2l2.1,11.2
	L409.9,686z M550.2,586l-0.7,2.7l-6.9,2.7l-6.5-2.7l-1.7-4.1l-8.2-5.5l2.4-8.6l5.2-6.9l4.1-2.4l-4.5-2.7l-6.9,1.7c0,0-12,2.8-21.3,6
	s-10.3,6.5-10.3,6.5l10-31.7c0,0,30.9,16.9,30.2,15.8c-0.7-1.1,18.9,7.2,18.9,7.2l-6.5,18.5L550.2,586z M646,664h-16.8l13.1-16.8
	l1.4-1.7h6.2l1.7,7.2L646,664z M992.7,901.7c-85,0-153.9-68.9-153.9-153.9c0-40.4,15.6-77.2,41.1-104.7l57.8,92.6
	c-0.8,3.9-1.3,7.9-1.3,12.1c0,26.5,18.3,48.8,43,54.7l20.5,32.9l19.6-13.4l-12.4-19.7c24.1-6.4,41.9-28.3,41.9-54.5
	c0-31.1-25.2-56.3-56.3-56.3c-17.1,0-32.4,7.6-42.7,19.6L897.3,627c26.2-20.8,59.4-33.2,95.4-33.2c85,0,153.9,68.9,153.9,153.9
	C1146.6,832.8,1077.7,901.7,992.7,901.7z"/>
</svg>
