<?xml version="1.0" encoding="utf-8"?>
<!-- Generator: Adobe Illustrator 22.1.0, SVG Export Plug-In . SVG Version: 6.00 Build 0)  -->
<svg version="1.1" id="Слой_1" xmlns="http://www.w3.org/2000/svg" xmlns:xlink="http://www.w3.org/1999/xlink" x="0px" y="0px"
	 viewBox="0 0 1024 1024" style="enable-background:new 0 0 1024 1024;" xml:space="preserve">
<path d="M809.3,467.1c-55.8-48.6-18.2-115.1-18.2-115.1c37.6-89-6.3-168-6.3-168c-19.6-30.7-41.6-50.7-63.1-63.6
	c16.6-29.7,1.7-61.7,1.7-61.7c-8.8-17.5-17.6-2.5-17.6-2.5c11.3-1.3,10.3,27.4,10.3,27.4c-13,0-5,20.2-5,20.2
	c-3.1-1.3-7.9,1.2-12.9,5.1c-7-2.7-13.8-4.8-20.4-6.4c15.9-18.9,11.1-32.3,11.1-32.3c-6.3-65.2-38.3-47.9-38.3-47.9
	c13.8,0,16.3,25.1,16.3,25.1c-7.5,2.5,0,13.8,0,13.8c-11.3,0-8.7,18.8-8.7,18.8c-8.3,0-17.8,9.1-25.4,18.6
	c-14.6,0.9-23.6,3.6-23.6,3.6c46.4-45.1,6.3-80,6.3-80c10,31.3-20.1,45.1-20.1,45.1c-75.2,25.1-82,75.2-82,75.2l-4.4-3
	c0,0-6.8-50.1-82-75.2c0,0-30.1-13.8-20.1-45.1c0,0-40.1,34.8,6.3,80c0,0-9-2.7-23.6-3.6c-7.6-9.5-17.1-18.6-25.4-18.6
	c0,0,2.5-18.8-8.7-18.8c0,0,7.5-11.3,0-13.8c0,0,2.5-25.1,16.3-25.1c0,0-32.1-17.3-38.3,47.9c0,0-4.8,13.4,11.1,32.3
	c-6.6,1.6-13.4,3.6-20.4,6.4c-5-3.8-9.8-6.3-12.9-5.1c0,0,8-20.2-5-20.2c0,0-0.9-28.7,10.3-27.4c0,0-8.8-15-17.5,2.5
	c0,0-14.9,32,1.7,61.7c-21.5,12.9-43.5,32.9-63.1,63.6c0,0-43.9,79-6.3,168c0,0,37.6,66.4-18.2,115.1c0,0-59.5,55.4-23.1,134.4
	c0,0,23.8,45.1,12.5,65.2c0,0-10,11.3-2.5,17.5c0,0-10,10-2.5,18.8c0,0-8.8,13.8-1.3,21.3c0,0-2.5,16.3,7.5,22.6c0,0,0,13.8,7.5,15
	c0,0,10,15,17.6,0c0,0,42.6-12.5,20.1-81.5c0,0,2.5-27.6-23.8-60.2c0,0-38.9-72.7,2.5-116.6c0,0,62.7-61.4,48.9-114.1
	c0,0-8-29.9-32.6-95.3c0,0-33.4-97.7,91.5-143.3c4.9,2.4,10.2,4.6,16.2,6.6c0,0,25.8,5.6,47.6,17.2c-7.9,0.4-15.7,2.6-22.4,7.9
	c0,0-13.8-10.5-21.3,1c0,0-18.8,3-26.3,13c0,0-7.5-6.5-18.8,1c0,0-11.8,3.6-27.6,0c0,0-12.5,8.8,8.8,21.3c0,0,47.6,8.8,84-6.3
	c0,0,47.3-2.9,53.7,27.8c-3.8,4.1-8.5,11-12.3,22.3c0,0-48.9,42.6-56.4,85.2c0,0-5,26.7,11.3,47.2c0,0-1.3,29.3,17.6,14.2
	c0,0,11.3,15-3.8,15c0,0-11.3-6.3-15,16.3c0,0-23.8,26.3-47.6,38.9c0,0-48.9,16.3-18.8,109.1c0,0,8.8,53.9-12.5,77.7
	c0,0-28.8,35.9,1.3,102c0,0,10,27.2-2.5,46c0,0-31.3,17.5,32.6,66.4c0,0,23.8,15,16.3,48.9c0,0-13.8,32.6,42.6,46.4
	c0,0,30.1,51.4,81.5,33.8c0,0,58.9,3.8,32.6-50.1l15.4-12c-1.3,7.5,15,15,15,15c-26.3,53.9,32.6,50.1,32.6,50.1
	c51.4,17.5,81.5-33.8,81.5-33.8c56.4-13.8,42.6-46.4,42.6-46.4c-7.5-33.8,16.3-48.9,16.3-48.9c63.9-48.9,32.6-66.4,32.6-66.4
	c-12.5-18.8-2.5-46-2.5-46c30.1-66,1.3-102,1.3-102c-21.3-23.8-12.5-77.7-12.5-77.7c30.1-92.8-18.8-109.1-18.8-109.1
	c-23.8-12.5-47.6-38.9-47.6-38.9c-3.8-22.6-15-16.3-15-16.3c-15,0-3.8-15-3.8-15c18.8,15,17.6-14.2,17.6-14.2
	c16.3-20.5,11.3-47.2,11.3-47.2c-7.5-42.6-56.4-85.2-56.4-85.2c-3.8-11.3-8.5-18.2-12.3-22.3c6.4-30.8,53.7-27.8,53.7-27.8
	c36.4,15,84,6.3,84,6.3c21.3-12.5,8.8-21.3,8.8-21.3c-15.8,3.6-27.6,0-27.6,0c-11.3-7.5-18.8-1-18.8-1c-7.5-10-26.3-13-26.3-13
	c-7.5-11.5-21.3-1-21.3-1c-6.7-5.3-14.5-7.5-22.4-7.9c21.8-11.5,47.6-17.2,47.6-17.2c6-2,11.3-4.2,16.2-6.6
	c124.9,45.5,91.5,143.3,91.5,143.3C754,359.8,746,389.7,746,389.7c-13.8,52.7,48.9,114.1,48.9,114.1c41.4,43.9,2.5,116.6,2.5,116.6
	c-26.3,32.6-23.8,60.2-23.8,60.2C751,749.5,793.6,762,793.6,762c7.5,15,17.5,0,17.5,0c7.5-1.3,7.5-15,7.5-15
	c10-6.3,7.5-22.6,7.5-22.6c7.5-7.5-1.3-21.3-1.3-21.3c7.5-8.8-2.5-18.8-2.5-18.8c7.5-6.3-2.5-17.5-2.5-17.5
	c-11.3-20.1,12.5-65.2,12.5-65.2C868.8,522.6,809.3,467.1,809.3,467.1z M399.7,386.7c-8.6,2.3-19-8.8-23.2-24.7s-0.6-30.6,8-32.9
	c8.6-2.3,19,8.8,23.2,24.7C411.9,369.6,408.3,384.4,399.7,386.7z M610.5,353.7c4.2-15.9,14.6-27,23.2-24.7c8.6,2.3,12.2,17,8,32.9
	c-4.2,15.9-14.6,27-23.2,24.7S606.3,369.6,610.5,353.7z"/>
</svg>
