<?xml version="1.0" encoding="utf-8"?>
<!-- Generator: Adobe Illustrator 22.1.0, SVG Export Plug-In . SVG Version: 6.00 Build 0)  -->
<svg version="1.1" id="Слой_1" xmlns="http://www.w3.org/2000/svg" xmlns:xlink="http://www.w3.org/1999/xlink" x="0px" y="0px"
	 viewBox="0 0 1024 1024" style="enable-background:new 0 0 1024 1024;" xml:space="preserve">
<path d="M743.9,104.7c0,0-42.8-75.6-100.2-82.6c0,0-36.8-11.4-65.9-9.8c0,0-64-4.1-77.5-7.3c0,0-98.1-7.9-136.8,50.6
	c0,0-20.4,25.6-31.5,35c0,0-35.1,39.1-38.2,84.9c-3.4,4.6-5.5,10.6-5.5,17.1c0,10.3,5.1,19.2,12.6,23.7c0.4,0.9,0.9,1.9,1.3,2.8
	c-0.4,1.9-0.6,3.8-0.6,5.9c0,14.8,10.6,26.8,23.7,26.8c2.5,0,4.9-0.5,7.1-1.3c0.2,0.1,0.3,0.2,0.5,0.3c0.7,13.2,11.4,23.9,25.1,25.3
	c-4.6,12.6-10.3,21.7-23.6,29.4c-1.3,0.8-1.8,2.5-1,3.8c0.5,0.9,1.5,1.4,2.4,1.4c0.5,0,1-0.1,1.4-0.4c15.5-9,22-20.3,26.8-34.2
	c3.3-0.3,6.4-1.2,9.3-2.5c0,0.2,0.1,0.4,0.1,0.6c-9.2,19.9-23.3,51.7-37.5,88.4c-22.1,57.1-48.7,138.2-50.5,200.2
	c-0.7,4.8-8.2,62.2,1.5,109.9c-17.3,30.3-41.5,82-34.1,123.1c0.2,1.3,1.4,2.3,2.7,2.3c0.2,0,0.3,0,0.5,0c1.5-0.3,2.5-1.7,2.2-3.2
	c-6.7-36.7,14-83.7,30.5-113.9c5.1,19.7,13.5,37,27.3,47.1c0.5,0.4,1.1,0.5,1.6,0.5c0.9,0,1.7-0.4,2.3-1.1c0.9-1.2,0.6-3-0.6-3.9
	c-13.9-10.1-22-28.8-26.5-49.9c8-13.9,14.1-22.8,14.3-23.1c0-0.1,0.1-0.1,0.1-0.2c32.9-56.6,57.8-111.2,74.2-162.5
	c2.7,3.6,7,6.4,14.1,6.9c0,0-2.3,7.6-11.1,11.1c0,0-4.7,18.7,20.5,23.4c0,0,0.6,7-7,14.6c0,0-2.9,12.3,17,14.6
	c0,0,2.9,15.2-11.1,22.9c0,0-7,11.7,10,18.2c0,0-5.3,25.8,8.8,45.1c0,0,3.5,15.8-9.4,25.8c0,0-4.1,12.3,10,15.8c0,0-4.1,10-11.1,10
	c0,0-5.3,10,2.9,12.3c0,0-7,11.1-14.1,11.1c0,0-1.2,13.5,8.2,15.8c0,0-4,4.2-2.8,9.8c-15.4,14.5-31.8,39.6-21,76
	c0,0,10.7,17.7,19.5,10.6c0,0,1-10.6-6.8-17.7c0,0,12.1-7.1,6.8-22.7c0,0-3.9-12.2,5.5-22.2c1,3.4,3,6.5,7.1,8.3
	c0,0-5.3,18.7,0,22.8c0,0-6.4,20.5,1.8,23.4c0,0-4.7,18.2,0.6,19.9c0,0-6.4,14.1-1.8,21.1c0,0-5.9,13.5-0.6,16.4
	c0,0-7,14.1-0.6,15.8c6.4,1.8-20.5,37.5,11.1,36.9c0,0,15.8-3.5,19.9-45.1c0,0,9.4-138.9,4.7-159.4c0,0-3.5-11.7,5.9-20.5
	c0,0,7.6-4.1,4.1-16.4c0,0,3.5-12.3-2.3-19.9c0,0-5.9-11.1,1.8-15.8c0,0,11.7-5.9,6.4-18.7c0,0-2.3-10,10.5-9.4
	c0,0-10-13.5,4.7-18.2c0,0-7.6-5.3-0.6-11.1c0,0,4.7-5.3-5.9-12.3l-2.9-29.9c0,0,6-15.8,0.6-38.5c-0.2-0.8-0.4-1.6-0.6-2.5
	c-6.4-24-2.3-22.8,3.5-37.5c0,0,5.9-17-2.3-43.9c0,0-3.5-24,4.7-37.5c0,0,5.9-15.8,5.3-32.8c0,0,28.7-30.5,26.4-56.2
	c0,0,8.1,10.5,13.7,7c0,0-9,18.7-2.6,21.7c0,0,0.6,19.9,14.1,19.9c0,0,3.5,4.7,0.6,24c0,0-8.8,21.1-2.9,32.8c0,0,2.8,18.7-9.1,31.1
	c0,0-13.7,19.3-11.7,43.4c0,0-1.5,31-13.2,42.7c0,0,4.7,21.7,19.9,7.6c0,0-0.7,9.4,4.9,5.3c0,0-6.1,22.3-20.8,27.5c0,0-9.4,10,17,17
	l-1.8,6.4c0,0,2.9,10.5,10,7c0,0-2.9,17,8.8,16.4c0,0-4.7,18.7,5.9,21.7c0,0,11.1,32.8,1.2,43.9c0,0-11.7,22.9,0.6,21.7
	c0,0-9.4,26.4-1.8,29.9c0,0,10.7,63.3-1.2,97.3c0,0-8.8,38.7,1.8,38.7c0,0-19.7,61.5-14.6,77.9c0,0,5.9,25.8-15.2,46.3
	c0,0-15.8,18.2,1.2,27.5c0,0,26.2,8.8,38.9-70.3c0,0,9.8-55.7,5.7-104.9c0,0,6.4-32.8-1.8-64.4c0,0,5.6-9.4-3.9-24.6
	c0,0,6.2-6.4,5.1-19.3c0,0,4.1-4.7,0.6-27c0,0,6.4-18.2,0.6-32.2c0,0,2.3-7-2.9-22.9c0,0-10.7-55.7-3.3-79.7c0,0,8-53.3,6.8-85.5
	c0,0,8.8,0,8.8-15.2c0,0,8.2,6.4,11.7-7c0,0,7,48-4.1,74.4c0,0-19.3,41,0.6,48c0,0,2.9,42.2,26.4,35.2c0,0,3.5-2.9-8.8-12.9
	c0,0,6.4-12.9-6.4-24.6c0,0-11.7-18.7-3.5-38.7c0,0,17.6-51.6,2.3-90.8c0,0,14.6-10-0.6-22.8c0,0-7-7,5.3-12.3c0,0,23.4,0,0.6-28.7
	c0,0-12.3-12.9,0.6-24c0,0,13.5-11.1-1.8-17c0,0-5.3-10.5-11.1-10.5c0,0-9-11-3.4-23.7c4.7,5.8,11.9,9.6,20,10.2
	c9.1,63,32,201.8,63.7,254.4c0.2,0.5,1.5,2.9,3.4,7c-5.6,37.6-14.5,76.2-27.9,113.3c-0.1,0.3-11,30.4-17.3,70
	c-5.9,36.6-8.9,89.1,9.9,131c0.5,1,1.5,1.6,2.5,1.6c0.4,0,0.8-0.1,1.1-0.2c1.4-0.6,2-2.3,1.4-3.7c-34.9-78,7.2-195.6,7.6-196.8
	c12.6-34.7,21.2-70.7,26.9-106c17.9,39.9,60.6,146.8,54.9,245.7c-0.1,1.5,1.1,2.9,2.6,2.9c0.1,0,0.1,0,0.2,0c1.5,0,2.7-1.1,2.8-2.6
	c3.8-65.6-13.6-134.2-28.8-180.1c-11.7-35.1-23.9-62.7-30.1-76c8.6-58.6,9.6-114.5,8-158.1c-1.7-48.1-6.6-87.9-10.2-111.5
	c4.2,2.3,9,3.6,14.1,3.6c5,0,9.7-1.3,13.8-3.4c18.3,54.9,51.8,173.1,28.3,242.7c-0.5,1.5,0.3,3,1.7,3.5c0.3,0.1,0.6,0.1,0.9,0.1
	c1.2,0,2.2-0.7,2.6-1.9c13.4-39.7,10.9-98.4-7.4-174.2c-7-29-15.1-55-21.4-73.6c0.5-0.4,1-0.8,1.4-1.3c3.8,8.3,7.8,12.9,18.3,17.2
	c0.4,0.1,0.7,0.2,1.1,0.2c1.1,0,2.1-0.6,2.6-1.7c0.6-1.4-0.1-3.1-1.5-3.6c-9.9-4.1-13.2-8.9-16.4-17.1c0.9-1.4,1.6-2.8,2.2-4.3
	c1,0.4,2.1,0.7,3.1,0.9c13.7,3,27.5-6.2,30.7-20.7c0.4-1.9,0.6-3.8,0.7-5.6c11.8-0.7,22.9-11.5,26.2-26.6c1.8-8.1,1-16-1.7-22.5
	C774.2,210.4,782.7,148.1,743.9,104.7z M302.8,647.6c-0.9,1.2-5.3,7.7-11.3,17.7c-7.8-46.7-0.5-101-0.4-101.8c0-0.1,0-0.2,0-0.3
	c2.5-90.8,59.2-224.6,85.1-281.3c2.9,5.4,7.7,9.8,13.6,12.2c-4.5,16.6-9.5,26.8-15.6,30c-1.4,0.7-1.9,2.4-1.2,3.8
	c0.5,1,1.5,1.5,2.5,1.5c0.4,0,0.9-0.1,1.3-0.3c7.7-4,12.8-14,17.2-29.1c3.3,15,5.9,35.6,5.2,61.8c-0.2,8.7-0.8,18.2-1.9,28.7
	c-3,1.1-6.5,1.4-10.3,0.2c0,0,17,27-4.1,31.1c0,0-8.8,4.1,3.5,15.2c0,0-21.1-3.5-10.5,14.1c0,0-4.1,11.1,2.9,14.6
	c0,0-1.8,7-0.5,14.1C364,526.8,340.5,582.8,302.8,647.6z M413.4,332c0,0-18.7,8.8,3.5,26.4l-6.4,9.4c0,0-7.6,5.3-0.6,12.3
	c0,0-2.4,3.8-6.6,7c0.8-8.6,1.4-17,1.6-25.2c0.7-28.2-2.3-50-5.8-65.5c0.8,0.1,1.5,0.1,2.3,0.1c7.6,0,14.5-2.9,19.5-7.5
	c0.9,0.2,1.8,0.4,2.7,0.5c1.4,3,3.3,5.6,5.7,7.9C425.3,300.3,405,316.7,413.4,332z M674,434.8c1.5,41.2,0.7,93.6-6.8,148.8
	C636.6,532.8,613.6,395,604.4,332c1-0.1,1.9-0.3,2.8-0.5c6.4,13.9,12.5,21.3,25.7,35.7c0.5,0.6,1.3,0.9,2.1,0.9
	c0.7,0,1.3-0.2,1.9-0.7c1.1-1,1.2-2.8,0.2-3.9c-12.5-13.6-18.1-20.3-24.4-33.7c3.6-1.6,6.8-3.8,9.4-6.6c0.5,0,1,0.1,1.5,0.1
	c2.6,2.8,5.8,5,9.5,6.6c6.8,11.6,10.4,15.7,18.4,19.9c0.4,0.2,0.8,0.3,1.3,0.3c1,0,2-0.5,2.5-1.5c0.7-1.4,0.2-3.1-1.2-3.8
	c-5.9-3.1-7.6-4-13.2-12.8c1.2,0.2,2.5,0.2,3.7,0.2c7.6,0,14.5-2.8,19.5-7.5C667.5,348.2,672.3,387.5,674,434.8z"/>
</svg>
