<?xml version="1.0" encoding="utf-8"?>
<!-- Generator: Adobe Illustrator 22.1.0, SVG Export Plug-In . SVG Version: 6.00 Build 0)  -->
<svg version="1.1" id="Слой_1" xmlns="http://www.w3.org/2000/svg" xmlns:xlink="http://www.w3.org/1999/xlink" x="0px" y="0px"
	 viewBox="0 0 1024 1024" style="enable-background:new 0 0 1024 1024;" xml:space="preserve">
<path d="M1000.5,690.5c0,0-14.5-10.1-27.5-34c0,0-13-41.3-100-31.9c0,0-77.5-2.9-130.4-57.2c0,0,8.8,2.9,11.7-2.9
	c0,0,14.7,5.1,16.7-3.6v-10.6c0,0,143.6-42.3,69-130c0,0-0.2-0.6-1-1.6c29.9-1.6,88.1-11.7,76.7-66.5c0,0-1.4-15.2-36.2-26.1
	c0,0-22.4-14,6.5-39.8c0,0,5.1-11.6-13,1.4c0,0-10.1,6.5-8.7,10.9c1.4,4.3-8,10.1-3.6,15.9c4.3,5.8-1.4,10.9,5.8,15.2
	c7.2,4.3,8.7,9.4,17.4,10.1c8.7,0.7,2.9,9.4,7.2,13c0,0,13,31.9-39.1,39.8c0,0-20.2-2.5-46-0.1c-17.7-8.7-42-13.9-72.4-5
	c7.8-11.1,13.2-24.8,14.4-41.7c0,0,11-90.6-94.8-85.6c0,0-77.4-6.7-118.9,87.5c0,0-8.7,10.2-20.7,7c0,0-25.1-16.4-41.4-1.1
	c0,0-14.2,5.5-13.1,37.1c0,0,3.6,18.9-22.8,27.6l-8-11.9c-6.7-12.3-18.1-5.1-26.8-21.7c-8.7-16.7-25.4-5.1-34-16.3
	s-15.2,11.9-27.5,2.5c-12.3-9.4-21,10.9-28.3,8c-7.2-2.9-20.3,11.6-20.3,11.6c-43.9,9.8-55.6,54.2-58.5,71.7
	C222.5,452,208,445,187.7,447.8c0,0-17.4,2.9,1.4,7.2c0,0,5.1,4.3,8.7,0c3.6-4.3,2.9,8.7,8.7,4.3c5.8-4.3,6.5,11.6,10.9,8
	c4.3-3.6,4.3,8.7,8,5.1c2-2,2.7,2.5,3.6,6.4c-41.8,128-84.1,91.3-84.1,91.3c-23.3-24.2,9.6-51.3,9.6-51.3c16.7-2.9,0,21.7,0,21.7
	c-9.4,9.4-5.1,10.1-5.1,10.1c37.7-21.1,18.8-40,18.8-40c-15.2-18.3-40.6,10.3-40.6,10.3c-13,4.3-3.6,10.1-9.5,18.1
	c-5.8,8,0.8,18.1,0,29c-0.7,10.9,10.1,6.5,10.9,13.8c0.7,7.2,12.3,11.6,12.3,11.6c9.1,4.1,17.9,5,26.2,3.7
	c-13,17.4-27.5,35.3-42.1,50.9c-4.7-0.5-9.4-1.1-14.3-2c0,0-28,0-28.1,38.7c-9.2,5.5-17.8,8.5-25.4,8.2c0,0-47.1-3.3-37.7-49.1
	c0,0,12.1-23.1-5.3-6.6c0,0-18.2,26.3,5.3,55.7c0,0-0.5,13.1,12.6,9.8c0,0,7.6,12,17.5,5.5c0,0,17.5,15.9,25.1,2c0,0,4.9,0,10.8-1.2
	c1.7,7.8,4.2,16.6,7.7,26.5c0,0,9.8,17.5-2.2,20.7c0,0-7.6,10.9,13.1,0c0,0,9.3-19.4-0.9-39c0,0-1.8-6.5-2.6-14.7
	c1.8-1.5,3.4-3.2,4.6-5.2c0,0,25.1-6.5,30.5-16.4c0,0,2.5-3.3,7-9c30.9,1.5,81.7,1.3,101.7-13.4c0,0,22.5-6.5,21.7-16.7
	c0,0,18.1-8.7,19.6-21c0,0,21-15.9,21-30.4c0,0,0.7-0.6,1.8-1.6c25.6,3.4,89.4,5.4,133.6-49.1c0,0,25.4,9.4,36.2-8.7
	c0,0,10.1-42.7,42.7-31.1c0,0,21.7,18.1,31.9,14.5c0,0,17.4,14.5,29,14.5c0,0,15.9,13.8,23.2,8.7c0,0,20.3,13,27.5,7.2
	c0,0,18.1,8.6,24.6,5.7c0,0,16.2,13.6,40.9,30.6c4.2,8.9,10.5,19.8,17.8,23.8c0,0,9.4,28.3,21.7,33.3c0,0,2.2,21,12.3,25.4
	c0,0,7.2,15.2,16.7,16.7s11.6,23.2,24.6,21c13-2.2,11.6,18.8,25.4,16.7c13.8-2.2,19.6,17.4,31.2,12.3c11.6-5.1,26.8,13.8,37.7,5.8
	c10.9-8,23.9-3.6,28.3-11.6c0,0,12.3-18.8,8-26.1c0,0,11.6-48-33.3-45.4c0,0-28.3,0-27.5,29.4c0,0,0,12.3,10.9,16.7
	c0,0,3.8,0.1-1.4-16.7c0,0,4.4-22.1,28.3-13.8c0,0,29.7,51.4-49.3,31.9c0,0-61.1-28.8-89.3-82.5c3.9,2,7.8,3.9,11.8,5.7
	c2.4,5.5,8.4,13.3,23.1,9.8c0,0,12.4,16.6,27.6,8.5c0,0,0,0,0,0c4.3,1,8.5,1.9,12.7,2.6c3.4,3.4,7.2,6.8,17.3,1.9
	c6.5,0.3,12.9,0.1,19.1-0.8c1.8,4.7,3.1,9.4,16.1-1.4c0,0,0,0,0,0c5-0.2,10.9-0.3,17.2-0.1c1.4,2.6,3.9,4.1,10.8,0.8c0,0,0,0,0,0
	c3.9,0.4,7.2,1,11.1,1.8c1.1,3.3,2.7,6.9,13.7,4.1v0c8,3.2,15.7,7.7,20.6,14.2c0,0,25.8,39.8,48.2,34.8
	C1009.7,699.9,1030.9,694.1,1000.5,690.5z M301.4,418.8c36.1-30.7,66.1-6.2,79.2,8.5c-31.6,6.2-80.4,19.7-119.1,48.3
	C281.4,436.5,301.4,418.8,301.4,418.8z M266,592.6c0,0-32,49.1-103.9,55.7c22.8-28,57.6-69,91.6-102.6c5.4,9.9,12.8,20.2,22.7,28.5
	C272.9,580.2,269.4,586.3,266,592.6z M290.1,552.8c-7.6-4.9-14.8-11.8-21.5-21.2c29.6-27.4,57.2-46.6,73.8-43.5
	C342.4,488.1,317.9,511.1,290.1,552.8z M400,531.8c0,0-35.2,30.3-73.6,31c2.2-1.1,16.1-8.4,21.4-23c0,0,18.1-10.9,23.2-21.7
	c5.1-10.9,13.8-5.1,18.1-10.9c0,0,21.7-1.4,23.9-10.1C413,497.1,417.4,518.1,400,531.8z M487.2,375.3c-2.9,4.2-7.7,5.9-10.7,3.8
	s-3.1-7.2-0.1-11.4c2.9-4.2,7.7-5.9,10.7-3.8C490.1,366.1,490.1,371.2,487.2,375.3z M649.9,460.8c0,0-11.4-18.3-32.9-25.5
	c0,0,29.7,0.3,60.8-10c-5.4,12.5-6.8,31.2,14.1,52.1c0,0,5,3.1,8.4,4.1c-0.2,1.5-0.3,3-0.5,4.6C699.9,486.2,677.6,467.5,649.9,460.8
	z M701,526.4l-11.3-15.8l11.3,5.7V526.4z M725.2,422.5c0,0-18.1,17.5-24,53.1c-0.7-1.1-1.6-2.4-2.8-3.9c0,0,0.7-8-5.1-8
	s4.3-10.9-1.4-11.6c-5.8-0.7,2.2-8-2.9-11.6s5.1-5,2.9-12.3c0,0,8.5-1.8,10.1-8s13-2.2,17.4-8.7c4.3-6.5,9.4-0.7,13-5.1
	c3.6-4.3,12.3,2.9,18.8-1.4c1.2-0.8,2.7-1.1,4.4-1C744.7,408.5,734.3,414.5,725.2,422.5z M736.1,500c0,0-0.7-37.7,3.6-44.2
	c0,0,11.6-5.8,12.3-13c0,0,13-3.6,16.7-15.2c0,0,12.7,1.4,18.8-5.8c0,0,12.6,2.7,23.2,1.5c4.4,5.2,8.3,14.4,14.3,17.4
	c8.7,4.3,0.7,13.8,3.6,18.8c0,0,4.5,35.5-67.2,60.9C761.4,520.2,751.3,505,736.1,500z"/>
</svg>
