<?xml version="1.0" encoding="utf-8"?>
<!-- Generator: Adobe Illustrator 22.1.0, SVG Export Plug-In . SVG Version: 6.00 Build 0)  -->
<svg version="1.1" id="Слой_1" xmlns="http://www.w3.org/2000/svg" xmlns:xlink="http://www.w3.org/1999/xlink" x="0px" y="0px"
	 viewBox="0 0 1024 1024" style="enable-background:new 0 0 1024 1024;" xml:space="preserve">
<path d="M997.6,577.6c0,0,29-8.3,16.9-21.3c0,0-2.4-4.9-45.2-16.4c0,0-16.7-4.4-37.9-14c0,0-24.8-10.4-51.5-18.3
	c0,0-19.7-6.7-48.1-21.6c0,0-85.6-40.9-198.6-64c0,0-8.7-2.9-89.5-12c0,0-7.1-2.4-37.4-17.4c0,0-18.3-11.5-34.1-24
	c0,0-18.3-14.9-28.9-13c0,0-10.1,1-6.3,9.6c0,0-2.7,25.5-0.9,33.7c0,0-0.1,16.4-4.4,18.8c0,0-6.7,7.2-4.8,14.4
	c0,0-99.6,22.1-105.8,21.6c0,0-16.8-7.2-27.9-15.4c0,0-10.6-11.1-21.2-20.7c0,0-8.7-8.2-15.9-5.3c0,0,1.4,14.9,0,23.1
	c0,0-1.4,12,0,17.8c0,0,0.5,20.2-5.3,22.1l-31.7,5.8c0,0-57.7-34.6-78.4-40.9c0,0-74.1-34.1-111.1-51c0,0-18.3-7.2-25-7.2
	c0,0,5.3,4.3,0,5.3c0,0,11.1,11.5,12.5,20.2c0,0,1.9,9.6,21.2,8.2c0,0,3.8,3.4,1,10.6c0,0,2.4,15.4,6.3,17.8c0,0,1.9-0.3,1.9,5.5
	l3.8,5H55l0.1,4.3c0,0,27.4,25.8,47.6,40.2c0,0,29.8,21.7,34.6,44.7c1.5,7.4,4,7.5-1,39.9c0,0-1.9,8.6-0.5,11.5
	c0,0,8.2,5.8,22.1-3.9c0,0,26-19.2,35.1-45.2c0,0,4.3-21.6,17.3-10.6H204c0,0,16.1,19,15.2,40.1c0,0-3.4,21-6.3,31.1
	c0,0,0,7.6,14.4,5.7c0,0,24.5-6.8,56.8-43.8c0,0,6.3-4.8,15.4-1.5c0,0,32.7,7.2,39.9,7.2c0,0-1.9,9-26.5,13.4c0,0-5.3,0.7,4.8,25.7
	h4.3l-4.3,4c0,0-1.9,6.6,1,10.5c0,0-0.5,21.1,4.3,25.4c0,0,12.5,3.8,31.7-8.7c0,0,48.1-27,54.8-27c0,0,14.4-5.3,34.6,0
	c0,0,39,8.7,105.8,14.9c0,0-2.9,11.3-0.5,14.2c0,0-4.8,7.7-2.9,13.7h3.3c0,0-6.2,2.2-3.3,8c0,0,16.4,6.1,49.1-6.4
	c0,0,48.1-22.2,58.7-28.4c0,0,110.6-2.9,148.6-6.3c0,0,39.4-2.9,102-18.3c0,0,44.7-8.7,36.1-14.9c0,0,1.6-1.3,3.4-2.8
	c1.8-1.4,3.9-3,4.8-3.5c0,0,0.5,5.3-1.9,6.7c0,0,5.3-1.9,14.9-8.7c0,0,8.2,1.9,14.9-0.5C977.1,585.5,985.8,582.7,997.6,577.6z"/>
</svg>
