<?xml version="1.0" encoding="utf-8"?>
<!-- Generator: Adobe Illustrator 22.1.0, SVG Export Plug-In . SVG Version: 6.00 Build 0)  -->
<svg version="1.1" id="Слой_1" xmlns="http://www.w3.org/2000/svg" xmlns:xlink="http://www.w3.org/1999/xlink" x="0px" y="0px"
	 viewBox="0 0 1024 1024" style="enable-background:new 0 0 1024 1024;" xml:space="preserve">
<path d="M1010.7,571.4h-6.4c7.1,0,12.3-6.3,12.3-13.4v-58c0-5.9-3.6-10.5-9-12.1c-2.1-51.9-7.7-81.9-10.9-93.7h2.5
	c7,0,12.1-4.9,12.1-10.4v-8.2c0-5.4-5.1-9.3-12.1-9.3H972c-0.3-5.4-4.2-8.6-9.1-8.6h-5.7c2.8,0,4.6-2.8,4.6-5.7v0.3h4.4
	c6.2,0,10.6-5.5,10.6-11.7v-0.3c0-6.2-4.5-10.6-10.6-10.6h-36.8c-6.2,0-11.7,4.5-11.7,10.6v0.3c0,6.2,5.5,11.7,11.7,11.7h7.6V352
	c0,2.8,2.8,5.7,5.7,5.7H937c-3.9,0-7.3,2.2-8.6,5.7l-281.1-11.5c-7.1,0-13.2,5.6-13.2,12.8v29.5H603v-47.1l100.8-5.3l-0.9-19.3
	L13,358.8l0.8,19.3l10.6-0.6v16.5c-5.4,1-10.7,6.3-10.7,12.7v47.7c-5.4,1.4-9.7,6.5-9.7,12.5v91.3c0,6,4.3,11,9.7,12.5v70.2
	c0,7.1,6.3,13.4,13.4,13.4H179v26.9c0,2.6,2.7,5.3,5.3,5.3h0.1c2.6,0,4.2-2.7,4.2-5.3v-26.9h10.7v16.1c0,2.1,2.6,4.3,5.2,4.3h0.3
	c2.6,0,4.1-2.2,4.1-4.3v-16.1h15.8c3.7,30.1,29.9,54.2,61.5,54.2c10.4,0,20.2-2.7,28.8-7.3c21.4-4.6,38.6-20.2,45.2-40.8
	c3.1-0.6,5.4-3.9,5.9-6.1h0.2c-0.1,0-0.1,1.1-0.1,1.6c0,5.6,4.6,10.2,10.2,10.2h143.9c5.6,0,10.2-4.6,10.2-10.2
	c0-0.5-0.1-1.6-0.1-1.6h59.9c-1.8,1.1-3.4,4.3-3.4,7.3v0.5c0,6.7,5.9,12.6,12.6,12.6h91.8c6.7,0,11.5-5.9,11.5-12.6v-0.5
	c0-0.5,0.5-0.8,0.5-0.8H747v17.7c0,2.4,1.9,4.3,4.3,4.3c2.4,0,4.3-1.9,4.3-4.3v-13.8c2.1,0.6,2.7,1.2,4,1.2c3.5,0,6.7-3,7.9-5.1h5.4
	c7.1,15,20.6,27.5,37.2,32.8c9.4,5.9,20.4,9.4,32.3,9.4c27.2,0,50.1-18.5,58.1-42.1h11.4c0.4,4.3,3.7,8.6,7.8,8.6h0.4
	c4.1,0,7.4-4.3,7.8-8.6h82.7c7.1,0,12.3-7.5,12.3-16v-58.1C1023,577.9,1017.8,571.4,1010.7,571.4z M362.6,394.4H40.5v-17.7
	l322.1-16.9V394.4z M587.1,394.4H378.7V359L587,348.1L587.1,394.4L587.1,394.4z M786.8,464.4c0,6.8-5.5,12.2-12.6,12.2l-80.7-10.2
	c-7.1,0-13-5.5-13-12.2v-54c0-6.8,6.3-11.3,13.4-11.3h80.5c7.1,0,12.3,4.5,12.3,11.3L786.8,464.4L786.8,464.4z M962.9,467.4
	c0,6.8-5.1,12.2-11.8,12.2l-75.8-6.1c-6.7,0-12.2-5.5-12.2-12.2v-61.1c0-6.8,5.9-11.3,12.6-11.3h75.7c6.7,0,11.5,4.5,11.5,11.3
	V467.4z M991.6,482.9c-5,0-16.9-4.1-16.9-9.1v-70.9c0-5,4.4-9.1,9.4-9.1s9.3,4.1,9.3,9.1l7.4,70.9
	C1000.8,478.9,996.6,482.9,991.6,482.9z"/>
</svg>
