<?xml version="1.0" encoding="utf-8"?>
<!-- Generator: Adobe Illustrator 22.1.0, SVG Export Plug-In . SVG Version: 6.00 Build 0)  -->
<svg version="1.1" id="Слой_1" xmlns="http://www.w3.org/2000/svg" xmlns:xlink="http://www.w3.org/1999/xlink" x="0px" y="0px"
	 viewBox="0 0 1590 1590" style="enable-background:new 0 0 1590 1590;" xml:space="preserve">
<path d="M1284.4,826.8c-34.4-53.9-92.1-77.6-106.6-77.1c-8.8-11.8-20.7-9.4-20.7-9.4l-2.4,6.2c0,0-6.2-0.6-8.8-1.9
	c-2.4-1.3-17.5-13.2-17.5-13.2s-1.9-11.3-5.1-16.9s-18.2-1.9-21.2,0.6c-11.8-10-76.5-3.2-80.8-4.3c-4.3-1.3-15-16.4-15.6-20.1
	c-0.6-3.8,13.2,1.3,9.4-5.1c-2.4-3-22.4-4.1-47.6-4.1l6-44.4l5.6-4.7V629l601.5-32.1l-522.2,10.7l147.6-25.2h-58.8l-161.7,26.7h1.5
	l-20.1,0.4l2.4-5.1c8.1-0.8,13.2-1.5,13.2-1.5l-23.5-6.2h-46.2l-16.5,6.2c0,0,4.5,0.6,11.8,1.3l3.2,4.9l-15,1.9v1.9l-529.9-21.6
	l-48.9,5.5l487.4,27.3l-153.4,8.6h32h215.2l5.3,3.4l7.1,47c-29.5,1.1-54.1,2.8-56.4,3.6c-8.1-6.2-15.6-3.8-15.6-3.8v5.6
	c0,0-21.2,2.4-26.3,3.2c-3.2-20.1-26.9-22-26.9-22l-5.6,1.3c0,0-1.1,17.7-1.3,18.2c6.2-1.3,7,5.8,7,5.8s-154.1,32.5-161.1,35.5
	c-7,3.2-8.1,20.1-15,23.9c-7.1,3.6-213.9,2.3-213.9,2.3s-11.3-17.5-16.4-20.7s-15.6-0.6-29.5-0.6c-13.7,0-9.4,10.7-7.5,14.5
	c-3.8-7-13.7-8.1-32.5-6.2s-10,13.2-10,13.2s-33.1,1.9-68.4,2.8c5.3-15-10.5-29.1-10.5-29.1s-42.9,14.1-74.6,24.1
	c-18.4-16.5-60.1-105.1-69.5-116.9c-10-12.6-33.8-8.8-40,0c0,0,43.2,117.1,46.4,119c-6.2,0-34.4,14.5-40.8,20.7
	c5.5,4.9,16.2,9,25.9,12.2L8.7,804c0,0-1.3,28,17.9,40c-0.9-0.4,30.6-21.8,58.8-40.6c-6.4,19.4-21.8,65.8-24.8,74.2
	c8.8,13.7,43.8,11.3,43.8,11.3l46.4-91.5l159.8,8.1c0,0-11.3,30.1-18.2,44.5c-7,14.5,3.2,15.6,3.2,15.6s23.1,2.4,28.2,0.6
	c4.9-1.9,10.2-8.8,10.5-13.2c0.4,5.1,22.4,6.2,33.3,1.3c11.3-5.1,28.2-43.8,28.2-43.8s163.5,9.4,186.6,9.4
	c23.1,0,26.3,2.4,36.3,13.7s27.6,32.5,37,45.1s16.4,18.2,34.2,20.7c17.9,2.4,11.7,6.2,11.7,6.2s19.4,8.8,24.4,9.4
	c5.1,0.6,8.8,0,9.4-4.3c12.6,3.9,106.6,17,106.6,17s-2.4,3.8-1.3,8.8c0.4,1.5,1.3,2.8,2.4,3.8c-0.9,2.6-1.7,5.6-1.5,8.1
	c0,1.3,0.4,3.9,0.8,7.7l-23.3,0.8c-0.6,7.1,6.2,7.1,6.2,7.1h17.9c0.2,2.1,0.4,4.1,0.6,6.2l-56,2.3c0,0,0,0,2.4,2.4
	s32.5,4.1,32.5,4.1s8.3-0.4,22.2-0.9c1.1,12.2,2.3,23.5,2.3,23.5s-3.8,0.6-0.9,14.7c-1.3-0.4-16.5,0.8-24.6,0.6
	c-2.6,0-2.4,7.7-1.1,7.7c5.8,0.6,44.2,1.1,44.2,1.1l289.5-9.4c0,0,29.7,1.9,44.2-18.8l-14.7,0.9c0,0-4.7,3.8-13.7,6.2
	s-49.8,2.8-49.8,2.8c0-2.8-0.2-5.1-0.4-6.8l78.4-3c0,0,24.1-8.5,28.8-16.5h-14.7c0,0-9,7.5-19.4,8.5c-2.3,0.2-18.6,0.9-42.7,1.9
	c0,0-2.4-9.4-5.6-13.2c-0.6-1.9-1.5-6.6-3-12.6c12.4-0.9,26.1-2.1,28.8-3.4c3.8-1.9,1.9-4.7,1.9-4.7l-32.3,1.3
	c-0.4-1.5-0.8-3-1.1-4.7l24.6-0.8c0,0,23.5-3.4,28.2-3.6c4.7-0.4,4.3-5.5,4.3-5.5l-59.2,2.1c-2.3-7.3-4.9-14.5-7.7-19.5
	c0.9-0.9,1.1-2.1,0.2-3.2c-4.3-5.6,3.2,0,3.2,0h18.2l-0.6-4.9h9.4c0,0,3.2-0.8,6.2-3.4c18.8,7,39.5,1.9,40-3.8
	c3.8,1.9,43.8-1.3,43.8-1.3l2.4,5.1c0,0,15-4.3,16.4-5.1c8.1-11.8,45.1-15.6,45.1-15.6s26.3-20.1,30.1-33.3
	C1342.7,844.4,1293.8,828.7,1284.4,826.8z M1106.6,959.9l-226.1,9c-0.6-1.9-1.1-3.9-1.7-6l227.4-7.9
	C1106.4,956.7,1106.4,958.3,1106.6,959.9z M943.8,643.7l1.9,4.9l2.8-4.9l-2.8-2.6v-5.8h0.9l23.9-2.4l-3.4,49.1
	c-5.3,0-10.5,0-16.2,0.2l0.2-16.5l2.4-2.3l0.2-3.2c0,0-3.4-0.4-5.5-0.8l-4.7-2.6v-13h0.3V643.7z M906.2,632.6h14.3l12.4,2.3v6.4h0.4
	l-2.6,3.6l2.4,3.8l2.4-4.9v12.4l-4.7,2.8l-5.8,0.9l-0.4,2.8l2.8,2.8v16.9l0,0c-5.5,0.2-10.9,0.4-16.2,0.6L906.2,632.6z
	 M1102.1,919.6l1.3,10c0.8,0.8,1.7,1.1,2.8,1.5c-0.4,4.7-0.4,10.2-0.2,16L876.5,955c-2.8-8.6-5.6-16.5-8.3-19.5
	c1.5-3.4,0.8-7-0.6-7.9C895.3,939,1102.1,919.6,1102.1,919.6z M849.8,943.9c0.2,0,0.4,0.2,0.4,0.2s8.3-0.6,13.9-4.1
	c0.8,0.9,1.5,2.3,2.3,4.1c0.6,1.9,1.9,6,3.4,11.1l-21.4,0.8C848.3,951.4,848.9,947.3,849.8,943.9z M848.5,964l23.5-0.8
	c0.6,2.1,1.1,3.9,1.7,6l-24.8,0.9C848.9,968.1,848.7,966.1,848.5,964z M855.1,1016.6c0,0,0.6-15-3.8-15c-0.6-1.9-0.9-22-0.9-22
	s-0.2-0.6-0.2-1.5c7.5-0.4,16.4-0.6,25.9-1.1c1.7,5.8,2.8,10.2,2.8,10.2s-1.1,6,3.9,15c-1.1,0-1.7,0-1.7,0h-22.6c0,0-6.2,2.6,0,8.5
	l251.7-9.8c0.2,2.4,0.6,4.9,0.9,6.8L855.1,1016.6z M891.2,1001.6L891.2,1001.6c0,0-1.9-13.2-6-15.6c-0.2-0.8-1.1-4.3-2.4-9.4
	c69.4-2.8,179.9-7.1,224.8-9.2c1.3,12.2,3.2,22.7,4.3,25.4C1034.1,995.9,924.3,1000.3,891.2,1001.6z M1139.3,979.4
	c0,0-2.8,4.5,2.4,12.2c-7.5,0.4-15.6,0.6-24.1,0.9c-0.6-3.9-2.4-18.8-3-25.6c6.6-0.4,10.9-0.6,12.2-0.6c2.3-0.2,5.3-0.4,8.5-0.6
	C1137.4,973.4,1139.3,979.4,1139.3,979.4z M1133.3,958.9l-19.4,0.8c-0.2-1.7-0.4-3.4-0.4-4.9l18.6-0.6
	C1132.6,955.7,1132.9,957.2,1133.3,958.9z M1130.3,946.3l-17.5,0.6c-0.6-10.5-0.2-14.1,0.6-15c0.4,0,0.8,0,1.1,0l0,0l0,0
	c3.2-0.4,6.6-1.1,9.4-2.3C1125.8,933.2,1128.4,939.2,1130.3,946.3z"/>
</svg>
