<?xml version="1.0" encoding="utf-8"?>
<!-- Generator: Adobe Illustrator 22.1.0, SVG Export Plug-In . SVG Version: 6.00 Build 0)  -->
<svg version="1.1" id="Слой_2" xmlns="http://www.w3.org/2000/svg" xmlns:xlink="http://www.w3.org/1999/xlink" x="0px" y="0px"
	 viewBox="0 0 1590 1590" style="enable-background:new 0 0 1590 1590;" xml:space="preserve">
<path d="M92.1,823.1c0.3-4.9,5.8-9,5.8-14.2c-2.3,1.1-4.4,1.9-6.9,1.9c-0.4-4.1,2.5-8.1,2.8-12.1c-4.9-0.8-7.7,4.8-12.1,6
	c-0.4-5,3.6-9.5,4.2-14.3c0.7-4.4,0.8-9.7,0.5-14.3c-2.1,0.3-3.8,0.4-5.8,0.7c-0.7-3.3,1.6-6,3.6-8.5c-2-1.3-4.2-1.9-6.8-1.9
	c-1.2-5.6,7.9-13.1,3.3-18.8c-1.2-1.5-3.6,0.3-4.5-0.7c-2.7-2.8-0.5-2.1-1.3-5.3c-0.8-2.9,1.3-4.9-3.7-6.4
	c-2.1-7.7,8.6-16.6,11.1-23.5c-0.5-0.1-1.2-0.3-1.7-0.4c-3-4.5,0.9-14,3.8-18.2c-1.3,0.3-3.4-0.5-4.9-0.4c-1.2-4.9,6-13,9-16.7
	c-3.7-6.1,23.1-26.1,11.7-26.8c-1.1-6.1,10.3-14.6,14.2-18.7c-5.8-4.8-0.9-7.7,3.2-11.4c4.9-4.2,6-8.3,9-13.2c1.3-2,3.4-3,4.6-5
	c1.7-3,0.8-5.3,2-8.1c1.9-4.2,6.1-7.9,7.9-12.5c-0.5-0.1-1.2-0.3-1.7-0.4c-1.6-5.8,8.3-13.1,11.5-17.2c4.9-6.2,31-41.3,42.9-51.1
	c11.5-9.5,47.7-43.9,55.3-49.2c6-4.1,15.9-6.5,10.5-13.9c4.4-4.4,11.3-4.8,15.9-8.2c2.3-1.7,2.3-4.1,4.4-5.8
	c2.7-2.3,7.4-3.4,10.6-4.6c6.1-2.1,10.9-4.2,16.3-6.9c4.9-2.5,11-3,15.4-6.5c-0.5-0.8-0.4-2.1-0.8-2.6c3.4-1.1,6.8-0.3,10.2-1.2
	c3.6-0.8,5.8-4,9-5.6c6.2-2.9,14-2.9,20.8-5c-3-4.6,24-10.7,29-11.4c12.7-1.6,89.4-17.6,95.9-18.6c5.2-0.8,12.6-0.8,17.8-3
	c-0.8-0.7-1.5-2.1-2.5-2.9c10.2-4,24,1.6,34.6,4c0.1-2.3,0.3-4.8,0.4-7c5.6,0.7,11.3,3.3,17.4,4c5.8,0.5,86,7.3,99.2,9.3
	c9.5,1.5,28.1,8,37.1,2.9c-0.4-0.8-0.5-2.3-0.7-2.8c4.4,2.9,10.2,4.4,15.4,6.1c4.5,1.5,9.3,5,13.2,6.1c-0.1-1.1,0.5-2.8,0.4-3.8
	c2.8,0.5,6.8,4.5,9.9,6c2.3-9.4,36.2,7.7,40.5,8.6c6.4,1.3,42.8,6.1,55.8,7c17.2,1.2,34.7,1.7,51.9,3c13.4,1.1,28.6,0.8,40.8-2.9
	c-3.4-0.3-6.9,0.1-9.7-2.4c10.7,0.3,20.8-0.3,30.7-3.8c6.5-2.3,24.5-8.1,26.8-14.6c-0.9-0.1-1.9-0.4-2.8-0.4
	c16.2-8.3,33.8-14.6,50.6-21.2c18.7-7.4,36.7-4.9,56.3-5.3c-1.7-1.2-2.1-2.6-3.4-4.1c3,0.9,6.4,2.1,9.8,2.8c0.4-4-0.1-8.2,0.4-12.2
	c3.8,3.2,2,10.7,9,12.2c-3.3-6.1,1.5-19.7,6.1-24.4c0.8,7.4,0.5,13.8,2.3,21.2c-0.5-3.7,0.4-8.3,3.8-9.9c-0.1,2.7,0.4,5.6,1.5,8.1
	c4-2.8,6.4-9.8,11-13.1c-2,3.7-0.8,9.7-0.9,14c1.7-4.4,6.8-7.3,10.2-9.9c0.1,3.8-1.6,9-2.9,13c2.9-6.1,12.3-7,14.6-10.7
	c-1.7,3-3.4,6-4.9,9c5.6,0.5,9.4-3.4,13.1-6.9c-1.5,2.8-1.9,5.8-4.9,8c5.3,0.1,11.8-0.4,15.8-4.2c-2.8,3.2-4.1,6.9-8.6,10.5
	c4.4,0,11.1,1.5,13-3c-2.1,4.8-8.5,11.3-9,16.2c8.1,3.4,15.2-2.1,20.7-7.7c-0.9,2.8-3.7,4.9-4.1,7.7c3.3-0.1,8-1.7,9.9-4.6
	c0.4,4.9-1.6,12.5-4.8,16c1.5-0.5,3.3-0.8,4.8-1.7c0,0.9,0.4,2,0.4,2.9c2.9-1.2,6.1-3,8.1-5.7c2.3,3.7-1.6,7.4-2.8,11.1
	c3.6-1.1,7.7-3.6,9.1-7.3c2.6,2.1,1.1,7-0.3,10.2l4.1,4.1c-1.1,8.7,11,6.5,12.6-0.9c4.5,2.8,2.7,14,5.7,18.4c0-1.2,3.6-2.8,3.6-4
	c5.8,7.8,7.2,14,18.4,15.2c10.6,1.1,19.9,0.8,30.1,3.3c8.5,2,18.8,3.4,27,6c4.4,1.3,7.9,2.9,12.1,4.4c6.6,2.4,9.3,1.5,15.4,0.1
	c0.8,1.9,1.7,8,3.4,9c1.3,0.8,53.8,7.9,67.2,11.3c13,3.3,44.9,20.5,49.4,25c4.2,4.4,18.9,22.1,22.5,22.5
	c4.1-11.9,25.7-26.5,38.4-23.6c16.8,3.8,7.9,32.2,1.3,41.6c-4,5.7-17.6,20.7-17.6,20.7s3.3,9.1,6,16.3c5,13.8,14.4,25.3,22,38
	c8.2,13.8,9.3,30.2,14.2,44.8c2.3,6.8,7.7,11,8.3,18.5c0.8,9-1.9,16.3-3.3,24.6c-2.7,15.2,0,29.8,8.2,42.7
	c8.3,13.1,15.1,28.2,24.8,40.5c4.1,5.3,8.3,11,13.4,15.5c4.2,3.8,13.6,9.1,11.4,16c-0.8,2.4-4.8,4.8-6.2,6.2c-2.8,2.7-5,3.8-7.8,5.6
	c-7.2,4.5-9.9,6.1-13.4,13.4c-2.9,6.1-8.3,12.6-13.5,16.6c-2.7,2-6,3.3-8.5,4.9c-4.6,3.2-3.3,1.3-1.3,7.4
	c2.9,8.7-6.2,11.4-14.3,10.1c-6.6-1.1-12.5-5.3-18.3-8.6c-5.3-3-10.7-5.2-16-7.8c-2.3-1.1-5.6-2.4-7.8-3.6
	c-51.9-29.2-89.8-28.6-91.2-30.7c-5.7-9.5-3.2-6.9-2.8-6.5c-2.9-2.9-8.6-1.9-12.2,0c0.5-7.4-6.9-6.2-11.4-5.2
	c0.3-1.1-9.1-9.8-9-10.9c-5.6-0.7-9.5,4-14.2,2.8c0.3-1.3-0.7-3.6-0.3-4.9c-5.6-1.5-11.9,6.2-13.5,10.9c-2.3-9-6.6-7.7-12.2-3.8
	c-4.9-15.9-20.8,7.8-25.7,9.3c-0.1-2.3-0.3-4.6-0.4-6.9c-6-1.7-12.6,8.1-16.2,11.1c0.1-1.9-0.5-4.1-0.4-6c-4.1-0.9-6.8,6-9.9,8
	c-1.1-3.8-5.7-4.8-9.4-3.8c-1.1,5-3.8,9.8-5.3,15c-1.7-3.8,0.5-10.2-2.9-13c-0.9,3.8-2.5,7.4-3.6,11.1c-0.5,0.4-1.2,0.4-1.7,0
	c0-2.9-1.3-6.1-3-8.1c-1.1,4.2-2.3,8.5-4.6,12.2c-1.6-2.8-0.5-8.5-0.9-12.2c-4.5,0.4-5.2,6.9-10.1,8.1c-0.3-2.7,0-5.4-0.3-8
	c-4.9-1.2-5.3,4.5-10.1,3.8c0.3-2.5,1.5-5.2,0.7-8c-3.2,2.9-6.2,7.2-9.9,10.1c-0.4-3.2,0.8-7.6-1.5-9.8c-6.2,7.2-8.3,19.6-9,28.6
	c-0.9,11.5,3.7,18.4,5.2,28.9c2.5,17.2,11.4,43.9,5.2,61c-0.5-4.2-3.6-6.6-5.2-11c-2.1,4.6-0.8,13.2-5,16.2c-2-3.6-1.3-6.6-3.4-11.9
	c-2.8,9.5-6.9,13.5-9,20.3c-2,6.8-1.9,19.2-0.8,26.4c-0.7-1.9-4.1-5.6-4.8-7.4c1.1,6.5-1.9,16.2-3,22.4c-1.3,6.6-2.9,13.8-4.1,20.7
	c-2.8,15-2.1,33.1-2.1,48.6c0,16.6,3.6,28.9,6.2,44.5c6.6,38.7,23.2,56.8,25.6,61.2c4.2,8,7.8,14,16,18.2c7.7,3.8,11.8,6.1,20.4,7.4
	c8.3,1.3,16.7,1.7,24.8,3c15.8,2.8,35.1-4.2,47.8,9c7.8,8.2,21.2,18.9,24.4,29.4c1.2,4.1,1.5,9.5,1.3,13.9
	c-4.5-4.9-7.6-10.9-12.6-15.8c3.7,4.5,3.7,21.1-1.7,24.2c0.3-7.6-2.4-12.9-7.3-16.3c-3.2,3.8-2.7,4-2.3,9.1
	c0.3,3.8,0.9,9.3-2.1,12.1c-2.6-15.5-25.4-15-37.2-14c-16.4,1.3-32.9,3.7-49.7,2.1c-8.7-0.9-87.6-9-95.1-11.7
	c-3.2-1.1-7.6-3.3-10.1-5.2c-2.7-2-3.4-4.8-5.6-6.8c-3.2-2.8-6.5-1.2-9.9-2.5c-3-1.2-6.6-4.2-9.3-6.2c-10.7-7.9-15-21.7-13.8-34.7
	c-2.8,0.3-5,1.9-8,1.7c1.7-1.5,1.3-2.9,1.9-4.8c-2.7-0.3-5.4,0-8-0.4c0.4-2.6,2.9-4.2,4-6.9c-6.9-3.3-14-7.3-21.5-7.6
	c-0.3-4.2-2.7-1.3-4.4-2.9c-0.5-0.5-2.3-0.8-2.9-1.3c-0.8-0.5,0.4-2.5-0.1-2.9c-2.7-2.3-6.5-3.8-10.2-4.2c-0.4-2.5,1.2-4.1,2.8-5.8
	c-4.4-0.5-8.9,0-13.1-0.4c-0.3-0.8-0.4-2-0.3-2.8c-0.5-0.1-1.2-0.3-1.7-0.4c0.5-6.8,3.2-6.1-4.1-9.4c1.3-2,3.7-3.8,4.9-5.7
	c-2.8-1.6-6.5-0.5-8.5-3.3c-1.2-1.7,0.8-5.6,0.1-8.1c-1.9,0.3-4.1-0.5-5.8-0.3c-0.4-5,0.1-10.2-0.3-15.2c-2.4-0.5-4.8,0.3-6.9,0.7
	c0.4-1.6,1.6-3.4,2.9-4.8c-1.7-0.1-3-1.5-4.9-1.5c-0.9-4.5,1.1-6.6-1.3-11c-1.1,0.1-2.8-0.5-3.8-0.4c0-2,0.3-4.1,0.8-5.8
	c-2.5-0.1-4.5,0.9-6.9,1.9c-1.1-4,2.3-6.9,2-10.9c-2,1.2-4.2,2.7-6.1,3.7c1.9-4.2,4.8-7.4,4.9-12.2c-2.1,0.3-3.8,0.5-5.8,0.7
	c-0.8-4.9,4.4-8.9,4.9-13.1c-0.5-0.1-1.2-0.3-1.7-0.4c-0.3-2.9,0-6.1-0.4-9c-0.7,0.1-1.2,0.3-2,0.5c0.4-10.2-0.1-21.3-1.2-31.5
	c-0.5,0.5-2.1,1.3-2.7,1.9c-0.5-5.3-1.9-10.3-2.4-15.2c-1.1,0.3-2.8-0.5-3.8-0.3c-0.4-4.4-0.1-8.1-1.3-12.1c-2.7,0.9-5.8,1.2-9,0.8
	c1.7-5.2-5-7.3-2.4-11c-2.9,0.4-5.4,2.9-8.1,2c1.6-3,2-7.2,2.8-10.2c-6.2-0.3-11.1,10.2-14,14.6c-4,5.8-6,12.9-9.7,18.9
	c0-3,0.4-6-0.7-8.6c-6.8,12.6-18.8,22.3-26.5,34.6c-8.6,13.9-15.6,29.4-24.8,43.5c-9.1,14-10.5,26.5-13.1,42.5
	c-0.9,5.6-4,19.3,1.2,23.6c5.3,4.4,76.2,9.8,81.5,18.8l5.2,1.1c15.4,5.8,19.5,26.8,10.6,38.2c-0.3-3.3-0.1-6.8-1.2-9.9
	c-5.7,2.3-4.1,13.6-11.1,15.1c1.9-4.5-0.4-6.5-2.5-9c-3.7,2.7-10.6,4.1-13.3,7c-3,3.4-2.4,9.1-8.1,10.2c-0.3-2.6-0.1-5.3-0.4-7.9
	c-5.4-0.9-12.5,2.8-18.4,2.9c-6.8,0.1-63.6,2.7-112.5-6.5c-4.2-0.8-11.5-3.2-14.6-6.2c1.5-3,5-5.6,7.8-7.8c-2.7,0.4-5.8,0-5.7-3
	c7.2-1.9,7-16.8,6.1-23.1c-1.1-7-6.4-11.9-9.4-18.2c-1.5,1.7-3,3.6-4.9,4.6c0.1-1.9-0.5-4.1-0.4-6c-0.7,0.3-1.9,0.3-2.6,0.8
	c-0.5-4.8,0.3-9.8-0.9-14.3c-2-7.6-3.7-5.8-9.5-6.4c2.4-3.3-0.8-5.6-4.1-6.2c0.1-1.1-0.5-2.8-0.4-3.8c-1.3,0.3-3.4-0.7-4.9-0.3
	c-0.5-4.4,10.9-26.5,13.1-31.7c-1.9,0.3-3.3-0.4-5.2,0.4c0.3-3.3,2.7-5.8,3.8-9c-0.7-1.5-1.2-2.5-1.9-3.8c-3-1.5-6.4-0.9-9-3.6
	c1.6-1.5,1.5-2.8,1.7-4.8c-3.3,0-6.2-1.2-8-4c6.9-3.8,4.9-6.1,2.9-11.7c-1.5-3.8-2.7-11.1-2.3-15.4c-6.5-1.3-10.3-3.8-7.3-9.3
	c-3-0.5-4.9-3.7-3.3-6.4c-0.3-0.4-0.9-0.5-1.2-1.1c2.3-0.8,4.8-2.5,5.7-4.9c-2.7-0.3-4.9-1.6-4.9-4.1c5.6-1.3,7.3-5.8,9-10.3
	c-3.8-0.1-5.7-3.3-1.1-4.6c-2.9-3.8,3.3-8.2,2-13.1c-5.7,4.2-9,10.6-13.2,16c0.1-4.8-0.3-9.9,0.9-14c-5.2,3.3-9,10.3-14,13.2
	c0.1-1.5-0.5-3.4-0.4-4.9c-2.8,1.5-6,2.8-9,3.8c0.8-0.9,1.1-2.8,1.9-3.7c-9.7-0.7-16.6,10.5-24.6,9.9c1.5-1.6,2.1-3.7,1.7-5.8
	c-3.7,3.2-7.4,7.8-11.9,10.1c-0.9-3.6,1.6-6.5,0.7-10.1c-4.4-0.7-8,3.4-11.1,5.8c0.5-1.2,1.1-2.8,1.7-3.8c-2.5,2.7-5.3,6.6-8.9,8.7
	c-1.3-1.5-1.7-3.6-1.5-5.7c-3.4,2.8-6.1,6.9-10.7,8.3c1.5-1.9,2-3.8,1.5-6.2c-1.7,0.7-4.1,1.7-5.8,2.8c0.4-0.9,0.4-3,0.8-3.8
	c-3.7,0.1-6.4,4.8-10.1,6c0.4-1.3,0.3-3.8,0.7-5c-2.4,2.4-4.1,6.8-6.9,9.1c0-1.9-1.1-2.5-1.5-3.8c-5.2,3-5.3,12.2-9.1,17.1
	c-0.5-5,2.5-9.1-0.1-13.9c-2.9,2.4-4.9,7.3-8.9,8c-0.8-2.7,0-5.8,0.7-8c-0.5-0.4-1.2-0.4-1.7,0c-0.1,4.2-4.4,10.1-7.3,13
	c-0.4-3.4-0.3-7.2-0.1-10.7c-2,2.4-3,5.2-4.5,7.8c0-0.3-0.3-2.8,0.1-4c-3.8,1.7-6.4,8.1-10.1,11c-0.5-5.8,0.9-10.1-5.4-12.7
	c0.1,5,0.1,11.5-2,15.8c0.9-4.6-1.3-11.3-5-13.8c-0.4,4.1-0.3,8.6-0.1,12.7c-1.6-3.4-2.8-10.7-7.2-10.9c0.1,1.1-0.5,2.8-0.4,3.8
	c-3.3,0.4-6-2.3-8.2-4.6c0.1,6.2,1.3,13.6-2.8,18.2c-0.9-4.5-3.3-15-6.2-17.4c-0.3,2.8,0.1,6.2-1.1,8.1c-0.9-3.7-1.3-8.2-5.2-10.1
	c-1.2,5.3-3.3,6.8-3.3,13c-0.9-4.8-0.7-12.2-4.9-15.1c-0.9,8.1-1.2,14.3-8.2,19.5c-0.7-6.5-0.5-11.4-2.5-17.4
	c-1.3,1.3-2.8,2.9-4,4.6c0.5-2.9,0.3-5.7-2.1-7.6c0.1,2.9-1.5,5.3-3,7.6c0-2.7,0.1-5.2-0.1-7.8c-3.2,0.1-3.2,4.5-6,6.1l-6.2-5.2
	c-0.3,4.1-4.6,14.8-7,17.5c-2.8-6.6-5-14.4-5.6-21.5c-0.5-0.3-3.2-1.1-3.7-1.1c-2.1,2.8-2.8,6.6-3.4,9.9c0.5-3.6-0.7-6.8-2.3-9.9
	c-2.6,1.3-5,4.1-6.2,7c-2.8-2.5-5.7-5.8-9.1-7.7c-2.8,3.8,0.4,13.5,2.7,17c-3-3.2-11.3-15.9-13.9-16.3c-1.2,12.9,1.6,26.5-0.4,39.1
	c-1.5,9.4-4.9,22.9-8.9,30.9c-0.3-3.7-2.6-6.8-4.4-9.9c0.9,7.6,2.9,17.1,3,24.2c-0.3-0.1-2.3,0-2.8,0c-0.4-0.8-0.8-1.5-0.9-1.9
	c-1.6,13,2.3,28-2.3,39.9c-1.3-2.4-1.7-4.9-3.2-7.6c0.1,5.7,0.4,11.7,0,17.2c-0.4,5.4-2.9,10.2-3,15.1c-0.9-2.3-1.3-5.2-2.9-6.8
	c-0.9,3.8,1.2,8.1,0.7,12.2c-2.9,0.3-4.4-2.8-6.9-4c-2.1,10.1,7.3,23.3,17.4,25.8c5.7,1.3,35.2,2.9,41.9,4.1
	c20.5,3.6,52.5,7.8,47.8,36c-1.3-1.3-4-12.3-9.9-9c-0.4,2.9-2.9,4.1-3,6.9c-0.1,2.5,2.9,9,1.9,12.6c-0.9-1.3-4.9-6.1-6.5-7.4
	c-5.6,2.9-3.3,4.4-7.4,6.4c0.1,1.9,1.9,10.6,2.1,12.5c-4.9-6.1-13-8.2-23.3-4.1c-6.9,2.8-39.4-2.3-46.5-1.1
	c-8.7,1.5-15.8,0.3-23.7-1.1c-17-2.7-33.8,2.5-50.7,1.1c-7.8-0.7-40.3-4.4-48.6-6.2c-21.7-5-50.2-0.7-64.4-22.5
	c-6.4-9.8-7-23.8-1.1-33.5c4.1-6.8,22.7-21.1,19.7-29.5c-3.2,0.8-5.8,4.2-9,4.9c2.3-3.8,1.3-8.2,2.9-12.3
	c-3.2-1.9-11.8,0.3-16.3-0.1c0.7-1.5,1.5-3.7,2.8-4.8c-5,2.5-14.2-0.5-17.4-5.2c3.3-0.1,8.6-1.2,9.1-5.2c-10.7-0.8,0.5-6.8,1.1-10.3
	c-12.9,2.3-0.4-11.9,1.1-15.5c-5.2-0.5-10.7,1.3-14-3.6c2.5-0.8,5.6-1.2,7.7-3c-2.9-4.8,3.4-4.8,3.2-8.9c-2.8-0.1-5.8,0.4-8-1.5
	c0.5-0.7,0.9-2,1.6-2.7c-4.8-0.5-8.9,2.4-11.9-3.3c5.3-2.1,13.8-9.5,14.2-15.4c-3.8,1.5-8.7,6.8-12.3,8.7c0.1-0.5,1.1-5,0.8-5.6
	c-2.9,2-5.8,5.2-9.9,3.8c-0.4-3.3,2.6-5,2.8-8c-5,1.6-26.8,0.9-31,26.6c-4.6-2.8-3.6-7.3-4.1-12.2c-1.7,0.5-4.1,1.3-5.8,1.9
	c0.1-1.7-0.5-4.1-0.4-6c-3.3-0.8-6.4,0.8-9,1.7c-0.3-2.9-0.1-6.1-0.4-9c-3.3-0.3-6.8,0-10.1-0.3c0-0.9-0.4-2-0.3-2.8
	c-11.7,1.2-18.8,23.2-19.5,33c-0.8,11.9,4.4,26.2,12.7,34.8c7.4,7.7,18,18.3,21.2,28.4c2.7,8.3,2.1,29.7-9.9,30.6
	c1.1-4.5,3.6-7.7,2.8-13.1c-3.6-0.9-6.8,1.3-10.2,1.9c-4.2,0.8-9.1,1.3-13.4,1.1c-7.2-0.4-14.3-3.6-20.9-6
	c-8.1-2.9-53.5-29.2-72.9-55.3c-8.9-11.9-15.8-26.2-22.8-39.1c-5.2-11.7-5.3-23.9-6.4-37c-1.2-14.2,5.8-25.4,7.2-38.2
	c-1.5-0.1-2.3-1.2-3.8-1.5c-0.4-2.4,1.2-4.2,2.8-5.8c-3.3-0.7-7.4-3-9.1-6.2c8.6-1.2,16.2-9.1,21.5-15.5c-8.3-2,7-9.9,5.2-15.6
	c-2.5,0-2.4-1.1-3.8-2c10.3-6.1,22.4-9.5,33.9-13.9c-1.1-1.9-2.1-4.1-2.9-6c4.8-0.8,4.6-4,8.2-7c2.8-2.4,6.8-2.5,9.3-4.1
	c-14.2-4.1,6.1-8.3,10.3-8.7c-0.7-2.3-3.6-3.2-4.9-5.8c3.4,0.1,7.2-2.1,9.9-3.3c-0.8-0.7-1.3-1.5-1.9-2.1c1.7-1.1,3.6-2.5,4.9-4
	c-1.3,0.1-3.3-0.5-4.6-0.4c3.4-4.4,10.5-4.9,15-8.1c-4,0.1-8.1,0.3-11.9-0.1c3.3-7.7,21.1-4.5,25.6-13.1c-4.1,1.3-8.6,3.2-11.8-1.2
	c4.9-2.7,10.3-4.4,11.9-10.2c-2.3,0.7-5.3,1.1-7.8,1.7c2.8-1.6,6.5-3.2,5.7-6.9c-4.1,0.9-11.5,2.3-15.2-0.1
	c2.5-4.8,8.2-12.6,12.2-16.4c-2.1,0.1-3.8,0.4-6.1,0.7C103.2,827.4,94.2,821.4,92.1,823.1z"/>
</svg>
