<?xml version="1.0" encoding="utf-8"?>
<!-- Generator: Adobe Illustrator 22.1.0, SVG Export Plug-In . SVG Version: 6.00 Build 0)  -->
<svg version="1.1" id="Слой_1" xmlns="http://www.w3.org/2000/svg" xmlns:xlink="http://www.w3.org/1999/xlink" x="0px" y="0px"
	 viewBox="0 0 1590 1590" style="enable-background:new 0 0 1590 1590;" xml:space="preserve">
<path d="M1569.7,349.5c-21.2-30.5-4.8-61.1-65.9-43.6c-10.5,0-86-20.1-137.7,5.9c-51.8,26-179.9,65-213,81.2
	c-15.3,7.6-62.2,45.8-169.4,15.3s-289.3,21.2-347,67c10.5-4.8,16.4,0,16.4,0s-46.1,22.3-56.6,39.9c7.6-5.7,18.9,0,18.9,0
	s-35.4,20.4-41.3,31.7c4.5-4.2,14.1,0,14.1,0s-33.4,30-52.6,30.8c15.8,9.3,32.5,0.8,32.5,0.8s-45.8,33.9-51.8,50.6
	c4.5-5.7,16.4-5.9,16.4-5.9s-32.5,37.3-49.8,43.8c23.5,4.2,34.5-8.5,34.5-8.5s-26.6,30.8-29.4,50.6c6.8-7.1,13-4.8,13-4.8
	s-30,41.6-28.3,57.7c5.9-7.4,16.4-10.5,16.4-10.5s-14.7,51.8-26,61.1c9-3.7,22.3-16.4,22.3-16.4s-35.9,44.7-30,61.4
	c2-6.8,16.4-9.3,16.4-9.3s-5.9,44.7-21.2,67c16.1-0.3,17.5-11.9,17.5-11.9s-7.9,63.6-17.5,87.1c8.8-3.1,16.4-23.5,16.4-23.5
	s-4.5,32.5-16.4,43.6c9.6-3.1,16.4-18.9,16.4-18.9s-12.2,41-3.4,55.1c-1.7-9.9,15.3-24.6,15.3-24.6s9.3,36.5-8.2,63.6
	c-17.2,27.2-330.3,16.5-451.3,128.2c-23.5,24.6,49.5,56.6,207,43.6s207-9.3,207-9.3s14.7,10.5,7.1,21.2c7.9-1.4,22.3-10.5,22.3-10.5
	s-9.3,14.4-5.9,17.5c3.4-13.6,31.7-11.9,31.7-11.9s-3.4,14.7-8.2,20.1c9.9-4.2,32.8-15.3,32.8-15.3s-15.6,7.4-14.1,21.2
	c7.1-6.5,61.1-26,61.1-26s8.8,19.5-5.9,26c14.1-2,42.4-22.3,42.4-22.3s19.5,26.9,29.4,27.1c-1.7-14.7,32.8-28.3,32.8-28.3
	s2.3,12.4,5.9,13c0-13.6,23.5-24.6,23.5-24.6s-6.2,16.4-2.3,18.9c0.3-12.2,31.7-20.1,31.7-20.1s10.5,3.4,8.2,11.9
	c9.3-3.7,27.1-20.1,27.1-20.1s6.2,18.7,11.9,18.9c1.7-13,14.1-21.2,14.1-21.2s32.2,11.9,43.6,26c2.8-2-2.3-13-2.3-13
	s13.9,5.9,24.6,20.1c2.8-5.7-7.1-17.5-7.1-17.5s18.9,16.4,56.6,16.4c37.6,0,110.6-24.6,135.2-27.1c24.6-2.3,70.7,1.1,91.6,10.5
	c21.2,9.3,36.5,13.3,50.6,8.2c-15.3-2.3-23.5-22.3-23.5-22.3s46.9-24.6,83.4-10.5c5.9-12.4-15.3-21.2-15.3-21.2s14.1-2.8,36.5,7.1
	c-0.8-12.2-16.4-29.1-45.8-35.4c-94.7-20.1-151-58.3-190-39.3c5.4-4,30-40.7,38.2-15.8c7.1-5.9,6.2-32.8,17.8-8.2
	c2.8-12.4,7.1-26.6-0.3-35.4c0,0,16.1-7.1,18.1,5.1c10.7-18.9,14.1-37.6,14.7-47.2c1.1-1.1,9.9,11.9,7.6,28
	c15.3-11.9,9.9-44.4,9.9-44.4s1.1,26.6,8.2,27.1c-2.3-15,14.1-30.5,14.1-30.5s-0.3,15.8,7.1,24.6c-2.5-12.7,7.1-17.5,7.1-17.5
	s14.1,6.8,10.5,23.5c11-0.6,13-42.4,13-42.4s5.1,13,10.5,17.5c-8.2-15.8,0-54,0-54s13.3,17.3,10.5,32.8c8.5-10.5,7.1-48.4,7.1-48.4
	s2.5,12.2,5.9,16.4c0-16.1,14.1-39.9,14.1-39.9s7.4,7.6,5.9,15.3c9.9-11.3,29.4-49.5,29.4-49.5s-7.4,18.9-2.3,27.1
	c2-11.3,24.6-37.6,24.6-37.6s-7.9,18.9,0.6,26.3c0-16.1,33.7-43.8,33.7-43.8s0,18.1,4.8,18.9c-0.6-11.9,21.2-36.5,21.2-36.5
	s8.8,13.9,5.9,20.1c8.5-3.4,18.9-28.3,18.9-28.3s30.5,15.3,50.6,1.1c0,0,41.3,15.3,46.9,30.5c17.3-22.1-8.2-45.8-14.1-52.9
	c11.9,5.9,28.3,16.4,48.4,11.9c7.9-8.2,22.3,0,22.3,0s-1.4-16.1-15.3-17.5c-10.2-11.6-29.4-32.8-32.8-52.9
	c-3.4-20.1-49.5-7.1-65.9-10.5s-27.1-13-27.1-13s11.9-9.9,16.4-1.1c2.5-14.1-9.3-28.3-9.3-28.3s10.2,7.6,15.3,8.2
	c-10.2-12.2-10.5-31.7-10.5-31.7s10.2-6.5,15.3,5.9c1.7-11-4.8-34.2-4.8-34.2s9,11.9,14.1,14.1c-8.2-17.3,4.8-48.4,4.8-48.4
	s8.2,8.5,9.3,16.4c5.7-7.4,8.2-38.7,8.2-38.7s9,11.9,8.2,22.3c7.1-11.6,11.9-43.6,11.9-43.6s-1.1,18.4,2.3,26
	c2.3-15.6,18.9-44.7,18.9-44.7s3.4,14.4,0,27.1c11.9-13.6,20.1-49.5,20.1-49.5s2,11.9,5.9,17.5c0-8.2,5.9-11.9,11.9-18.9
	s18.9-29.4,30.5-37.6c11.6-8.2-18.9-31.7-18.9-38.7c0-2.5,1.7-6.2,4-9.9l4.8,16.4c8.2-0.6,12.4-2.8,12.4-2.8s7.1-27.4,7.1-34.2l0,0
	c7.6-2.8,13-3.4,13-3.4S1590.7,380.3,1569.7,349.5z"/>
</svg>
