<?xml version="1.0" encoding="utf-8"?>
<!-- Generator: Adobe Illustrator 22.1.0, SVG Export Plug-In . SVG Version: 6.00 Build 0)  -->
<svg version="1.1" id="Слой_1" xmlns="http://www.w3.org/2000/svg" xmlns:xlink="http://www.w3.org/1999/xlink" x="0px" y="0px"
	 viewBox="0 0 1024 1024" style="enable-background:new 0 0 1024 1024;" xml:space="preserve">
<path d="M844.3,436.3c0,0,1.6-13.5-4.9-13.5c0,0-11-13.5-14.7-13.9c0,0,1.2-15.5-11.9-20.4c0,0-12.7-8.6-15.9-14.7
	c0,0-1.2-10.2-4.1-11c0,0-4.1-13.9-13.1-15.9l2.5,6.5c0,0-8.6-11-13.5-11c0,0,4.5,9,4.5,11.9c0,0-14.3-9.4-22.5-8.6
	c0,0-21.3-19.2-37.6-20c0,0,13.9,12.3,13.5,19.2c0,0-36.4-7.4-63,22.5c0,0-21.3,17.9-22.5,55.5l-0.3,5.2c0,0-0.1,46.2-31.2,76.1
	c0,0-26.1,24.8-29.4,35.8c0,0-37,17.7-100.9-45.4c0,0-7.6-26.9-14.3-33.6c0,0-12.8-47.9,7-91.6c0,0,6.4-2.8,13.1,4.2
	c0,0,0.8-13.4-7.6-18.5c0,0,1.7-28.6,16.8-33.6c0,0,12.3-3.7,17.7,3.6c0,0,3.3-10.8-10.7-25.3c0,0-40.5-166.8-40.5-188.5
	c0,0-3.6-18.7-8.4-19.3c0,0,6,23.5-7.2,25.3c0,0-30.1,13.2-104.2-92.7c0,0-7.8-19.3-13.9-19.3c0,0,6,12,7.2,19.9
	c0,0,16.3,69.9-42.8,128.3c0,0-35.5,28.3-77.1,27.1c0,0-24.7-8.4-35.5-6c0,0,24.1,12.6,28.3,15.7c0,0,62.6,72.3,50,130.1
	c0,0-10.2,50.6-56.6,89.7c0,0-22.9,13.2-26.5,19.3L203,421c0,0,100,19.9,139.7,74.1c0,0,10.2,21.7,7.8,42.8l-10,15.1
	c0,0,11.4-7.8,16.9-6c0,0,60.2,16.3,140.3,74.1c0,0,24.7,16.3,19.3,22.9c0,0-8.4,18.1-27.7,25.3c0,0-59,18.7-98.2,53.6
	c0,0-74.8,49.4-97.7,25.3c0,0-10.7-13.3,9.2-36.2c0,0,47.6-53.6,20.5-97c0,0-25.9-41-107.8-4.8c0,0-33.7,16.7-7.2,12.5
	c0,0,82.5-19.7,96.4,13.4c0,0,6,13.3-26.5,47c0,0-58.4,62-19.3,121.7c0,0,45.2,67.5,183.1,4.2c0,0,13.9,18.8,22.9,23
	c0,0,9.5,10.4,7.5,14.6h-19.8c0,0-24.4-3.7-31.6,20.4c0,0-11.4,20.1-34.3,21.3c0,0-47-11.6-3,49.8c0,0,19.6,22.8,24.3,49.3
	c0,0,1.6,13.8,23.9,19.8c0,0,17.5,4.2,22.9,8.4c0,0,9.6,4.7,14,0.9c0,0,10.1,1.3,18.2,7.5c0,0-2.9-6.1-3.3-7.8c0,0,4.9-1.3,6.5-5.1
	c0,0,15.5-0.2,21.3,8.4c0,0,0.9-5.7-9.6-11c0,0,9.2-0.4,11.6,2.5c0,0,0.8-6.1-20.9-10.6c0,0-4.5-5.3-9.4-4.5c0,0-11.5-0.8-14.7-2
	c0,0-7-4.1-11.5-4.1c0,0-13-5.5-17.3-13.2c-3.9-7-23.6-56-23.6-56c-6-19.3,47.6-26.5,47.6-26.5s10.8,26.5-7.2,41.3
	c0,0-36.1,15.4,22.3,37c0,0,22.9,10.2,31.9,22.3c0,0,2.7,7.8,19.9,8.3c0,0,8.2,2,12.3,4.9c0,0,8.6,6.1,13.9-3.3c0,0,7.4-2,20,5.2
	c5.2,3,1.6,0,1.6,0s-4.7-6.9-11.1-9.7c0,0,5.8-2.5,8.3-0.4c0,0,9,5.7,15.1-0.8c0,0,13.1-2,17.2,2.5c0,0,0.4-4.9-16.4-10.2
	c0,0-5.3-3.7-9-4.1c0,0,6.1-1.6,12.3,0.8c0,0,0-6.1-17.2-5.3c0,0-4.1-3.3-13.5,1.2c0,0-18-4.9-24.9-4.5c0,0-10.6-0.4-17.2-8.2
	l-27.6-31.8c-6-9.6,16.3-57.2,16.3-57.2l13.2-3.6c9.6-9,6.6-39.1,6.6-39.1c7.2-13.9,11.4-53.6,11.4-53.6c54.3-0.9,83-35.8,93.9-53.1
	c6.4,7.6,12.6,15.3,14.3,18.3c0,0,7.4,14.2,23.7,7.6c0,0,9.7,0.6,11.7-1.5c0,0,4.8,2.5,4.9,6.5c0,0-2.5,7-0.2,8.2
	c0,0,2.5,1.6-1.1,5.2c0,0,2.3,1.2,7.4-5.2c0,0-0.2,6.8-2.4,11c0,0,5.4-4.6,5.9-6.7l1.7,2.2c0,0,0.4,6.9-2.5,11.7c0,0,6.2-3.7,6.6-13
	c0,0,3.9-3.5,1.8-7.2c0,0,2.1-11.1,1.3-12c0,0,2.9-0.1,3.6,2.6c0,0-2.2,7.1,1.2,8.9c0,0-0.1,10.8-3,14.1c0,0,6.7-3.2,7.4-15.3
	c0,0,4.2-12.4-0.6-16.3c0,0-7.9-8.9-12.8-11c0,0-3-6.4-12.2-3.7l-24.5,0.9c0,0-8.8-3-13.7-17c0,0-2.7-8.6-6.2-18.6l2.6-7.7
	c0,0,44.2,28.6,51.1,35.6c0,0,13.5,14.3,32.7,2.9c0,0,12.7-1.6,14.7-4.5c0,0,7,1.6,8.2,6.1c0,0-1.2,8.6,2,9.4c0,0,3.7,1.2,0,6.1
	c0,0,3.3,0.8,8.2-7.8c0,0,1.6,7.8,0,13.1c0,0,5.7-6.5,5.7-9l2.9,2c0,0,2.5,7.8,0,13.9c0,0,7-5.7,4.9-16.4c0,0,4-4.9,0.4-8.6
	c0,0-0.4-13.1-1.6-13.9c0,0,3.7-0.8,5.3,2c0,0-0.8,8.6,4.1,9.8c0,0,2.9,12.3,0,16.8c0,0,7.8-5.3,5.3-19.2c0,0,2-15.1-5.3-18.4
	c0,0-12.7-8.2-19.6-9.4c0,0-5.7-6.5-16.8-1.2l-31.5,7c0,0-12.3-1.2-22.5-15.9c0,0-29.9-46.6-39.7-49.9c0,0,20.4-18,10-49.1
	c0,0,12.1-9-3.1-36.8c0,0-0.8-7.4,9.8-23.7c0,0,22.8-31.4,27.4-102.7c0.8-12.6,2-22.1,2-22.1c6.1-10.6,16.8,0,16.8,0
	c3.7,5.3,9.8,6.5,9.8,6.5c-5.3,4.1-16.8,2.1-16.8,2.1c7.4,7.8,27,7.8,27,7.8s4.5-0.8,5.3,2.5c0,0-7,2.5-11.5,1.2
	c0,0,7.8,7.8,25.4,7.4c0,0,32.7,22.5,32.7,36c0,0-2.9,15.9-7,19.6c0,0,6.1,1.2,11-7.8c0,0-0.4,7,1.6,9c0,0,2-9,6.5-11.9
	c0,0,4.5-4.5,9.4-4.1c0,0-8.2-4.1-3.3-6.5c3.3-1.6,4.1-8.6,4.1-8.6c-3.3,4.1-9.4,2-9.4,2c2.9,0.8,4.9-7.4,4.9-7.4
	c-3.7,3.7-8.6-0.8-8.6-0.8c2.5-0.8,3.7-4.9,3.7-4.9c-4.5,1.2-9-2.5-9-2.5c3.3,0,4.1-4.5,4.1-4.5c-5.3,2.9-7.8-4.1-7.8-4.1
	s-1.2-8.2-7.8-17.6c0,0-5.3-9.8,5.7-6.1c0,0,3.6,4.4,0,7l5.7-1.6c0,0,0.8,6.8-3.3,7.4c0,0,8.2,0.8,9-0.8c0,0,0,7-2,7
	c0,0,6.5,0.8,8.6-2c0,0,0,6.5-2.9,8.2c0,0,8.2-1.6,9.4-4.1c0,0-1.2,6.5-3.7,7.4c0,0,6.5,2.5,11.9-1.2c0,0,1.6,1.9,0,6.4l4.5-1
	l-2,4.9c0,0,8.2,0.4,9.4-3.3c0,0,6.5,6.1,7.5,0.8C844.5,452.7,847.5,438.8,844.3,436.3z"/>
</svg>
