<?xml version="1.0" encoding="utf-8"?>
<!-- Generator: Adobe Illustrator 22.1.0, SVG Export Plug-In . SVG Version: 6.00 Build 0)  -->
<svg version="1.1" id="Слой_1" xmlns="http://www.w3.org/2000/svg" xmlns:xlink="http://www.w3.org/1999/xlink" x="0px" y="0px"
	 viewBox="0 0 1024 1024" style="enable-background:new 0 0 1024 1024;" xml:space="preserve">
<path d="M1000.5,648.8c5.7-5.7-4.1-21.1-4.1-21.1c5.7-8.2-6.7-38.9-6.7-38.9c-9.8-17.6-31.9-15.6-31.9-15.6
	c3.6-3.1,2.1-10.8,2.1-10.8c6.7-12.9,1.5-30.9,1.5-30.9c8.2-15.9,4.6-28.3,4.6-28.3c4.6-18.5-9.8-35-9.8-35
	c6.7,22.1-13.4,39.1-13.4,39.1C910.5,533,912.1,586,912.1,586c-4.6-10.3-7.2,2.7-7.2,2.7c-19.5,30-35.5,31.2-35.5,31.2
	c-29.3,3.1-22.1-34.5-22.1-34.5c12.9-91.6-21.4-120.9-21.4-120.9c-18.9-21-39.4-33-58.8-39.3c-3.6-11.7,4.5-17.5,4.5-17.5
	c-24.3-5.8-29.8,4.6-29.8,4.6c-18.5-2.3-6-16.2-6-16.2c-22,2.3-26.6,11.6-26.6,11.6c-11.6-1.2-5.8-11.5-5.8-11.5
	c-28.3,2.2-40.7,26.6-46,43.6c-20.5,16.8-41.3,45.3-59.3,74.1c-5.3-3.2-10.3-8.7-10.3-8.7c-9.2,9.8-5.8,19.1-5.8,19.1
	c-4.6,11.6-17.3,0-17.3,0c-10.4,12.7-6.9,28.9-6.9,28.9c-9.2,8.1-17.3,0-17.3,0c-19.6,30.1,4.6,60.1,4.6,60.1l0,0
	c-13.1,25.4-26.4,33.7-26.4,33.7c-18,11.3-28.3,1-28.3,1c-11.8-10.3-49.9-20.1-49.9-20.1c-16.5-3.6-22.6-27.8-22.6-27.8
	c-4.7-48.8-40.4-78.4-40.4-78.4c19-6.1,21.4-39.9,21.4-39.9c7.7-7.2,14.5-41.1,14.5-41.1c11.4-12.3,14.3-36,14.3-36
	c2.6-23.1-28.8-37-28.8-37c3-4.6,0.4-8.5,0.4-8.5c18-2.8,19.7,11.1,19.7,11.1c8-10.4-2.4-20.4-2.4-20.4c9.7,1.7,10.7,10,10.7,10
	c8-15.9-5.5-22.5-5.5-22.5c-9.7-4.2-15.9-14.9-15.9-14.9c8.3,6.9,15.2,6.9,15.2,6.9c18.4,1.4,15.6,15.9,15.6,15.9
	c12.1-23.2-11.4-32.2-11.4-32.2c-8.7-6.2-6.9-18.7-6.9-18.7c6.2,1,11.4-1,11.4-1c16.3-1.7,9.7,23.2,9.7,23.2
	c17.3-42.3-16.3-45-16.3-45c-16.3-2.8-17-13.9-17-13.9c-4.8-18-20.4-30.1-20.4-30.1c-49.5-30.1-73.8,2.1-73.8,2.1
	c1.4-9-6.2-11.8-6.2-11.8c-13.2-6.2-20.1,4.2-20.1,4.2c11.8-5.9,10.7,3.8,10.7,3.8c-7.6,14.9,4.8,17,4.8,17
	c-5.5,1.7-11.8,14.2-11.8,14.2c-4.5,0.7-1,10.4-1,10.4c-2.4,7.6-10.4,11.4-10.4,11.4c-3.5,1.7-3.1,3.2-3.1,3.2c0.3,6.2,8,6.6,8,6.6
	c2.4,3.5-1.7,5.2-1.7,5.2c-0.7,4.2,3.1,5.4,3.1,5.4c-5.9,1-3.8,3.9-3.8,3.9l-1.4,2.8c-2.8,5.5-9,6.2-9,6.2
	c-32.9,10.4-28.4,24.6-28.4,24.6c0.3,7.3-3.1,10-3.1,10c-14.5,10-9.4,30.1-9.4,30.1c-9-1-43.6,10.4-43.6,10.4
	c-6.6,1.4-11.4-2.4-11.4-2.4c-14.9-26.3-40.5-42.3-40.5-42.3c-20.4-15.6-37.1-31.2-37.1-31.2c-8-21.8-26.3-26-26.3-26
	c-2.4-0.3-14.2-3.8-14.2-3.8c-4.8-2.8-6.9,0-6.9,0c-0.3,9,14.2,11.1,14.2,11.1l3.5,7.3c-4.2-2.4-12.8-0.3-12.8-0.3l-15.6-1.7
	c-4.2-0.7-11.1-6.6-11.1-6.6c-8-5.2-5.9,2.8-5.9,2.8c-13.5-4.8-5.5,7.6-5.5,7.6c-8-2.8-4.8,3.5-4.8,3.5
	c6.2,10.4,23.6,14.2,23.6,14.2c-3.1,1.7-12.9-1.7-12.9-1.7c-7.3-3.5-6.5,2.1-6.5,2.1c15.1,12.8,24.1,9.9,24.1,9.9
	c21.1,6.2,43.2,6.2,43.2,6.2c1.9,4.4,6.7,8.7,6.7,8.7c5.7,4.1,14.9,23.1,14.9,23.1c15.9,43.7,44.8,70.5,44.8,70.5
	c4.6,9.8,13.9,6.2,13.9,6.2c40.9,6.4,65.7-6.1,71-9.1c-9.6,7.3,6.2,43.6,6.2,43.6c-2.6,9.8,2.6,26.2,2.6,26.2
	c-3.6,9.3,0.5,25.7,0.5,25.7c-3.6,11.8,0.5,19,0.5,19c-28.6,59.3-17.5,121.1-8.4,152.6c-16.7,11.7-38.4,32.3-29.5,56.8
	c0,0,12-10.4,27.1,15c0,0,8.1-15,19.6,0c0,0-1.8-18.5-0.8-35.9c8.5,12.1,17.8,21.5,27.2,28.7c-2.6,7.2-3.1,15-0.1,23.2
	c0,0,12-10.4,27.1,15c0,0,8.1-15,19.6,0c0,0-0.7-6.9-1-16.3c11.7,2.8,19.5,2.7,19.5,2.7c223.2,20.6,281.9-38.7,281.9-38.7
	c58.1-48.4,61.7-117.4,61.7-117.4c3.1-58.4,22.2-80,22.2-80c44.2-45.3,67.5-13.2,67.5-13.2c12.2,16.8,10.1,69.2,10.1,69.2
	c4.1,52.5,53.5,54.1,53.5,54.1c53.5-0.9,86.4-56.1,86.4-56.1c14.9-8.7,5.7-10.3,5.7-10.3c15.4-7.2,38.6,37.5,38.6,37.5
	c21.1,40.1,42.7,26.7,42.7,26.7C1000.8,663.7,1000.5,648.8,1000.5,648.8z M348.2,486c0,0,1.9-6.6,0.7-10c0,0,1.6-1,4.7,2.8
	L348.2,486z"/>
</svg>
