<?xml version="1.0" encoding="utf-8"?>
<!-- Generator: Adobe Illustrator 22.1.0, SVG Export Plug-In . SVG Version: 6.00 Build 0)  -->
<svg version="1.1" id="Слой_1" xmlns="http://www.w3.org/2000/svg" xmlns:xlink="http://www.w3.org/1999/xlink" x="0px" y="0px"
	 viewBox="0 0 885 885" style="enable-background:new 0 0 885 885;" xml:space="preserve">
<path d="M588.4,690.8c38.1,50.9,105.2,39.3,105.2,39.3c-54.3-2.3-76.3-82.1-76.3-82.1c-16.2-75.1-111-122.5-111-122.5
	c15-11.6-61.3-30.1-40.5-35.8c20.8-5.8-39.3-58.5-39.3-58.5c23.1,13.2-3.5-21.1-3.5-21.1c47.4,40.6,41.6,10.3,41.6,10.3
	c50.9,1.2,28.9-31.2,28.9-31.2c35.8,1.2,72-43.9,72-43.9c46.5-32.4,34.4-45.1,34.4-45.1c80.9-58.9,26.6-76.3,26.6-76.3
	c95.9-35.8,108.7-94.8,108.7-94.8c61.3-32.4,27.8-35.8,27.8-35.8C821.9,60.9,789.5,54,789.5,54c114.4-98.2-141,20.8-141,20.8
	c-163,69.3-212.6,185-212.6,185c-12.2,15.5-24.2,27.6-35.7,37.2c2.9-10.3,3.7-19.9,3.7-19.9c11.4-30.7,2.2-36.8,2.2-36.8
	c19-55.2-10.5-56-10.5-56c32.5-42.8,20.9-84.5,20.9-84.5c18-33.6,1.9-29.3,1.9-29.3c16.9-33.2,0.4-31.4,0.4-31.4
	c22.5-87.9-57.1,41.7-57.1,41.7c-52.7,78.3-41.2,165-41.2,165c-2.2,30.8-9.8,48.5-17.3,58.7c-5.1-21.6-17.3-51.5-17.3-51.5l6.1,5.7
	c0.7-31.3-17.1-54.1-17.1-54.1l6.4,2.1c-22.1-47.7-56.3-57-56.3-57c-16.4-10-53.4-3.6-53.4-3.6c18.5-4.3,20.8-18.5,20.8-18.5
	c4.3-8.8,12.7-12.8,12.7-12.8c-19.2-4.3-31.2,12.8-31.2,12.8c-0.7-5,6.3-17.1,6.3-17.1c-14.2,0.7-18.5,10.7-18.5,10.7
	c-12.8,15-25.6,19.2-25.6,19.2C91.3,151.2,93.5,174,93.5,174c-12.1,5.7-8.5,20.3-8.5,20.3c-15,1.8-14.8,32.4-14.8,32.4
	C68.7,249.4,96.3,243,96.3,243c-19.2-10,0-24.9,0-24.9c13.5-5.7,19.9-10.7,19.9-10.7c-5,17.1-19.9,22.1-19.9,22.1
	c12.1,2.1,16.4-4.3,16.4-4.3c0.7,9.3-2.8,15-2.8,15c19.9-0.7,30.1-29,30.1-29c12.7,0,26.6-16.9,26.6-16.9
	c35.8-5.3,40.5,22.8,40.5,22.8v-8.2c29,13.9,11.5,68.2,11.5,68.2l9.2-12.7c0,34.7-45.1,72.8-45.1,72.8l15-4.6
	c-37,39.3-20.8,77.6-20.8,77.6l9.2-18.6c-9.2,30.1,33.9,72.6,33.9,72.6v-15.9c15,41.6,45,48.9,45,48.9v-11.9
	c15,6.9,26.4,27.3,26.4,27.3c-2.3,52.7,35.7,53.6,35.7,53.6l-5.8-16.2c4.9,6.1,9.5,10.6,13.8,13.9c5,8.4,14.4,20.5,29.7,26
	c0,0-17.9,8.2-14.5,12c0,0-32.4,13.9-35.2,30.9c0,0-3.9,7.6,8.9,22.7c0,0,6.1,12,15.6,9.5c0,0-7.8-5.1-3.9-11.4c0,0,3.8-10.7-5.7-17
	c0,0,1-14.5,12.3-13.9c0,0-11,12,3.5,34.7c0,0,5,7.6,12.3,7.9c0,0,9.5,4.7,12.8-8.6c0,0-8.9,4.4-9.5-1.9c0,0,1.1-12.6-6.1-12.6
	c0,0-5-17.7,5-25.3c0,0,12.3-5.1,10.6-9.5c0,0,13.9-0.6,13.4,8.8c0,0-2.2,2.5,0,5.7c0,0,0.5,3.8-4.8,5.7c0,0,4.5,2.3,9.9-0.4
	c-0.7,2.3-1.1,4.5-1,6.7c0,0-2.2,8.2,13.6,20.3c0,0,8.6,10.4,17.3,5.9c0,0-8.7-3.3-6.2-10.3c0,0,1.4-11.3-9.2-15.4
	c0,0-2.1-14.4,9-16.2c0,0-8.2,14.1,10.8,33.2c0,0,6.1,5.9,13,5.2c9.1,114,74.2,114,74.2,114c-32.4-28.9-19.6-86.7-19.6-86.7
	c84.4,156,236.9,90.2,236.9,90.2C630,785.6,588.4,690.8,588.4,690.8z M416.3,596.1c0,0-9.8,7-17.7,16.3c0.3-7-2.4-17.2-18.9-19.6
	c0,0,10.3-6.5,3.7-13.3c0,0-6.2-4.3-9.2-10.8c16.1,6,29.9,8.1,39.9,8.6c4.2,1.9,8.8,3.3,13.8,3.9
	C427.9,581.3,412.2,593.1,416.3,596.1z M429.8,634.5c0,0-8.7-16.2-0.5-25.7c0,0,5.5-3.8,7.8-7.5c0.1,10-1.3,17.9-1.3,17.9
	c-0.1,6.4-0.1,12.5,0,18.3C434.5,635.4,432.6,633.9,429.8,634.5z M737.2,841c0,0-3.9-6.7-45.1-1.4c0,0-22.9,0.8-29.6-19.1
	c0,0-2.8-8.3-0.9-15c0,0,18.3,14.5,39.2,14.4C701,819.9,728.3,819.9,737.2,841z M737.2,805.4c37.7-5.2,67,17.8,67,17.8
	C760.8,838.6,737.2,805.4,737.2,805.4z M819,875.5c-44.3,2.8-48.3-23.5-48.3-23.5C820.6,862.6,819,875.5,819,875.5z"/>
</svg>
