<?xml version="1.0" encoding="utf-8"?>
<!-- Generator: Adobe Illustrator 22.1.0, SVG Export Plug-In . SVG Version: 6.00 Build 0)  -->
<svg version="1.1" id="Layer_1" xmlns="http://www.w3.org/2000/svg" xmlns:xlink="http://www.w3.org/1999/xlink" x="0px" y="0px"
	 viewBox="0 0 625 625" style="enable-background:new 0 0 625 625;" xml:space="preserve">
<style type="text/css">
	.st0{enable-background:new    ;}
</style>
<path class="st0" d="M526.2,132.4c10.1-4,21.7-10.6,20.9-12.8c-0.8-1.9-11.4-0.4-18.6,1.6c-6.3,1.7-8.4,3.3-14.9,4.3
	c-4.5,0.7-12.1,1.3-12.6-0.3c-0.5-1.6,6-3.5,12.8-8.5c11.4-8.3,18.1-20.9,16.2-22.8c-2.1-2-16.2,6.6-21.1,9.6
	c-6.1,3.8-11.9,8-15.3,6.1c-0.7-0.4-0.6-0.7-3.5-3.7c-3.5-3.7-4.1-3.8-4.3-4.7c-0.5-2.8,5.4-5,10.8-9c8.3-6.1,14.1-15.2,12.6-17
	c-1.5-1.7-10.8,2-17.9,7c-6.5,4.6-11,10.1-13.9,8.8c-0.7-0.3-1.4-1.4-2.9-3.5c-0.7-1-0.9-1.4-2.5-3.9c-2-3.2-2-3.1-2-3.3
	c-0.1-3.2,14-4.1,29.5-11c7-3.1,13.1-6.6,17.7-12.9c2.1-3,4.9-6.6,3.8-8.3c-4.1-5.8-51.4,17-52.4,14.9c-0.7-1.1,15.7-8.9,14.4-14.1
	c-0.7-2.2-3.6-1.9-4.1-3.9c-1-4.2,12.8-6.8,18.8-17.7c2.5-4.6,4.3-11.1,2.1-12.6c-3.9-2.7-20.1,11.6-37.3,26.7
	C451.3,51.2,443.1,59.2,439,57c-1.1-0.6-1.6-2.7-2.5-6.8c-2.2-11.1-1.5-17.3-3.8-18.1c-2.1-0.7-4.4,4.3-6.4,3.6
	c-2.2-0.7-2.2-7.4-1.1-13.3C427.6,10,434.8,3,434,2.3c-0.9-0.8-11.1,5.2-16.4,16.6c-7.2,15.7-0.7,32.4-3.8,33.1
	c-1.3,0.3-2.9-2.5-5.4-6.3c-4.3-6.6-18-28.1-21.6-26.8c-1.6,0.6-1,5.7-0.7,7.2c0.8,6.3,3.6,12.9,16.2,29.8c2,2.5,7.7,10.2,6.4,11.5
	c-0.5,0.3-1.3-0.2-3.3,0.2c-2,0.3-2.8,1.1-3.6,1.3c-3.1,0.6-7.2-7.2-9.2-10.8c-3.6-6.6-10-17.3-11.1-17c-1.1,0.5,2,12.1,5.9,22.4
	c1.8,4.7,2.8,6.9,2.3,7.2c-1.3,0.8-10.1-11.8-26.7-31.4c-12.1-14.4-16.5-18.7-18-17.7c-1.3,0.8,0,4.9,0.5,6.9
	c2,6.6,5.2,10.5,9.5,15.9c6.1,8,11.6,15.2,10.1,16.8c-1.5,1.7-9.7-3.9-10.8-2.5c-1.8,2.2,13.9,16.8,12.9,17.7
	c-0.7,0.6-7.4-4.9-20-12.7c-5.6-3.5-11.6-6.9-20-9.1c-1.6-0.5-8.3-2-8.8-0.9c-0.5,1.3,7.9,5.7,26.3,16.3
	c7.5,4.2,24.4,14.1,22.7,18.2c-0.3,0.8-1,0.9-2.9,3.5c-2.1,2.8-2,3.5-2.8,3.8c-2.5,0.8-6.1-7.1-12.9-14.6
	c-6.1-6.6-13.6-11.6-14.7-10.7c-1,0.9,3.9,7.7,7.4,12.6c7.7,10.7,13.7,16.3,11.8,20.1c-0.3,0.8-1.3,1.6-3.1,3.3
	c-2.5,2.2-3.8,3.5-5.1,3.8c-3.6,0.9-7.4-4.6-14.1-11.5c-4.9-4.9-13.7-13-15.1-12.1c-1.1,0.8,2.1,9.6,9.2,16.5
	c5.2,5.2,12.3,9.1,11.3,11.8c-0.2,0.6-0.8,1.3-1.8,2c-1.1,1.1-2.9,2.4-3.8,2.5c-3.3,0.8-8-8.5-14.7-17c-5.7-7.4-13.7-15.1-15.4-14.1
	c-1.3,0.8,2,8.5,5.9,14.6c7.2,11.1,16.4,17,15.7,17.7c-0.5,0.6-4.1-1.7-11.9-5.3c-5.4-2.7-13.7-6.4-14.4-5.7
	c-0.7,0.8,5.7,6.1,11,9.9c7.7,5.5,12.4,7.1,12.3,9.9c-0.2,1.9-2.5,3.8-4.7,4.4c-6.7,1.6-11.5-7.8-27.2-17.9
	c-6.2-3.9-14.2-8.2-14.9-7.2c-1,1.3,9.8,11.5,20.6,19.5c5.9,4.4,12.9,8.9,12.4,9.7c-0.2,0.3-1,0-4.7-0.9c-5.2-1.3-5.9-1.3-6.2-0.9
	c-0.3,0.5,0.2,1.3,2.8,4.2c5.4,6,8.3,7.1,8.3,9.4c0,1.9-2,3.9-3.9,4.7c-1.3,0.5-5.2,1.4-22.3-13.3c-6.7-6-9.3-8.8-16-13.5
	c-2.9-2-9.8-6.8-10.8-5.8c-1.3,1.4,8.2,17.3,24.4,28.7c0,0,14.6,10.2,13.9,15.2c-0.2,2-1.1,3.8-1.1,3.8c-0.7,1.3-1.1,2.2-2,2.5
	c-2.5,0.9-6.1-5.3-13.1-10.5c-5.1-3.8-12.3-7.1-13.7-5.7c-1.5,1.6,3.1,8.6,6.9,12.7c5.2,5.8,9.5,9.7,9.5,9.7c2.3,2,3.6,3,3.8,4.7
	c0.2,1.9-1.3,3.1-5.9,8.2c-5.4,5.8-5.4,6.3-6.7,6.8c-4.1,1.3-8.3-1.9-13.1-5.3c-1-0.8-4.4-3.1-11-10.4c-6.1-6.6-8.2-9.9-9-9.4
	c-1.1,0.6,1.3,7.2,2.9,11.1c3.9,9.1,8.3,14.3,7.2,15.2c-0.7,0.6-2.5-1.1-7.7-3c-3.4-1.3-7.4-2.8-8.2-1.9c-1,1.3,4.3,8,11.5,12.9
	c7.9,5.2,15.4,6.6,15.4,10.4c0,0.8-0.5,2.4-1.3,5.2c-0.5,1.7-0.8,2.7-1.1,2.8c-2.8,1.9-12.6-6.6-13.9-7.7
	c-7.9-6.9-8.2-9.7-14.6-13.8c-4.7-3-11.1-5.5-11.9-4.2c-1.8,2.4,14.9,21.4,25.9,28.9c1.8,1.3,5.9,3.9,6.4,8c0.2,1.6-0.2,2.4-0.2,6.8
	c0.2,2.8,0.3,3.5-0.2,3.8c-1.5,0.9-6.4-4.2-12.8-9.4c-7.4-6-17.8-12.7-19.3-11.3c-1.5,1.4,6.2,10.7,7.2,11.9
	c7.4,8.9,11.8,10.5,16.2,18.4c2,3.3,4.6,9.4,3.1,10.7c-1.5,1.1-6.2-2.5-13.7-8.3c-9.7-7.4-13.4-11.5-14.1-10.8
	c-1.1,0.8,6.7,13.3,15.9,25.3c5.4,6.9,9.5,11.3,8,13.3c-0.7,0.9-2.6,1.3-10.1-0.5c-14.1-3.1-22.6-7.7-22.9-7.1
	c-0.5,0.8,10.1,9.4,25.5,16.6c6.9,3.1,12.8,5.3,12.4,6.4c-0.3,1.3-8.5,0-10.3-0.2c-13.1-1.9-19.8-5.8-20.6-4.7
	c-0.8,1.4,7,10,18.7,14.8c5.4,2.2,10.6,3,11,5.7c0.2,1.7-1.5,3.1-3.9,5.2c-7.4,6.1-11,9.1-13.3,10.7c-9.8,6.1-20.1,14.6-19.3,15.9
	c0.8,1.3,13.7-2.7,26-10.5c8.2-5.3,13.1-10.5,17.7-8.8c2.3,0.8,4.4,3.3,4.6,6c0.3,2.7-1.6,4.9-2.8,6.3c-7.2,8.3-10.8,12.4-13.3,14.1
	c-10,7.1-18.7,15.5-28.6,22.8c-19.3,14-33.5,26.8-45,37.4c-11.9,10.8-27,24.6-43.4,45.5c-16.9,21.5-25.2,32.2-27.8,47.6
	c-1.8,11,0.2,17-5.4,25.6c-4.9,7.8-13.1,11.9-29.1,19.6c-21.6,10.4-28,9.9-37.6,18.8c-8.7,8-14.4,18.4-12.8,20.1
	c1.1,1.1,5.4-1.7,18-9.4c26.5-16,27.8-15.7,28.3-15.4c3.9,3.6-37.5,47.3-32.7,51.8c1.5,1.4,7-1.6,9-2.8
	c13.3-7.4,16.2-18.2,25.4-31.4c10.3-14.9,25.2-28.4,29.1-26.4c2.3,1.3,0.3,8.5-2.1,17c-3.3,11.5-7.9,20.3-11.1,25.9
	c-8,14.1-14.7,20.4-13.6,21.7c1.3,1.3,10.6-4.1,18.5-11.8c16-15.7,20.8-36.1,23.4-47.1c3.6-16.3,1.1-18.8,5.7-28.3
	c7-14.3,19.5-21.5,25.4-25.1c23.4-14.6,38.9-31.9,67.6-63.6c14.6-16.3,32.6-36.3,49.6-66.4c7.4-12.9,16.9-31.9,20.9-30.6
	c4.6,1.4,0.5,24.5,3.8,25.1c3,0.5,8.3-18.3,11.6-17.7c3,0.6,0.9,17.8,4.7,18.6c3.7,0.8,8.9-15.1,14.1-14.3c2.9,0.4,2.6,5.4,8,12.8
	c3.9,5.3,9.8,10.7,11.7,9.6c2-1.1-0.3-10.3-4.1-17.5c-2.9-5.5-7.2-10.6-5.5-12.6c0.3-0.4,1.2-0.8,3.1-1.6c1.1-0.5,2.6-1.1,3.4-1.2
	c3.3-0.4,6.9,8.2,10.1,14c5.5,9.7,13.5,17.3,14.9,16.5c2.4-1.3-11.5-27.5-9.6-28.5c0.9-0.5,3.9,5.1,10.8,11.4
	c8,7.3,17.9,12.7,19,11.5c2-2.2-22.5-26-22-26.5c0.3-0.3,7.8,7.6,19.9,15.8c5.2,3.5,13.4,9.1,14.9,7.7c3.1-3-25.1-32.8-22.1-35.5
	c0.9-0.8,4.2,1.1,9.2,4.1c9.4,5.6,11.8,9.1,18.6,13.1c6.4,3.8,15.7,7.6,17,5.9c1.5-2-8.4-9.9-20.7-23.9
	c-8.9-10.3-15.4-19.4-19.6-25.9c14.7,10.5,18.7,11.6,19.6,10.7c1.4-1.4-2.9-8.8-3.4-9.7c-2.5-4.3-5.2-7-4.1-9
	c0.1-0.1,0.6-1.1,1.6-1.3c3.7-0.8,7.2,9.7,18,20.2c1.8,1.8,7,6.7,8.6,5.7c1.3-0.8-0.2-4.9-0.8-6.7c-5.2-14.4-17.7-25.1-17.5-25.2
	c0.1-0.1,5.7,6.5,14.6,10.3c4.1,1.7,11,3.7,12.1,2c2.4-3.7-24.4-22.5-22.9-24.5c1.3-1.7,21.9,11.7,23.7,9.4
	c1.9-2.3-17.2-19.5-16.4-20.4c0.8-0.8,14.9,12.7,17.8,10.6c3.5-2.6-11-26.5-10.5-26.7c0.3-0.1,4.1,7.8,11.5,15.9
	c4.3,4.8,11.5,11.5,13,10.4c2.9-2-18.4-33.1-16.6-34.2c0.9-0.6,6.7,6.9,18.4,19.5c10,10.8,19.1,20.5,20.5,19.6
	c2.9-1.9-29.3-50.4-27.4-51.6c0.9-0.6,8.3,10.3,23.3,23.6c1.1,1,17.1,15.1,18.8,13.5c2.8-2.5-32.8-44.2-31.8-45
	c0.4-0.3,5.2,5.6,14,12.6c5.1,4.1,16,12.1,17.6,10.6c2.7-2.5-22.9-31.3-21.3-32.7c0.8-0.7,6.6,6,18,11.4c1.5,0.7,12.2,5.8,13.6,4
	c2.3-3.1-22.4-23.6-21.8-24.3c0.4-0.4,9,6.9,21.9,15.1c7.1,4.5,14.3,9,15.3,7.9c2.4-2.6-28.5-33-27.4-34c0.5-0.5,7.9,7.4,20.9,14.3
	c7.1,3.8,17.7,8.3,18.9,6.6c2.2-3.2-31.3-27.7-30.3-29c0.4-0.5,6.1,3.3,17.3,8.5c5.8,2.7,11.5,5.3,12.1,4.5
	c1.3-1.9-24.6-20-23.6-21.4c1-1.4,29.7,17.3,32,14.5c0.6-0.8-1-2.7-5.3-8.4c-3.9-5.2-15.2-20.3-14.3-21c0.7-0.6,7.8,7.1,19.6,17.1
	c4.6,3.9,21.9,18.5,23.8,16.9c1.1-0.9-2.5-7.6-24.6-34.1c2,2,5.2,4.8,9.6,7.5c5.3,3.3,14.4,7.6,16,5.7c1.4-1.7-3.5-8-6.8-11.4
	c-6.2-6.5-11-7.3-12.2-12.7c-0.2-1.1-1-4.3,0.8-6.6c1.2-1.5,2.7-1.5,4.9-3.7c1.3-1.3,2.5-2.5,2.2-3.3c-0.7-1.8-7.5,1-12.2-2.2
	c-1.8-1.2-2.7-3-3.2-4C509.5,137.3,517.4,135.8,526.2,132.4z M129,487c-3.6,7.7-4.1,10.8-8.3,16.5c-3.9,5.2-6.1,6-12.1,13.8
	c-5.2,6.4-6.5,9.6-7.5,9.3c-1.8-0.6,0-11.6,3.8-21.5c1-2.4,3.6-9.3,16-25.9c5.4-7.2,12.8-17.1,24.1-28.9
	c7.5-7.8,15.4-15.1,18.8-18.2c7-6.4,8.3-7.2,13.9-12.7c7.2-7.1,8.3-8.9,13.9-13.5c6.7-5.7,14.1-10.7,14.7-10c0.3,0.3-1.3,1.9-6.5,8
	c-6.2,7.4-6.1,7.4-8.7,10.2c-4.1,4.6-5.6,5-12.4,11c-5.7,5-9.7,9.1-12.9,12.6c-3.4,3.5-8.8,8.9-14.6,15.9
	C145.5,460,136.3,471.1,129,487z M222.4,404.2c-1.3,3.9-4.3,6.3-4.7,6.6c-6.5,5-10.6,12.4-16.7,18.1c-2.9,3-1.6,1.7-20.3,22.3
	c-44.3,48.7-46.3,48.8-46.8,48.5c-1.1-0.8,3.1-7.8,5.4-11.8c6.7-11.3,11.9-15.9,27-33.3c8.5-9.9,8.7-10.5,13.4-15.4
	c3.3-3.5,7.5-7.4,15.9-15.4c7-6.8,7.5-7.1,9.5-9.3c2.6-2.8,5.1-5.8,9.5-9.9c6.1-5.8,7.2-6,7.9-5.7
	C223.5,399.5,222.9,402.5,222.4,404.2z"/>
</svg>
