<?xml version="1.0" encoding="utf-8"?>
<!-- Generator: Adobe Illustrator 22.1.0, SVG Export Plug-In . SVG Version: 6.00 Build 0)  -->
<svg version="1.1" id="Layer_1" xmlns="http://www.w3.org/2000/svg" xmlns:xlink="http://www.w3.org/1999/xlink" x="0px" y="0px"
	 viewBox="0 0 650 650" style="enable-background:new 0 0 650 650;" xml:space="preserve">
<path d="M623.1,38.2c-3.3,0.6-7.6,1.5-22.3,5.2c-14.6,3.7-21.9,5.5-23.3,6.1c-18.6,7.6-28.1,24.7-30,28.1c-9.1,16.3-8.7,32-8.3,43.8
	c0.9,27,10.7,31.1,8.3,49.4c-2.4,18.7-14.8,31.2-25.6,42.1c-18.3,18.5-37.4,26.2-57.8,34.3c-38.9,15.3-74.3,18.1-80.1,18.5
	c-20.7,1.5-29.5-0.3-49.5,4.5c-19.4,4.7-31.3,7.6-42.3,18c-9.1,8.7-11.7,17.1-21.1,18.5c-7.4,1.2-10.4-3.3-20.6-4.5
	c-4-0.5-11.9-0.8-26.1,5.1c-28.4,11.7-60.9,39.1-63.9,41.6c-13.8,11-31.8,24.2-67.8,50.5C60.1,423,42.2,435,21.5,459.3
	c-14.3,16.8-19.1,26.6-20,37.6c-2.1,25,16.5,44,21.7,48.9c24.6,23.1,57.4,19.2,63.4,18.5c16.1-1.9,27.2-7.9,58.9-30.3
	c68.3-48.2,99.3-78.4,111.2-90.4c0,0,14-14.1,38.4-49.4c8.5-12.3,15.3-23.3,15-37.6c-0.1-3.7-0.3-13.5-6.1-23
	c-5.9-9.6-11.8-9.7-12.8-15.2c-1.9-10.4,17.4-24.2,35.6-32c20.7-8.9,32.1-6.8,61.2-10.1c41.8-4.8,71.4-15.3,77.3-17.4
	c25-9.1,45.4-16.4,63.9-36.5c8.5-9.2,31-33.5,27.2-60.6c-1.7-12.2-7.4-16-9.5-34.8c-1-8.8-2.2-20.3,2.2-33.7
	c1.2-3.5,9.3-26.9,30-35.9c0.4-0.2,8.9-2.1,25.8-6c11.1-2.6,16.7-3.8,24.3-6.4c6.1-2.1,19.9-7.2,19.5-9
	C648.1,33.7,624.9,37.9,623.1,38.2z"/>
</svg>
