<?xml version="1.0" encoding="utf-8"?>
<!-- Generator: Adobe Illustrator 22.1.0, SVG Export Plug-In . SVG Version: 6.00 Build 0)  -->
<svg version="1.1" id="Layer_1" xmlns="http://www.w3.org/2000/svg" xmlns:xlink="http://www.w3.org/1999/xlink" x="0px" y="0px"
	 viewBox="0 0 600 600" style="enable-background:new 0 0 600 600;" xml:space="preserve">
<path d="M274.4,313.3c0.1,0.3,6.6-2.8,12.5,0.4c2,1.1,2.4,2.1,8.6,10.4c5.1,6.9,6.8,8.9,8,9.9c0.1,0.1,0.4,0.3,0.6,0.6
	c4.8,4.1,10.9,5.7,14.6,6.4c12.3,2.5,22.7,1.4,25.7,1c4.9-0.6,8.9-1.6,11.7-2.3c11.1-3.9,19.3-8.4,24.7-11.7c0.4-0.2,1.5-1,3.1-2
	c3.1-1.9,5.5-3.2,6.3-3.6c3.7-2,6.3-3.9,10.8-7s10.1-6.5,21.2-13.3c5.8-3.5,8.7-5.3,11-6.5c3.3-1.8,6.8-3.3,17-7.7
	c9-3.9,13.6-5.8,19-7.6c4-1.3,11.9-3.9,21.7-5.4c6.7-1,14.5-1,30.2-0.9c13.4,0.1,20.1,0.5,26.8-4.1c0.7-0.5,2.6-2.2,6.5-5.6
	c7.4-6.5,11.1-9.7,13.5-12.1c0.2-0.2,2.6-2.6,6-5.1c1.4-1,1.9-1.3,2.2-1.5c3.5-1.9,7.5-2,7.7-1.4s-3.5,1.3-7.8,5.1
	c-1.2,1.1-1.7,1.7-3.8,3.4c-1.9,1.6-2.5,2-3.9,3.1c-2.7,2.2-3.2,3.2-6.4,6.3c-2.6,2.5-4.6,4.2-5.8,5.2c-4.6,3.9-6.9,5.8-10.1,7.3
	c-3.5,1.6-6.3,1.9-10.7,2.4c-1.7,0.2-4.9,0.3-11.3,0.4c-5.9,0.1-9,0.2-12.3,0.2c-4.7,0-4.8-0.2-8.1-0.1c-2.7,0-6.8,0.1-11.3,0.6
	c-5.7,0.6-9.7,1.8-15.7,3.5c-3.2,0.9-7.5,2.2-12.5,4.1c-4.4,1.6-10.9,4.2-18.7,7.8c-19.5,9-28.2,16.1-44.3,25.9
	c-25.2,15.4-37.8,23-54.6,25.6c-24.9,3.8-39.9-4.6-43.6-7.8c-4.6-3.8-7.4-7.4-7.4-7.4c-1.7-2.3-2.1-3.3-4.9-7.1
	c-4.1-5.5-5.4-6.2-6.4-6.5c-2.1-0.7-5-0.6-7.1,1c-3.4,2.6-1.5,7.8-3.2,14c-1.2,4.5-3.1,10.7-6.4,17.7c-12.2,26-31.5,38.6-37.1,42.1
	c-22.1,14-44,14.6-51.9,14.8c-21.3,0.4-29.7-6.2-43.2,1.1c-10,5.4-8.8,10.8-21.1,23.4c-1.6,1.6-25.8,25.7-60.5,28.5
	c-11.5,0.9-23.8,1.9-31.4-7.6c-5.5-6.8-8-18.3-4.5-27.7c2.9-7.8,8.9-11.5,12.5-13.7c14.2-8.6,22.3-0.5,34.6-5.8
	c13.2-5.6,10.4-17.5,26.9-36c4.3-4.8,19.4-21.8,41-26.3c20.2-4.2,23.9,7.1,48.7,3.2c9.6-1.5,22.4-3.5,34.6-13.7
	c9.2-7.7,12.2-15.3,25.9-25.6c4-3,10.5-7.5,19.2-7.9c3.6-0.2,4.4,0.5,6.7,0.4c10.3-0.4,23.4-24.9,23.4-24.9
	c3.1-5.2,7-12.3,11.1-21.1c3.3-7.2,8-17.3,11.6-30.6c5.2-18.9,4.5-26.5,11.6-42c1.2-2.5,2.7-5,4.8-8c7.1-9.7,17-17.9,25.9-25.4
	c8.5-7.1,9-6.4,22.7-17.5c15.4-12.4,23.1-18.7,23.3-18.8c5.9-5.8,10.7-11.4,18.7-12.3c3.9-0.4,7.9,0.3,8,0.9c0,0.7-5.1,0.5-11.1,3.2
	c-2.4,1.1-3.6,2-13.6,10.4c-5.9,4.9-10.4,8.7-10.4,8.8c-6.1,5.1-9.1,7.7-10.4,8.8s-7.1,5.8-14.9,11.9c-6.3,4.9-9.5,7.4-13.3,10.1
	c-3.4,2.5-5.5,4-8.4,6.6c-1.1,1-3.6,3.4-7.1,7.4c-2.7,3.1-7.4,8.5-10.5,14c-3.8,6.7-4.1,11.4-6,20.6c-1.9,9.1-4,15.4-8.1,28
	c-3.4,10.3-9.8,29.8-21.1,47.5c-6.8,10.6-12.4,17.6-12.4,17.6c-4.8,6.1-8.1,9.4-7.8,9.8c0.7,0.7,12.1-9,19.2-15.1
	c8.9-7.7,13.6-11.8,19.4-18.2c10.7-11.8,17.8-23.5,27.2-38.8c1.7-2.9,3.3-5.4,3.3-5.4c3.4-5.7,7.3-12.7,11.5-20.9
	c3.6-6.9,5.6-10.2,6.1-11.1c4-6.5,12.6-20,28-27.8c6.1-3.1,10.4-3.8,12.7-4.1c3.4-0.4,10.7-1.3,16.8,3.1c3.1,2.2,4.5,4.8,4.8,5.4
	c2.3,4.5,1.7,9.3,1.2,9.4c-0.5,0.1-0.7-4.2-4.2-8.9c-1.8-2.5-3.5-3.6-4.1-4.1c-2.1-1.4-4.1-1.8-5.3-2.1c-2.9-0.7-5.3-0.5-7.3-0.3
	c-1.2,0.1-4.6,0.5-8.8,2.1c-2.3,0.9-3.9,1.9-6.8,3.6c-2.3,1.4-4.2,2.6-5.5,3.5c-4.3,3.1-7.3,6.1-9.2,8.2c-6.3,7.1-10.4,15.5-14.4,24
	c-0.3,0.7-1.2,2.5-2.4,4.8c-0.8,1.4-1.3,2.4-3.1,5.4c-2,3.4-3,5.1-3.5,5.9c-7.3,12.3-13.5,22.7-21.6,33.6c-3,4.1-4.4,5.7-9.6,12.7
	c-1.9,2.6-2.7,3.8-3.7,4.9c0,0-0.5,0.6-0.9,1.1c-4.1,4.8-10.6,9.7-10.6,9.7c-6.3,4.7-9.5,7.1-12.4,9.9c-3,2.9-8.9,9-12,10.8
	c-1.1,0.6-4.7,2.4-5.6,2.7l0,0c0.1,0.2,12.2-4.7,29.4-14.1c13.5-7.4,28.5-15.7,45.4-29.4c8.7-7.1,16.6-15.4,16.6-15.4
	c7.3-8,13.1-13.3,17.2-16.8c0.9-0.8,5.2-4.4,10.8-9.4c3.8-3.4,5.3-4.8,6.3-5.8c5.2-5.1,7.8-7.6,9-9.9c3.1-5.8,3.2-13.8,0.3-17.6
	c-1.6-2.1-4-3.4-4-3.4c-1.6-1-5.1-3-9.8-3.1c-2.8,0-4.9,0.6-6.1,1.1c-4,1.5-6.4,4-7.5,5.3c0.7-1.6,3.8-7.9,9.9-9.4
	c2.2-0.5,4.1-0.3,7.6,0.2c5,0.6,7,1.9,7.8,2.4c0.6,0.4,1.6,1.2,2.9,2.7c1.3,1.6,5.4,6.5,5.6,12.6c0.5,9.9-9,17.6-11.1,19.4
	c-0.5,0.4-2.5,2-5.3,4.4c-2.1,1.8-3.7,3.3-4.6,4.1c-8.2,7.6-13.6,12.9-13.6,12.9c-15.3,15.1-19.4,19.9-27.4,26.8
	c-3.7,3.2-7.4,6.1-11.4,8.8c-2,1.4-4.1,2.8-6.5,4.3c-6.6,4.1-19.7,11.3-22.1,12.9c0,0-2.2,1.2-10.7,7.3c-4.5,3.2-5.7,4.2-5.5,5.2
	c0.3,1.1,2.8,2.2,12.6,2c14.2-0.6,25.6-3.3,33.6-5.8c7.6-2.3,17.9-5.6,29.1-13.4c5.9-4,10.6-8.3,14.1-11.5c3.6-3.2,7.3-7,14.6-14.6
	c4.2-4.4,8.4-8.6,13.8-14.5c4.7-5.2,8.4-9.3,9.6-10.8c10.5-12.1,17.3-23.2,21.3-29.1c0,0,24.7-37.7,64.2-56.1
	c5.8-2.7,10.9-4.9,14.9-6.6c5.8-2.4,16-6,23-6.5c4.5-0.3,14.7,0.9,20.2,9.8c-2.3-1.6-4.4-2.6-6.1-3.4c-3.2-1.4-5.9-2-7.1-2.3
	c-0.6-0.1-1.1-0.2-1.2-0.2c0,0-3.5-0.7-6.6-0.7c-3.5,0-6.5,1.2-8.3,1.9c-13,5.1-9.7,3.1-20.1,7.6c-6.4,2.8-10.5,4.6-16.1,7.6
	c-2.2,1.2-5.2,2.8-8.9,5.3c-1.8,1.2-7.4,4.9-15.1,11.9c-5.9,5.3-9.7,9.5-16.6,17.1c-6.2,6.8-9.4,10.2-12.5,14.4
	c-3.5,4.8-15.4,21.5-18,25c-1.1,1.5-2.5,3.3-5.4,6.6c-12.3,14.5-21.6,25.4-35,37.7c-5.6,5.1-8.4,7.7-11.7,10.2
	c-4.9,3.6-16.9,12-36.6,17.6c-24.7,7.1-41.7,4.4-42,7.7c-0.3,2.6,9.6,5.5,17.1,7.7c12.1,3.6,22.9,6.8,37,4.7
	c3.4-0.5,14.1-2.4,25.1-9.1c1.8-1.1,7.1-5,17.5-12.8c6.6-4.9,9.9-7.4,11.9-8.9c8.3-6.3,15.7-12.3,21.7-17.1
	c4.5-3.6,8.2-6.6,13.9-10.7c2.1-1.5,4.3-3.1,6.8-4.7c1.9-1.3,8.5-5.6,18.4-11.1c9.2-5.1,12.4-6.3,16.1-9.3c0.6-0.5,2.7-2.2,5.8-4.4
	c0,0,2.5-1.7,4.7-3.1c7.3-4.4,20.6-7.5,20.8-7c0.1,0.4-7.5,1.6-17,7.5c-4.1,2.5-3.3,2.7-9.4,6.8c-3.8,2.5-5.6,3.5-14.9,8.9
	c-5.9,3.4-8.9,5.2-10.9,6.4c-7.9,4.8-13.6,8.9-17.3,11.5c-8.3,6-10.8,8.4-23.5,18.6c-17.9,14.5-11.7,8.3-34.8,26.3
	c-3.3,2.6-8.1,6.3-15.4,9.6c-6.6,3-12.4,4.4-15.9,5c-10,1.8-17.8,0.9-23.3,0.3c-14.5-1.8-26.4-6.6-28.2-7.4
	c-8.4-3.5-12.8-6.6-21-6.6C278.7,311.4,274.4,313.3,274.4,313.3z"/>
</svg>
