<?xml version="1.0" encoding="utf-8"?>
<!-- Generator: Adobe Illustrator 22.1.0, SVG Export Plug-In . SVG Version: 6.00 Build 0)  -->
<svg version="1.1" id="Layer_1" xmlns="http://www.w3.org/2000/svg" xmlns:xlink="http://www.w3.org/1999/xlink" x="0px" y="0px"
	 viewBox="0 0 275 275" style="enable-background:new 0 0 275 275;" xml:space="preserve">
<style type="text/css">
	.st0{opacity:0.46;}
</style>
<path class="st0" d="M39.6,154.8c-0.3,3-2,4.8-3.4,6.7c-1.4,1.9-0.8,1.6-4.4,9.2c-1.3,2.8-3.3,6.8-6,11.7
	c-3.6,6.6-6.3,12.3-8.3,16.5c-2.3,5-3.8,8.5-5.3,13.4c-2.1,6.8-3.4,11.3-2.8,17.2c0.4,3.6,1,8.5,5.1,12c0.4,0.3,4.6,3.9,10.3,3.3
	c7-0.8,11.1-7.3,13.3-10.8c3.2-5,1.2-4.9,6-16.4c4-9.5,5.1-9,7-15.4c0.5-1.7,1.4-4.9,2.3-4.8c0.6,0,0.8,1.7,1.2,3.2
	c1.2,4,4.4,8,8.5,9.9c0.8,0.3,5.9,2.6,11.3,0.2c1-0.4,3.8-1.8,5.5-4.8c1.6-2.9,1.3-5.8,0.8-9.8c-0.4-3.2-0.8-3.1-3.8-13.3
	c-1.7-5.9-2-7.3-2.9-9.7c-0.2-0.6-0.7-2-1.7-4.8c-0.4-1.3-0.8-2.5-0.6-4c0.1-0.5,0.2-1,0.6-1.9c0.4-1.2,0.9-2.6,1.8-4.3
	c1-2,1.9-3.4,2.3-3.9c2.3-3.6,2.9-7.9,4.8-13.2c2.3-6.7,2.3-5.8,4.6-12.3c3.2-9.1,2.2-8.1,5.2-16.4c2.6-7.4,5-12.8,5.3-15.4
	c0-0.2,0.1-1,0.3-1.1c0.4-0.1,1,2.1,1.3,2.8c1.8,5.9,7.3,12.8,10.3,15.6c2.6,2.4,3.9,3.6,4.4,3.8c0.5,0.3,1.4,0.6,1.4,1.2
	c0,0.7-1.6,1.2-1.9,1.3c-2.2,0.8-5.9,3.7-13.3,9.7c-6.6,5.3-9.9,7.9-11.4,12c-0.5,1.3-2,5.7-0.3,10.7c0.4,1.3,1.9,5.5,6,7.7
	c4.9,2.5,10.3,0.4,12.3-0.4c2.4-1,4.8-2.6,6.2-3.4c4.4-2.9,4.8-3.2,4.8-3.2c0.9-0.6,1.7-1.3,1.8-1.2c0.1,0.2-1.3,1.7-1.5,1.9
	c-2.9,2.9-7.5,10.2-11.3,16.1c-9.1,14.1-9.3,12.9-16.3,24.2c-6.5,10.4-4.4,8.2-10.5,18c0,0-7.7,12.3-11.8,23
	c-0.3,0.7-0.8,2.2-1.1,4.3c-0.3,1.9-1,7.3,2.6,11.9c2.5,3.2,5.8,4.4,6.8,4.7c0.4,0.1,3.8,1.1,7.8,0.1c6.2-1.6,9.6-7.2,11.9-10.8
	c5.4-8.5,11.3-16.7,16.8-25.2c5.5-8.7,4-5.3,15.7-22.5c6.2-9.1,10.5-15.8,14.9-21.3c2-2.5,3-3.5,4.5-6c1.4-2.4,3.1-4.7,4.6-7.1
	c0.6-1,1.5-2.4,2.5-2.3c0.9,0,1.6,1.1,1.8,1.4c0.7,1.1,9.5,9.6,27.1,26.7c8.6,8.4,8.8,6.9,17.6,15.8c6.7,6.7,10.1,10.1,13,14.1
	c3.1,4.3,5.6,8.7,11.3,13.8c3.7,3.4,5.6,4.3,7,4.8c0.4,0.1,8.3,2.6,14.2-2.2c4.7-3.8,5-9.6,5.2-13.1c0.4-7.7-3.1-13.7-4.6-15.9
	c-1.3-1.9-1.8-2.1-5.2-6.5c-3-4-5-7-5.6-7.8c-4.7-6.9-13.9-14.6-32-31.8c0,0-11.8-11.1-18.3-18.7c-1.4-1.6-1.8-2.3-3.4-3.9
	c-1-1-2.7-2.6-4.4-4.9c-0.6-0.9-1.1-1.7-1-2.6c0.2-0.8,0.8-1.2,1.6-2c1.1-1,2-2.1,3-3.2c1.7-1.7,1.4-2,4.3-6.1
	c2.2-3,3.3-4.6,4.8-5.6c0.4-0.3,1.7-0.9,4.3-2.1c3-1.4,4.5-2.2,4.6-2.2c0,0,4.6-2.2,12.3-5.9c9.1-4.4,17.6-9.6,25-14.1
	c4.9-3,12.8-8.7,28.6-20.3c2-1.5,5.6-4.2,7.6-8.9c0.7-1.6,3-7.3,0.1-13.2c-2.7-5.4-8.1-7-8.8-7.3c-3.8-1.1-6.9,0.1-12.3,2.2
	c-4.3,1.7-8.4,4.2-16.7,9.3c-8.7,5.3-10.9,7.3-11.8,8.2c-0.4,0.4-1.2,1.1-2.9,2.4c-1.6,1.3-2.4,1.9-2.9,1.7
	c-0.3-0.2-0.2-0.6-0.5-1.8c0,0-0.1-0.5-0.6-1.7c-0.3-0.7-1.9-4.2-5.2-6.6c-4.8-3.5-10.6-2.6-12.5-2.3c-4.6,1-7.5,3.6-11.3,7.3
	c-3.1,3-3.1,3.7-10.1,12.9c-2.2,3-8.2,10.6-11.3,15.2c-1.4,2-2,3-2.4,3.8c-1.3,2.4-1.4,3-2.3,3.9c-0.7,0.7-0.8,0.5-4.4,2.3
	c-1.9,0.9-3.8,1.7-5.7,2.7c-0.9,0.5-1.3,0.7-1.9,0.7c-1.2-0.1-1.8-1.3-3.2-3.2c-0.9-1.3-1.9-2.4-2.8-3.7c0,0-0.3-0.5-4.2-5.5
	c-1.2-1.5-4.5-5.9-9.3-9.8c-3.4-2.8-6.3-5.1-10.8-6.3c-2.7-0.7-7.3-1.8-11.3,0.4c-1.7,0.9-3.3,2.5-3.8,2.1c-0.4-0.4,0.2-1.9,0.4-2.3
	c2.4-5.5,4.9-14.1,5.7-18.2c0.6-3.3,1.6-8.7-1.3-13.7c-0.5-0.8-3.3-5.6-8.8-6.7c-5.5-1.1-9.8,2.2-11.6,3.5
	c-3.5,2.6-5.3,5.8-7.3,10.3c-5,10.7-5.1,14.9-9.6,26.4c-3.7,9.7-4.5,9-6.6,15.8c-1.5,4.7-4.3,9-5.3,13.8c-0.1,0.4-0.4,2-1,2
	c-0.7,0-1.4-2-1.6-2.8c-1-3.1-4-10.5-5.8-18.2c-0.5-2-3.6-8.4-9.8-21.2c-2.3-4.8-4.1-8.2-7.7-15.1c-5-9.6-6.6-12.4-10.2-14.8
	c-2-1.4-6.4-4.4-11.7-3.3c-6.4,1.4-9,7.8-9.3,8.4c-1.4,3.4-1.2,7.1,1.1,14c3.3,10.1,6.8,14.1,12.4,25c4,7.7,6.5,13.8,8.9,19.7
	c2.7,6.5,5.5,13.4,8.2,22.9c0.5,1.9,1.9,8.1,4.7,20.5c0.5,2.4,1.4,6.4,1.9,11.8C39.4,152.2,39.8,153.3,39.6,154.8z"/>
</svg>
