<?xml version="1.0" encoding="utf-8"?>
<!-- Generator: Adobe Illustrator 22.1.0, SVG Export Plug-In . SVG Version: 6.00 Build 0)  -->
<svg version="1.1" id="Слой_1" xmlns="http://www.w3.org/2000/svg" xmlns:xlink="http://www.w3.org/1999/xlink" x="0px" y="0px"
	 viewBox="0 0 1024 1024" style="enable-background:new 0 0 1024 1024;" xml:space="preserve">
<path d="M1018,320.9c0,0-21.5,46-63.9,53.8c0,0,81.8-78.8,60.3-143.4c0,0,7.2,64.5-56.7,87.8c0,0-14.9,7.8-81.8,14.9
	c0,0,63.9-37,69.9-83.6c0,0-13.7,39.4-69.3,65.1c0,0,0.6-34.6,61.5-77.7c0,0,33.5-22.7,37.6-56.2c0,0-14.9,36.4-54.4,52
	c0,0,37-27.1,22.7-49.6c0,0,9.6,22.1-50.2,49c0,0-62.7,20.3-90.2,68.1c0,0-13.1,22.1,8.4,57.3c0,0,25.7,35.2-26.9,53.8
	c0,0-40.6-40.6-127.8-16.1c0,0-115.9,35.8-168.4,5.4c0,0-21.4-15.1-40-22.9c25.7,7.5,87.6,19.7,133.8-17.7c0,0-47.2,28.7-104.5-2.4
	c0,0,71.7,6.6,72.9-38.2c0,0-15.5,34.6-78.3,20.9c0,0,86.6-9.6,100.9-82.4c0,0-52.9,82.1-129.9,45.6l-4.5-1.9
	c23.5-0.3,40.5-8.8,52.2-18.4c5.1,0.9,8.1,1.7,8.1,1.7c-2-1.2-4-2.3-6.1-3.4C507.3,270.1,513,257,513,257c-8,9.9-17.4,17-27.3,22
	c-43.1-16.6-102.7-5.8-102.7-5.8c44.8-10.8,53.2-29.1,53.2-29.1s-23.3,16.6-92.6,2.9c0,0,31,2.3,49-15c0,0-27.5,13.1-68.7,4.2
	c0,0-23.3-15.5-53.2,1.2c0,0-28.7,15.6-59.1,3.6c0,0,17.3-16.2,40.6-13.8c0,0-20.9-10.8-62.1,19.7c0,0-10.8-6.8-15.5-6.1
	c0,0-14.3-10-18.5-9.4c0,0,6.6,13.2,3.6,20.9c0,0-5.4-9.6-13.7-16.8c0,0,8.4,14.3,6.6,22.7c0,0-7.8,9.6,0,18.5l-4.2,3.6
	c0,0-4.2-5.4-11.9-3c0,0,0-7.8-14.3-6c0,0-6.6-9-19.1-7.2c0,0-5.4-5.4-15.5-4.2c0,0-4.2-6-11.3-4.8c0,0-3.6-4.6-11.9-3.4
	c0,0-1.2-7.7-13.7-5.2c0,0-5.4-6.6-13.1-5.9c0,0-3.6-5.8-9-5.2c0,0-6-6-13.1-5.4c0,0-11.9-4.8-4.8,4.2c0,0,6,5.7,11.3,6.4
	c0,0,0,4.3,10.2,6.9c0,0,2.8,4.4,10.2,6.2c0,0,2.4,6.2,12.5,5c0,0,2.4,6.6,13.7,5.4c0,0,2.4,6,10.8,6c0,0,1.8,6.6,10.2,4.8
	c0,0,5.4,9,16.1,7.8c0,0,3,8.4,14.9,8.4c0,0,6,9.6,14.9,4.8c0,0,7.2,6.6,4.2,17.9c0,0-6.6,5.4-4.2,23.3c0,0-3.6,16.1-11.3,32.3
	c0,0-11.9,27.5-14.9,32.9c0,0-19.1,7.2-6.6,19.1c0,0,6,9,8.4,12.5c0,0,4.2,5.4,11.3,5.4c0,0,4.2,8.4,16.1,0c0,0,4.2,9,13.7-0.6
	c0,0,8.4-3,10.8-18.5c0,0-1.8-7.8,10.4-10.6c0,0,19.5-7.3,26.1-19.9c0,0,26.9-4.2,32.3-23.9c0,0,14.9-4.2,32.9,26.3l17.9,31.7
	c0,0,2.4,32.3-4.2,68.7c0,0-11.9,34.6,7.8,57.9c0,0-6.6,14.3-43,31.7l-37,16.7c0,0-16.1,6-18.5,16.1c0,0-9.6,7.8-7.8,14.9
	c0,0-17.3,24.5-35.2,44.8c0,0-14.3,11.9-11.3,23.3c0,0-1.8,6.6-9,11.9c0,0-12.5,10.2-4.8,15.5c0,0-1.8,4.8-5.4,8.4
	c0,0-5,9.6-6.2,22.7c0,0,23.8,6,39.8-8.4v-7.3c0,0-10.6-14.8,0.7-30.3c0,0,12.7-1.2,22.2-19.7c0,0,21-41.8,31.1-50.8
	c0,0,28.7-9,34.7-17.9l24.5-3l-19.7,14.3c0,0-16,9-18.7,25.7c0,0-23.7,53.8-36.8,66.9c0,0-14.3,16.7-1.8,25.7c0,0,3,12.5-1.2,25.1
	c0,0-1.2,29.9,14.3,44.8c0,0,18.5-20.9,17.3-39.4l-5.4-6c0,0-6.6-11.3,0.6-18.5c0,0,7.8-7.2,7.2-26.9c0,0,14.9-46.6,28.7-57.3
	c0,0,9.6-6.6,20.3-12.5c0,0,41.8-8.4,66.9-26.3c0,0,17.3-11.9,29.9-10.2c0,0,20.9,4.8,28.1-13.1c0,0,14.3-6.6,57.9-3.6
	c0,0,96.2,9,146.9-19.7c0,0,35.2-16.7,48.4-8.4c0,0-11.3,37-10.8,53.2c0,0-14.3,68.7-29.9,86c0,0-29.9,35.2-61.5,56.7
	c0,0-13.7,4.8-11.3,14.3c0,0-1.8,7.2-14.3,7.8c0,0-13.7,3.6-17.9,10.2c0,0-18.5,10.2-25.1,22.7c0,0,24.5,16.1,47.2,11.9l8.4-10.8
	c0,0-3-20.3,15.5-19.1c0,0,13.7,6.6,25.7-15.5c0,0,44.2-52,74.1-65.7c0,0,35.2-19.7,25.1-39.4c0,0,2.4-42.4,22.1-58.5l28.1-18.5
	c0,0,40.6,48.4,59.1,49.6c0,0,34,18.5,35.2,40c0,0,11.3,85.4-19.7,101.5c0,0-13.1,1.8-18.5,8.4c0,0-16.7,7.8-19.7,16.7
	c0,0,26.3,20.9,43,14.9l9-10.2c0,0,1.2-13.1,14.9-15.5c0,0,20.3-3.6,16.1-29.9c0,0,1.2-82.4,9.6-107.5c0,0,10.2-28.1-14.3-36.4
	c0,0-43.6-25.7-40-53.2c0,0,38.2-79.4,29.3-116.5c0,0-3-21.5-22.1-49.6c0,0,59.1,25.4,111.2,4.6c26.2,1.9,79.5,1.2,103.8-31.5
	c0,0-30,22.8-83,20.2c3-2.1,6-4.5,8.9-7.1c0,0-4.8,3.2-13.3,6.8c-14.5-1.1-30.6-4-48.3-9.8C880,410.5,986.9,418.8,1018,320.9z
	 M282.1,244.4c0,0,22.7-8.4,40,0C322.1,244.4,298.4,249.3,282.1,244.4z M408.1,288c23.5-9.4,51.9-8.3,70.8-6
	C444.7,296.1,408.1,288,408.1,288z M894.1,429.7c-18.3,2.4-40.7,1.2-64.8-9C829.2,420.6,855.5,422.3,894.1,429.7z"/>
</svg>
