<?xml version="1.0" encoding="utf-8"?>
<!-- Generator: Adobe Illustrator 22.1.0, SVG Export Plug-In . SVG Version: 6.00 Build 0)  -->
<svg version="1.1" id="Слой_1" xmlns="http://www.w3.org/2000/svg" xmlns:xlink="http://www.w3.org/1999/xlink" x="0px" y="0px"
	 viewBox="0 0 1024 1024" style="enable-background:new 0 0 1024 1024;" xml:space="preserve">
<path d="M675.8,759.3L675.8,759.3L675.8,759.3L675.8,759.3z M927.2,616.9c15.6-3,29.2,0.5,29.2,0.5c-16,1.7-26,13.2-26,13.2
	c-78.2,48.8-136.1,29.5-158.6,18c-1.5,1.2-3.4,2.2-5.4,2.2H766c-4.7,0-8.5-4-8.6-8.6c-18.8,0.1-25,14-25,14
	c-5.1-7.9-3.5-14.4,0-19.2l-64.7,5.2c-2.1,3.1-5.7,5-5.7,5c-5.9,1.2-9.7-1.3-11.9-3.6l-3,0.2c-5.2,15.4-37.4,32.2-37.4,32.2
	c-17.4,11.4,0,24.5,0,24.5c16.3,14.2,1.6,19.1,1.6,19.1C572.2,731,540.1,695,540.1,695c-0.5,9.2-14.1,33.3-14.1,33.3
	c22.9-13.1,116,34.8,116,34.8c9.3,6,23-1.6,23-1.6c3.9-2.3,7.6-2.8,10.7-2.2h-0.3c1.5,0.3,2.6,1,3.9,1.8l11,4.7
	c5.8,12.6,3.3,22.3,3.3,22.3c2.7,6,7.1,10.9,7.1,10.9c18.5,15.8,21.2,49,21.2,49c0,28.3-6.5,23.4-6.5,23.4
	c-8.7-3.8-22.1-19.7-22.1-19.7c-11.6-10.2-26.9-30.9-26.9-30.9c-8.2-8.7-20.7-13.6-20.7-13.6C619.6,790.3,582,792,582,792
	c3.3,9.3,1.1,14.8,1.1,14.8l-4.9-0.6c-4.4,5.4-0.5,15.3-0.5,15.3c18.5,8.7,13.1,40.8,13.1,40.8c-1.6,26.7-8.2,22.9-8.2,22.9
	c-1.6-8.2-29.4-47.8-29.4-47.8c-3.3-4.9-18-26.5-18-26.5c-6-10.3-23.9-24.2-23.9-24.2h-19.7c-49-3.1-48.5-39.2-48.5-39.2
	c-14.2-0.5-72.9-50.6-72.9-50.6c-6-2.7-22.9-16.9-22.9-16.9c-15.2,24.5-63.7,15.2-63.7,15.2c-20.2,5-44.1-9.1-56-17.5l-10.9,0.9
	c-2,2.8-3.8,3.6-3.8,3.6c-1.8-0.2-2.9-1.4-3.6-3l-19.6,1.6c2.3,5,2,8,2,8c-4.9-0.8-9-3.7-12.3-7.2L10.4,695
	c-4.3,0.3-8.1-2.6-8.4-6.6c-0.3-4,2.9-7.5,7.2-7.9l161.2-13c-7.6-4.1,12.5-50.2,12.5-50.2c-16.9-14.6,31.6-57.8,31.6-57.8
	c25-18.5,33.2-46.3,33.2-46.3C254.2,474.6,288,442,288,442l2.2-8.7c-7.1-15.2,25.6-55.1,25.6-55.1c-15.8-9.3-1.5-28.2-1.5-28.2
	c-7.6-12-0.7-45.7-0.7-45.7c-21.8,13.1-51.7,3.3-51.7,3.3c-40.3-27.8,52.8-110,52.8-110c-3.8-3.3,6.5-26.7,6.5-26.7
	c-7.6-12-29.4,12-29.4,12c-3.8,10.3-6.5,11.1-6.5,11.1c-2.8,0,8.1-24.2,8.1-24.2c28.4-16.8,34.3-24.9,34.3-24.9
	c32.7-15.9,39.2-0.4,39.2-0.4c-1.1,8.2,23.4,33.5,23.4,33.5s28.8,1.6,52.8-4.9c0,0,68.1-20.2,50.1,74.5c0,0-14.1,48.4-82.7,53.8
	c0,0,18.5,11.3,32.7,11.3l23.4,1.9c19.6,0.5,25,13.1,25,13.1c0.8,1.3,1.6,2.5,2.4,3.7c15.7,1.7,35.1,1.2,52.5-7
	c0,0,28.3-18.5,46.3-24.5c0,0,24.5-8.2,41.4-2.7c0,0-37-1.7-51.2,16.5c0,0,86-27.4,116.5-6.2c0,0-64.2-5.2-111.1,24.6
	c0,0-32.7,27.6-47.9,22.2c0,0,15.2,12.5,52.8-5.4c0,0-17.2,18.8-61,19c3.2,7.4,0.5,13.7,0.5,13.7l3.8,6
	c32.7,12.5,55.1,77.6,55.1,77.6c15,34.9,24.9,52,24.9,52c17.4,18,52.3,96.4,52.3,96.4c-1.6,3.3-3.3,3.9-3.3,3.9
	c4.4,3.3,13.1,2.7,13.1,2.7c7.4,0,9,3,8.9,6l42-3.4c-13.2-7.4-7.9-17.8-7.9-17.8c10,11.3,14.3,11.9,14.3,11.9
	c-16.9-25.5-2.2-23.2-2.2-23.2c2.2,23.2,18.8,23.8,18.8,23.8c-11.2-2.5-3.3-14.9-3.3-14.9c2.3,4.1,5.7,5.8,8.9,6.2
	c1.4-2.9,4.3-4.6,7.7-4.6h0.5c1.4,0,2.7,0.1,3.8,0.7c33.5-27.6,113.8-43.3,113.8-43.3c-50.8,15.5-56.3,30.9-56.3,30.9
	c44.2-29.8,113.7-25.3,113.7-25.3c-11,2.2-24.3,11-24.3,11c28.7,5.5,65.1-16.6,65.1-16.6c-11,17.7-43.1,24.3-43.1,24.3
	c44.2-1.1,81.7-33.1,81.7-33.1C997.3,599,939.3,614.2,927.2,616.9z M402.8,529.3c0,0-9.2-26.9-14.6-32.4l1.6-3.8
	c0,0-25.6,0-39.2-29.4c0,0-2.2-9.3-8.2-16.9c0,0-1.1,9.3-8.2,8.2l-3.8,6.5c0,0,10.9,50.1,9.3,71.3c0,0,10.3,57.7-3.3,82.7
	c0,0-3.9,25.6,7,26.1l26.7-29.4c0,0-5.4,3.3-12.5-12.5c0,0-7.1-17.4,6-29.4C363.6,570.4,372.3,542.7,402.8,529.3z M463.5,667.5
	c0,0-17,5.5-39.1-2c0,0,29.1,14.5,31.1,20L463.5,667.5z M550.4,501.3c0,0-50.6-47.4-53.9-77.3c0,0-2.2,23,0.5,24.1l3.3-0.6
	c0,0,14.2,46.3,22.3,50.1c0,0,19.6-1.1,25.6,3.8C554.2,506.2,550.4,501.3,550.4,501.3z"/>
</svg>
