<?xml version="1.0" encoding="utf-8"?>
<!-- Generator: Adobe Illustrator 22.1.0, SVG Export Plug-In . SVG Version: 6.00 Build 0)  -->
<svg version="1.1" id="Layer_1" xmlns="http://www.w3.org/2000/svg" xmlns:xlink="http://www.w3.org/1999/xlink" x="0px" y="0px"
	 viewBox="0 0 739 730" style="enable-background:new 0 0 739 730;" xml:space="preserve">
<style type="text/css">
	.st0{enable-background:new    ;}
</style>
<path class="st0" d="M5.8,228c0.4,10.3,1.4,33.6,12.3,60.3c5.1,12.3,10.8,21.9,14.7,28.3C39,327,44.2,334,50.2,342
	c15.8,21.3,23.7,31.9,36.3,42c7,5.6,13.7,9.5,27,17.3c10,5.9,19,11.1,31.7,16.7c15.9,7,17,5.3,24,10.3c10.2,7.3,11.2,13.2,20.7,16.7
	c1.9,0.7,5.6,1.8,7,5c1.2,2.7,0.5,6.1,0,8.3c-0.1,0.3-0.7,3.1-1.7,5c-2.8,5.3-9.9,5.3-17.4,8.2c-2.6,1-7.7,4.8-18,12.5
	c-6.6,4.9-6.3,5-18.3,14.3c-15.2,11.9-17.1,13-19.7,17.3c-3.4,5.7-1.5,6.2-6,15c-5.2,10.3-8.1,10.1-9.3,16c-2,9.3,3.2,18,5,21
	c3.4,5.7,4.8,4.4,11,13c5.6,7.8,5.3,10,9.3,12.3c1.1,0.7,5.4,1.4,14,3c4.9,0.9,7.8,1.3,8.7,0c1-1.6-1.7-4.5-0.7-5.7
	c0.8-0.9,3,0.1,5,0.7c6.2,1.8,13.9,0.9,15-1.7c1-2.3-6-6-5-8c0.5-1,2.3-0.4,3.3-1.7c1.1-1.4,0.6-4.2-0.7-6c-2.6-3.8-7.1-1.7-12-5.3
	c-0.2-0.2-4.9-3.7-5.3-8.7c-0.5-5.7,5.1-10.3,10-14.3c6.1-4.9,9-5.3,24.7-13c12.4-6.1,13-7,18-8.3c8.4-2.2,9.7-0.4,17.3-3
	c9-3.1,15.4-8.4,16.7-7c0.5,0.6-0.4,1.5-0.3,3.2c0.1,3.9,5,6.7,6.7,7.7c10.3,5.9,27.4,2.5,31.7,1.7c10.2-2.1,6.2-3.1,24.5-8.5
	c7.1-2.1,13.7-3.7,14.3-7.5c0.3-1.6-0.5-4.2-2-4.8c-0.6-0.3-0.9,0-2.8,0.2c-2.2,0.2-3.7,0.3-4.3-0.5c-0.7-0.8,0.4-1.8,0-3.5
	s-2.2-3.2-3.8-3.7c-3-0.9-5.1,1.5-6.7,0.3c-1.2-0.9-0.4-2.5-1.5-3.2c-1.7-1.1-4.4,2.3-7.2,1.3c-1.2-0.4-1.8-1.4-2.7-3
	c-0.6-1.1-1.8-3.4-2-9c-0.2-4.4-0.3-7.7,1.3-8.5c1.3-0.7,3.1,0.5,4,1c5,3,11.1,3.7,16.3,6.2c3.7,1.8,11.3,4.3,26.5,9.5
	c12.8,4.4,19.3,6.5,25,7.7c7.6,1.5,14.1,2,22.7,2.7c0.5,0,7.5,0.6,16.8,0.7c13.7,0.1,17-0.8,19.7-2.5c1.4-0.9,3.7-2.6,4.3-2
	c0.6,0.5-0.7,2.4-1.3,4.3c-1.5,4.3,0,8.1,1.2,11.8c3.3,10.5,0.9,10.1,4.2,19.7c1.9,5.7,4.6,10.6,10,20.5c4.5,8.3,6.8,12.5,6.8,12.5
	c0.2,0.2,1.2,1,1,1.8c-0.2,1.3-2.7,1-3.5,2.5s0.2,4.4,2.2,5.7c1.8,1.2,3.2,0.1,7.3,0.8c1.4,0.2,2.2,0.5,4.2,1.2
	c5.2,1.7,8.3,2.6,11.7,3.2c1.9,0.3,6.3,1,11.7,0c2.2-0.4,2-0.6,3.8-0.8c4.2-0.5,5.4,0.5,10.7,0.8c4.7,0.3,7.6,0.4,9.5-1.5
	c1.2-1.2,1.1-2.4,2.5-3c1.7-0.7,2.9,0.6,5,0.5c2.8-0.1,6-2.7,6.2-5.2c0.2-3.3-5.1-5.9-8.3-7.5c-4-2-8.1-2.9-10.3-3.3
	c-4.1-0.9-4.9-0.6-7-1.7c-2.8-1.4-4-3.4-6.2-6.2c-6.2-8.1-6.9-6.5-8.8-10.2c-3.1-5.9,0-7.4-2.8-17.7c-1.6-5.7-3.5-8.8-2-10.5
	c1.1-1.2,2.9-0.5,6.3-0.5c6.6-0.1,11.6-3.1,15.2-5.2c6.4-3.8,4.6-5.6,9.8-8c4.9-2.3,5.7-0.4,15.2-3c4.1-1.1,5.7-2,8-1.2
	c3,1.1,3.8,3.8,5.8,6.7c3.6,5,8.9,6.7,17.7,9.5c9.9,3.2,18.5,3.8,18.5,3.8c4.6,0.4,7.9,0.2,11.7,2.5c3.5,2.1,3.2,3.9,6.3,5.7
	s4.9,0.9,14.2,1c3.6,0,7.3,0.2,15.8,0.2c2,0,8.3-0.1,8.7-1.8c0.2-0.7-0.7-1.4-0.3-2c0.4-0.7,1.8-0.1,3.3-0.3c2.4-0.4,5.1-2.6,5-5
	c0-1.2-0.8-2.5-1.8-3.2c-1.5-0.9-2.8-0.2-5.2-0.3c-0.9,0-1.9-0.2-5.7-1.7c-5.8-2.3-8.7-3.4-10-4.5c-3.4-2.9-1.7-5-5-10.5
	c-3.5-5.9-9.1-9.8-12.8-11.7c-8.8-4.3-9.3-4.5-9.3-4.5c-0.7-0.2-2.1-0.7-2-1c0.1-0.4,2.9-0.2,4.3-0.2c4.2,0.2,7.2-0.4,12.9-1.5
	c7.4-1.4,7-2.9,16.1-5.5c6.2-1.7,6.1-1,14.3-3c5.1-1.3,5.1-1.6,14.6-4.3c8.2-2.4,8.4-2.2,15.9-4.5c9.9-2.9,8.9-3,14.4-4.5
	c11.5-3,12-1.6,17.6-4.3c8.5-3.9,11.4-5.7,11.4-5.7c1-0.5,2.3-0.9,3.7-1.3c1.7-0.5,3.1-0.7,4-0.8c2.1-0.2,3.3-0.1,5.1,0
	c4.2,0.1,8.6,0.6,11.6-2c0.7-0.6,1.4-1.3,2.2-2c1.4-1.4,2.6-3,3.8-4.7c2.7-4,4-6,3.4-7.6c-0.5-1.4-1.7-0.8-5.2-3.7
	c-0.6-0.5-1.6-1.4-3-2.3c-1.2-0.8-1.9-1.1-2.4-1.2c-0.4-0.1-1.2-0.4-2.8-0.5c-2.4-0.1-3.1,0.3-5.8,0.2c-1.5,0-2.3-0.1-2.7-0.5
	c-0.8-1,0.6-2.6,0.7-5.8c0.1-2.5-0.8-2.8-0.3-4c0.7-1.8,3-1.8,8.7-3.5c0.3-0.1,4.6-1.4,9.5-4c3.1-1.6,3.6-2.2,3.8-2.8
	c1.5-3.4-3-8.3-4-9.3c-2.3-2.5-3.2-2.2-7-5.5c-4.1-3.6-3.5-4.3-6.3-6.3c-2.9-2.1-5.5-2.9-10.8-4.3c-4.6-1.3-8.3-1.8-10-2
	c-4.1-0.5-7-0.5-13.2-0.3c-10.1,0.2-15.2,0.3-15.7,0.3c-6.5,0.5-19.4,1.4-33.2,7.5c-5.3,2.3-7.9,3.5-11,5.3c-6.1,3.7-8.3,6.3-13.5,7
	c-1.5,0.2-4.6,0.6-7.7-0.8c-2.7-1.2-2.5-2.5-5.3-3.8c-4-2-6.4-0.4-8.5-2.5c-1.3-1.3-0.6-2.2-1.8-4.7c-1.6-3.3-4.9-6.1-8.7-7
	c-4.1-1-8,0.5-9.3,1c-2.9,1.1-3.9,2.3-5.5,1.8c-1.8-0.6-1.4-2.4-4-5.2c-1.6-1.7-2.1-1.5-5-4c-2-1.7-2.9-2.6-3.5-3.5
	c-2.1-3.4,0.2-7,1.2-14c0.4-2.8,0.3-5.2,0.2-10.2c-0.2-5.7-0.6-16.1-5.8-26.8c-1.5-3-6.3-12.8-11.5-12.3c-1.9,0.2-3.5,1.7-3.8,2
	c-2,1.9-2.4,4.2-3,7.3c-2.4,13-2.4,13.1-2.5,14.3c-0.3,3.3-0.2,3.2-0.7,9.5c-0.4,4.7-0.7,7.7-2.3,11c-0.8,1.6-2.2,4.5-3.7,4.3
	c-2-0.2-2.9-6.4-3.3-9.3c-1.1-7.7,0.1-9.9-0.3-15.8c-0.5-6.7-2.6-11.4-5-16.7c-3.3-7.3-5.8-12.8-10.7-13.8c-2.4-0.5-5.6,0-7.3,2
	c-1.5,1.6-1.5,3.8-1.5,5.8c0,6.6-0.6,13.2-0.5,19.8c0.1,5.3,0.1,8-1.8,9.8c-1.2,1.1-3.2,2-4.5,1.3c-1.7-0.9-0.8-4-1.5-8.8
	c-0.5-3.5-1.8-6.5-4.5-12.5c-2.2-5-3.3-7.4-5.1-9.7c-0.5-0.6-7.4-9-11.9-7.2c-2.9,1.2-3.8,6.6-3.3,10.2c0.4,3.1,1.6,3.7,3.2,9.7
	c1.2,4.7,0.9,6.1,0.2,6.7c-0.9,0.7-2.2,0-4.5,1c-1,0.4-1,0.7-1.4,0.6c-1.5-0.1-2.1-4.1-3.4-9.1c-1.4-5.2-2.2-8-4.2-10.8
	c-1.3-1.8-4.1-5.8-7.5-5.3c-2.4,0.3-4.6,2.7-5.2,5c-0.3,1.5,0.2,2.3-0.2,5.7c-0.3,2.7-0.7,2.9-0.8,3c-1.2,0.5-2.7-3.7-5.7-3.8
	c-1.3-0.1-2.7,0.6-3.3,1.7c-1.4,2.1,0.6,5-0.2,5.5c-0.7,0.4-2.7-1.5-4-3.2c-2.1-2.6-2-3.7-3.7-6c-1.7-2.4-2.3-1.9-6-5.7
	c-3.3-3.3-3-3.8-5.5-6c-2.6-2.3-5-4.3-7.7-3.8c-2.6,0.4-4.3,2.9-4.8,3.7c-2,3-0.8,4.7-2.7,6.5c-1.6,1.5-2.8,0.5-6.3,2
	c-4.1,1.7-4.4,3.9-6.5,3.8c-2.4-0.1-3-3-6.7-7c-2.6-2.8-2.6-1.7-10.8-7.7c-3.2-2.3-6.6-4.4-9.8-6.7c-2.2-1.5-4.1-2.8-5.8-2.2
	c-1,0.4-1.7,1.5-3,3.7c-1,1.6-1.5,2.5-1.5,3.3c-0.1,2.1,1.8,2.8,1.7,4.7c-0.1,1.1-0.9,1.6-2.2,3c-3.8,4.1-3.5,6.5-5.5,7
	c-1.6,0.4-3-0.8-5.8-3c-5.7-4.4-8.6-6.5-11.5-7.5c-6-2-12.2,0.7-15.7,2.2c-5.3,2.3-9.3,5.5-9.3,5.5c-2.4,1.9-3.5,3.2-6.2,4.3
	c-1.4,0.6-4,1.6-7,1c-2.7-0.6-3.3-2-7.2-4.7c-2.3-1.6-4.5-3.1-7.2-3.8c-6.7-1.9-13.3,1.8-14,2.2c-3.6,2.1-3.7,3.9-9,7
	c-0.5,0.3-2,1.1-5.2,2.7c-3.4,1.7-3.9,2-4.7,1.8c-2-0.3-2.2-2.5-4.8-5.5c-1.5-1.7-4.4-5-7.7-4.7c-3,0.3-5.5,3.8-6.3,6.5
	c-1,3.3,0.4,4.9-1.2,8.2c-0.4,0.7-1.2,2.5-3.2,3.7c-0.4,0.2-3.1,1.9-6.2,1c-1.5-0.4-2.5-1.3-3.7-2.5c-4-4.3-3.1-7.1-6.5-11.8
	c-1.4-2-3.6-4.9-7.2-5.7c-0.5-0.1-3.9-0.8-6,1.2c-1.7,1.7-1.6,4.3-1.3,8.3c0.3,5.2,1.5,7.1,0.3,10.2c-0.3,0.7-1.1,2.8-2.5,3
	c-1.7,0.2-3.1-2.5-5.2-6c0,0-3.9-6.6-11.3-16.7c-2.8-3.8-4.2-5.3-6.2-5.3c-2.3-0.1-4.8,1.7-5.7,4c-0.8,2.1,0.5,3.3-0.5,6.3
	c-0.3,0.9-0.9,2.7-2.2,3c-1.6,0.4-3.3-1.7-3.8-2.3c-2.3-2.8-1.8-5.2-3-9.5c-0.3-0.9-1.7-6-5.5-10.5c-1.8-2.2-4.7-5.5-7.3-4.8
	c-2.7,0.7-3.7,5-4.2,7c-0.5,2.3-0.4,3.4-0.2,9.2c0.3,8.3,0.1,10.4-1.3,12.2c-1.1,1.4-2.6,2.1-3.3,2.5c0,0-3.2,1.6-7.2,1
	c-5.4-0.8-9-6.3-11.8-10c-6-7.9-5.3-3.8-18-17.5c-11.1-11.7-18.2-21.7-21.1-26c-6.6-9.6-9.9-14.5-12.3-21.8c-2-5.9-2.5-11.2-3.7-22
	c-1-9.7-1-12.9,1-16c1.8-2.8,3.5-2.9,6.8-7.3c2.1-2.8,3.2-5,5-9c4.4-9.5,3.1-10.5,6.3-15.5c3.1-4.8,4.8-4.5,6.4-8.8
	c0.5-1.4,1.2-3.9,2.6-8.9c0.9-3.3,0.8-3.3,1.2-4.3c1.7-5.3,3.2-6.3,4-9c2.1-6.9-3.5-14.1-4.3-15.2c-1.7-2.2-4.6-5.9-9.2-6.7
	c-2.3-0.4-5.4-0.1-15,6.7c-7.5,5.2-11.2,7.8-15.7,12.8c-3.6,4-10.2,11.4-13.2,22.5c-1.1,4.2-0.6,4.7-2.2,11.7
	c-2,8.6-4.3,14.7-5,16.5C4.8,199.4,5.4,216.1,5.8,228z"/>
</svg>
