<?xml version="1.0" encoding="utf-8"?>
<!-- Generator: Adobe Illustrator 22.1.0, SVG Export Plug-In . SVG Version: 6.00 Build 0)  -->
<svg version="1.1" id="Layer_1" xmlns="http://www.w3.org/2000/svg" xmlns:xlink="http://www.w3.org/1999/xlink" x="0px" y="0px"
	 viewBox="0 0 725 725" style="enable-background:new 0 0 725 725;" xml:space="preserve">
<style type="text/css">
	.st0{enable-background:new    ;}
</style>
<path class="st0" d="M717.7,293.9c-3.7-4.3-7.1-7.2-10.8-10.1c-8.6-6.9-15.4-11.7-16-12.1c-10.8-7.5-16.2-11.3-21.3-14
	c-13.4-7.2-25-10.2-32-11.9c-12.2-3-21.5-3.7-23.8-3.9c-3.5-0.2-11.3-0.6-21.3,0.3c-10.7,1-18.5,2.9-26.3,4.9
	c-8,2-13.9,3.9-19.8,5.9c-14,4.6-14.9,5.8-23.4,8.4c-11,3.3-19.5,4.3-29.4,5.5c-11.2,1.3-19.9,2.4-31.6,1.4
	c-6.3-0.5-12.7-1.9-25.6-4.6c-9.5-2-12-2.8-25.3-5.9c-14.6-3.4-16.2-3.5-29.9-6.6c-11.6-2.6-19.6-4.6-34.6-8.4
	c-24.5-6.1-36.8-9.2-43.4-11.1c-5.7-1.7-9.7-3-16.3-4.3c-3.2-0.6-9.9-1.8-25.5-2.5c-14.7-0.7-13.8,0.1-25.9-0.6
	c-13.1-0.8-19.6-2.1-25.9-4.1c-3-1-6.5-2.2-10.9-4.5c-5.4-2.9-7.2-5.1-17.8-14.4c-10.8-9.5-10.4-8.7-15.1-13.3
	c-8.8-8.6-7.5-9.1-12.1-12.4c-3.5-2.5-9.1-4.5-20.3-8.6c-4.6-1.7-7.1-2.5-10.4-2.6c-3.3-0.2-7.1,0.3-9.9,0.6
	c-3.9,0.5-4.2,0.8-6.3,0.8c-4.4,0-5.4-1.4-8.8-1.8c-4.7-0.4-5.1,2-13.1,3.9c-4.8,1.1-4.8,0.3-11,1.6c-3.5,0.8-6,1.3-9,2.8
	c-4.6,2.1-4.4,3.4-8,4.8c-4.2,1.6-5.9,0.3-10.3,1.1c-3,0.6-4,1.5-11.5,6.3c-3.6,2.3-10.3,6.5-16.6,10.3c-8.4,4.9-9,4.6-10.7,6.8
	c-2.2,2.6-0.9,2.6-5.8,15.3c-1.2,3.1-2.5,6.4-1,8.8c0.5,0.8,0.8,0.6,2.3,2c2.7,2.6,2.3,4.1,4.8,6.3c1.3,1.2,3.5,2.6,4.3,2
	c0.2-0.2,0.3-0.5,0.3-0.9c0.3-1.8-0.9-3.3-0.8-3.4c0.2-0.1,2.8,4.4,4,4c0.9-0.3,0.6-3.2,1.3-3.3c0.6-0.1,1.3,2.3,2.9,2.7
	c0.2,0.1,0.3,0,0.3,0c1.1-0.2,1-2.8,1.8-3c0.9-0.2,1.6,3.1,3.3,3.3c1.3,0.1,1.7-1.9,3.3-2c1.3-0.1,2.6,1.1,3,2.5
	c0.4,1.3,0,3-0.8,3.3c-0.8,0.2-1.5-1.6-2.8-1.5c-1.1,0.1-1.3,1.5-2.3,1.5s-1.3-1.5-2.3-1.5s-1.2,1.8-2,1.8c-0.9,0-1.1-2.7-2.3-2.9
	c-0.8-0.1-1.2,1.2-2.5,1.3c-1.1,0.1-1.5-0.8-2.3-0.6c-1,0.3-0.7,1.9-2.1,2.9c-0.9,0.6-1.4,0.2-2.6,0.8c-1,0.5-2.1,1.6-2.4,2.7
	c-0.2,1,0.1,2.2,4.4,6.6c3.2,3.3,4.8,5,6.5,5.7c1.4,0.6,3,1,8.1,0.8c5.4-0.2,9.1-0.8,12-1.3c0,0,5.9-0.8,13.8-1.1
	c5.9-0.2,6.2,0.3,20.6,1.3c13.2,0.9,14.2,0.5,18.1,1.8c4.9,1.5,5.6,2.8,11.8,4.5c4.4,1.2,8,1.7,12.8,2.3c8,1,8.9,0.4,13.5,1.3
	c5.2,0.9,8.6,2.4,14.3,4.9c12.1,5.3,10.5,6.6,20.5,10.9c5.7,2.4,9.9,4.6,18.3,9c1.2,0.6,3.4,1.8,4.6,4.3c1.6,3.2,0.4,6.3-0.4,10
	c-0.6,2.8-2.8,13.3,1.1,20.5c1.7,3.1,4.5,5,10,8.6c7.2,4.7,10.8,7.1,14,8.5c1.8,0.7,4.4,1.8,4.8,3.8c0.3,1.6-1,3-1.8,3.9
	c-3.7,4.4-2,6-7.3,17c-0.6,1.2-0.3,0.6-5.4,9.9c-6.6,12-6.9,12.8-7.1,14c-1.5,6.9,1,12.9,3.1,18c1.6,3.8,2.1,3.7,11.1,16.5
	c7.4,10.6,8.6,12.9,12.1,13.9c0.7,0.2,4.6-0.2,12.6-1c6.9-0.7,8.3-0.9,9.9-2.1c2.3-1.7,3.3-4.1,5.5-4c1.1,0,1.9,0.6,2.9,1.5
	c3.9,3.4,6.6,7.1,8.4,9.6c3.7,5.1,3.9,5.4,4.6,5.8c1,0.5,1.9,0.8,9.8,0.6c7.8-0.1,7.3-0.4,8.8-0.1c2.1,0.4,3.7,1,5.8,0.3
	c1.4-0.5,1.6-1.2,3-1.5c2.4-0.5,4.5,0.9,4.6,1c3.1,2.1,3.3,6.8,2.3,9.6c-0.3,0.8-0.9,2.4-2.3,3s-2.2-0.3-3.6,0
	c-2.3,0.6-3.6,3.9-4,5.9c-0.8,4,1.1,6.1-0.3,7.6c-0.9,1-2,0.3-4.5,0.8c-3.1,0.5-4.1,2-9.5,5.8c-5.2,3.6-5,2.7-6.6,4.3
	c-3.9,3.7-4.8,8.7-5.5,12.6c-1.6,9.4,1.1,16.8,1.9,18.6c2.9,7.1,8,12.7,9.6,12c0.9-0.4,0.5-2.6,1.8-3c1-0.3,2.4,0.7,3.4,1.5
	c1.1,0.8,1.2,1.2,1.5,1.1c1-0.4-0.5-7.7-0.6-8.3c-0.6-2.8-1.1-4.3-0.3-5.3c0.7-0.8,1.5-0.4,2.8-1c1.2-0.6,2-1.8,3.4-7.4
	c1.3-5.5,1.2-6.9,2.6-8c0.6-0.5,1.4-0.7,4.5-0.8c5.3-0.1,6.3,0.4,8.4,0.3c5.5-0.4,9.6-5.2,11.1-6.9c2.9-3.3,4-6.6,7.1-7
	c0.5-0.1,1.4-0.2,2,0.4c1.3,1.1,0.1,3.5,0.1,7.3c0,2.6,0.7,6.5,2,6.8c1.5,0.3,4-4.3,5-8.9c1.2-5.2-0.4-7,0.5-11.8
	c0.9-4.6,3.3-7.8,5.1-10.1c4.6-5.9,7.6-5.4,16.3-12.6c5.5-4.6,8.3-6.9,9.5-10.9c1.4-4.5,0.9-10.5-2.1-14.8c-5.1-7.2-11-10.1-11-10.1
	c-0.5-0.3-2-1-2-1.9c0.1-1.1,2.5-1,4.9-3c2.6-2.2,2.7-4.8,4.4-4.9c1.1,0,2,1.1,2.3,1.5c2.7,3.6,7.7,8.3,14.9,15.1
	c6.1,5.8,13.4,9.2,18,11.4c3.7,1.7,5.4,2.2,8,4.3c4.7,3.7,6.5,8.1,8.6,12.8c1.5,3.3,5.2,9.8,12.5,23c3.1,5.5,6.4,11.3,9,19.9
	c0.5,1.8,2.4,8.4,0.6,9.4c-0.7,0.4-2-0.1-3.1-0.6c-1.9-0.8-3-1.9-3.4-2.3c-3-2.7-8.2-2.4-9-2.4c-6.7,0.4-11,6.7-12.1,8.4
	c-4.3,6.4-4.2,13.8-3.6,14c0.3,0.1,0.7-2.3,3.1-5.1c0.5-0.6,3.5-4,7.6-4.3c1.6-0.1,2,0.4,2.1,0.5c0.8,1-0.6,2.6-0.9,4.5
	c-0.4,3.3,2.4,7.4,5.8,8.9c4.3,1.9,11.1,0.3,11.4,0.3c1.1-0.3,2.4-0.7,3.5,0c1.3,0.8,1.5,2.8,1.8,4.8c0.2,1.7,0.3,2.8-0.3,3.9
	c-0.8,1.5-2.5,1.9-3.8,2.5c-3.5,1.6-5.3,4.9-6.8,7.8c-3.1,6-2.5,13.1-1.1,13.5c0.9,0.2,1.4-2.3,4.5-3.8c1.6-0.7,2-0.3,4.5-0.9
	c3.5-0.8,6.1-2.3,7.3-3c3.5-2.1,4.5-3.9,5.5-3.5c0.8,0.3,0.7,1.5,1.3,6c0.7,5.4,1,5.8,1.3,5.9c0.9,0.1,3.3-4.8,4-7.3
	c0.1-0.3,0.2-0.9,0.8-1.1c0.7-0.3,1.4,0.5,2.3,0.8c2.3,0.6,5.6-3.5,7.1-6.3c1-1.8,1.9-3.4,1.9-5.6c0-2.3-1-3.3-0.8-5.6
	c0.2-1.8,1-2.6,1.6-4c1.4-3,0.4-5.2-0.1-10.9c-0.8-8.6,0.8-8.1-0.5-11.8c-1.5-4.4-3.9-4.5-7.8-10.3c-2.5-3.7-3.6-6.7-5.4-11.3
	c-1.1-2.8-1.7-4.9-4.6-17.8c-2.8-12.3-4.2-18.4-4.4-19.6c-0.5-4.5-0.4-6.6-2-9.6c-2.3-4.5-5.2-4.9-9.1-8.8
	c-4.6-4.5-6.3-9.4-9.3-17.8c-3.3-9.3-1.8-10.5-4.9-15.6c-3.4-5.7-5.6-4.7-11-11.5c-6.2-7.8-8.3-15.2-8.9-17.6
	c-0.4-1.8-1.5-6.7-1-12.9c0.6-6.4,2.4-8.9,3-9.7c1.3-1.7,2.6-2.4,4.6-3.6c7.1-4.4,8-5.8,11.4-7.8c3.8-2.3,7.2-3.3,24-7
	c11.5-2.5,21-4.5,25.9-5.5c17.3-3.6,16.7-3.4,17.6-3.6c7.9-1.8,16.8-4.5,41.6-16.3c27.2-12.9,27-14.5,46.4-22.8
	c0.8-0.4,13.1-5.5,30-11c17.1-5.5,23.7-6.4,29.1-6.8c2.2-0.1,10.3-0.5,20.8,1.4c10.7,1.9,18.1,5.2,26.3,8.8
	c13.2,5.9,23.2,12.2,29.5,16.3c13,8.4,20.4,14.7,21.4,13.6C724.9,302.2,718.7,295.1,717.7,293.9z M243.4,403.8
	c-0.6,2-0.5,5.1-0.3,11.3c0,1.1,0.1,2.5-0.8,3.8c-1.1,1.6-3.1,2.3-4.7,2.8c-1.1,0.3-1.3,0.2-1.4,0.2c-0.8-0.6,0.9-3.2,1.9-6.5
	c1.2-3.9,0.9-7.2,0.7-9.5c-0.3-3.2-0.5-6.1-2.6-8.6c-1.6-1.9-4-3.3-4.6-2.8c-0.5,0.4,0.5,1.7,1.2,4.4c0.8,3,0.6,5.4,0.4,7.7
	c-0.3,3.7-0.4,5.7-1.9,6.8c-1.5,1-3.5,0.5-4.6,0.2c-3-0.8-5.1-2.9-8.1-6.8c-4.5-6-6.8-8.9-6.8-11.3c-0.1-3.5,3.6-7.8,11.2-16.3
	c4.4-4.9,3.4-3.3,7.2-7.7c5.8-6.6,8.6-10.9,12.3-10.8c0.4,0,2.4,0,3,1.2c0.3,0.5,0.1,1-0.2,2.7c-0.2,1.1-0.3,2.1-0.5,3.2
	c-0.5,2.6-0.9,9,0.2,16c0.5,3,0.7,4.8,1.8,7.3c1.1,2.7,1.8,2.8,1.9,4.3C249.1,398.4,244.9,399,243.4,403.8z M265.7,411.6
	c-0.3-0.6-2.6-4.6-1.7-5.4c0.2-0.2,0.8-0.3,5.9,2.9c2.9,1.8,4.4,2.7,5,3.5c2.5,3.3,2.3,8.6,0.9,9.1c-0.2,0.1-0.7,0.2-4-3
	C268.7,415.7,267.1,414.2,265.7,411.6z M279.9,428.6c-1.1-1.4,0.5-3,0.4-7c-0.1-4.1-1.9-5.8-1-6.6c1-0.9,3.2,1.1,9,3.1
	c4.8,1.7,6.3,1.4,6.8,2.6c0.9,2.5-3.8,7.4-9,8.6C285.3,429.5,281.3,430.5,279.9,428.6z M323.5,448.3c-7.5,8.6-9.6,11.1-11,10.5
	c-0.9-0.4-0.5-1.7-1.5-4.6c-0.3-1-2.3-6.2-6.6-8.8c-3.9-2.3-7.5-1-7.9-2.5c-0.4-1.6,3.8-2.5,5.9-7.3c0.9-2,1.2-4.4,1.6-6.7
	c0.5-3.7,0.1-4.5,0.8-5.1c1.4-1.2,4.6,0.6,13.8,6.1c9.6,5.8,11.3,6.8,11.5,8.9C330.2,440.6,329.3,441.6,323.5,448.3z"/>
</svg>
