<?xml version="1.0" encoding="utf-8"?>
<!-- Generator: Adobe Illustrator 22.1.0, SVG Export Plug-In . SVG Version: 6.00 Build 0)  -->
<svg version="1.1" id="Layer_1" xmlns="http://www.w3.org/2000/svg" xmlns:xlink="http://www.w3.org/1999/xlink" x="0px" y="0px"
	 viewBox="0 0 772 772" style="enable-background:new 0 0 772 772;" xml:space="preserve">
<style type="text/css">
	.st0{enable-background:new    ;}
</style>
<path class="st0" d="M83.5,467c0.1,2,5.9,3.3,7.8,3.7c5.4,1.1,9.5,2,14.2,0.3c5.4-2,5.9-5.4,12.8-7.5c1.9-0.6,2.5-0.5,4-1.3
	c3.7-1.9,4.6-4.6,7.4-8.1c3-3.7,6.2-5.8,8.4-7.3c2.5-1.6,5.7-2.9,12-5.3c3.4-1.3,2.4-0.8,11.7-4.3c5.8-2.1,8.4-3.1,12.5-4
	c4.2-0.9,6.1-0.9,7-0.8c2.3,0.1,4.2,0.6,8.2,1.7c3.2,0.9,3.2,1,5.8,1.7c3.2,0.8,5.6,1.2,8.3,1.7s4.7,0.7,8.7,1.2c5.3,0.6,8,1,10.2,1
	c2.8,0.1,5.2,0.1,8.3-0.3c2.5-0.3,5-0.2,7.5-0.7c0.5-0.1,1.5-0.3,2.7,0.2c0.1,0,1.8,0.8,2.3,2.5c0.3,1,0.1,1.8,0,2.2
	c-1,4.1-2.8,7.2-2.8,7.2c-1.4,2.4-2.1,4.6-3.3,9c-1.6,5.6-2.5,8.4-1.8,11c0.4,1.7,1.3,3.7,0.3,4.8c-0.6,0.7-1.4,0.3-2.3,1.2
	c-1,0.9-0.8,1.9-1.5,3.5c-0.5,1-1.2,1.7-2.7,3.2c-2.7,2.6-4.8,4.6-5.2,5c-1.4,1.3-2.7,2.9-5.5,6.2c-4,4.7-4.2,5.3-5.8,6.5
	c-2.5,1.9-2.9,1.2-6,3.2c-3.7,2.4-3,3.3-7.5,6.8c-2.7,2.1-4.2,2.7-4.7,4.7c-0.3,1.2-0.2,2.9,0.8,3.8c0.2,0.2,0.6,0.5,3.3,1
	c1.7,0.3,2.2,0.3,4,0.5c3,0.4,2.9,0.6,4.3,0.7c1.9,0,2-0.4,4.3-0.5s2.3,0.3,4.3,0.2c2.4-0.2,2.9-0.8,4-0.3c1.4,0.6,1.1,2,2.3,2.3
	c1.2,0.4,1.8-0.8,4.5-1.7c1.4-0.5,2.5-0.6,3.2-0.7c2.4-0.3,3.6,0.1,5.8,0.3c0,0,2.9,0.3,6-0.2c1.1-0.2,6.6-0.9,10.3-4.8
	c1.5-1.6,2.1-3,3.8-8c3.4-9.7,3.7-11.3,4.7-13.7c0.8-2.1,3.8-6.4,9.8-14.8c12.6-17.8,11.6-14.7,12.7-17.2c1-2.1,2.3-5.5,5.3-6.7
	c1.3-0.5,2.6-0.5,4.7-1.7c2-1.1,1.8-1.7,3.2-2.3c1.9-0.8,2.9,0.1,7.2,0.5c4,0.4,4.2-0.4,5.8,0.3c2.2,0.9,2.2,2.3,5,5.2
	c2.9,2.9,3.5,2.1,6.2,4.8c2.7,2.7,4.1,5.7,4.8,7.3c1.8,3.9,1.3,4.8,3.2,7.2c1.3,1.7,2.5,2.3,2.5,3.7c0,1.4-1,1.7-2,4
	c-0.9,2.2-0.3,2.7-1,4.7c-0.9,2.4-2.5,3.8-4,5c-2.6,2.2-3.1,1.4-5.7,3.5c-2.5,2-1.9,2.7-5,5.5c-2.2,2-3.3,2.3-3.3,3.5
	c-0.1,1.6,1.8,3,3.3,3.7c2,0.9,3.6,0.4,6.7,0.2c3.3-0.2,3.9,0.3,7.3,0.3c7,0.2,7.8-1.7,15.8-2.2c4.9-0.3,9.6,0.1,10,0.2
	c5.4,0.5,7.8,1.3,11.2,0c1-0.4,3.5-1.4,4.8-3.8c1.1-2,1-3.8,0.5-7.7c-0.8-6.6-1.2-9.9-1.7-12c-1.2-5-1.7-5.1-4-12.5
	c-1.8-5.7-2.5-8.9-3.7-14.3c-1.9-8.7-2.1-12.1-0.3-13.3c0.5-0.4,1-0.4,1.8-0.5c3-0.4,4.2-1.1,9.7-3.2c8.2-3.1,9.2-2.7,17.2-5.8
	c4.7-1.8,8.7-3.4,13-6c1-0.6,5.8-3.5,5.8-3.5c0.6,0.3,1.5,0.8,2.5,1.5c1.4,1,2.2,1.9,4.5,4.2c0.8,0.8,1.3,1.3,2.3,2.3
	c4.7,4.5,7,6.7,8.8,7.3c1.2,0.4,2.3,0.6,2.6,1.4c0.3,0.8-0.7,1.6-1.4,3c-0.9,1.8-0.8,3.1-0.9,4.8c-0.2,2.3-0.7,2.1-2.4,8.1
	c-1.3,4.4-1,3.8-1.3,4.7c-1.6,3.6-3.5,4-6.1,7.5c-1.1,1.5-3,4.1-3.6,7.6c-0.8,4.8,1.7,6,0.8,10.5c-0.9,4-3.6,6.6-4.3,7.3
	c-2.7,2.6-4.2,2-6.5,4.5c-2.1,2.3-4.1,6.3-2.8,8.3c0.9,1.4,2.8,0.9,8.3,1c9.7,0.1,9.9,1.6,15.3,0.8c5.3-0.8,5.3-2.3,9.5-2.3
	c5.4,0,6.7,2.5,10.3,1.8c4.4-0.9,6.9-5.5,8.5-8.5c3.4-6.3,3.8-13.3,4-17.8c0.3-5.8-0.4-7.6,1.3-10.5c2-3.4,4.2-2.7,7.3-6.5
	c3.9-4.9,3-9.4,5.8-10.3c1.2-0.4,2.6,0.2,5.8,2.8c6.8,5.5,7.8,9.2,13.8,15.5c5.1,5.4,6.4,4.9,8.3,8.5c3.2,6.5,1.5,13,1.3,13.8
	c-0.3,1.1-1.2,4-3.5,6.8c-2.8,3.3-4.6,2.9-7.5,6.3c-0.7,0.8-4.7,5.5-3.3,8.3c1.2,2.2,5.3,2.2,6.8,2.3c2.9,0,3.5-0.9,6.5-0.8
	c2.5,0.1,3.3,0.8,5.5,1.3c2.8,0.6,5,0.1,9.5-1c8.7-2.2,13-3.3,15.5-4.5c3.5-1.7,8.7-4.4,12.5-10c1.5-2.2,3-4.4,3-7.5
	c0-3.7-2.2-5.7-5.5-10.8c-1-1.6-4.5-6.9-6.5-12.5c-2.2-6.2-0.8-7.1-3-17.8c-1.5-6.9-2.2-10.5-4.8-13.8c-3.1-4.1-5-3.1-10.5-7.5
	c-2.6-2.1-2.3-2.4-14.8-18.8c-4.4-5.8-6.7-8.7-7.8-9.8c-2.9-2.7-5.3-4-5-5.8s2.9-1.7,6.8-4.5c4.4-3.2,4.1-5.5,7-6.8
	c3.2-1.3,6,0.4,11,2.3c3.6,1.3,8.7,2.3,19,4.3c7.7,1.5,7.6,0.9,19.5,2.8c7.5,1.2,8.9,1.6,17,3c6.4,1.1,15.7,2.7,25.5,3.8
	c12.2,1.3,20,2.1,30.5,1.3c12.6-1.1,22-4,29.8-6.5c11.7-3.7,20.2-7.8,26.3-10.8c7.1-3.5,15.7-7.7,25.8-14.8
	c7.8-5.5,14.1-11.6,26.8-23.8c9.8-9.5,15.7-15.1,22-22c8.7-9.5,9.7-12.1,14.3-14.3c1.1-0.5,4.2-1.9,4.3-3.8c0-1.3-1.6-2.5-3-3
	c-2.9-1-5.9,0.9-7.3,1.8c-5.4,3.3-11.7,5-17,8.5c-8.2,5.5-17,10.1-25.5,15.3c-17.9,10.9-20.2,12-22.3,13c-4.9,2.3-12.9,6-24,8.5
	c-13.5,3-24.2,2.5-32,2c-16.2-0.9-28.3-4.6-32.8-6c-7.5-2.4-12.6-4.9-22.8-9.8c-8.6-4.2-17.3-8.3-27.5-15
	c-7.1-4.6-13.5-10-26.5-20.8c-10.5-8.7-19-16.2-22.8-19.5c-16.3-14.4-17.2-16.2-26-23c-8.5-6.6-14.1-11-22.8-15.3
	c-11.7-5.8-21.4-7.7-34-10.3c-9.1-1.8-20.1-3.9-35-4c-9.5,0-23.7,0-40.8,5.3c-15,4.6-27.6,11.8-31.8,14.3c-6.3,3.6-11.7,7.4-22,12.3
	c-6.3,3-6.4,2.6-13.8,6c-9.4,4.4-16.5,7.6-23.8,13c-2.3,1.7-0.7,0.7-15,14.3c-18.6,17.6-17.9,16.1-19.8,18.8c-0.8,1.2-3.7,5.5-9,9
	c-3.1,2.1-6.8,3.8-7.8,2.8c-0.7-0.8,0.8-2.2,0.3-4.3c-0.7-2.5-3.8-2.2-6.3-4.8c-2.1-2.2-0.7-3.3-3-10.3c-2-5.9-4.2-8.8-4.8-9.5
	c-1.3-1.7-1.4-1.3-3-3.3c-0.8-1-3.1-4-5-8.5c-1.7-4.1-1.1-4.6-2.5-6.5c-2-2.7-3.6-2.1-5.5-4.5c-1.9-2.5-0.8-3.6-2.5-8.8
	c-1.6-4.6-2.7-4.1-4-8.5c-1.2-4.1-0.4-5-2-7.8c-1.2-2-1.9-2-3.8-5c-0.9-1.5-1.5-2.7-2.5-4.8c-1.8-3.8-1.8-4.5-3-5.8
	c-0.4-0.5-2.8-2.8-4.5-2.3c-2.1,0.7-2.2,5.4-2.3,8.3c-0.2,12.5,0.7,19.6,0.8,26.3c0.1,8.8-1.2,15.7-2.3,20.8
	c-0.5,2.7-2.1,7.9-5.3,18.3c-3,9.9-3.8,12.1-6.3,14c-3.2,2.6-6.9,3.1-12,3.8c-6.1,0.8-7.3-0.3-12.8,0.5c-5.1,0.7-7.2,2.1-12,3.8
	c-8,2.8-11.9,2.4-19.8,3.8c-5.7,1-16,5-36.5,13c-12.8,5-16.8,6.8-19.8,8.3c-8,3.9-7.6,4.4-16,8.3c-5.8,2.7-9.5,4.1-9.3,5
	c0.3,1.2,7.4,0.6,8.8,0.5c9.8-0.9,13.2-3.2,24-6c8.7-2.3,7.9-1.2,22-4.5c2.6-0.6,6.5-1.6,12.2-2.7c3.2-0.6,7.7-1.4,13.3-1.8
	c3.4-0.2,8.8-0.6,9,0.3c0.1,0.7-3.6,2-9,4c0,0-6,2.3-17.3,7c-4.9,2.1-13,5.5-22,11.3c-9.2,5.8-9,7.4-15.3,10
	c-4.9,2-7.8,3.3-13.5,5.8c-4.1,1.8-6.1,2.7-6,3.5c0.2,1.3,5.4,1.6,9,1.5c8.5-0.3,14.2-3.3,20.7-6.1c5.7-2.5,11-4.1,21.6-7.4
	c19.4-6,20-4,28.5-7.3c2-0.7,5.3-1.2,12-2c1.3-0.2,2.9-0.3,3.5,0.5c1.1,1.5-1.5,5.1-2.5,6.5c-2.8,4-6.1,6.2-7,6.8
	c-4.4,2.9-6.6,2.9-14.3,6c-6,2.5-5.1,2.6-8.8,4c-2.2,0.8-6.5,2.2-22,3.5c-9.7,0.8-14,0.8-14.3,2.3c-0.2,1.1,2,2.4,5.3,4.3
	c8.8,5,18,8.2,18,8.3c2.2,0.8,4.2,1.4,5,3.3c0.8,2-0.4,4-1.3,6c0,0-2.7,6.1-2.8,14c0,7.5,4.1,13.2,5.3,14.8c2.7,3.5,3.1,2,9.7,8.8
	c1,1,2.8,2.9,3.5,2.5s-0.1-2.9,0-7.5c0-0.5,0-1,0.3-1.6c0.7-1.4,2.2-1.4,4.3-2.3c2.3-0.9,4.1-2.4,6-3.8c1-0.8,1.9-1.6,3.5-2.1
	c0.6-0.2,2.1-0.6,2.8,0.1c0.4,0.5,0.2,1.4-0.2,2.4c-0.9,2.7-2.2,3.1-1.9,4.4c0,0,0.1,0.3,1.6,2.3c-0.2-0.3,0.6,0.6,0.6,1
	c0,0.5-1.5,0.7-3,1.2c-1.6,0.5-2.7,1.3-4.1,2.4C84.5,465.4,83.5,466.2,83.5,467z"/>
</svg>
