<?xml version="1.0" encoding="utf-8"?>
<!-- Generator: Adobe Illustrator 22.1.0, SVG Export Plug-In . SVG Version: 6.00 Build 0)  -->
<svg version="1.1" id="Слой_1" xmlns="http://www.w3.org/2000/svg" xmlns:xlink="http://www.w3.org/1999/xlink" x="0px" y="0px"
	 viewBox="0 0 1024 1024" style="enable-background:new 0 0 1024 1024;" xml:space="preserve">
<path d="M442.1,357.8c0,0,73.4-62.9,112.4-62.2c0,0,48.7-7.5,29.2,15c0,0-45.7,42-28.5,61.4c0,0,6.7,15.7,86.2,27.7
	c0,0,131.1,25.5,197.1,98.2c0,0,57,57,68.2,81.7l6.7,13.5c0,0,8.2,4.3,24,2.8c0,0,39.7-2.1,79.4,45.1c0,0,15,14.2-4.5,7.5
	c0,0-18-6.7-36,9.7c0,0-15,14.2-37.5-6c0,0,14.2,19.5-12,33c0,0-22.5,9.7-20.2,25.5c0,0,8.2,36.7-17.2,3.7c0,0-38.2-42.7-31.5-87.7
	c0,0-77.2-66.7-228.6-61.4c0,0-73.4,9.7-110.9,24.7c0,0-92.2,33-179.1,26.2c0,0,5.2,14.2,57.7,13.5c0,0,9.7,3-16.5,24.7
	c0,0-36,21.7-84.7,3.7c0,0-28.5-12-55.5-27c0,0-24.7-0.8-44.2,4.5c0,0-37.5,8.2-66.7,7.5c0,0-23.2,3.7-31.5,3.7
	c0,0-54.7,15-68.9,20.2c0,0-29.2,5.2-25.5-17.2c0,0-0.3-10.5,23.2-24c0,0,18-13.5,21.7-26.2c0,0,10.5-66.9,58.5-88.5
	c0,0,27.7-14.9,54-37.4c0,0,65.9-47.2,152.1-74.9c0,0,56.2-18.7,82.4-21.7C395.6,377.3,427.9,375,442.1,357.8z"/>
</svg>
