<?xml version="1.0" encoding="utf-8"?>
<!-- Generator: Adobe Illustrator 22.1.0, SVG Export Plug-In . SVG Version: 6.00 Build 0)  -->
<svg version="1.1" id="Layer_1" xmlns="http://www.w3.org/2000/svg" xmlns:xlink="http://www.w3.org/1999/xlink" x="0px" y="0px"
	 viewBox="0 0 600 600" style="enable-background:new 0 0 600 600;" xml:space="preserve">
<g>
	<path d="M429.5,268.5c-2.4-7.3-2.4-4.2-5.1-4.9c-7.5-1.6-28.2,4.1-28,0.4c0.1-1.6-0.7-3.1-0.7-4.6c-0.2-10.5,5.3-9.9,6.2-11.2
		c0.2-0.1,0.1-0.1,0.3-0.1s0.6,0,0.7-0.1c0.4-0.2,1.9-1.6,0.4-3.3c-7.1-8.1,0.8-16.2,1.1-19.4c2.1-1.1,4.2-6.1,11.1-6.8
		c0.8-0.1,1.5-0.6,1.9-1.4l0,0l0,0l0,0c-0.4-2.3-3.3-4.6-4.4-9.3c-1.3-5,0.3-17.1,10.1-23.9c2.4-1.7,2.2-3-0.4-4.2
		c-9.9-5.1-4.9-32.2,5-23.4c0.4,0.4,1.7,1.5,2.5,1.5c0-0.7-2.2-5.5-5.8-6.4c-3.4-1-7.2-1.6-7.7-6.2c-1.8-18.4,2.2-14.3,3.1-18.6
		c1.7-1,1.6-1.8,0-2.9c-2.7-1.8-6.3-2.3-9.6-13.8c-3-10.2,8-10.2,10.9-6.2c2.5,3.7,1.6-6.3-5.3-6c-8.2,0.4-22.4-7.2-17.1-18.3
		c2.9-6.1-11.1-1.1-17.8-13.9c-1.4-2.7-1.8-5.8-1-9.5c0.2-0.7,0.1-1.4-0.2-1.8c-0.4-0.5-1.2-0.8-2.2-0.8c-3,0.1-5.7-0.5-8.3-2
		c-4.9-2.6-14.7-9.4-13.3-14.8c1.3-4.6-2.6-3.2-2.4-2c0.1,1,0.8-0.2,1.3,0.1c0.3,0.2,0.7,0.1,0.1,0.5c-1.7,1.3-1.7,4-2.4,3.2
		c-1.6-1.8-4.2-0.8-5.9-2.2c-2-1.7-4.1-3.5-6.1-5.2c-4.9-4,3.6-8.9-3.1-8.7c-1.4,0.1-3.4,1.6-2.9-1.8c0.2-1-1.5-1.1-2.4-0.7
		c-1.2,0.4-10.6,4.8-12.2,1.6c-0.5-1.1,4.3-6.4,2.2-6.5c-0.4,0-1.2-0.7-1.4-0.1c-0.5,1.9-1.9,0.4-2.9,0.8c-0.1,0.1-0.3-0.1-0.5-0.2
		c0.4-0.5,2.7-0.8,1.5-1.9c-0.6-0.5-4-0.4-4.5-0.6c-7.5-1.6-1.2-3.9-5.9-5.2c-1.7-0.4-0.7,3.4-4.2,3.1c-4.8-0.4-2,8-10.8,9.4
		c-11.1,1.7-10.6,6.9-14.3,3c-3.5-3.8-1.9-3.3-2.7-3.9c0.2-1.3,0.6-2.9-0.1-4c0.4-3.7,2.4-6.7,4.4-9.7c0.4-0.7,1.8-1.8,1.5-2.6
		c-1.1-2.4-2.5,1.1-2.9,1.5c-3,3.4-5.5,7-5.4,11.8c-1.5,0.6-0.8,10.3-0.8,10.8c0.5,7.1-7.3,8-14.4,15.8c-2.9,1.6-5.4,3.6-7.2,6.1
		s-4.4,3.6-6.5,5.5c-0.6,0.5-1.5,0.2-1.3-0.3c0.7-2-0.7-4.1,0-5.8c1.9-4.3,2.6-9.3,6.3-12.7c0.4-0.3,0.8-0.6,0.4-1.2
		c-1.3-1.6-9.6,10.2-9.8,11.6c-0.4-0.2-1.2,2-1.1,2.1c-1.2,1.7-1,3.3-7.1,11c-0.2,0.1-2.3,1.5-2.4,1.7
		c-12.8,8.8-14.5,11.2-19.3,10.6c-0.8-0.1-1.2,0.5-1.5,1.1c-5.1,9.4,3,14.3-5.8,17.8c-13.6,5.4-8.7,5.5-11.7,3.1
		c-0.2-0.2-0.4-0.1-0.8,0.5c-5.2,9.7-27.1-3-22.5,7.3c1.7,3.8,4,6.4,1.2,22.8c-0.2,1.1-1.3,2.4,0.7,2.9c1.2,0.2,2.3,0.4,3.1-0.3
		c0.7,0.5,2,0.3,2.1,0.1c1.1-0.1,1.2-0.3,3.8,0.5c9.4,3,13.5-1.9,26.3-6.2c1.5-0.5,3,1.9,3.2-0.3c0.2-2.1,32.3-6.5,33.4-6.7
		c3.2-0.4,5.6,0,7.3,2.7c1.4,2.3,3.9,1.9,7.7,11.5c0.3,0.8-0.2,2.2,1.4,2.3c2.3,0.1,4.5-6.7,9.9-9c8.4-3.7,16,0.2,26.4-2.9
		c2-0.6,4.1-1.3,5.6,1c3.9,5.8,6.4,4.6,6.9,2.2c0.8-4.8,0.8-4,6-5.1c28.4-5.6,23.2-5.8,27.3-3.2c3.8,2.4-9.1,18.8-14.6,23.5
		c-1.6,1.4-3.6,2.4-4.8,4.3c-1.5,1.2,0.5-0.4-0.8,0.7c-0.8-0.1-1.2,0.7-1.7,1.3c-0.4,0.2-36.4,26.9-39.4,31.6l0,0
		c-0.3,0.4-0.2,0.2-0.6,0.5c-1.4,0.3-2.6,0.8-4.1,1.6c-10.8,5.7-2,5.6-6.1,12.5c-0.2,0.3-0.5,0.5-0.4,0.8c-0.2,0.3-0.4,0.5-0.6,0.8
		c-1.2,0.1-1.3,3.4-3.2,3.1c-1.7-0.3-2.4,1.4-3.8,1.7c-0.2,0-0.3,0.1-0.3,0.2c-0.4-0.1-2.7,1.4-2,1.7c-1,0.6-2.6,3.6-4.3,6.1
		c-0.6,0.8-1.4,1.6-0.3,2.7c0.3,0.4,0.6,1.6-0.4,1.4c-1.8-0.4-7.7,7.4-8.3,8.2c-7.6,10.9-4,14.4-5.4,19.4c-0.8,3.1-2.9,5.9-3.4,8.8
		c-0.2,0.1-0.2,0.4-0.3,2.1c-0.3,0.6-0.5,1-0.2,1.1c0,0.1-0.1,0.1,0,0.2c-0.1,0.4-0.1,0.8-0.1,1.4c-1.1,20-3,14.9-1.2,20.4
		c5.8,17.4,2.3,16.4,5.1,27c0.7,2.9,5.3,13.9,5.4,14c0.2,0.6,0.3,1.4,0.6,1.9c0.5,2.6,8.1,10.8,9.5,17.6c0.4,1.8,1.2,0.6,2.1,1.1
		c0.6,0.3,6,0.4,6.1,0.3c3.7-1.6-3.5,10.6-0.4,14.3c0.1,0.6,0.1,1.4,1.1,1.3c1.5,2.1,2.1,1,1.5-0.8c0.2-2.6,0.5-5.8,0.5-5.8
		c0.5-2.1-0.1-4.8,2-6.3c1,2.1-0.1,4.6-0.3,14.7c0.4,0,0.8-0.3,0.8-1.4c0-3.6,0.5-7.6,0.5-7.6c0-0.5-0.1-5.1,1-5.4
		c1.3,7.6,0.2,14.6,1.9,13.9c0.6-0.2-1.1-13.1,0.5-12.8c1.4,0.2-0.3,0.7,0.2,1.6c0.1,0.1,0.1,0.2,0.1,0.3c-0.2,3.7,1.9,7.1,1.6,10.9
		c-0.1,1,2.4,1.2,1.7-0.4c-0.7-1.5-3.6-14.8,0.1-11.2c2.3,2.3,5.2,3.8,8.1,4.9c13.7,5.2,7.7,22.9,27,68c0.1,2.2,1.8,5.1,2.2,5
		c0,0,7,15.9,7.1,16c-0.3,0.1-0.1,0.4,0.1,1c0,0,0.6,2.1,0.7,2.1c0.1,0.4,1.2,2.9,1.7,2.9c0.5,1.1,9.6,20.1,12.1,23.5
		c0.1,0.6,0.3,1.2,0.5,1.7c0.2,1,0.5,1.8,1.3,2.3c3.4,7,6,13.2,6,13.2c-0.1,0.6,0.1,1.4,0.5,1.9c0,1.1,9.3,20.2,7.9,40.9
		c-0.3,5.1-3,14.5-3,14.5c-0.6,0.8-1.5,2.6-1.1,3c-11.3,24.7-26.6,30.4-55.5,33.3c-17.1,1.7-32.2-11.2-31.4-18.9
		c0.1-1.1-1.4-1.3-1.6-3c-0.3-2.2,2.1-4.5-0.1-6.8c-0.1-0.1,0.2-0.5,0.4-0.7c3.3-3.2-1.4-3.2,1-5.1c3.6-2.9,0.6-3,6.9-7.6
		c6.1-4.6,12.9-1.4,16.7-0.4c1.3,0.3-0.6,3.8,2.5,4.6c1.2,0.3-2.5,2.4,0.7,4.2c1.2,0.6-2.3,2.5-1.3,4c2,2.4-1.7,1-1.6,2.6
		c0.1,1.8-0.6,2.3-2.2,1.5c-1.5-0.7-2.9,2.9-4.1,0c-0.2-0.4-0.8-0.8-1.3-0.8c-3.1,0.5-0.2-2.9-2-3.1c1.5-0.6,0.8-1.9,3.7-4.6
		c2.4-2.4-2.6-7.8-9.9,1.2c-12.1,14.9,19.1,28.1,29.1,8.3c8-15.7-2.3-29.9-9.2-31.5c-2.9-0.6-4.5-3.4-7.9-3.8
		c-5.5-0.7-10.9-1.7-16.4,0c-1.2,0.3-2.2-1.1-3.4,0c-5,4.3-5.7,4.1-6.1,5.2c-0.1,0-0.3,0-0.4,0.1c-0.2-0.4-3.1-0.8-3.6,0.8
		c-1.9,6.2-8,5.8-7.6,8.1s-1.9,5.6-3.3,7.3c-0.5,0.3-1,0.7-1.2,1.3c-0.3,0.2-0.6,0.6-0.1,0.6c-0.1,4.5-1.4,7.9-3,12.4
		c-1.1,3,2.1,0.7,2,6.1c0,1.5,0.4,3.3,1,3.5c-0.1,0.4-0.3,0.7-0.4,1.2c-0.8,0.5-1.3,1.2-0.5,1.8c3.4,2.7,3.6,7.5,4.6,9.7
		c0,0.1,0,0.4,0,0.5c-0.1,0.3-0.6,1.4-0.3,1.5c0,0.2,0,0.3,0.1,0.3c0.1,0.4,0.6,0.6,1,0.7c3.5,1,3.6,4.8,5.9,6.7
		c0.2,0.1-0.2,0.8,0.2,1.1c0.2,1.2,2,2.5,2.3,2.1c2.7-0.3,3.9,3.1,6.2,3.2c0.6,0.3,0.7,0.6,1.6,1.1c0.4,0.5,1.7,1.3,1.9,1.4
		c0.8,1.6,3.5,2.3,3.4,1.7l0,0c1,0.2,2,0.5,3,0.7c2.9,1.7,0.2,0,4.3,1.8c0.7,0.6,3.6,0.3,4.3,3.2c0.3,1.3,1.8-0.2,3.2-0.5
		c1.9-0.4,3.7,0.3,5.5,0.6c2.2,0.3,5.3-0.6,6.7,2.5c0.6,1.4,4.4-1.7,6.4-1.4c0.4,0.1,0.8,0.2,1.2,0c1.1,0.3,2.2,0.3,3.1-0.5
		c1.5,0.3,0.5-1.5,0.2-2.6c2,2.1,0.7,3,5.5,2.3h0.1c0.4,0,1.1-0.1,1.4,0.1c0.6,0.4,0.3,1.5,1.3,1.8c1.2,0.4,3.4-1.7,6.8-2.7
		c15.1-5.1,8.3-3.4,12.2-2c3.3,1.2,4.2-4.9,6.2-5.1c6.5-0.7,12.4-6.3,14.1-5.4c1,0.5,0.5,2.2,1.8,2.9c1.4,0.7,5.1-1.6,4.2-4.2
		c-1.7-5.4,3.5-7.5,7.2-12c1.2-1.4,1.9-1.2,2.4,0.2c0.8,2,2,1.9,3.7,0.6c2.1-1.6-1.3-8.4,1-12.1c1-0.8,1.9-1.8,2.2-3.1
		c0-0.1,0.1-0.2,0.1-0.2c3.2-3.2,2.4-8.1,4.6-5.9c0.3,0.2,0.6,0.4,1,0.6c0.7,0.3,1.6,0.2,2.3-0.2c1.1-0.7,0.4-1.8,0.4-2.9
		c-0.1-2.2-1.1-4.1-0.7-6.4c0.5-4,1.7-7.9,2.1-12c0.2-1.9,0.3-4.9,3.8-5c1.3,0,1.9-1.3,1-2.6c-3.2-4.5-3.6-9.6-3.1-14.9
		c0.2-2.3,1-3.8,3.5-3.6c1.6,0.1,1.5-1.1,1.3-1.9c-0.7-2.4-5.4-4-7-10.5c-0.2-1.3,0.1-2.5-0.4-3.8c-0.4-1,0.2-1.6,1.2-2.1
		c6.7-3.5-2.5-2.9-4.3-10.3c-1.5-5.9-2-6.2,0.1-7.3c5.5-2.7,0.4-3.3-1-3.9c-4.2-2.1-10.2-12.6-4.6-15.3c1.3-0.6,0.5-3-0.8-3.4
		c-5.1-1.7-6.7-3.8-6.7-9.1c0-1.9,0-3.4,2-4.4c1.8-1,1.6-2.5-0.4-3c-7.7-1.6-6.1-11.5-9.5-11.1c-0.1,0-0.1-0.2-0.2-0.3
		c1.3,0,0.3-1.9,1.4-1.9c1.9,0.1,3-1.2,3.7-3c1-2.3-5.3-1.1-6.3-5c-1.5-5.7-5.1-9-0.7-12.9c1.1-1,0.8-2.2-0.8-2.5
		c-4.6-0.8-6.5-11.3,0-14.3c1.8-0.8,1.4-2-0.7-3.1c-3.3-1.7-4-3-3.6-6.4c1-6.5,0.4-8,6.1-8.2c1.1,0,2-1.7,0.8-2.7
		c-0.6-0.5-1.2-1.1-0.2-1.8c1.5-1.1,2.5,1.2,3.3,2.7l5.6,16.9c0.6,2.3,2.2,7.2,2.2,7.2c-0.1,0.1-0.1,0.1,0.1,0.2
		c0.1,0.5,0.2,1.2,0.3,1.7c0.3,4,17.8-1.6,20.4-2.7c17.2-7.7,40.4-37.9,44.1-75.5C432.8,294.6,432.8,278.5,429.5,268.5L429.5,268.5z
		 M263.3,346.4c0.1-0.7-0.3-1.2-0.8-1.5c-0.6-4,1.5-10.9,1.8-10.9c0.4,0.1,1,1,0.6,1.5c-1,1.5,0,3-0.3,4.4c0,0.2-0.1,0.4-0.1,0.6
		c-0.2,1.4-0.4,2.7-0.4,4.2C263.2,344.9,264,346.4,263.3,346.4z"/>
	<path d="M352.4,35.4C352.4,35.4,352.4,35.5,352.4,35.4c0,0.1,0.1,0.1,0.2,0.1C352.5,35.3,352.5,35.4,352.4,35.4z"/>
	<path d="M352.1,36.3L352.1,36.3h-0.2C352,36.3,352,36.4,352.1,36.3L352.1,36.3L352.1,36.3z"/>
</g>
</svg>
