<?xml version="1.0" encoding="utf-8"?>
<!-- Generator: Adobe Illustrator 22.1.0, SVG Export Plug-In . SVG Version: 6.00 Build 0)  -->
<svg version="1.1" id="Слой_1" xmlns="http://www.w3.org/2000/svg" xmlns:xlink="http://www.w3.org/1999/xlink" x="0px" y="0px"
	 viewBox="0 0 1024 1024" style="enable-background:new 0 0 1024 1024;" xml:space="preserve">
<path d="M834.4,152.6c0,0-20.4-4.5-38.5-9.4c0,0-11.1,3.6-14.5-11.8c0,0-1.9-8.2,4.1-15c0,0-1.6-19.4-14.4-20.2c0,0-7.7-5.1-17.1-18
	c0,0-31.4-36.1-82.7-47.2c0,0-22.8-3-27.6-11.8c0,0-17.1-32.5-61.6-6.8c0,0-26.4,32.9-57.3,56.4c0,0-10.9,25.3,41.9-8.6
	c0,0-2.6,10.3,0,18c0,0-77,62.4-86.4,128.3c0,0-12,8.6-15.4,20.5c0,0-15.4,8.6-28.2,35.9c0,0-10.3,27.4-21.4,36.8
	c0,0-16.2,12.8-13.7,36.8c0,0-25.3,30.7-36,39.1c0,0-52.1,45.9-70.4,100.3c0,0-40.6,83.4-52.1,131.7c0,0-17.3,37.1-22.6,45.5
	c0,0-14.1,20.3-13.3,31.8c0,0-16.8,32.2-10.7,51.3c0,0-13,33.7-6.9,48.2c0,0-12.2,29.7-8.4,45.9c0,0-8.4,0.8-8.4,19.2
	c0,0-1.5,9.2,10.7,19.1c0,0,32.2,29.9,35.2,43.6c0,0,0.8,16.8,12.2,26c0,0,2.3,14.5,6.9,0c0,0,13.8,10.7,23.7,8.4
	c0,0,5.4,13.8,9.2-0.8l8.4-2.3c0,0,3.1,17.6,6.9-4.6c0,0,6.9-28.3-10-48.2c0,0-24.5-24.5-35.2-25.3l-6.9-8.4c0,0-1.5-4.6,17.6,0
	c0,0,55.1,3.2,81.1-21.3c0,0-7.9,8,6.7,12.6c0,0,43,0.6,82.1,1.2c-3.6,24.2-0.1,42.9-0.1,42.9c-3.2,8.1,1.6,23.8,1.6,23.8
	c-4.9,16.2,0.5,36.7,0.5,36.7l-1.1,23.2c0,39.4,21.1,31.9,21.1,31.9c7,14.6,8.1,1.1,8.1,1.1c3.2,7.6,19.4,6.5,19.4,6.5
	c9.2,15.1,9.2-3.8,9.2-3.8c7,14.6,9.2,0,9.2,0c6.5-3.2,11.9-13.5,11.9-13.5l4.9,2.2c1.6-3.8-1.6-14.6-1.6-14.6
	c0.5-8.6-11.7-22.1-11.7-22.1c-0.9-5.1-18.8-29.1-18.8-29.1c-6.8-12.8-10.3-46.2-10.3-46.2c2.6-12.8,0.9-35.1,0.9-35.1l-0.1-3.2
	c7.1,0.1,12.6,0.3,15.9,0.4c0,0,20.7,11.9,33.5,10.3c0,0,13.3,7,11.2-1.1c-2.2-8.1,0.5-2.2,0.5-2.2s11.3,8.1,18.4,2.7
	c0,0,13,8.6,10.3-2.7c0,0,8.6,9.7,8.1,1.1c0,0,1.8-1.2,3.5-3.1c-2.7,8.3,1.9,23.1,1.9,23.1c-4.9,16.2,0.5,36.7,0.5,36.7l-1.1,23.2
	c0,39.4,21.1,31.9,21.1,31.9c7,14.6,8.1,1.1,8.1,1.1c3.2,7.6,19.4,6.5,19.4,6.5c9.2,15.1,9.2-3.8,9.2-3.8c7,14.6,9.2,0,9.2,0
	c6.5-3.2,11.9-13.5,11.9-13.5l4.9,2.2c1.6-3.8-1.6-14.6-1.6-14.6c0.5-8.6-11.7-22.1-11.7-22.1c-0.9-5.1-18.8-29.1-18.8-29.1
	c-6.8-12.8-10.3-46.2-10.3-46.2c2.6-12.8,0.9-35.1,0.9-35.1l-0.9-26.5c5.1-54.7,25.7-188.1,25.7-188.1c-1.7-15.4,0.9-28.2,0.9-28.2
	c17.1-8.6,40.2-83.8,40.2-83.8c15.4-36.8-4.3-82.1-4.3-82.1c5.1-23.1-24.8-97.5-24.8-97.5c6-15.4,0.9-32.5,0.9-32.5
	s10.3-14.5,17.1-12c0,0,29.1,6,43.6-6.8c0,0,9.4-1.7,20.5,0c0,0,14.5,1,19.7-0.8c0,0,39.3,2.5,51.3-4.4c0,0,41.9-0.9,49.6-28.2
	c0,0,12.5-22.2,2.2-35.9l4-20.5C855.3,168.8,857.5,151.7,834.4,152.6z M565,841.6c-4.8-8.4-13.6-20.8-25.1-23.2
	c0,0-29.9-11.9-39.5-11.3l-33-10.1l0,0c0.8-6.1,1.6-12.6,2.4-19.3c10.8-1.3,31.9-4.1,37.1-6.8c0,0,44.9-11.3,37.3-51.3L529,686
	c0,0,25.4-10.8,31.3-19.4c1.8-2.7,4.3,55.6,4.3,55.6c1.1,11.3,4.3,76.7,4.3,76.7C564.8,815.7,564.5,831.1,565,841.6z"/>
</svg>
