<?xml version="1.0" encoding="utf-8"?>
<!-- Generator: Adobe Illustrator 22.1.0, SVG Export Plug-In . SVG Version: 6.00 Build 0)  -->
<svg version="1.1" id="Layer_1" xmlns="http://www.w3.org/2000/svg" xmlns:xlink="http://www.w3.org/1999/xlink" x="0px" y="0px"
	 viewBox="0 0 925 925" style="enable-background:new 0 0 925 925;" xml:space="preserve">
<style type="text/css">
	.st0{opacity:0.84;fill:#FFFFFF;enable-background:new    ;}
	.st1{enable-background:new    ;}
	.st2{fill:#FFFFFF;}
</style>
<path class="st0" d="M711.7,235.3c0.1-0.1-1.5-3.1-3.4-4.8c0.6,1.2,1.1,2.1,1.4,2.4C710.5,234.1,711.6,235.4,711.7,235.3z"/>
<path class="st1" d="M919.6,578.9c-1.2-2.3-6.1-11.5-14.5-12.5c-1.8-0.2-3.6,0-7.8,1.3c-9.3,2.8-14.1,6-20.8,9.2
	c-4,1.9-11.2,5.2-20.8,7c-3.2,0.6-10.5,1.7-19.8,1c-5-0.4-9.2-1.4-17.6-3.3c-6.2-1.5-5.5-1.5-19.8-5.2c-15.6-4-18.2-4.4-20.7-4.1
	c-0.7,0.1-3,0.5-5.7-0.4c-2.1-0.7-3.4-1.8-4-2.3c-5.3-4.5-6.1-3.6-15.7-11.8c-4-3.5-6-5.4-6.3-8.3c-0.2-1.6,0.1-2.8,0.3-3.6
	c2-7.1,7.1-13.6,7.6-14.3c7.4-9.5,10.1-20.6,10.8-27.3c0-0.4,0-4.1-0.2-11.5c-0.4-21-0.6-22.4-0.9-24.3c-0.2-1.3-2.2-7.3-6.3-19.3
	c-2.5-7.6-3.1-9-4.4-11c-1.2-1.9-6.2-8.7-14.8-11c-1.9-0.5-1.5-0.1-18,0.8c0,0-5.2,0.3-15.3,0.4c-5.6,0.1-6.5,0-7.7-0.3
	c-7.7-2.1-11.5-9.1-11.9-9.8c-1.6-3-0.5-2.9-2.1-6.7c-2.4-5.8-8.1-13.4-15.3-14.3c-1.6-0.2-2.9,0-3-0.4c-0.3-1.3,15.7-2.7,18.3-10.3
	c0.9-2.7-0.8-6-4.2-12.5c-5.3-10.1-11.2-17.3-15.1-22c-3.1-3.7-2.4-2.6-9.8-11.2c-3.1-3.6-5.1-6-5.4-5.8c-0.3,0.2,1.4,3.2,2.7,5.3
	c2.8,4.3,5.5,7.2,6.1,7.8c3.2,3.3,2.1,3,12.2,16.8c4.7,6.5,7.4,9.9,9.3,15.8c1.2,3.6,1.2,5.6,0.3,7.3c-0.8,1.5-2.4,2.6-10,4.8
	c-5.3,1.6-8,2.4-10.2,2.7c-5.2,0.7-5.9-0.2-17.7-0.6c-7.5-0.3-8.2,0.1-10.7-0.8c-4.5-1.6-3.6-3.3-9.7-5.9c-2-0.9-4.8-1.9-7-4.7
	c-0.6-0.8-1-1.4-1.2-1.8c-4.6-8.2-6.9-12.2-7.3-13.3c-2.3-5.3-5.1-11.6-5.2-20c0-3.6,0-8.6,2.8-13.9c0.5-0.9,1-1.8,7.6-9.3
	c6.9-7.9,7.4-8.2,8.3-10.2c2-4.5,0.2-5.4,2.4-11.9c1.1-3.1,2.2-6.4,5.3-9.3c2.7-2.6,5.5-3.6,7.6-4.3c3.2-1.1,5.1-1.1,12.1-1.7
	c6-0.5,9-0.7,11.2-1.1c2.3-0.4,4.8-1.1,14.7-4.7c12.9-4.7,11.9-6.1,17.8-7c6.3-1,12.1-0.2,14.8-4.2c0.8-1.2,1.2-2.5,2.3-2.7
	c0.8-0.1,1.6,0.3,2.4,1c-0.3-0.7-0.7-1.6-0.9-2.5c-1-3.3-0.4-5-1-5.2c-1.1-0.3-2.2,5.7-6.7,9.2c-3,2.3-5,1.5-11.3,2.7
	c-3.9,0.7-9,2.8-19.2,6.8c-8.4,3.3-10,4.4-13.2,4.7c-0.5,0-3.9,0.3-10.3,0.8c-0.2,0-0.3,0-0.3,0c-8.7,0.7-16.9,1.4-22.4,6.1
	c-2.9,2.6-4.1,5.5-5.8,9.8c-2.6,6.6-1.4,8.9-3,14c-2.9,9.1-8.9,7.9-13.8,17.3c-4.6,8.8-3.6,17.8-3.2,21.7c0.3,3.2,1.2,10.7,6,18.3
	c3.1,4.9,6.4,7.8,5.5,9.2c-1.2,1.8-7.3-3-14-0.3c-3.4,1.3-3.7,3.3-7.5,4c-2.9,0.5-4.2-0.4-7.5,0c-3.1,0.4-5.5,1.6-7.1,2.5
	c-0.6-2.1-2.2-6.9-6.8-10.4c-1.6-1.3-5-3.9-9-3.3c-0.6,0.1-1.2,0.3-5.6,2.7c-4,2.2-6,3.3-7.7,4.5c-1.9,1.3-3.6,2.8-7.1,5.8
	c-3.2,2.8-4.9,4.1-5.6,4.9c-1.4,1.7-2.3,3.1-2.9,2.9c-0.8-0.2-0.7-2.4-0.7-3.4c0.1-4.3-0.4-8.7-0.3-13c0-5.2-0.6-14.5-3.1-15.1
	c-0.9-0.2-2,0.9-2.6,1.5c-2,2-1.5,4-2.9,4.6c-1,0.4-1.8-0.4-4-1.3c-2.8-1.1-3.5-0.7-6.9-1.6c-1.6-0.4-3.6-1.3-7.4-2.9
	c-9.6-4.1-9.6-4.1-9.9-4.2c-4.4-1.1-5.5,0-12.3-0.3c-0.9,0-5.5,0.1-11-1.4c-2.2-0.6-4-1.3-5.2-1.8c-0.3,1.4-0.9,2.4-1.6,2.5
	c-0.3,0-0.7-0.1-0.7-0.1c-0.1,0-0.2-0.1-0.3-0.1c0,0,1,0.4,1.3,0.5c6,2.4,12.5,3.3,12.5,3.3c5.3,0.7,10,0.6,13.6,0.3
	c5.6,1.4,10,2.9,13,3.9c8,2.8,12,4.2,12.4,4.4c3.4,1.7,6,3.3,8.3,2.3c2.5-1.1,2.8-4.6,3.6-4.5c1,0.2,0.7,5.5,0.6,11.5
	c-0.2,12.2,0.7,16.1-1.6,17.3c-1.8,1-5-0.2-8.4-1.4c-0.9-0.3-1.6-0.6-2.9-1.2c-3.5-1.6-5.6-2.8-8.2-4.2c-4.2-2.2-6.3-3.4-9.5-4.7
	c-2-0.8-3.7-1.5-6.7-2.9c-2.6-1.2-2.3-1.2-3.4-1.6c-3.8-1.5-5.3-0.8-7.4-2.3c-1.3-0.9-0.8-1.1-2.6-3.1c-2.5-2.6-5.3-3.8-6.8-4.4
	c-1.8-0.7-3.2-1-4.2-1.3c-1.3-0.3-5.2-1-10.7-0.7c-3.9,0.3-5,0.8-6.1-0.1c-1.4-1.2-1-3.3-0.9-6.4c0.2-8.9-2.1-13.2-0.6-13.9
	c0.2-0.1,0.3,0.1,1.2,0.8c1.2,1,5.3,3.9,6.5,4.6c3.1,1.9,5.5,2.7,6.4,3.3c0,0,0.1,0.1,0.2,0.1c0.2,0.1,0.4,0.2,0.6,0.3
	c0-0.2,0-0.5,0.2-0.8c0.2-0.4,0.4-0.6,0.6-0.8c0.2-0.1,0.4-0.4,0.8-0.5c0.4-0.2,0.8-0.2,1-0.2c-3-1.6-6.2-3.3-9.4-5.2
	c-2.1-1.2-4.1-2.5-6-3.7c0,0-1.3-1.1-2.8-2.8c-1.5-1.7-3.2-3.9-4.1-6.2c-0.1-0.2-0.2-0.4-0.2-0.6c-0.3-1.1-0.4-2-0.5-2.3
	c-0.2-1.9-0.2-4.3-0.3-5.5c-0.2-2.2-1.1-2.5-2.8-6.3c-1.2-2.5-0.8-2.5-2.5-7c-1.2-3.3-2.1-5.6-3.5-8.3c-1.6-3.1-3.8-6.6-4.4-7.5
	c-2.1-3.3-2.4-3.4-2.4-4.1c-0.1-3.2,4.8-5.7,13.1-9.8c5.5-2.7,8.3-4,12.2-4.8c2-0.4,3-0.4,11.8-0.3c0.1,0,4.3,0,20.8-0.1
	c4.1,0,5.4-0.1,7.2-0.7c2.8-1,4-2.3,9.9-7.6c0,0,3.7-3.3,8.5-7.4c5.2-4.4,6.5-5.2,8.4-5.8c3-0.9,5.5-0.6,8.4-0.2
	c4.4,0.6,5.7,1.6,10.3,2.9c1.6,0.5,7.2,2,14.1,2.3c4.8,0.1,8.4,0.3,12.8-1.3c2.4-0.9,6.2-2.7,9.6-6.2c1.7-1.7,2.6-3.1,5.3-8.3
	c4.7-8.8,5.5-10.9,8.3-16c3.2-5.6,4.7-8.5,7.3-11.4c3.2-3.6,6.8-7.7,12.4-9.2c1.7-0.5,5.8,0,13.9,0.9c8.1,0.9,9.2,1.3,13.3,1.4
	c3.4,0.1,5.8,0,10.8-0.3c6-0.3,9-0.5,12.6-1.1c5.5-0.9,9.7-1.6,14.5-4.3c4.2-2.4,6.8-5.1,9.6-8c3.6-3.9,5.8-7.2,7.4-9.7
	c3.5-5.5,5.5-10.1,8-15.9c2.9-6.7,2.1-5.9,4.1-10.3c1.8-4,4.5-8.3,9.8-16.7c4.7-7.5,5.7-8.8,7.2-10.2c4-3.9,8-5.8,9.8-6.6
	c2.8-1.2,6.8-3,12-2.6c2.9,0.2,5.1,1,9.3,2.7c3.1,1.1,5.8,2.4,9.3,4.4c3.5,1.9,8.2,4.5,14.3,8.9c10.2,7.3,15.3,11,20.4,17.8
	c3.2,4.3,9.9,13.2,10.8,23.4c0.2,1.6,0.2,4.3,1.2,8.1c1.5,6,3.1,6.2,4.5,11.3c0.6,2,0.2,1.4,1.2,14.8c0.3,4,0.4,5,0,6.6
	c-0.5,1.8-1.5,3.8-6.7,8.7c-4.6,4.4-7.6,7.2-12.6,10c-4,2.2-4.2,1.6-9.1,3.9c-7.7,3.7-15.3,7.3-18.2,14.4c-1.5,4-1.2,7.8-0.9,12.1
	c0.5,5.8,1.9,6.7,1.9,12.1c0,4.7-1,4.2-1.4,11c-0.1,1.2,0,4.4,0,10.8c0.1,4.1,0.1,6.1,0.1,6.9c0.1,4.1,0.3,5.6,0.9,13
	c0.8,10.5,0.8,12.1,2.3,14.8c1.9,3.4,4.7,5.6,5.2,5.3c0.5-0.4-3.4-4.6-4.3-11.6c-0.4-3.3,0.3-3.3-0.1-8.3c-0.4-4.6-1-5.1-1.4-9.4
	c-0.3-4.5,0.3-4.1,0.1-9.9c-0.2-5.9-0.9-6.9-0.5-11c0.3-3.3,0.8-2.7,1.2-6.4c0.3-2.9,0.2-6.1-0.1-12.3c-0.1-2.2-0.1-2.8-0.3-6.6
	c-0.3-6.9-0.3-8.1,0.2-9.6c1-3.2,3.1-5.1,4.4-6.4c2.4-2.3,4.3-3,12-6.3c4.8-2.1,7.2-3.1,8.1-3.6c1.8-0.9,6.9-3.6,12.6-8.6
	c5.4-4.6,8.1-7,9.5-10.9c0.5-1.2,1.2-3.5,0.1-12.8c-0.5-4.4-1.5-10.9-4.2-21.8c-1.4-5.9-2.3-9.3-3.9-14.1c-2.8-8.4-4.3-12.9-7.9-18
	c-3.5-5.1-7.2-8.1-11.7-11.8c-4-3.4-7.6-5.6-14.8-10.1c-7.7-4.8-11.5-7.2-16.1-9.3c-6.9-3.1-12-5.4-18.9-5
	c-5.6,0.3-9.6,2.1-10.6,2.6c-5.5,2.6-8.3,6.3-13.6,13.3c-6.3,8.4-10.1,15.6-10.9,17.3c-3.3,6.6-3.2,8-7.6,16.7
	c-0.7,1.4-2.9,5.7-6.1,11.1c-4.7,7.9-7,11.8-10.1,14.6c-1.5,1.3-6.1,5.3-13.1,7.3c-4.4,1.2-3.8,0-15.1,1.4c-5.4,0.7-7.2,1.2-11.1,1
	c-1.8-0.1-2.3-0.2-7.7-0.7c-2.8-0.2-4.5-0.4-6.7-0.5c-3.6-0.2-3.8-0.1-10.3-0.3c-5.9-0.2-6.2-0.3-7.4-0.1c-4.1,0.7-6.8,2.9-8.3,4
	c-4,3.1-5.6,6.4-9.1,12.6c-5,8.8-3.4,5.3-8.3,14.1c-7,12.6-7.6,15.1-11.6,17.7c-4.2,2.7-8.9,3.3-10.8,3.5c-4.3,0.5-7.9,0-11.4-0.5
	c-3.3-0.5-6-1.2-7.5-1.6c-4.2-1.1-4.9-1.6-7.4-2.3c-2.3-0.7-8.4-2.3-14.6-0.3c-3.4,1.1-5.5,2.8-9.6,6.1c-3.8,3.1-3.6,3.7-7.7,7.3
	c-5,4.3-7.9,6.9-12.2,8.1c-1.3,0.4-4.5,0.4-10.8,0.3c-9.5-0.1-14.3-0.2-15.5-0.3c-3.1-0.4-5.8-0.9-9.6-0.1c-1.8,0.4-3.1,0.9-5,1.6
	c-1.5,0.6-5,1.9-9.9,4.8c-6.3,3.6-9.4,5.4-10.1,5.9c-1.5,1-3,2.1-4.4,1.6c-1.5-0.6-2.2-2.7-2.4-4.1c-0.3-2.7,1.2-4.7,2.8-7.3
	c2-3.1,3.5-6.5,5.4-9.6c4-6.5,3.3-7.1,8.4-16.7c3.8-7.1,5.6-10.7,8.8-14.8c0.8-1,5.1-5.4,13.8-14.1c3.9-3.9,6.5-6.6,10.8-9.2
	c4.3-2.7,7-3.4,9-3.7c1.7-0.3,4.8-0.8,8.3,0.4c3.1,1.1,3.4,2.4,6.4,3.3c0.9,0.3,4.7,1.4,7.7,0.2c3.6-1.4,4.9-6,7.2-15.2
	c0.4-1.5,2.4-9.5,2.6-19.4c0.1-3.2-0.1-5.4-0.5-7.6c-0.6-3.6-1.4-4.2-2.6-8.5c-1-3.5-2.1-7.3-1.9-12.1c0.1-2.4,0.3-5.3,1.9-8.4
	c1.4-2.7,3.2-4.3,5.1-6c4.1-3.5,5.4-3.1,10.3-6.6c4.3-3,7-5,8.3-8.6c0.9-2.4,1.7-4.7,1.4-7.5c-0.1-1-0.4-2.4,0.2-3.9
	s1.6-2.3,2.1-2.7c2.3-1.9,4-4,7.6-8.2c1.7-2.1,3.3-3.9,4.6-6.7c2.2-4.5,1.3-6.4,3.6-8.9c2.1-2.3,4.7-3,6.1-3.3
	c3.3-0.8,4.5,0.2,10.5,0.6c3.4,0.2,6.9,0.5,11.1-0.5c3.2-0.7,5.7-1.3,7.8-3.6c0.3-0.3,2.8-3.1,2.8-7.1c0-3.5-2-4-1.9-7.1
	c0.1-3.9,3.2-7.1,4.3-8.2c2.3-2.4,4.1-2.7,5.3-5.4c0.8-1.7,0.4-2.1,1-3.5c1-2.1,2.5-2.7,7.3-5.5c6.2-3.6,9.2-5.5,10-6.2
	c1-0.9,1.9-2,3.1-1.9c0.7,0,2,0.4,3.9,3.9c1.9,3.5,1.8,5,2.8,7.3c2.6,6,9.6,9.3,14.8,9.2c0.1,0,2.7-0.1,2.8-0.7
	c0.1-0.7-3-1.4-7.3-3.5c-3.9-1.9-6.6-3.2-8.5-6c-1.7-2.5-0.8-3.1-3-6.7c-1.3-2-3.2-5.2-5.7-5.2c-1.4,0-2.2,0.9-3.7,2.2
	c-3.3,2.8-6.4,4.5-9.8,6.3c-5,2.7-7.2,2.7-8.3,5.2c-0.6,1.5-0.2,2.1-1,4c-1,2.4-2.6,3.3-4.3,4.8c-1,1-5.5,5-6,9.7
	c-0.5,4.5,2.9,5.9,1.7,9.8c-1,3.2-4.1,4.9-4.8,5.2c-1.4,0.6-2.6,0.8-6.7,0.8c-4.7,0-8.1-0.2-11.5-0.3c-5-0.2-7.5-0.3-8.5,0
	c-5.8,1.7-8.8,7.3-9.3,8.3c-2,3.6-0.7,4.3-2.7,8c-1.5,2.9-2.5,3-7.8,8.8c-3.5,3.8-5.3,5.8-5.7,7.5c-1.1,4.1,1.4,5.7,0,9.7
	c-0.8,2.2-2.2,3.5-4.7,5.8c-2.6,2.4-4,2.9-8.2,5.7c-4.7,3.2-7.1,4.7-8.7,6.7c-3.6,4.5-4.3,9.4-4.5,10.7c-0.6,4.4,0.5,7.4,1.5,11.5
	c0,0,2.3,9.2,3,19.5c0.1,1.7,0.8,14.3-4.8,25.8c-1.5,3.1-3.4,6-6,6.2c-1.7,0.1-2.8-1-4.7-2.2c0,0-4.7-2.8-12.2-2.8
	c-5.1,0-8.8,2.5-14.3,6.2c-7.8,5.2-12.6,10.7-16.7,15.3c-7.1,8-11.6,15.3-14,19.5c-3.5,6.1-2.4,5.5-5.8,11.2
	c-6.3,10.5-9.4,11.6-11,18.3c-0.9,3.8-0.7,6.6-2.5,7.3c-1.9,0.8-3.7-1.7-7.7-3.8c-4.7-2.5-9.2-2.5-14.2-2.5
	c-6.3,0-11.4,1.3-14.8,2.5c-1.4-0.6-3.7-1.8-5.8-3.9c-0.9-0.9-2.3-2.3-3.3-4.5c-1.2-2.7-1.1-5.1-1.1-7.3c0-0.9,0.2-4.1,1.6-8
	c0.8-2.2,1.8-3.9,3.8-7.3c2.3-3.7,3.4-5.6,4.9-7.5c1.5-1.8,2.3-2.5,9.3-8.3c5.4-4.5,8.1-6.7,9.8-8.2c4.5-3.9,4.4-4.1,7.9-7.2
	c5.7-4.9,6-4.3,9.9-7.8c3.3-3,7.1-6.4,10.3-11.9c1.9-3.3,2.8-6.1,3.6-8.3c2.2-6.4,2.6-11.6,2.9-15.8c0.3-4,0.5-6,0-8.7
	c-0.7-4-2.3-6.8-4-9.7c-5.5-9.3-7.2-11.1-9.9-15.9c-4.4-7.7-6.5-14.2-7.2-16.4c-0.8-2.5-2.6-8.9-3.1-17.3c-0.3-5.5-0.5-8.8,0.7-13.2
	c1.8-6.6,5.5-10.8,6.3-11.6c3-3.3,4.5-3.2,16-10c5.3-3.1,5.4-3.4,11.3-6.8c8.6-5,11-5.9,12.6-6.5c3.3-1.2,7-2.5,12.1-2.5
	c5.3,0,9.3,1.5,14.5,3.4c3.4,1.2,3.1,1.4,9.2,3.9c6.4,2.6,6.4,2.3,10.3,4c1.2,0.5,0.8,0.4,12,6.2c14.4,7.4,10.7,5.4,9.3,4.7
	c2.7,1.4,4,2.2,4.2,2c0.3-0.4-2.3-3.1-5.1-5.3c-2.8-2.1-5.2-3.1-7.5-4.1c-6.9-3-3.7-2.1-14.2-6.8c-5.9-2.7-8.9-4-12.3-5.3
	c-9.4-3.6-14.1-5.3-20.4-5.3c-1.2,0-6.7,0.1-13.2,2.4c-2.7,1-3.9,1.8-12.3,6.6c-8.4,4.8-6.1,3.4-11.6,6.6
	c-9.7,5.6-14.6,8.5-16.4,10.4c-1.1,1.1-5.5,6-7.6,13.8c-1.2,4.5-1,7.9-0.8,13.8c0.4,8.5,2.1,15,2.8,17.7c2.3,8.3,5.5,14.2,7.3,17.7
	c2.8,5.2,5.4,9.2,5.4,9.3c3.5,5.4,5.1,6.9,6.5,10.7c1.3,3.5,1.4,6.3,1.6,9.2c0.4,8-1.5,14.1-2.5,17.1c-1.1,3.4-2.7,8.2-6.7,13.3
	c-2.4,3-4.5,4.8-6.6,6.5c-24.7,20.5-17,15.1-26.6,22.6c-2.5,2-6.1,4.7-9.9,9.3c-0.5,0.6-2.7,3.3-5.2,7.3c-2.7,4.4-4.8,7.9-5.8,13
	c-0.7,3.5-1.2,6-0.3,9.1c0.4,1.2,1,2.5,0.6,2.8c-0.5,0.4-2-1.5-5.1-3.7c-2.6-1.9-5.5-3.1-6.3-3.5c-0.3-0.2-2.7-1.2-4.9-2.9
	c-0.5-0.4-1.2-1-1.6-2c-0.3-0.9-0.2-1.6-0.1-2.1v-3c0.1-2.8-0.6-7.5-0.8-9.1c-0.7-5-0.7-9-0.7-10.8c-0.1-6.6,0.8-11.8,1.2-13.6
	c0.4-2,0.7-2.6,1.1-5c0.4-2.1,0.3-2.6,1-8.6c0.3-3.1,0.5-3.9,0.7-6.3c0.2-2.1,0.3-3.8,0.4-4.2c0.7-8.8-2.5-16.9-2.5-16.9
	c-2.4-6.3-5.9-10.1-9.7-14.2c-4.8-5.2-7.3-7.8-10.8-9.3c-1.6-0.6-4.1-1.4-6.2-3.8c-1.5-1.8-2.1-3.6-2.4-4.6
	c-2.5-8.4-3.1-17.5-3.1-17.5c-0.9-14.1-0.6-14.3-1.3-19.4c-0.6-3.8-0.9-4.9-1.6-9.9c-1-7.9-0.6-8.5-1.3-11.9
	c-0.9-4.2-2.2-10.3-7-14.1c-3.5-2.8-8.2-3.1-17.4-3.6c-4.9-0.3-8.7-0.4-13.6,0.8c-4.6,1.1-9.4,2.3-11.9,6.5
	c-2.3,3.7-1.6,7.9-1.3,9.4c0.7,4.1,2.9,6.9,7.5,12.5c3,3.7,4.5,5.5,7.1,7.2c2,1.3,6.4,4.1,10.8,2.7c2.9-1,5-3.6,4.8-3.9
	s-1.6,0.9-3.8,1.3c-4.2,0.9-8-1.3-9.3-2c-2.2-1.2-3.6-3.1-6.7-6.7c-3.9-4.6-5.5-7.8-6.2-9.2c-1.4-3.1-2.3-5-1.7-7.3
	c0.6-2.1,2.2-3.3,4.4-4.8c1.1-0.8,3.9-2.6,7.9-3.4c2-0.4,3.5-0.4,6.5-0.3c2.3,0,3.4,0.2,7.5,0.5c6.7,0.5,6.5,0.2,7.8,0.6
	c4.4,1.1,7.2,4.1,8,5c3,3.4,3.4,7.1,4.3,13.9c2.2,16.8,2.1,12.2,2.8,19.6c1.2,14.1,0,15.4,1.7,22.3c1,4.1,1.1,8.4,2.8,12.3
	c0.7,1.6,1.9,3.8,1,5c-0.7,1-2.3,0.6-4.5,0.9c-1.4,0.2-3,0.8-7.6,3.5c-5.3,3.1-9.7,6.9-13.3,9.8c-8.3,6.9-12.5,10.4-15.7,12.3
	c-6,3.5-11.4,5.1-14.9,6.2c-5,1.5-8,2.4-12.3,2.4c-1.9,0-5.6-0.2-13.7-3c-6.9-2.4-11.9-5-15.7-7c-18.9-10-17.9-10.8-24.7-13.4
	c-8.8-3.4-16.3-4.3-22.4-5c-6.3-0.7-12.7-0.6-25.6-0.4c-10.2,0.2-12.8,0.5-14.7,0.9c-5.6,1.1-9.7,2.8-17.7,6.3
	c-5.6,2.4-10.9,5-16.2,7.8c-6.7,3.6-12.4,6.6-19.3,11.4c-9.7,6.8-14.6,10.2-17.9,16.8c-2.8,5.4-3.3,10.4-3.9,16.7
	c-0.9,8.7,0.6,10.1-0.3,19.8c-0.7,6.7-1.2,11.1-4,15.9c-2.3,3.9-5,6-9.5,9.6c-1.7,1.3-8.9,6.9-19.6,10.8c-4.1,1.5-6.3,2.3-9.8,3.2
	c-3.1,0.8-5.8,1.2-9.6,2.8c-0.6,0.3-5,2.2-4.8,2.8c0.3,1,10.6-1.3,14.2-2.2c5-1.1,7.5-1.7,10.3-2.7c11.6-3.9,19.3-10.1,22.2-12.6
	c3.7-3.2,6.5-5.7,9.1-10.1c3-5.2,3.8-10.1,4.3-13.5c0.4-2.6,0.3-3.3,0.5-14.1c0.2-11.4,0.4-13.1,0.8-15.4c0.7-4.2,1.4-7.8,3.6-11.7
	c1.5-2.7,3.5-4.9,13.3-11.8c7.2-5.1,10.8-7.7,15.7-10.4c4.2-2.4,3.9-1.9,21.3-9.7c11.2-5,13.7-6.3,18.7-7.1c3-0.5,6.5-0.5,13.4-0.5
	c2.7,0,6.1,0,19.8,0.8c13.6,0.7,15.4,0.9,18.3,1.6c1.8,0.4,6.7,1.7,12.5,4.3c1.7,0.8,3.5,1.7,10.4,5.8c10,6,9.4,6,13.2,8.1
	c4.5,2.4,10,5.4,17.6,7.2c5.9,1.4,10.5,2.5,16.2,1c2.1-0.6,2.1-0.9,10.7-4.2c6.6-2.5,6.6-2.3,8.6-3.3c1.5-0.7,4-2,12.4-8.6
	c2.5-2,7.3-5.8,13.3-10.7c0,0,2.9-2.4,9.1-6c0,0,3.3-1.9,7.4-2.2c1-0.1,1.6,0,2.2,0.4c1.2,0.9,0.7,2.8,1.1,5.5
	c0.3,1.9,0.8,2.5,1.8,5.1c1.2,2.9,1.3,4.1,2.8,9.8c2.3,8.5,2.4,7.3,3.3,11.5c1.7,7.4,0.9,8.4,2.8,15.4c1.3,4.9,1.7,4.5,2.8,8.8
	c0.3,1.3,0.5,2.3,0.7,3.4c0.3,2,0.7,4,1.1,6c0.7,4.2,0.7,3.6,0.9,5.2c1,6.1,1,10.4,1,11.5v2.6c0,0.7-0.2,3.3-0.2,6.7
	c0,3.5,0.1,5.2,0.4,6c0.1,0.2,0.4,0.8,0.2,1.1c-0.4,0.6-2,0.2-2.8,0c0,0-2.2-0.4-7.2,0.7c-3.4,0.8-5.3,3.3-7.8,5.9
	c-4.6,4.8-8.8,7.4-14.6,11c-7.1,4.4-10.7,6.6-15.7,6.4c-5.2-0.2-8.9-2.8-10.3-3.8c-0.9-0.7-6.3-4.6-8.3-11.4
	c-0.9-3-0.7-5.2-2.6-10.7c-0.6-1.6-1.4-4.1-1.8-4c-0.6,0.1-0.4,5.9,0.9,11.2c1.1,4.3,3.4,13.4,11.8,18.3c1.7,1,7,3.8,13.6,3
	c4.5-0.6,8.1-2.7,10.4-4c1.5-0.8,0.9-0.7,6.5-4.4c5-3.4,5.4-3.5,6.9-4.8c1.9-1.6,1.5-1.6,5.7-5.6c3-2.9,4.6-4.3,6.4-4.8
	c1-0.3,0.5,0.1,4.3-0.4c2.9-0.3,3.6-0.6,4.3,0c1.1,0.9,0.9,3,0.7,4.2c-0.2,1.3-0.4,3.3-1.6,3.7c-1.3,0.5-2.3-1.7-5.3-2.4
	c-1.6-0.4-4-0.3-4.4,0.7c-0.4,1,1.1,2.7,2.3,3.5c2.4,1.6,5.2,1.2,6.1,1c0.2,0,0.6,0.1,1,0.2c1.5,0.3,2.2,0.9,3.6,1.7
	c2,1.2,3.9,1.9,5.1,2.3c2.6,0.8,3,0.3,4,1.1c1.1,0.9,1,1.8,2.2,5.3c1.1,3.1,1.5,3.4,2.3,6.1c0.5,1.9,1,4.3,0.7,4.4
	c-0.2,0.1-0.6-1.1-1.6-2.4c-0.5-0.7-2.7-3.7-4.6-3.3c-1.8,0.3-2.5,3.5-2.8,4.7c-0.9,3.8,0,7,0.3,8c3.8,13.5,2,12.1,4.5,18.1
	c4.4,10.4,6.7,14.9,6.7,14.9c0.8,1.7,2.1,4.2,1.1,6c-0.9,1.7-2.9,1.2-5.9,3.5c-2.4,1.9-2.8,3.4-3.8,3.3c-1.1-0.2-1.3-2.2-2.3-6.3
	c-0.9-3.5-2.1-6.9-3.1-10.3c-2.2-7.5-2.3-7.2-2.4-8.4c-0.4-2.8-0.2-4.5-1.3-6.9c-1-2.1-2.6-4-3.1-3.8c-0.3,0.1,0,1.1,0.5,3.2
	c3.1,11.9,1.9,8,2.5,10.2c0.9,3.2,1.7,5.3,0.9,5.8c-0.6,0.4-1.6-0.5-2.3-0.1c-1.1,0.7-0.4,3.6-0.2,4.3c0.6,2.3,1.7,4.2,4.3,7.6
	c3.5,4.7,5.2,6.1,4.8,7.8c-0.3,1-1.1,1.2-2.3,2.2c-2.7,2.1-2.7,4.4-5.3,10.2c-2.6,5.9-3.4,5.4-5,10.1c-0.9,2.5-0.6,2.6-2,7.3
	c-1.5,5-1.7,4.8-2.9,8.9c-1.8,6.1-1.5,7.3-3.2,10.2c-1.3,2.2-2.5,4.3-4.8,5.1c-2.9,1-4.1-1.2-10.3-1.8c-2.6-0.3-5.3-0.5-8.2,0.8
	c-3.1,1.4-3.9,3.5-4.8,3.1c-1.5-0.6,0-5.7,0.2-13.7c0.1-3.6-0.1-6.1-0.5-10.5c-0.7-8.6-1.1-13-3.3-18.3c-1.2-2.9-4.2-9.9-9.4-10.7
	c-1.6-0.2-3.3,0.1-3.4,0.7c-0.1,0.8,3.7,1.3,6.8,4.2c1.7,1.6,2.4,3.2,3.6,6.3c1.9,4.6,2.4,8.4,3,12.7c0.7,5.2,0.8,9.3,0.8,10.5
	c0.1,3.2-0.1,3.6-0.2,10.7c0,1.8-0.1,3.5-0.1,5.3c0,3.6,0,3.7-0.2,4.3c-0.7,2.3-2.2,2.2-4.3,5.3c-1.5,2.4-1,3.1-2.3,4.1
	c-1.5,1.2-2.8,0.8-6.7,1.2c-0.2,0-3,0.5-8.8,1.5c-3,0.5-5.2,0.9-6.8-0.4c-0.5-0.4-0.8-0.9-0.9-1.2c-4.6-8.6-6.6-15-6.6-15
	s-1.7-4.4-5.1-13.3c-4-10.4-4.8-12.2-5.4-15.9c-0.9-5.2-1.5-8.6,0.3-12.3c2.2-4.4,6.8-6.7,7.9-7.3c3.3-1.7,4.1-1,6.7-2.7
	c4.1-2.7,5.7-6.9,6-7.8c0.4-1.2,1.3-4.3-0.2-11.1c-0.5-2.4-2.2-9.2-7.5-17.5c-3.2-5-4.8-6.1-9.7-13.6c-0.9-1.4-1.6-2.5-3.6-5.6
	c-4-6.1-4.1-6.1-4.6-7.2c-0.8-1.6-2.9-6.1-2.2-11.3c0.5-3.1,1.8-5,4.4-8.8c3.6-5.2,7.3-8.5,10.6-11.3c3.6-3.1,5.4-4.7,6.9-5.3
	c1.9-0.8,4.3-1.3,6.3-3.6c0.2-0.2,1.4-1.7,1.1-2.2c-0.6-0.8-5.4,1.7-6.5,2.3c-4.5,2.4-7.7,5-9.3,6.3c-4.9,4.2-7.9,6.7-11,11.1
	c-3,4.2-5.5,7.8-5.7,12.9c-0.1,3.7,1.1,6.4,3,10.7c1.9,4.3,3.6,6.4,7.8,12.6c1.8,2.7,4.7,6.9,7.4,11.4c5,8.3,7.8,12.9,9.1,19.6
	c1.1,5.4,1.8,9.3-0.4,12.6c-2.6,3.8-6.5,2.7-13.3,8c-2.3,1.8-4.4,3.5-5.9,6.4c-0.6,1.2-2.1,4.6-1,12.5c0.6,4.4,2.4,9,6,18.1
	c1.9,4.9,3.4,8.7,5.5,13.6c1.2,2.8,2.1,5.8,3.4,8.5c1.5,3,2.7,4.7,2,5.7s-3,0.4-5.4,0.1c-1.4-0.2-5.6,0.4-13.9,1.7
	c-8.6,1.3-10.8,1.7-13.9,2.7c-3.5,1.1-5.1,2-5.6,2.3c-2.4,1.3-6.6,3.7-8.3,8.1c-0.7,2-0.8,4.1-0.8,7.8c0,2.8,0.2,5-0.3,5.1
	c-0.4,0.1-0.8-1.5-1.9-3.5c-1.3-2.1-2.7-3.3-3.7-4.3c-3.9-3.7-6.5-8.3-7.2-9.5c-1.4-2.6-3.4-6.3-3.5-11.3c0-1.9,0.5-4.1,1.7-8.5
	c1.8-7.1,2.4-7.1,3.2-10.8c1.2-5.8-0.1-6.2,1-13.8c0.4-2.7,0.9-6.3,2.4-10.6c1.2-3.3,1.4-2.7,5.2-10.7c3.1-6.6,4.7-9.9,5.3-11.5
	c0.8-2.2,1.1-3.5,2.3-5.1c1.9-2.4,4-3.1,3.9-4.6c0-1.2-1.3-2-2.4-2.7c-6.2-4-9.4-6-11.6-8.7c-1.4-1.7-2.1-3.6-3.6-7.3
	c-1.6-4.2-1.1-4.5-2.7-8.2c-1.8-4.4-2.7-4.4-4.2-8.5c-1-2.8-1.4-5.3-1.8-5.3c-0.3,0-0.3,1.2-0.3,1.7c-0.1,3.9,1.2,7.1,1.9,8.6
	c2.4,5.5,2.8,5.9,3.8,8.3c2.3,5.6,1.2,5.5,2.9,8.9c0.9,1.8,3.8,7.7,9.8,10.7c2.2,1.1,4.6,1.7,4.6,2.8c0,0.8-1.3,1.2-2.2,1.7
	c-3.4,1.9-3.9,6.4-4.9,10.4c-1.6,6.3-2.4,3.9-7.4,17.3c-2.2,5.7-3.2,8.6-3.6,10.8c-1,6.4,0.4,9.2-1.3,16.3c-0.7,3-1,2.4-2.2,6.6
	c-1.9,6.6-3.2,11-2.4,16c0.8,5.3,3.6,9.1,6.3,12.8c2.8,3.9,7.6,8.8,8.6,9.9s3.2,3.3,5.1,6.8c0.3,0.5,0.9,1.7,1.5,3.3
	c1.8,4.5,1.6,7.7,2.1,12.3c0.1,0.7,0.8,4.3,2.4,11.5c1.4,6.7,1.8,8.8,2,10.3c0,0.1,0,0.6,0.2,1.3c0.1,0.7,0.2,1,0.4,1.7
	c0.2,0.8,0.3,1.5,0.5,3.1c0.1,0.4,0.1,0.9,0.3,1.6c0.1,0.5,0.3,0.8,0.3,0.9c0.3,1.1,0.7,3,0,4.2c-0.8,1.3-2.8,1.5-4.8,1.6
	c-8.2,0.5-12.2,0.7-14,0.5c-1.9-0.2-4.4-0.8-9.6-1.9c-3.5-0.8-6.6-1.5-13.8-3.3c-11.3-2.8-11.3-2.9-13-3.2
	c-6.6-0.9-11.7-0.5-14.3-0.2c-5.4,0.7-9.1,1.1-12.9,3.4c-5.9,3.6-8.3,9.2-10.3,13.7c-2.4,5.6-3,10.6-4.1,20.7
	c-0.7,6.5-1.1,9.8-1.1,14.3c0.1,7.7,1.2,13.3-1,19.6c-0.5,1.5-1.3,3.1-3,6.3c-2,3.7-2.8,4.9-4.1,5.1c-1,0.2-1.7-0.4-2.8-0.9
	c-2.9-1.6-3.2-0.8-9.6-2.8c-2.1-0.7-3.8-1.4-7.4-2.8c-2.5-1-4.2-1.7-6.6-2.7c-5.4-2.3-7-3.4-10.5-4.1c-1.5-0.3-2.2-0.4-3.5-0.4
	c-6.2-0.2-13.3-4-16.1-5.6c-7.4-4.1-5.4-5.4-11.3-7.9c-4.3-1.8-7.5-2.1-10.6-5.5c-1.8-1.9-2.7-4-3.2-3.8c-0.6,0.2-0.3,3.1,1.2,5.4
	c1.3,2,3.2,2.8,5.7,4c3.2,1.5,7.2,3.5,9.3,4.7c6.1,3.5,5.4,5.2,10.8,7.8c2,1,4.4,1.6,9.3,2.9c6.2,1.6,7.2,1.5,11.2,2.6
	c6.8,1.9,5.4,2.8,13.4,5.4c8.4,2.8,12.7,4.2,15,4.6c1.9,0.3,3.3,0.5,3.4,1.3c0.3,1.3-3.6,2.9-15,8.4c-12,5.8-11.7,5.9-13.8,6.4
	c-1.7,0.5-5.6,1.3-10.4,3.7c-0.5,0.3-4.3,2.1-4.1,2.6c0.1,0.3,1.8,0,6.8-1.1c5.1-1.1,7.7-1.7,7.9-1.7c3.4-0.9,4.4-1.7,12.3-5.4
	c10.7-5,15.8-8,16.8-8.8c0.9-0.8,2.5-2.2,4.9-2.5c2.7-0.4,4.2,1,7.1,2.1c2.5,1,6.5,1.1,14.5,1.3c5.1,0.1,7.4-0.1,9,1.7
	c1.1,1.2,1.3,2.6,1.6,4.9c0.5,4-0.1,7.1-0.7,10.3c-0.9,5.3-1.4,8.1-1.5,10.3c-0.3,5.8,1.9,10.2,4.7,15.5c3.6,7,5.2,7,14.3,19.7
	c6.4,9.1,7.7,12,8.1,15.5c0.3,2.4-0.2,2.2,0,10.6c0.1,7.1,0.5,9.8,2.2,12.3c1.1,1.7,2.5,3,4.8,4.3c6,3.7,12.3,4.6,23.8,5.7
	c9.7,0.9,14.6,1.3,20.2,1.3c10.6,0,15.9,0.1,21.3-1.7c7.6-2.4,6.5-4.6,17.7-9.3c4.3-1.8,8.4-3.1,16.4-5.6c10.2-3.2,9.5-2.5,13.6-4.1
	c6.5-2.5,7.1-3.8,17.3-8.3c7.4-3.3,9.5-3.7,10.6-3.8c2.5-0.4,7-0.6,11.8-0.4c3.6,0.2,4.9,0.5,6.7-0.4c2.9-1.4,4.7-4.7,5.2-5.7
	c1.1-2.3,0.8-3.2,2-4.3c1.2-1.1,2-0.8,5.3-1.8c4.1-1.2,5.1-2.5,7.3-2c0.2,0.1,2.2,0.6,2.4,1.8c0.2,0.9-0.8,1.5-1.5,2.8
	c-0.8,1.5-0.7,3-0.6,4.8c0.4,5.6,4.8,11.9,5.3,12.5c2,2.8,4.2,5.4,8.9,9.9c6.1,5.9,10.7,10.4,17.9,15.2c4.1,2.7,7.4,4.9,12.4,7.2
	c9.3,4.1,15,4,17.3,8.8c0.4,0.8-0.1,0.2,1.1,7.5c1,6.3,1.7,8.8,3.1,10.8c1.9,2.6,2.2,3.1,2.3,3.1c1.1,1.4,1.5,1.6,1.8,2.4
	c0.3,1.1,0,1.6-0.2,3.7c0,0-0.1,0.8,0,3.3c0.2,5.8,4.2,14.9,4.2,14.9c3.7,8.4,4,8.2,6.6,14.2c1.7,4,0.9,2.5,5.2,13.7
	c3.2,8.2,3.9,9.8,4.3,13.1c0.4,3.2-0.2,3.1,0,9.6c0.1,4.9,0.6,8.8,0.8,11.3c0.6,6,1,6.7,1.3,10.8c0.3,5.2,0.4,7.8-0.8,9.8
	c-2.6,4.5-8.4,5.4-9.6,5.6c-2.6,0.3-2.7-0.4-7.7-0.8c-1.1-0.1-2.7-0.2-11.9,0.3c-5.8,0.3-8.8,0.4-10.1,0.7
	c-4.7,0.9-8.9,1.8-10.8,5.3c-1.9,3.4-0.7,7.3-0.5,7.9c0.6,1.9,1.7,3.7,2.2,3.6c0.2-0.1,0.3-0.6,0.1-4.1c-0.2-3.8-0.3-4-0.1-4.7
	c0.7-2.5,3.2-3.8,4-4.3c1.6-0.8,2.6-0.8,6.4-1.3c5.4-0.6,4.4-0.7,7.8-1c1.9-0.2,5.3-0.4,9.4-0.3c6.7,0.3,6.6,1.4,10.6,1.1
	c2.6-0.2,7-0.5,10.4-3.8c3.1-3.1,3.7-7,3.9-8.8c0.4-3.2-0.3-4.4-1.1-10c-0.6-4.1-0.8-7-1.1-13c-0.4-8,0.1-8.3-0.3-13.2
	c-0.2-2.3-0.8-8.2-2.8-14.7c-1.7-5.4-2.4-4.9-9.5-19.9c-3.3-6.9-4.6-10.1-5.6-13.8c-0.9-3.5-0.7-4.2-2.1-9.4
	c-0.4-1.5-0.9-3.3-0.6-3.5c0.3-0.2,1.3,1.3,2.1,2.4c1.8,2.5,4,3.6,7.5,5.5c2.3,1.2,7.3,3.5,17,5.1c7,1.2,12.4,1.3,17,1.4
	c8.4,0.2,9.3-0.4,17.1-0.1c5.7,0.3,10,0.8,14.2,1.4c6.6,0.9,12.6,1.7,20.2,3.8c9.8,2.7,15.5,4.4,20.8,9.3c1.9,1.8,3.5,4,6.7,8.3
	c4.1,5.6,5.7,8.8,9.4,14.9c4,6.6,8.2,13.6,14.4,21.7c2.6,3.4,5,6.2,9.8,11.6c11.2,12.9,8.1,7.7,15.3,15.4c0.3,0.4,2.5,2.6,5.9,4.3
	c1.4,0.7,3.6,1.5,3.9,1c0.1-0.2,0-0.6-2.3-2.8c-1.7-1.7-2.5-2.5-3.8-3.6c-1.1-0.9-0.4-0.4-7.6-7.1c-6-5.6-8.2-7.6-9.7-8.9
	c-3.3-3.1-6-6.4-17.3-24.4c-9.6-15.4-8.8-14.9-11.6-18.5c-4.1-5.3-9.5-12.4-18.4-18.3c-16.2-10.7-34.5-10.9-41.1-11
	c-1.9,0-10.7-0.1-14.2-0.1c-7.9,0-10.4,0-14.6-0.2c-7.1-0.2-10.7-0.4-14.3-1.1c-7-1.4-11.8-3.7-12.9-4.3c-3.3-1.6-2.3-1.6-7.1-4.2
	c-3.8-2-5.7-2.7-6.6-4.8c-0.6-1.5-0.3-2.4-0.1-4.7c0.2-2,0.5-9.2-3.1-14.3c-1.6-2.4-3-2.8-4-4.2c-0.2-0.3-0.7-0.8-0.8-1.6
	c-0.1-0.6,0.1-1,0.1-1.2c0.2-0.5,0.2-2.3,0.2-5.8c0-2.1,0-1.9,0-2.9c0-1.2,0.1-2.1,0.2-3.9c0.1-1.3,0.2-2,0.2-2.6
	c0-0.1,0.1-1.1,0.2-1.8c0.3-1.8,0.7-3.2,1-4c0.4-1.3,1.5-5.1,2.3-9.2c1.3-6.8-0.7-7.5-0.1-16c0.4-5.8,1.7-10.1,2.3-11.8
	c0.8-2.4,2-4.9,4.3-9.8c4.3-9,5.2-9.9,7.1-14.7c2.1-5.1,3.1-7.7,3.3-11.3c0.3-5.5-1.5-9.7-3-13.1c-2.2-5-5.2-12.1-11.1-16.1
	c-0.8-0.5-2-1.3-2.3-2.7c-0.3-1.8,1.4-2.7,5.2-8c1.6-2.2,2.6-3.8,3.7-5.6c0.4-0.7,1-1.6,1.6-2.8c0.6-1.3,0.6-1.4,1.1-2.3
	c0.7-1.4,1.1-1.8,2.3-3.7c0.7-1.1,1.2-1.9,1.8-3c1.6-2.6,2.3-4,2.9-5.5c0.2-0.5,0.7-1.8,1.1-3.2c0.2-0.5,0.3-0.8,0.4-1
	c0.9-2.8,0.3-4.1,1-6.2c0.5-1.4,1.5-2.9,1.9-2.8c0.5,0.1-0.1,2.3,0,6.1c0.1,4,1.4,7.2,2,8.7c1.1,2.7,1.6,2.4,2.3,4.5
	c1.4,3.8,0,4.9,0.8,9.3c0.3,1.9,1.3,7.1,5.3,10.2c1,0.8,2.5,1.1,3.1,2.6c0.2,0.5,0.3,0.9,0.5,3.2c0.2,1.9,0.2,2.8,0.3,3.1
	c0.2,3,1,6.3,1.3,7.5c0,0,1.7,7,7.3,15.5c3.5,5.3,2.7,3,11.3,14.2c5.2,6.8,6.4,8.9,9.7,10.1c1.6,0.6,3.7,1,4.6,2.8
	c0.7,1.4,0.2,3-0.6,5.3c0,0-1.4,4.4-2.9,9.1c-1.5,4.9-1.8,8.9-2,11.7c-0.2,3.7-0.4,5.9,0.5,8.7c0.6,2,1,1.9,3.2,5.9
	c3.5,6.4,2.9,7.5,5.2,9.8c2.4,2.4,5.2,3.4,4.9,4.1c-0.1,0.3-0.9,0.3-1.8,0.3c-4-0.3-7-1.4-7.3-1.5c-4.3-1.6-3.8-0.6-8.2-2.2
	c-0.9-0.3-1.2-0.5-8.6-4.3c-4-2-6-3.1-6.4-4.5c-0.5-1.4,0.3-1.8,0.9-5.1c0.6-2.9,0.4-5.1,0.3-9.4c-0.1-2.9-0.3-2.9-0.5-5.9
	c-0.3-4.7,0-6.2-0.1-11.1c-0.1-6.1-0.1-9.1-0.8-11.4c-1.7-5.4-5.3-8.8-6.9-10.3c-1.4-1.3-0.9-0.5-10-6.2c-4.5-2.8-7.3-4.6-8.6-3.7
	c-0.4,0.3-0.5,0.8-0.6,1.5c-0.4,3.5,1.3,6.3,3.4,10.6c1.8,3.7,3.3,7.1,3.3,7.1c2.2,5.1,3.1,7.9,4.3,7.8c0.6-0.1,1-0.9,1.1-1.3
	c0.5-1.6-1-3.1-2.5-5.5c-1.2-1.9-1.8-3.4-2.8-6.1c-1.6-4.3-1-5-2.6-7.6c-1-1.7-2.2-3-1.8-3.3c0.1-0.1,0.3-0.3,2,0.6
	c2.2,1.1,3.7,2.4,3.8,2.5c2.6,2.3,3.4,1.6,6.3,3.8c2.2,1.6,3.4,3.2,5.3,5.6c2.3,3,3.7,4.7,4.5,7.2c1,2.9,0.2,3.7,0.1,10
	c-0.1,4.8,0.4,4.5,0.6,12.7c0.1,4.6,0.2,6.9,0,9.4c-0.5,7-1.7,7.7-0.8,10c1.2,3.3,4.7,4.8,11.3,7.5c5.8,2.4,4.8,0.9,12.8,3.8
	c0,0,5.6,2,11,1.8c0.9,0,2.3-0.2,2.8-1.1c0.1-0.2,0.4-0.8-0.3-2.1c-1.1-2.3-3-2.6-5.2-4.5c-1-0.9-1.8-2.3-3.5-5.3
	c-1.1-1.9-2.2-3.9-3.3-6.5c-0.7-1.7-2.2-5.8-2.3-11c-0.1-3.3,0.6-6.1,2-11.6c1.4-5.7,2.6-7.8,2.6-10.9c0-0.5,0-2.3,0.4-2.4
	c0.3-0.1,0.7,0.6,0.8,0.8c1.1,2,3.7,3.4,6.8,6c2.1,1.7,4.5,3.8,6.7,6.9c0.8,1.2,1.3,2.1,3.8,7.8c2.6,6,3.9,8.9,4.3,10.1
	c1.9,5.8,1.2,6.9,3.4,13.1c0.5,1.3,0.3,0.7,2.8,6.8c3.4,8.5,3.3,8.6,4.4,11c2.7,5.9,3.2,4.8,5.3,9.8c0.9,2.2,2,5.2,4,11.3
	c1.3,3.8,1.7,5.1,3,6.8c1,1.3,3.4,4.4,7,4.3c2.9,0,4.9-2.1,5.2-2.4c1.4-1.5,1.3-2.8,2.7-6.7c0.1-0.3,1-2.9,2.3-5.8
	c1.1-2.5,2.7-5.8,5.4-9.3c5-6.3,5.4-6.7,5.4-6.8c0.9-0.9,2-2.1,1.8-3.3c-0.2-1-1.3-1.8-2.3-1.9c-1.9-0.2-3.5,2.1-6.1,5.7
	c-2.2,3.1-2.5,4.3-4.4,5.6c-1.1,0.7-2.5,1.7-4.2,1.4c-2.2-0.3-2.2-2.4-5.7-5.1c-2.5-2-3.5-1.6-4.3-3.1c-0.6-1.2-0.3-2.1,0.4-6.4
	c1-6.5,0.6-7.4,0.3-7.9c-1.2-1.7-3.2-1.1-4.3-3.1c-0.3-0.5-0.7-1.5-0.3-3.7c0.6-3.8,2.6-6.6,3.6-7.9c5.2-7,6.3-6.8,9.1-11.3
	c2-3.1,3.2-6,4.3-8.3c1.2-2.7,2-4.6,2.8-7.3c1.5-5.3,0.7-7,2.3-13.2c1.4-5.6,2.7-6.3,3.3-6.5c1.1-0.4,2.1-0.1,6.8,2.3
	c5.6,2.8,8.4,4.3,10.3,5.9c2.7,2.3,4.2,3.6,4.9,6c0.9,3.2-0.8,4.3,0.4,7.6c0.9,2.6,2.3,2.7,3.3,5.8c0.5,1.5,0.6,2.6,0.7,4.8
	c0.2,4.1,0.3,7.3-1.2,10.6c-1.1,2.4-2.2,3-2.6,5.4c-0.3,1.9,0,4.2,0.8,4.3c0.2,0,0.8,0,2.7-3.9c1.8-3.8,3.2-6.8,3.8-11.3
	c0.4-3.4,0.8-6.5-0.5-9.9c-1.4-3.8-3.3-3.9-4.5-7.9c-1.1-3.8,0.2-4.5-1-7.6c-1.2-2.9-3.3-4.5-6.8-7.1c-2.7-2-2.1-1-9.6-5.3
	c-2.4-1.4-3.7-2.2-5.7-2.3c-0.7,0-3.6,0-5.5,1.9c-1.2,1.2-1.5,2.6-1.9,5.1c-1.5,8.7-1.3,9.8-2.3,12.8c-0.6,1.8-0.6,1.1-2.8,6.4
	c-2.7,6.3-2.3,6.3-3.5,8.8c-1.8,3.6-2.5,3.2-9,12c-1.8,2.5-3.4,4.6-4.6,7.8c-0.9,2.3-2.1,5.7-0.7,7.4c1.2,1.4,2.9,0.3,4.3,1.8
	c1.8,1.9,1,5.5,0.8,6.9c-0.4,1.9-0.8,1.8-1.3,3.9c-0.4,2.1-1,4.8,0.3,6.3c1.1,1.2,2.3,0.3,4.6,1.7c1.5,0.9,1.2,1.4,3.5,3.4
	c1.9,1.6,3.1,2.8,5,3c1.7,0.2,2.8-0.5,3.1,0c0.4,0.6-1.3,1.9-2.8,4.6c-1.6,2.9-0.9,3.8-2.8,7.4c-1.1,2.1-2.1,4.1-3.6,4.2
	c-0.6,0-1.4-0.3-2.9-2.1c-2.5-3-3.5-6-3.8-7.1c0,0-1.7-4.9-3.5-9.3c-1.6-3.8-1.8-3.2-6-11.1c-3.4-6.5-4.5-9.3-4.9-10.3
	c-1-2.6-1.5-4.4-2.3-7.3c-2.1-7.5-1.6-7.8-3.3-12.8c-1.7-5-2.5-7.5-4.2-9.8c-1.1-1.6-3-3.8-2.5-4.5c0.4-0.4,1.4,0.3,2.8-0.2
	c1.1-0.4,2.3-1.5,2.3-2.6c0.1-1.7-2.3-2.1-5.4-5.3c-2.6-2.7-3.6-5.2-4.3-4.9c-0.4,0.2-0.4,1.5-0.3,3.7c0.1,1.8,0.3,2.4,0,2.5
	c-0.6,0.3-2.1-2.2-5.6-5.6c-0.1-0.1-3.4-2.6-6.3-5.4c-0.4-0.3-1-1-1.4-2c-0.7-1.7-0.4-3.3-0.3-3.9c0.2-1.2-0.4-4.2-1.8-10.3
	c-1.2-5.1-1.8-7.6-1.9-8c-1.3-3.9-2.9-6.7-4.3-9.3c-3.9-6.8-6.6-11.5-10.3-14.4c-0.6-0.5-2.4-1.8-2.1-2.7c0.2-0.5,1.2-0.6,1.7-0.7
	c2-0.2,2.2-0.5,3.3-0.9c0.8-0.3,1.8-0.7,4.3-1c5-0.6,7.9-0.2,12.7-0.8c0,0,8.4-1.1,10,0.2c0.1,0.1,0.2,0.2,0.2,0.2
	c0.3,0.4,0.1,0.7,0.3,1.6c0.3,1.3,1.2,3,2.2,3c0.6,0,1.1-0.6,1.5-1.1c0.7-0.8,0.6-1.4,0.9-1.8c1-1.1,4.5,0.7,6,1.3
	c0.5,0.2,0.4,0.1,11.6,2.3c5.2,1,8,1.5,11.8,2.3c6.1,1.2,9.2,1.8,10.3,2.3c3.8,1.5,6.4,3.4,9,3.2c0.4,0,1.8-0.2,3.1,0.5
	c0.6,0.4,1,0.8,1.2,1c2.8,3.4,4.7,7.3,4.7,7.3c0.6,1.3,2.8,5.4,6.6,8.3c0.4,0.3,6.2,4.5,9.3,2.5c1.1-0.7,1.9-2.2,1.5-2.8
	c-0.3-0.5-1.3-0.1-2.8-0.1c0,0-2.8,0-5.5-1.5c-0.9-0.5-2-1.9-4.2-4.6c-2.8-3.6-1.7-2.6-4.8-6.7c-1.2-1.7-1.7-2.2-1.5-2.7
	c0.4-1,3.2-0.4,7.3,0c5.4,0.5,6.5,0.1,9.4,0.4c5.2,0.5,7.8,2.6,15.6,6.8c11.1,6,9.7,4,18.6,9c9.3,5.3,11.2,7.7,17.5,8.9
	c3.4,0.7,4.8,0.4,9,1.6c2.1,0.6,4.8,1.6,11.6,5.2c5.6,2.9,8.3,4.4,10.8,6.1c8.5,5.9,13.3,13,15.2,15.9c2.1,3.2,2.8,5,8.6,19.8
	c8.3,21.4,8.8,22.9,10.8,26.3s6.5,11,14.7,18.5c6.8,6.2,10,6.8,19.7,15.9c1.7,1.6,5.3,5,9.3,9.9c5.4,6.6,8.2,9.9,9,15
	c0.5,2.7,0,3.9,1,7.4c1.2,4.4,3.4,7.8,3.7,8.3c2.6,4,4.2,4.5,4.3,6.8c0.1,0.9-0.1,2.4-2.8,5.8c-1.9,2.4-4.4,5.4-9.3,8.3
	c-5.7,3.4-10.9,4.3-14.8,5c-8,1.4-14.4,0.6-18.8,0.1c-4.3-0.5-7.8-1.3-10.4-2c-4.6-1.2-6.6-2.2-10.1-3.4c-4.3-1.5-5.4-1.4-19-4.3
	c-7.9-1.6-12-2.5-17-3.8c-8.8-2.2-13.3-3.4-16.3-5.6c-6.3-4.5-9.3-11-10.3-13.3c-1.4-3.1-0.7-2.8-2.9-9.3c-1.2-3.3-2.9-8.3-5.8-14
	c-3.3-6.4-4.1-6.1-5.7-10.2c-1.9-5.2-0.8-6.3-2.3-12.9c-0.7-3.2-2.2-9.6-6.7-16.2c-3.9-5.6-8.3-8.9-9.4-9.8
	c-3.5-2.5-3.7-1.8-10.9-6.4c-2.6-1.7-4.9-3.3-5.3-2.8c-0.4,0.4,1.2,2.5,1.4,2.8c3.8,5,8.1,5.2,13.8,9.2c4.9,3.4,7.6,7.3,8.3,8.3
	c2.5,3.8,3.6,7.3,4.5,10.3c1.6,5.4,1.1,7.1,2.3,12.3c0.9,4.1,2.3,7.3,5.2,13.8c4.1,9.3,5.5,10.1,8.6,18.1c2.3,6,1.7,5.8,3.4,9.3
	c2,4.1,4.9,10.2,11.1,14.3c2.4,1.6,6.3,2.7,14.1,4.9c1.5,0.4,5.8,1.6,11.6,2.8c5.2,1.1,6.5,1.1,11.6,2.1c1.2,0.2,4.6,0.9,13.8,3.2
	c16.7,4.2,15.4,4.4,20.5,5.3c1.8,0.3,9.2,1.4,18.8,0.8c4.8-0.3,8.4-0.6,12.9-2.3c3.1-1.1,7.6-2.8,11.3-7.1c0.6-0.7,0.2-0.3,4.7-7.8
	c3.3-5.5,4.3-7,3.8-8.9c-0.5-1.9-2.1-3.3-3.6-4.7c-2-1.8-2.8-1.7-3.7-2.9c-1.5-2.1-0.7-4.7-0.6-6.9c0.3-3.4-1.3-6.5-4.5-12.6
	c-2-3.9-5.2-8.9-10.7-14.7c-5.7-6-7.4-5.9-17-13.9c-7.9-6.5-12.7-10.5-17.9-17.2c-2.8-3.6-7.4-9.5-10.8-18.2
	c-1.9-5-1.4-5.6-4.2-13.9c-2.2-6.7-3.8-11.5-6.8-17.1c-2.8-5.4-6.6-12.6-14.3-18.5c-0.8-0.6-4.9-2.9-13.3-7.6
	c-7.8-4.4-10.5-5.7-14.2-6.8c-4.9-1.5-5.5-0.8-10.1-2.2c-5.9-1.7-7-3.5-15.5-8.1c-9.8-5.3-9.5-3.7-19.1-9c-5.8-3.2-7.5-4.7-11.9-5.8
	c-2.8-0.7-5.9-0.9-11.8-1.2c-10.4-0.5-9.9,0.3-11.7-0.5c-1.8-0.8-3-1.9-12.4-16.3c-1.1-1.8-1.6-2.5-2.7-4.1
	c-7.1-10.7-8.9-12.1-10.8-12.4c-1.6-0.3-3.1,0.4-6.3,1.7c-1.3,0.5-4.4,1.9-10.3,6.6c-6.1,4.8-9.2,7.2-10.8,8.8
	c-0.9,1-2.6,2.8-3.3,2.4c-0.4-0.2-0.3-0.9-0.1-3.8c0.2-3.9,0.1-3.5,0.3-4.4c0.4-2.7,1-3.2,0.7-4.8c-0.3-1.1-1-2.3-1.6-2.3
	c-0.6,0.1-0.5,1.2-1.1,1.6c-1.3,0.7-5.2-2.7-8.2-7.4c-1.9-3-2-4.4-4.3-10.3c-1-2.5-2.5-6.4-4.5-10.3c-3.8-7.5-5.6-11.2-9.8-13.5
	c-0.3-0.2-6.1-3.2-9.8-2c-0.3,0.1-1.9,0.7-2.1,0.4c-0.1-0.2,0.5-0.6,0.6-0.7c1.7-1.4,4.1-6.3,5.3-8.9c1.8-4.2,3.5-8.1,2.9-13
	c-0.4-3.7-2-6.4-3.1-8.3c-4.3-7.5-9.3-11.2-9.3-11.2c-1.4-0.9-1.7-1.4-1.6-1.7c0.3-0.9,4.6-0.8,8.2,0.7c0.5,0.2,2.3,1,4.2,2.6
	c1.8,1.5,2.8,3,3.3,3.7c2,2.8,2.6,2.5,8.2,8.2c1.7,1.8,8.3,8.6,11.3,10.3c2.7,1.5,2.5,0.7,13.3,5c3.1,1.2,3.5,1.5,4.9,1.8
	c5.1,1.4,7.2,0.4,10.9,1.8c0.9,0.3,2.7,1.5,6.2,3.9c6.4,4.4,9.7,6.6,10.9,8c1.9,2.1,3,3.9,5.4,4.5c0.6,0.1,2.4,0.5,4.2-0.3
	c2.2-1,3.1-3.2,5.3-10.6c2.1-6.9,3.2-10.4,3.5-12.4c0.8-4.7,0.4-6.1,1.5-10.8c0.7-3,1.5-5.2,2.3-7.4c1.7-4.5,3.3-8.8,6.5-13.8
	c2.1-3.2,4.8-7.3,9.9-11c2-1.4,5.1-3.7,9.7-4.9c3.5-1,4.2-0.4,7.8-1.3c2.2-0.6,3.4-1.3,9.7-4.8c9.8-5.6,10.5-6.1,11.6-7.3
	c1.3-1.5,4.1-4.5,4.7-9.1c0.3-2.8-0.3-5-1.3-8.6c-1-3.5-1.6-4.2-2.8-7.8c-1.7-4.9-0.8-4.7-2.4-10.3c-1.9-6.4-2.8-9.6-5.3-12.2
	c-0.7-0.7-2.2-2.1-1.9-2.7c0.2-0.4,1.1-0.1,2.3,0.1c3.5,0.6,4.4-0.4,8.1,0c1.8,0.2,2.4,0.5,4.2,0.8c4.6,1,6.3,0.3,13.9,0.3
	c1.1,0,5,0.1,10.1,0.6c5.2,0.5,7.8,0.8,9.5,1.8c2.7,1.6,4.2,4.2,6.9,9.3c2.6,4.8,2,5.1,3.7,7.9c0.8,1.4,5.3,9.3,13.5,11.8
	c1.3,0.4,5,0.4,12.3,0.3c8-0.1,11.9-0.2,14.3-0.6c5.1-0.9,7-2,11.3-1.5c1,0.1,3.7,0.5,6.8,2c5.8,2.8,8.7,7.3,9.8,9
	c1.9,3.1,1.6,4,4.2,12.3c3.3,10.8,4.8,12,5.7,18.5c0.3,2,0.4,4.5,0.5,9.6c0.1,2.5,0.2,7.4-0.2,18.8c-0.3,8.3-0.4,12.5-0.7,13.7
	c-1.1,4.5-3.7,8.6-8.8,16.7c-1,1.6-4.6,7.2-7.8,14.8c-0.8,2-1.6,3.9-1.2,6.1c0.6,3.3,3.2,4.9,7.3,8.2c10.1,7.9,11,11.4,18.4,14.8
	c3,1.4,5.2,1.9,6.3,2.1c3.8,0.8,6.2,0.4,8.8,0.4c3.5,0,5.4,0.7,12.6,3c10.6,3.3,15.8,5,20.5,6.2c4.7,1.2,10.4,2.6,18,3.1
	c10.7,0.7,19-0.8,22.3-1.4c2.1-0.4,10.7-2.3,20.8-7.1c6.8-3.2,11.7-6.6,21.1-9.1c3.8-1,6.6-1.4,9.6-0.3c3.9,1.5,7.2,5.3,8.4,9.3
	c1,3.1,0.2,4.5,1.8,7.8c1.2,2.5,3.3,5.2,4.1,4.8C923.9,591.8,922.8,584.8,919.6,578.9z M330.9,272.4c-0.2,0-0.6-0.1-1.1-0.3
	c-0.2-0.1-0.3-0.1-0.5-0.3c-0.7-0.3-1-0.5-1.1-0.8c0-0.1-0.1-0.3,0-0.5c0.3-0.4,1.4,0.1,1.8,0.3c1,0.4,2.2,1.2,2.1,1.5
	C332,272.6,331.4,272.5,330.9,272.4z M342.3,342.7c-0.4,0.2-1.7-2.2-2.5-3.8c-1.2-2.6-1.9-5.6-1.4-5.8c0.4-0.2,1.7,2.1,2.5,3.8
	C342.1,339.5,342.7,342.6,342.3,342.7z M428.6,716.3c0.6-0.2,2.2,3,2.6,3.8c0.7,1.5,1.8,3.7,2.4,7c0.5,2.9,0.7,7,0,7.2
	c-0.8,0.2-2.4-4.5-3-6.3c-1.1-3.1-1.4-5.3-1.7-7.2C428.5,718.7,428.1,716.4,428.6,716.3z M408.8,594.3c0.3-0.4,1.4,0.4,2.9,0
	c0.3-0.1,0.9-0.3,1.1-0.1c0.1,0.1,0.1,0.3,0.1,0.3c0,0.5,0.2,1,0.2,1.6c0,0.8,0.2,0.9,0.4,1.9c0.1,0.4,0.2,1.6,0.1,2.9
	c-0.1,1.1-0.2,2.5-0.7,2.6c-0.8,0.2-2.8-2.1-3-4.7c-0.1-0.9,0-1.6-0.5-2.8C409,595,408.6,594.6,408.8,594.3z M386.1,564.4
	c0.1,1.1,1,3.7,2.6,8.8c2.1,6.4,1.8,5.1,2.4,7.3c1.5,5.2,1.3,6.5,2.9,8.5c1.2,1.4,2.3,2,2.2,3c-0.2,1.2-2,2.2-3.6,2
	c-1.9-0.3-2.7-2.3-4.9-6.4c-2-3.7-3.7-6.4-6.4-10.6c-3.4-5.3-3.6-4.7-5.1-7.8c-2.4-4.6-1.6-5.3-4-9.1c-1-1.6-1.9-2.6-1.5-3.6
	c0.2-0.5,0.6-0.8,5.7-1.9c0,0,1.2-0.3,5.1-0.8c1.3-0.2,2.2-0.2,2.8,0.3c0.8,0.8,0.7,2.1,0.8,2.7
	C385.3,559.3,385.8,561.8,386.1,564.4z M370.6,541.4c0.4-1.6,1.1-2.7,1.6-3.4c1.1-1.8,1.4-1.6,2.2-3c1.2-2.2,1-3.5,1.6-3.6
	c0.8-0.2,1.4,1.5,3.6,4.5c2.7,3.7,3.7,3.9,4.1,5.9c0.2,1,0,1.1,0.3,3.8c0.1,0.8,0.2,1.7,0.2,2.9c0,1.3,0,2-0.4,2.4
	c-0.6,0.8-1.5,0.7-3.9,0.8c-2.1,0.1-4.4,0.3-6.6,1c-1.3,0.4-2.3,1-2.9,1.4c-0.3-0.6-0.6-1.5-0.6-2.6c0-0.7,0.1-1.2,0.2-2.5
	c0.1-0.7,0.2-1.6,0.2-2.8C370.1,545.1,370.1,543.4,370.6,541.4z M333.6,463.6c-0.7-1.3-1.7-2.9-3.2-4.6c-0.5-0.6-1.2-1.5-2.1-2.6
	c-3-3.3-5.9-5-8.3-6.6c-2.6-1.7-6.4-4.1-11.4-7.5h8.5c7.4-0.1,14-0.2,19.1-0.9c5-0.7,12.8-2.8,21.9-9c0.4-0.1,0.9-0.1,1.2,0.2
	c0.8,0.7-0.4,2.7-1,5.2c-0.5,2.4,0,2.9,0.1,6.8c0,2.2-0.1,3.6-0.6,7.4c-1,8.8-1.4,13.2-1.4,13.8c0,4.9-0.1,10.7,3.1,16.5
	c1.6,2.8,3.5,4.7,3,5.3s-3.1-1.7-8.8-4.2c-4.1-1.8-7.8-2.9-9.9-3.5c-2.3-0.7-4.3-1.2-5.8-1.5c-0.2-2.3-0.5-4.2-0.8-5.6
	c-0.3-1.4-0.6-2.4-0.7-2.7c-0.4-1.4-0.9-2.4-1.2-3.2C334.9,466.3,334.4,465.1,333.6,463.6z M334.1,476.7c-1,1.3-3.2,1.4-7.7,1.5
	c-2.2,0.1-3.8-0.1-4.6-0.3c-2.2-0.3-3.7-0.8-4.8-1.1c-1.4-0.4-1.6-0.4-9.1-1.6c-7.2-1.2-10.7-1.8-14.2-1.5c-1.1,0.1-2.4,0.2-4.1,0.9
	c-1.9,0.8-1.9,1.3-3.3,1.7c-0.4,0.1-2,0-5.1-0.3c-0.6-0.1-1.7-0.1-3.2,0c-1.6,0.1-2.6,0.4-3.7,0.7c-2,0.5-3.5,0.7-6.3,1
	c-1.4,0.2-3.6,0.4-6.4,0.5c-3.6,0.1-3.1-0.3-5.8-0.2c-1.4,0.1-2.3,0.2-2.4-0.2c-0.2-0.5,1.2-1.5,2.9-3.1c1.1-1.1,4.3-4,6.4-8.1
	c0.7-1.3,0.9-2,1.9-3.8c0.6-1,0.9-1.3,2.2-3.3c0.7-1.1,1.2-1.9,1.7-2.7c1.2-2,1.7-3.5,2.2-4.6c2.2-5,3.6-4.6,6.2-9.9
	c1.3-2.7,1.4-3.8,2.5-4.1c1.6-0.5,2.5,1.4,6.2,2.9c2.3,0.9,4.4,1.1,6.9,1.3c1,0.1,2.3,0.1,4.9,0.1c3.5,0,5.2,0.1,5.6,0
	c0.9-0.2,2.1-0.2,3,0.5c0.6,0.4,0.6,0.7,1.3,1.5c0.8,0.8,1.5,1.3,3,2.2c0.7,0.4,1.6,0.9,2.7,1.4c1.1,0.6,2.6,1.4,4.4,2.6
	c2.3,1.5,3.7,2.9,6.4,5.5c2.7,2.7,4.1,4,5.4,5.8c1.9,2.7,2.8,5,3.4,6.5C334.3,472.9,335.2,475.2,334.1,476.7z M358.4,379.3
	c0.6-0.3,2.4,2.7,3.2,4c0.4,0.6,0.7,1.2,1.1,2.1c0.1,0.3,0.5,1.1,0.8,2.1c0.5,1.9,0.8,4.5,0.2,4.6c-0.4,0.1-1.3-1.3-1.9-2.4
	c-0.5-0.9-0.9-1.8-1.1-2.3c-0.3-0.6-0.3-0.8-0.6-1.6c-1-2.5-1.2-2.8-1.5-3.9C358.4,381.3,358,379.4,358.4,379.3z M354.6,367.7
	c-1.9-4.3-3.4-9-3.1-9.1c0.3-0.1,2.7,4.7,5.4,10.2c3.9,7.9,6.2,12.7,5.9,12.9C362.4,381.8,358,375.5,354.6,367.7z M365.1,405.5
	c0-3.1-0.2-5.8,0.7-6c0.7-0.2,1.5,1.4,3.9,4.1c1.5,1.7,1.4,1.4,5.2,5c5.7,5.6,5.8,6.3,5.6,6.5c-0.2,0.3-0.9-0.1-2.4-0.2
	c-1.7-0.1-3,0.5-5.5,1.6c-1.9,0.8-2.9,1.2-4,2.1c-2.4,1.8-2.6,3.3-3.2,3.2C364.1,421.6,365.2,415.8,365.1,405.5z M381.1,444.6
	c-0.2,0.2-0.7-0.2-1-0.3c-0.2-0.1-0.5-0.3-0.8-0.8c-0.2-0.3-0.6-1-0.3-1.2c0.2-0.2,1.3,0.2,1.8,1
	C381.1,443.8,381.4,444.5,381.1,444.6z M382.3,445.5c0.9-1,1-1.6,1.2-1.6s0.2,0.5,0.1,3.8c-0.1,2.2-0.2,2.7-0.4,2.7
	s-0.2-0.6-0.8-1.6c-0.7-1.3-1.3-1.5-1.2-2.1C381.3,446.3,381.6,446.3,382.3,445.5z M379.8,420.6c-0.4,0.4-0.8,0.3-2.8,0.5
	c-2.5,0.2-3.3,0.4-3.6,0.6c-0.4,0.1-0.8,0.3-1.6,0.7c-1.4,0.6-2.4,1.2-2.6,1.3c-2.3,1.3-3.3,2.2-3.5,1.9c-0.3-0.3,0.2-1.1,0.3-1.3
	c0.6-1,1.4-1.5,2.4-2.1c2.2-1.3,3.3-2,4.7-2.6c1.1-0.4,1.1-0.3,2.2-0.8c1.4-0.6,1.9-0.9,2.8-1c0.6-0.1,1.5-0.1,2,0.5
	C380.6,418.9,380.4,420,379.8,420.6z M367.5,428.7c2.1-1.6,2.5-2.2,4.3-3.2c1.2-0.6,2.2-1,3.2-1.2c1.3-0.2,2.6-0.5,3.3,0.2
	c0.6,0.6,0.2,1.5-0.1,4.2c-0.4,3.6,0.1,4.5-0.8,6.6c-0.5,1.2-0.8,1.8-1.4,2.1c-1.4,0.7-2.8-0.8-7.1-2.9c-3.6-1.7-5.3-1.9-5.3-2.9
	C363.6,430.9,364.6,430.8,367.5,428.7z M363.5,435.5c0.5-0.2,1.3-0.4,5.5,2c5.3,3,9.4,5.4,9,7.7c-0.2,1.5-1.9,1.4-3.2,3.7
	c-0.9,1.6-0.9,3.3-0.6,6.2c0.5,4.6,1.4,7.2,2.4,11c1.3,5.3,1.8,9.4,2,10.7c0.4,3.6,0.7,6.9,0.2,11.2c-0.4,3-0.9,4.4-0.7,7
	c0.3,3.2,0.3,3.9,0.4,5.3c0,0.6,0,1.3,0,1.3v4.5c0.1,2.8,0.1,3.3-0.1,4.4c-0.2,1.3-0.7,4.7-2.6,5.3c-0.9,0.3-1.7-0.1-2.1-0.3
	c-5.2-2.5-11.2-7.9-17-11.2c-2.2-1.3-3.8-1.9-3.8-3.1c0-0.6,0.4-1.2,5.9-4.4c4.2-2.4,5.3-2.8,6.4-2.4c0.8,0.3,1,0.8,2.9,1.9
	c1,0.6,1.9,1,2.5,1.3c0.6,0.4,1.3,0.5,1.6,0.2c0.4-0.3,0.3-1,0.2-1.2c-0.2-1.2-1-1.6-2.7-3.3c-0.9-0.9-1.5-1.5-2.3-2.5
	c-0.7-0.9-1-1.4-1.9-2.3c-0.7-0.8-0.8-0.7-1-1.1c-0.9-1.3-0.5-3-0.3-3.6c0.2-1,1.4-6.5,1.3-10.8c0-1.4-0.3-3.6-0.9-8.1
	c0-0.2-0.1-1-0.3-1.9c-1.1-7.8-2-11.9-2.3-17.5C361.8,439.9,361.7,436.3,363.5,435.5z M380.7,528.4c3.1,1.9,2.9,6.1,2.9,6.4
	c-0.9-0.6-2-1.6-3-2.9c-1.3-1.6-2-3.2-2.5-4.3C378.9,527.7,379.8,527.9,380.7,528.4z M362.2,461.8c0.3,1.8,0.5,4,0.5,8.9
	c0,6.4,0,10.3-0.7,10.4c-0.7,0.1-2-4-2.5-7c-0.4-2.4-0.4-4.4-0.4-5.9c0-1.6,0.1-2.2,0.4-6.3c0.5-6,0.5-7.2,0.8-7.2
	C360.9,454.7,361.7,458.9,362.2,461.8z M344.2,482.5c1.3,0.4,2,0.8,4.1,1.7c2.9,1.3,4.4,1.9,5.7,2.4c3.2,1.2,4.4,1.5,8.1,3
	c3.3,1.3,3.8,1.8,3.8,2.1c-0.1,0.5-1.5,0.3-3.9,1c-3.1,0.9-5.6,2.8-6.8,3.8c-0.5,0.3-1.1,0.9-2.1,1.5c-1.7,1.1-2.6,1.6-3.4,1.6
	c-1.1-0.1-1.9-1-3-2.3c-1.1-1.2-1.7-2.4-2.1-3.1c-0.8-1.1-1.3-2.1-1.6-2.8c-0.6-1.2-0.7-1.9-1.4-3.2c-0.5-0.9-0.9-1.5-1.2-1.9
	c-0.3-0.8-0.5-1.6-0.7-2.6c-0.2-0.9-0.3-1.7-0.5-2.5C340.4,481.4,342.1,481.8,344.2,482.5z M349.6,502.7c1.1-0.7,3.3,1.5,8.8,5.3
	c1.6,1.1,3,2,3.9,2.6c6.1,4.8,10,6.5,12.4,7.3c0.7,0.2,2.5,0.7,2.9,1.9c0.3,1.1-0.9,1.8-1.5,4.1s0.1,3.5-0.7,4
	c-0.4,0.3-0.9,0.1-3.9-1.3c-2.5-1.2-3.8-1.8-4.9-2.4c-0.9-0.5-1.5-0.9-3.6-2.3c-3.5-2.4-5.3-3.6-5.9-4.1c-1.4-1.1-3.5-3.1-5.5-5.9
	c-2.1-3-2.5-4.8-2.6-5.9C349,504.7,348.9,503.2,349.6,502.7z M370.8,565.2c0.9,2.3,1.8,4.1,2.3,5.2c2.5,3.7,4.5,6.7,5.9,8.9
	c2.5,3.9,3.9,6.1,7.3,11.3c1.4,2.2,2.6,4,3.4,5.2c-0.5,0.4-1.3,0.9-2.3,1.4c-2,1.1-3.3,1.5-4.6,2.1c-2.4,1.1-3.9,2.3-5.4,3.5
	c-3.7,2.9-4.5,5-5.6,4.7c-0.9-0.3-0.5-2-1.4-5.7c-0.2-0.8-1-4-3-7.4c-1.5-2.6-2-2.4-2.9-4.3c-0.9-2-1-3.8-1.2-6.7
	c-0.1-1.9-0.1-4.4,0.2-7.5c0-2.5,0.3-6.2,1.4-10.7c0.5-2,1.6-6.3,2.8-6.2C368.6,558.8,369,560.8,370.8,565.2z M371.5,641.7
	c0.8-3.8,1-6.6,1.2-9.4c0.2-2.5,0.1-4.8-0.1-9.5c-0.4-9.1-0.8-8.7-0.4-10.1c1.4-4.5,5.7-7.1,11-10.3c3.4-2,6.4-3.3,8.4-4
	c0.6,0.9,1.6,2.3,2.7,4c3.3,5.2,3.8,6.7,7.4,12.7c2.7,4.5,3.2,4.9,4.3,7.4c2.5,5.3,2.5,8.1,2.5,8.8c0,1.6-0.1,4.7-2.3,7
	c-1.8,2-4.3,2.6-7.6,3.4c-2.1,0.5-3.9,0.7-5.1,0.7c-3.2,0.3-5.7,0.5-7.5,0.6c-1.6,0.1-2.8,0.1-4.6,0.4c-1.9,0.3-3.4,0.8-4.4,1.1
	c-0.6,0.2-1.7,0.6-2.8,1.3c-2.3,1.3-3.1,2.3-3.6,2.1C369.9,647.5,370.8,645.1,371.5,641.7z M383.3,482.6c-0.1,0.6-1,4.3-1.5,4.3
	c-0.6-0.1,0.4-5-0.4-11.6c-0.6-5.1-2.1-10.2-3-13.4c-0.6-2.1-1.7-5.6-0.9-9.9c0.2-0.9,0.5-2.8,1.3-2.9c1.5-0.2,3.4,6.4,3.7,7.4
	c1.6,5.4,1.7,9.7,1.8,14.1C384.4,475,384.2,478.7,383.3,482.6z M383.5,441.2c-0.9,0.8-3.8-0.1-4.5-1.8c-0.1-0.3-0.2-0.6,0.4-3.2
	c0.7-3,0.9-3.1,1-3.1c0.9-0.2,2.2,3.2,2.7,4.8C383.7,439.6,384,440.7,383.5,441.2z M380.5,404.2c0.3,0.8,0.4,1.7,0.5,3.6
	c0.1,1.5,0.1,1.9-0.2,2.1c-0.4,0.3-1.3-0.3-2.4-1.1c-3.2-2.3-5-4.2-5-4.2c-1.8-1.9-1.6-1.9-3.7-4.1c-2.1-2.2-2.3-2.1-2.7-2.9
	c-0.4-0.8-0.5-1.5-0.8-5.8c-0.1-1.1-0.1-2-0.1-2.6c1.2,1,1.7,1.3,1.8,1.4c0.7,0.7,2.1,2.1,4.1,4.1c3.9,4,2.7,2.9,4.6,4.9
	C379.2,402.1,380,402.7,380.5,404.2z M369.5,356.2c0.5,0,1.2,3.8,2.7,11.5c2,10.3,2.2,11.7,3,14.3c1.5,4.8,3,7.9,2.7,8
	c-0.3,0.2-2.4-3.2-3.9-6.1c-1.4-2.7-3.6-7.1-4.8-13.3c-0.6-3.4-0.8-6.2-0.7-8.7C368.6,361.5,368.8,356.3,369.5,356.2z M333.5,209.8
	c-0.3-1.1-1.2-4.1-1.9-8.1c-0.2-1.1-0.4-2.3-0.7-4.2c-0.6-3.4-0.7-4.3-1.1-6.2c0,0-0.3-2.3-1-4.7c-2.3-8-4.6-14.3-6.4-18.8
	c-1.2-3.1-2-4.9-1.3-5.5c1.5-1.3,9.4,4.8,14.8,11.3c2.3,2.7,5.1,6,7.2,11.2c0.6,1.4,2.5,6.4,2.5,17.9c0.2,5.1-0.2,6.5-1.9,22.8
	c-1,9.4-1.9,14-1.5,17.5c0.7,5.7,0.3,11.5,1.8,17c0.2,0.7,0.7,2.7-0.1,3.3c-0.7,0.5-2.4-0.2-3.4-1.2c-1.5-1.6-1.3-4.1-1.3-5.5
	c0.3-4-0.6-8.1-0.2-12.1C340.1,233.5,336.6,221.2,333.5,209.8z M347.1,276.5c-0.3,0.3-0.8,0.3-3.9-0.7c-4.9-1.5-5.6-2.2-5.8-2.9
	c-0.1-0.4-0.1-0.8,0.3-1.5c0.3-0.5,0.7-1.2,1-2.2c0.2-0.7,0.4-2.7,0.4-3.4c0-1-0.3-1.5-0.1-1.7s1-0.1,3.1,1.4c0.6,0.4,1,0.7,1.4,0.9
	c0.8,0.6,1,0.8,1.1,1c0.3,0.4,0.4,0.8,0.5,1c0.2,0.8,0.5,2,0.9,3.5C347,274.9,347.6,276,347.1,276.5z M350.2,276.6
	c-1.2-1.8-0.9-2.8-1.9-5.1c-0.6-1.5-1.3-2.3-1.1-2.4c0.2-0.2,1.5,1,2.3,1.6c2,1.7,2.3,1.5,11.5,6.8c0,0,2.9,1.7,4.9,3.9
	c0.4,0.4,0.8,0.9,1.2,1.5c0.9,1.1,0.9,1.3,0.8,1.4c-0.2,0.3-1.5-0.3-2.1-0.6c-4-1.8-4.6-2.9-7.5-4c-2-0.8-3-1.2-4.2-1.2
	c-0.9,0-1.9,0.1-2.9-0.6C351.1,277.7,350.8,277.4,350.2,276.6z M352.6,282.2c-0.5-1.1-1.1-1.4-1-1.6c0.1-0.3,1.7,0,7.8,2.3
	c2.9,2.1,5.3,3.3,7,4c1.1,0.4,2.6,1,2.8,2c0.1,0.9-0.8,1.6-1.1,1.9c-1.7,1.5-2.8,4.2-4.9,9.7c-2.6,6.7-1.8,12-2.6,12.1
	c-0.3,0-0.8-1-1.5-5.9c-0.1-0.8-0.2-2.1-0.5-3.6c-0.1-0.4-0.2-0.8-0.3-1.2c-0.3-1.2-0.6-2-0.7-2.3c-0.6-1.6-0.8-3.5-1.4-6.9
	c-0.2-1-1.9-6.7-2.5-8c-0.1-0.3-0.2-0.5-0.3-0.8C352.8,282.9,352.8,282.7,352.6,282.2z M359.1,319.9c0-1.5-0.1-3.1,0.5-3.3
	c0.3-0.1,0.7,0.2,0.8,0.3c0.5,0.4,0.5,1.1,0.7,3.2c0,0.5,0.1,1,0.1,1.5c0.1,1.4,0.2,2.3,0.4,4c1,7.6,0.7,6.4,0.9,7.6
	c0.4,2,0.8,2.9,0.4,4.1c-0.6,1.5-2.3,2.9-3.2,2.5c-0.9-0.4-0.6-2.2-0.8-7.5c0-1.3,0-2.6,0-3.9C359,325.5,359.2,322.7,359.1,319.9z
	 M360.3,343c0.7-1.5,3.4-2.4,4.6-1.4c0.8,0.6,0.7,1.7,0.6,4.1c0,2.6,0.2,5.2,0.2,7.8c0,2.6,0.1,5.3,0.3,8.7c0.2,3.1,0.4,4.7,0.2,4.8
	c-0.3,0.1-1.3-2.8-1.8-4.7c-1-3.5-0.7-4.1-1.7-8.5c-0.8-3.8-1.3-5.7-1.6-6.7C360.4,345,359.8,344,360.3,343z M356.4,323.6
	c-0.5,0.2-1.1-0.2-1.7-0.7c-2-1.5-2.9-3.7-3.8-6.7c-0.6-2.1-1.3-5-1.8-8.4l0,0c-1.8-6.8-1.9-7.5-2-8.1c-0.3-2-0.7-4.9,0.3-5.4
	c0.9-0.4,2.4,0.9,3.1,1.6c2.3,2.1,3.4,4.6,4.1,6.5c0.6,1.7,1.7,5.1,2.4,11.4C357.3,318.2,357.8,323.1,356.4,323.6z M352.8,347
	c1.4-1.1,3.9-2.7,4.8-1.9c0.3,0.3,0.2,0.7,0.7,2.8c0.1,0.5,0.1,0.6,0.4,1.7c1.4,5.3,3,12.4,4.8,18c2.5,8.2,5.8,15.3,7.3,18.3
	c1.7,3.5,3.8,7.7,3.5,7.9c-0.2,0.1-0.9-1.1-2.7-3.1c-2.5-2.9-3.5-3.2-4.8-5.1c-1.2-1.8-1.7-3.3-2.1-4.7c-1.9-5.8-5.1-13.9-8.5-19.4
	c-2-3.3-3-5-4.1-6.1c-1.4-1.4-2.3-1.9-2.4-3.1C349.2,349.9,351.7,347.9,352.8,347z M329,397.7c0.2-0.9,1.3-3.9,3.1-10.1
	c0.2-0.8,0.7-2.3,1.4-4.3c0.8-2.1,1.5-3.6,1.8-4.1c2.1-4.6,2.6-7.4,4.9-12.6c2.6-6.1,5.7-11.1,6.5-10.8c0.3,0.1,0.1,1,0.8,3.5
	c0.2,0.7,0.4,1.2,0.6,1.8c1,3,3,7.1,3.7,8.4c1.1,2.3,1.8,4.3,3.3,8.3c2.1,5.7,1.5,5.1,2.8,8.3c2.6,6.3,4.7,7.9,4.8,12.4
	c0,0.9-0.1,0.7-0.4,3.7c-0.6,5.1-0.7,9-0.7,11.8c-0.2,11,0.9,13.2-0.6,14.3c-1.9,1.3-5.4-1-10.9-4.6c-7.7-5.1-9.9-8.2-16.1-12
	c-4.1-2.5-7.8-4-10.4-4.8C327,403.3,328.4,400.1,329,397.7z M321.4,409.5c2.6-0.3,5.3,1.4,10.8,4.9c4.9,3.2,8.7,6.3,9.4,6.9
	c4.9,4,5,4.8,7.9,6.3c2.5,1.3,4.6,1.9,4.6,3.1c0,0.8-1.1,1.3-2.9,2.2c-2.1,1-5,2.2-8.7,3.4c-1.6,0.5-3.7,1-6.1,1.6
	c-5.7,1.2-10.2,1.5-11.6,1.6c-4.3,0.3-3.6-0.2-9.6,0.1c-4.6,0.2-5.2,0.4-6.6-0.1c-3.2-1.2-4.7-4.3-6.6-8c-1.3-2.7-3-7-3.7-12.6
	c0.8,0,2-0.1,3.4-0.3c6.4-1,11-3.4,12.1-4C319.1,411.6,318.6,409.9,321.4,409.5z M298.3,411.3c2-3.6,6.5-4.5,7.8-4.8
	c1.7-0.3,3.5-0.2,7.2,0.1c2.6,0.2,5,0.4,5.1,1.1c0.1,0.4-0.8,0.8-3.4,2.1c-4,2-3.5,2-5.5,2.9c-2.3,1-4,1.5-5.9,2.1
	c-5,1.5-5.6,1-5.8,0.8C296.8,414.7,297.6,412.5,298.3,411.3z M292.3,414.8c0.8-1,2.2-2,2.7-1.6c0.1,0.1,0.1,0.2,0.1,2.3
	c0,0.9,0,1.1-0.2,1.3c-0.4,0.5-1.1,0.6-1.9,0.8c-0.9,0.1-1.5,0.2-1.7-0.1C290.9,416.8,291.7,415.5,292.3,414.8z M288.5,421.7
	c0.1-0.2,0.5-0.7,1-1.1c0.3-0.2,0.7-0.4,1.2-0.5c1.7-0.4,2.1,0,3.6-0.4c0.9-0.2,1.2-0.5,1.5-0.3c0.4,0.2,0.1,0.9,0.2,2.4
	c0,0.2,0.1,0.7,0.2,1.4c0.1,0.5,0.2,0.6,0.6,1.8c0.2,0.5,0.4,1.3,0.7,2.3c0.2,0.6,0.3,0.9,0.4,1.3c0.2,0.6,0.4,1,0.4,1.2
	c1.5,4,2.2,6,2.9,7c1.2,1.8,2.3,2.6,2,3.1c-0.1,0.1-0.3,0.3-1.9,0.2c-2-0.1-2.9-0.1-3.8-0.3c-3.4-0.6-3.1-0.2-6.8-0.8
	c-2.2-0.4-3.5-0.7-5.7-1.4c-3.7-1-4.4-1.5-4.6-2.2c-0.1-0.5,0.3-0.8,1.6-2.7c0,0,0.7-1.1,1.8-3c0.7-1.3,0.5-1.1,2.1-4.2
	C286.1,425.6,286.3,425.1,288.5,421.7z M269.5,423c1.5,0.1,2.9,0,4.2,0c1-0.1,2.2-0.2,3.6-0.4c2.1-0.3,3.2-0.4,4.4-0.6
	c2.8-0.6,3.7-1.1,4-0.8c0.4,0.5-0.8,1.6-2.8,4.8c-1.2,1.9-2,3.5-2.6,4.8c-0.9,1.7-1.5,3.2-1.9,4.2c-1-0.3-2.4-0.7-3.9-1.7
	c-1.4-0.8-2.3-1.8-3-2.5c-0.3-0.1-0.6-0.4-0.9-0.8c-0.3-0.3-0.5-0.7-0.6-0.9c-0.5-0.9-1.1-1.9-1.7-2.8c-0.7-1.2-1.5-2.4-2.2-3.5
	C267,422.8,268.2,422.9,269.5,423z M215.6,447.5c0.2-0.5,0.2-1.4-0.1-3.8c-0.1-1.6-0.2-2.2-0.1-3.1c0.1-0.6,0.2-1.4,0.9-3.2
	c0.9-2.4,1.3-3.7,2.2-4.7c1.1-1.4,2.3-2.1,3.5-2.8c1.1-0.6,2.7-1.4,4.9-1.9c2.1-0.7,5.2-1.7,9-2.6c3.1-0.7,2.7-0.4,10.8-1.7
	c4.1-0.6,8.3-0.6,12.5-1.1c0.8-0.1,2.6-0.3,4,0.7c1,0.8,1,1.6,1.9,3.4c1.5,3,3.7,4.9,5.4,6.4c1.3,1.2,2,1.7,2.9,2.2
	c1.6,0.8,2.6,0.8,2.8,1.5c0.2,0.6-0.2,1.1-1.1,2.7c-0.7,1.3-1.3,2.4-1.6,3c-1.4,2.4-2.6,4.3-3.4,5.6c-2.7,4.2-3.4,4.7-4.9,7.6
	c-0.8,1.6-1,2.2-1.9,3.4c-0.7,1-1.5,1.8-2.4,3.3c-0.3,0.5-0.5,1-0.7,1.3c-0.5,0.9-1.3,2.2-2.3,3.5c-0.4,0.6-1.8,2.6-4.2,5
	c-2.2,2.3-3.3,3.5-4.1,3.7c-2.1,0.6-4-0.8-8.4-3.7c-7.3-4.8-5.9-3.3-9.7-6c-3-2.2-7.1-5.2-11.2-10.1
	C217.4,452.6,215.9,449.9,215.6,447.5z M223.1,480.1c-0.9-4.5-0.7-4.9-1.3-8.1c-0.4-2.2-0.7-2.8-1.2-4.5c0,0-0.2-0.9-0.5-2.1
	c-0.7-2.9-1.1-7.1-1.2-7.7c0.6,1.1,1.7,2.6,3.2,4.3c0.9,1.1,1.9,2,5.4,4.8c4.7,3.8,7.1,5.7,9.4,6.9c1,0.5,1.2,0.6,5.1,2.5
	c1,0.5,1.9,1,3.3,1.6c1.2,0.5,2.2,0.9,2.9,1.1c-1,1.1-2.4,2.7-4.1,5c-1.4,1.8-1.8,2.5-3.6,5c-1.3,1.7-2.8,3.8-4.8,5.8
	c-1.5,1.6-6.8,7.2-8.9,6c-0.4-0.2-0.5-0.6-0.9-3.7c-1.1-7.1-1.3-8.5-1.3-8.5c-0.4-2.8-0.4-3.2-0.6-4
	C223.7,482.9,223.6,482.5,223.1,480.1z M349.4,651.7c-0.6,0.6-1.4,1.1-2.8,1.6c-4.3,1.5-10.4,1-12,0.9c-3.3-0.1-6.7-0.3-10.1-0.4
	c-2.4-0.1-4.9-0.1-7.3-0.2c-1.1-2.3-3.4-3.6-5.6-3.3c-2.7,0.3-4,2.6-4.1,2.9c-1.1,2.5-3.1,6-6.3,9.6c-2.8,3.2-4.9,5.5-8.5,6.9
	c-4.4,1.7-9.2,1.1-13.4,0.8c-2.5-0.2-4.6-0.5-8.9-0.6c-2.7-0.1-4.9,0-6.4,0c-2.4,0-4.8-0.1-7.3-0.1h-6.9c-0.8-0.1-4.5-0.3-4.7,0.3
	c-0.1,0.6,3.6,1.8,4.3,2.1c3.6,0,8.6,0.1,14.5,0.4c5.7,0.3,8.3,0.6,13.8,0.7c10.8,0.2,13.5-0.5,14.8-0.9c2.9-0.9,6.7-2.2,9.6-5.6
	c1.5-1.8,3.1-4.6,5.4-8.6c1.5-2.6,2.4-4.4,3.9-4.5c1.3-0.1,1.9,1.2,3.5,2.3c2.6,1.7,5.1,1,9.6,0.8c2.5-0.1,2.9-0.1,4.4,0
	c1.3,0.1,2.3,0.3,4.1,0.2c0.5,0,0.5,0,1.8-0.1c2-0.1,3.5-0.1,3.8-0.2c1.4-0.1,4-0.4,9-1.7c-0.1,0.8-0.4,2.3-1.5,3.8
	c-1.5,2.1-3.5,2.8-4.4,3.1c-1.3,0.5-2.5,0.5-4.7,0.6c-1.4,0.1-2.6,0-3.4,0c-3-0.1-7.4,0.1-12.6,1.4c-5.8,1.4-8.3,3-14.3,6.1
	c-9,4.7-17,7-31.3,11c-4.7,1.3-8.8,2.3-14.5,5c-4.6,2.2-8.2,4.6-10.4,6.2c-2,0.8-5.1,1.7-8.9,2.3c-4.1,0.6-6.8,0.3-13.6-0.2
	c-4.5-0.3-9.1-0.5-13.6-0.7c-17.3-1-18.9-1-21.8-2.3c-2.8-1.3-6.9-3.8-10.8-9.4c0.3-4.2,0.1-9.5-1.1-15.5c-0.4-2.1-2-8.7-6-16
	c-1.9-3.5-4-6.4-5-7.7c-1.8-2.5-3.5-4.5-4.8-6c-1-1.5-2.1-3-3.1-4.5c-0.9-1.4-1.9-2.7-2.8-4.1c-3.4-4.8-4.3-8.9-4.5-11.8
	c-0.4-4.7,1.1-7.4,1.8-15.3c0.3-3.6,0.3-6.6,0.2-8.5c0.1-1.2,0.1-3.8-1.6-6c-2-2.6-5.2-3-7.4-3.3s-2.8,0.1-5.9,0.2
	c-2.8,0.1-7-0.5-15.4-1.7c-2.9-0.4-4.4-0.6-4.7-1.5c-0.5-1.2,1.4-2.4,3.8-6.3c0.6-1,1.8-3.1,2.7-5.8c0.8-2.5,0.9-4.6,1.2-8.7
	c0.1-1.6,0.1-2.2,0.2-5.3c0-0.3,0.1-6.4,0.3-10.6c0.1-3.2,0.3-6.8,0.6-10.5c0.8-7.8,1.3-13.2,4.2-19.2c1.5-3.1,3.4-6.8,7.4-9.7
	c3.6-2.5,7.5-3.4,8.4-3.6c1.6-0.3,3-0.4,4-0.4c1.2,0,2.8-0.1,4.7-0.1c1.5,0,4,0.1,6.8,0.4c1,0.1,1.7,0.2,7.5,1.4
	c3.9,0.8,5.9,1.2,8,1.6c2.4,0.5,5.2,1.1,8.4,1.9c1.7,0.4,5.4,1.2,9.5,2.2c1.6,0.4-0.3-0.1,4.3,1c1.1,0.2,1.9,0.4,3,0.6
	c1.1,0.2,2,0.3,2.6,0.4c2.5,0.5,4.5,0.5,5.9,0.4c2-0.1,3.9-0.3,6.1-1.3c1.3-0.6,2.2-1.3,2.6-1c0.3,0.2,0.2,0.7-0.3,2.8
	c-0.5,1.9-0.7,2.9-1.1,3.8c-0.7,1.9-1.5,3.2-2.1,4.4c-0.6,1.1-1.4,2.4-2.6,3.9c-1.4,1.4-2.7,2.9-4.1,4.4c-0.9,1-1.9,2.1-2.8,3.1
	c-0.7,0.6-2.5,2.1-3.1,4.7c-0.2,0.8-0.2,1.6-0.2,2.2c0.4-0.2,0.9-0.5,1.5-1c0.8-0.8,0.9-1.6,1.7-2.7c0.5-0.7,1-1,1.6-1.5
	c0,0,1-0.8,4.6-4.3c3.6-3.5,5.4-7.6,6.2-9.2c1.2-2.5,1.8-4.7,2.1-6.3c0.2-1.1,0.6-2.6,1.4-4.3s1.8-2.9,2.4-3.5
	c1.1-1.2,2.3-2.1,3.1-2.6c1.1-0.8,2.4-1.9,3.8-3.3c1-1,1.7-2,2.4-2.9c2.2-2.4,3.8-4.5,4.8-5.9c0.5-0.6,2.1-2.8,4.1-5.5
	c1-1.3,1.5-2.6,2.9-3.2c0.8-0.4,1.6-0.4,2.9-0.5c2-0.1,3.5,0.1,3.7,0.1c3.4,0.4,11,0.4,17.6-1.1c2.1-0.5,3.5-0.9,5.9-0.9
	c3.2,0,4,0.8,6.6,0.7c3.1-0.2,3.5-1.4,6.9-2.3c2.7-0.7,5.2-0.4,10.1,0.1c3.5,0.4,6.6,0.7,10,2c0.6,0.2,1.7,0.7,3.2,1
	c1,0.2,2.9,0.7,5.4,0.8c0.8,0,0.8,0,3.3-0.1c0.3,0,3.8-0.1,8.2,0.1c1.5,0.1,2.1,0.2,2.6,0.6c1,0.9,0.5,2.3,0.8,4.2
	c0.2,1.6,0.6,1.5,2.9,5.9c2.2,4.2,2.2,4.9,3.6,6.8c1.2,1.5,2.5,2.6,3.3,3.2c-0.5,2.3-0.9,6.2,0.8,10.3c1.3,3,3.1,4.7,5.7,7.1
	c3.9,3.6,7.7,5.6,8.6,6.1c0.6,0.3,1.2,0.6,6.7,3.3c2.7,1.4,4.1,2,4.3,2.9c0.8,1.9-2.5,2.6-4.6,7.2c-1.2,2.7-1.6,6.1-1.7,6.9
	c-0.1,0.7-0.1,1.3-0.2,1.8c-0.3,4.8,0.4,5.9,0,8.2c-0.5,2.4-1.6,2.3-3.1,5.4c-0.3,0.7-1,2.1-1.8,8.2c-0.3,2.1-0.6,4.7-0.9,7.7
	c-0.2,2.8-0.4,4.4-0.3,6.7c0.1,2.4,0.3,4.4,0.5,5.8c0.1,0.6,0.3,1.6,0.8,2.6c0.4,0.8,0.7,1.2,1.5,2.4c0.9,1.4,1.5,2.2,1.8,2.7
	c1.7,2.7,2.6,5.3,2.8,6.1c0.7,2.3,1.2,4,0.9,6.3c-0.1,0.5-0.2,1.3-1.4,4.3c-0.9,2.3-1.8,4.1-2.5,5.5c-0.7,1.2-1.8,3.1-2.8,5.5
	c-1,2.2-1.3,3.3-2.2,5.4c-0.6,1.5-1.6,3.6-3.1,6.2c-1.1,1.9-1.9,3.5-2.4,4.6c-0.5,1-1.5,3.5-2.8,6.9
	C350.9,649.6,350.6,650.6,349.4,651.7z M366.7,649c-1.4,1.1-3,0.1-5.9,0.1c-4.7,0.1-7.4,2.9-8.1,2c-0.4-0.4,0.2-1.3,1.4-3.6
	c1.7-3.3,0.9-2.4,3-6.7c1.9-4,2.2-4,4.1-8c0.1-0.3,0.7-1.6,2-4.3c1.1-2.5,1.8-3.9,2.6-5.4c0.1-0.2,0.4-0.7,0.7-1.5
	c0.7-1.4,0.9-2,2.4-4.8c0.5-0.9,0.9-1.7,1.2-2.3c0.1,2.3,0.1,4.7,0.2,7.2c0,5-0.1,9.9-0.3,14.5c-0.9,4.1-1.5,7.3-1.8,9.5
	C367.8,647.1,367.6,648.3,366.7,649z M434.4,590.5c1.3,1.2,2.5,2.3,3.8,4.1c0.6,0.9,1.2,2,2.3,4.1l1.7,3.4c0.6,1,1.3,2.3,2,4
	c1.3,3.3,1.7,6,1.8,6.8c0.5,4.9-0.7,8.7-1.9,12.3c-0.6,1.9-1.6,4.5-3.2,7.4c-1.5,2.8-2.9,5.5-4.2,8.1c-3.9,7.5-4.6,9.1-5.4,11.4
	c-1.6,5-1.9,9.1-2,10c-0.4,6.5,1.3,7.4,0.6,14.3c-0.3,3.5-1.2,7.4-1.3,7.7c-0.4,1.9-0.9,3.6-1.3,4.8c-0.3,1.4-0.6,3.4-0.9,5.6
	c-0.6,4.4-0.9,6.7-0.8,9.7c0.1,3.7,0.8,6.1,0.1,6.4c-0.4,0.2-1.1-0.6-1.5-1c-2.3-2.6-5.1-3-8.8-4.3c-2.6-1-5.7-2.7-11.8-6.2
	c-2.7-1.5-8.2-4.6-13.2-8.5c-4.2-3.3-10.3-8.8-16-17.7c-1.6-1.9-2.7-3.7-3.5-5c-1.2-2-2-3.5-2.4-5.6s-0.2-3.9,0-5
	c0.3-1.4,1.1-3.8,3-5.9c0.7-0.8,3-3.1,9.2-4.7c4.2-1,5-0.4,11.9-1c6.6-0.6,10-0.9,13.3-3c1.1-0.7,4.5-2.9,5.8-7
	c0.8-2.6,0.3-4.9-0.1-7c-0.4-2.2-1.1-4-4.1-9.5c-2.6-4.9-4.2-7.5-4.2-7.5c-2.1-3.5-5-8.3-8.8-13.8c2.1-0.6,4.7-1.3,6-1.6
	c3.1-0.8,4.7-1.2,5.6-0.8c1.3,0.8,0.9,2.3,2.4,6.1c1,2.5,1.9,4.9,3.8,5.3c1.2,0.3,2.6-0.4,3.3-1.3c1.1-1.3,1-3,0.8-5.5
	c-0.3-3.7-1.3-4.7-0.6-5.8c0.8-1.3,2.5-0.6,5.6-1.4c5.4-1.5,6.5-5.7,9.5-5C431.3,587.7,432.3,588.7,434.4,590.5z M522.7,649.5
	c0.2-0.1,0.5,0.1,0.6,0.2c0.3,0.2,0.4,0.5,0.6,0.8c0.2,0.3,0.2,0.2,0.9,1c0.9,1,1.1,1.4,1.2,1.7c0.1,0.2,0.4,0.8,0.2,0.9
	c-0.1,0.1-0.4-0.1-0.7-0.3c-0.5-0.3-0.5-0.5-1-0.9c-0.4-0.3-0.5-0.3-0.9-0.6s-0.5-0.6-0.6-0.7c-0.2-0.3-0.2-0.6-0.3-0.8
	S522.4,649.7,522.7,649.5z M532.9,578.9c6.7-4.5,10.1-6.7,11.1-7.6c4.4-3.6,5.2-5.3,6.9-5.1c2.8,0.3,3.8,5,6,9.7
	c6.2,13.7,18.3,19.6,17.4,20.9c-0.5,0.7-3.8-1.7-9.6-4.2c-9.6-4.1-18-5.2-31.7-7c-3.7-0.5-6.8-0.8-8.9-1
	C527.7,582.3,530.7,580.4,532.9,578.9z M598.1,384.3c2.4-0.8,4.5-0.4,7.6,0.2c2.6,0.5,3.9,0.7,5.3,1.6c1.5,0.9,1.4,1.4,4.5,4.5
	c2.4,2.4,3.5,3.2,3.3,3.7c-0.1,0.3-0.7,0.2-3.3-0.2c-4.8-0.8-5.5-1-5.8-1.6c-0.7-1.2,0.9-2.2,0.4-3.5c-0.9-2.5-7.7-2.6-11.8-2.2
	c-2.4,0.3-4,0.7-4.1,0.3C593.9,386.5,595.9,385,598.1,384.3z M607,391c-0.4,0.6-5-1.4-4.8-2.1c0.1-0.4,2-0.6,3.4,0.3
	C606.4,389.8,607.2,390.8,607,391z M597.8,389.6c2.9,0.4,5.9,2,5.8,3.1c-0.1,1.2-3.9,1-9.3,3.6c-3.9,1.8-5.9,2.8-6.8,4.8
	c-1.8,4.6,4.7,9.4,2.5,13.3c-0.6,1.1-1,0.6-3.8,3c-3.4,3-4.2,5-5,4.8c-0.9-0.3-0.1-3.4-0.3-7.8c-0.4-7.8-3.8-9.9-2.4-14.2
	c0.7-2.2,2.4-3.4,5.6-5.8C586.7,392.4,591.8,388.6,597.8,389.6z M577,395.4c0.2-1.4,0.2-2,0.5-2.6c0.7-1.3,2.1-1.8,3.9-2.4
	c1.1-0.4,3.8-1.1,4.1-0.6c0.3,0.7-4.3,1.9-7,6.1c-0.4,0.6-1.1,1.7-1.4,1.6C576.7,397.4,576.9,396.3,577,395.4z M573.4,393.7
	c2.4,1-0.2,6.5,2.3,16.2c0.5,2.1,1.2,3.9,1.1,6.7c-0.1,3.7-1.5,6.5-1.9,7.3c-2.4,4.7-7,7.3-16,12.2c-5.7,3.1-7.2,3.4-8,3.5
	c-1.3,0.2-7.4,1.1-13-2.8c-2.5-1.7-3.9-3.8-4.8-5.1c1.2-1.8,3.1-4.5,5.7-7.5c1.4-1.7,1.8-2,3.3-3.8c4.5-5.2,4.7-6.3,7.9-9.9
	c0.7-0.8,3.5-3.9,7.9-7.3c1-0.8,3.5-2.4,8.4-5.6C572.2,393.8,572.7,393.4,573.4,393.7z M531.1,409.5c0.8-0.6,1.2,0.1,5.3-0.5
	c1.6-0.2,2.8-0.5,3.3-0.7c1.6-0.4,2.6-0.8,3.8-1.3c4-1.5,6.4-2.4,6.8-1.9c0.4,0.6-2.3,2.4-5.9,6.3c-2,2.2-2,2.5-6.9,8.8
	c-4.8,6.2-5.9,7.2-6.4,6.9c-0.7-0.3-0.1-2.1,0.1-5.9C531.2,414.2,529.3,410.8,531.1,409.5z M530.6,399.7c0.8-2.1,2.4-3,6.1-5.8
	c1.8-1.4,3.6-2.8,5.3-4.3c5.8-4.6,5.2-4.5,7.7-6.3c4.7-3.3,7.4-5.3,10.8-4.8c2.3,0.4,3.8,1.7,5.5,3.2c1.4,1.2,5.3,4.6,4.5,7.8
	c-0.3,1.2-1.5,2.1-3.9,3.7c-2.5,1.6-4.4,2.5-6.9,3.8c-3,1.5-6.1,2.8-9.1,4.4c-2.3,1.2-4.8,2.4-7.4,2.6c-0.3,0-0.3,0-0.7,0.1
	c-7,0.8-10.7,3.1-12,1.7c-0.3-0.3-0.3-0.9-0.4-2C530,403.7,529.8,401.7,530.6,399.7z M527.2,401.7c0.3,0.3,0.2,0.6,0.2,2.1
	c0.1,1.8,0.3,2.3,0,2.5c-0.4,0.3-1.3-0.5-2.5-1.3c-1.2-1-2.4-1.9-2.2-2.5c0.1-0.2,0.2-0.3,1.8-0.6
	C526.8,401.5,527,401.5,527.2,401.7z M478.5,382.6c0.4-0.5,2.7,0.9,10.8,4.7c4.8,2.2,5.8,2.6,8.6,4.1c2.7,1.5,3,1.8,5.7,3.3
	c4.6,2.4,6.8,2.9,6.7,3.4c-0.2,0.7-5.4,0.6-10.3-0.4c-3.4-0.7-7.8-1.7-12.1-4.9c-1.3-1-2.5-2.2-5-4.7
	C479.9,384.9,478.2,383,478.5,382.6z M447.4,377.6c-0.2-0.8-0.4-1.7-0.6-2.7c-0.1-0.7-0.2-1.4-0.3-2c4.9,0.2,9.8,0.4,14.8,0.6
	c8.5,2.3,10.3,3.3,10.2,3.8c-0.1,0.5-2.2,0.8-11.4-0.1C455.9,377.3,451.6,377.5,447.4,377.6z M452.6,405.1
	c-0.5-6.8-0.9-7.1-2.1-16.3c-0.4-2.9-0.4-3.6-0.9-4.8c-0.5-1.2-1.2-2.2-0.8-2.7c0.3-0.3,0.9-0.2,1.8-0.1c1.5,0.2,2.9,0,4.4,0
	c3.3,0.1,5.5-0.2,10.2-0.2c2.1,0,5.1,0,8.8,0.3c0.6,1,1.5,2.5,2.7,4.3c2.3,3.4,3.9,5.7,6.4,7.9c2.1,1.8,4,2.8,5.8,3.7
	c3.8,2,7.1,2.7,9.6,3.3c2.2,0.5,4.7,1.1,8.1,1.3c5.4,0.2,6.2-1,9.2,0.1c0.8,0.3,0.8,0.4,6.1,4.1c4.2,3,4.4,3,4.8,3.6
	c1.4,1.9,1.2,3.8,1.2,9.7c-0.1,9.2,0.3,9-0.2,10.4c-0.8,2.2-2.5,4.6-10.8,8.9c-10.7,5.6-16.2,8.4-24.2,8.4c-6.1,0-10.9-1.7-16.6-3.6
	c-6.5-2.2-6.1-3.1-13.5-5.5c-3.3-1.1-4.8-1.3-6.3-2.9c-2.5-2.6-2.4-6.1-2.4-11.1C453.6,418.7,453.3,414.2,452.6,405.1z M470.1,576.4
	c-0.2,1.7,0,2.3-0.3,2.4c-0.7,0.3-2.5-2-3-2.8c-1.2-1.7-1.9-3.1-2.1-3.7c-0.2-0.5-0.8-2.1-1.1-4.2c-0.2-1.3-0.3-3.5,0.1-3.6
	c0.3-0.1,0.6,1.3,1.8,3.1c0.8,1.1,1.6,1.9,2.6,2.8c1.8,1.7,2.3,1.8,2.5,2.6C470.8,574,470.3,574.2,470.1,576.4z M471.3,569.6
	c-0.4,0.1-1.6-1.4-4.1-4.5c-2.9-3.6-3.4-4.5-3.8-5.3c-0.2-0.4-0.7-1.5-1.5-5.4c-0.6-3.1-0.8-4.7-1.5-10.2c-0.8-5.9-0.9-5.9-0.7-6.5
	c1.4-4.2,7.3-6,11.2-7.2c1.9-0.6,3.5-0.9,4.7-1.1c-1.9,4.9-4.1,11.9-4.4,20.5C470.8,560,473,569.1,471.3,569.6z M475.2,580
	c1.4,2.4,2.2,3.6,3.1,4.6c1.5,1.6,2.6,2.1,2.4,2.4c-0.2,0.4-2.5-0.1-4.4-1.1c-1.2-0.6-2.7-1.4-3.5-3.1c-0.5-1-0.5-1.9-0.6-3.3
	c0-0.9-0.1-2.9,0.4-3.1C473.1,576.2,473.6,577.2,475.2,580z M487.5,595.1c2.4,3.9,2.9,4.7,3.9,6.2c1.5,2.2,2.6,3.4,3.3,4.3
	c3.4,4.3,3.2,7.7,6.9,20.4c1.7,5.9,2.8,8.7,2.2,9c-0.6,0.3-2.4-2-5.6-5.9c-2.2-2.7-4.9-5.8-10.2-11.8c-7.8-8.9-9.7-10.2-11.3-14.7
	c-0.6-1.6-0.4-1.5-1.8-6c-2.1-6.8-3.5-10-2.8-10.5c0.7-0.4,1.8,1.8,5.2,2.9c3.1,1,4.2-0.3,6.3,0.9
	C484.4,590.2,484.7,590.6,487.5,595.1z M484.5,528.2c1,0.1,3.1,0.4,5.8,2.2c4.3,2.9,6.9,7.4,9,12.1c5.3,11.6,3.3,13.4,7.7,19.5
	c3.5,4.8,5.3,7.2,7.3,8.6c1.6,1.1,3.9,2.2,4.3,4.4c0.3,1.5-0.1,3.5-0.3,3.9c-0.2,0.9-0.4,1.5-0.8,1.9c-1.2,1.4-3.9,1-4.7,0.9
	c-3-0.4-6.5-0.2-13.3,0.3c-9.1,0.6-11.5,5-15.7,2.8c-1.2-0.6-2.5-2.2-5-5.5c-2.1-2.7-3.4-4.4-4.1-6.9c-0.5-1.9-0.6-3.6-0.6-5.8
	c0-2.9,0.3-5,0.4-5.7c0.9-6.1,0.4-9.3,1-15.7c0.3-3.8,1.1-9.2,3-15.8C479.7,528.9,481.8,528,484.5,528.2z M476.9,488.9
	c4,4.9,4.8,4.9,6.7,7.9c1.3,2.1,2.4,3.9,2.8,6.5c0.4,2.8-0.3,5-1.1,7.5c-0.8,2.5-1.2,2.6-4.3,8.8c-2.2,4.4-2.3,5.1-3.4,6
	c-2.1,1.8-4.2,1.7-7.1,2.3c-2.8,0.6-6.6,1.8-11,4.9c-0.3-1.6-0.8-3.9-1.8-6.6c-1.9-5.2-2.8-4.9-3.2-7.4c0,0,0-0.2,0-0.4
	c-0.3-5.5,3.6-13.1,3.6-13.1c1.7-3.2,2.2-3.8,6.6-11.1c4.7-7.8,6-10.1,7.8-10C473.6,484.3,473.8,485.1,476.9,488.9z M458.5,468.5
	c0.5-0.3,3.3,2.9,8.7,9.4c0.6,0.7,1.6,1.9,1.6,3.6c0,0.3-0.1,1.1-1.2,2.9c-1.4,2.3-2.4,4-3.4,3.9c-1.1-0.1-1.8-2.2-3.3-7.9
	C458.8,472.7,457.8,468.9,458.5,468.5z M626,407.4c0.8,3,2.1,6,3,9c3.3,10.7,4.2,10.9,4.7,15.3c0.4,3.8,0.6,6-0.4,8.8
	c-1.8,4.8-6.2,7.2-12.3,10.8c-3.4,1.9-6,3-9.5,4.4c-10.5,4.2-11.9,3.2-16.9,6c-6.7,3.7-10.4,9-12.2,11.6c-3.1,4.5-4.4,8.4-6.6,15
	c-0.8,2.3-2,6.6-4.6,17.8c-3.4,14.5-4,22-7,22.3c-1,0.1-2.7-1.3-6.3-4.1c-1.8-1.5-2.9-2.5-4-3.4c0,0-3.2-2.8-8.6-6.3
	c-5.7-3.7-9.1-2.3-19.6-5.7c-1.2-0.4-15-5-22.4-12.8c-0.3-0.4-1.1-1.3-2.7-2.8c-2.8-2.8-6.9-6.7-8.7-8.7c-1.6-1.7-3-3.1-5.2-4.3
	c-0.5-0.2-2.1-1.1-4.3-1.5c-1.8-0.3-3.3-0.7-5.2-0.2c-1.5,0.4-2.2,0.9-3.3,0.6c-1-0.3-1.8-1-2-1.2c-0.6-0.5-0.9-1-1-1.2
	c-1.3-2-4.9-4.9-9.8-9.9c-0.6-0.6-1.5-1.6-2.7-2.8c3.1-5.7,3.3-10,2.8-13c-1-6-5.4-10.9-4.4-11.7c0.3-0.3,1,0.2,2.6,0.9
	c2.8,1.3,3.3,1.2,6.9,2.6c6.6,2.6,9.6,4.9,14.3,6.4c6.8,2.2,12.6,1.4,17.4,0.8c1.4-0.2,8.6-1.2,16.7-5.3c6-3,9.1-4.5,11.4-7.6
	c1.4-1.9,2.6-4.1,4.1-3.9c1.5,0.2,1.8,2.5,4.1,4.8c1.8,1.8,3.8,2.7,5.3,3.2c2.6,1.1,4.9,1.5,6.5,1.7c1.5,0.2,3.7,0.4,6.4-0.3
	c1.4-0.3,2.6-0.8,3.4-1.2c5.2-2.8,9.3-5.4,12.1-7.4c6.1-4.3,7.4-4.8,7.7-4.5c0.3,0.3-0.6,1.2-1.3,2.7c-1.8,3.4-1.5,6.8-1.1,11.1
	c0.2,2.5,0.5,5.4,1.9,8.9c1,2.6,2.4,5.9,5.7,8c2.7,1.8,6.1,2.4,6.6,1.6c0.4-0.6-1.3-1.9-4.4-5.6c-2.1-2.5-3.1-3.8-3.9-5.3
	c-1.7-3.2-1.8-6.3-1.9-12.3c0-2.2-0.1-8,0.7-8.1c0.7-0.1,0.7,4.3,3.2,8.9c3.2,6,9.8,11.1,16.7,10.9c3.8-0.1,6.9-1.7,6.9-2.4
	c-0.1-0.8-5.8,0.8-11.6-2.1c-3.3-1.6-5.2-4-6.3-5.4c-1.4-1.8-2.5-4.3-4.8-9.3c-0.9-2-1.2-2.9-1-4c0.4-2.1,2.2-3.3,4.4-4.8
	c5-3.6,8-5.8,8.8-8.6c1.2-4.2-4.6-6.6-3.4-10.6c0.5-1.7,3-3.2,7.9-6c3.7-2.1,5.6-3.2,7.8-3.2c2.4,0,2,1,7.1,2.4
	c3.7,1,5.3,0.9,7.5,2.6c1.3,1,2.2,2,2.5,2.5C625.3,404.8,626,407.4,626,407.4z M624.9,395.1c-1.7-0.1-2,0.1-2.5-0.1
	c-1-0.4-1.2-1.3-1.9-2.6c-1.6-2.7-3.9-3.7-3.8-3.9c0-0.1,0.4,0,7,4.3c1.4,0.9,3,2,2.9,2.3C626.5,395.3,626.1,395.2,624.9,395.1z"/>
<path class="st0" d="M461.1,317.8c-0.3,1.4-0.9,2.4-1.6,2.5c-0.3,0-0.7-0.1-0.7-0.1c-0.1,0-0.2-0.1-0.3-0.1c0-0.3,0-0.7,0.3-1.1
	c0.2-0.3,0.4-0.4,0.7-0.6c0.2-0.1,0.5-0.3,0.9-0.5C460.7,317.8,460.9,317.8,461.1,317.8z"/>
<path class="st2" d="M378.4,516.3"/>
<path class="st2" d="M468.4,546.5"/>
<path class="st2" d="M508.1,521.5"/>
<path class="st2" d="M487.1,354.1"/>
</svg>
