<?xml version="1.0" encoding="utf-8"?>
<!-- Generator: Adobe Illustrator 22.1.0, SVG Export Plug-In . SVG Version: 6.00 Build 0)  -->
<svg version="1.1" id="Layer_1" xmlns="http://www.w3.org/2000/svg" xmlns:xlink="http://www.w3.org/1999/xlink" x="0px" y="0px"
	 viewBox="0 0 591 591" style="enable-background:new 0 0 591 591;" xml:space="preserve">
<style type="text/css">
	.st0{opacity:0.6;}
</style>
<path class="st0" d="M588.9,219.1c-3.2-11.9-9.8-19.8-13.3-23.8c-1.6-1.9-6.5-6.2-16.1-14.8c-8.6-7.6-10.2-8.8-12.4-10
	c-6.4-3.6-12.2-4.7-18.8-6c-4.2-0.8-10.1-1.9-17.5-1.8c-2.9,0.1-14.3,0.5-27.5,6.3c-16,7-25.4,17.7-32.3,25.5
	c-4.9,5.6-9.8,12.4-12.9,17.3c-3.6,5.8-5.4,8.6-5.8,9.8c-0.6,2-1,4-2.6,4.8c-1.7,0.8-3.6-0.2-5.1-1c-3.9-2-8.1-3.2-11.8-5.5
	c-5.5-3.4-10.3-4.8-17-6.9c-9.8-3-18.2-3.3-22.8-3.3c-8.2,0.1-14.6,0.1-21.5,3.9c-5,2.7-7.6,5.9-12.6,12c-4.1,5-10.1,12.5-14.1,23.9
	c-2.3,6.5-2.8,12.1-4,23.3c-1.6,15.3-0.1,20.4,1.4,23.9c1.2,2.8,2.8,4.8,6,9c3.4,4.3,9.4,12.1,19.6,18.4c4.6,2.9,6.9,4.3,10.6,5.3
	c4.6,1.2,8.1,0.7,8.8,2.4c0.3,0.9-0.3,2.1-3.3,5.4c-5.1,5.6-7.9,7.7-7.9,7.8c-12.5,9.5-22.6,14.6-22.6,14.6
	c-5.8,3-10.7,5.5-17.8,7.8c-11.3,3.7-20.5,4.3-26.3,4.6c-13.2,0.8-23.6-0.8-28.3-1.6c-9.8-1.8-10.4-3.2-31.4-10.1
	c-19.4-6.4-21.7-6.1-34.3-11c-11-4.3-12.8-6-21.9-9.9c-15.4-6.6-27.4-9.2-45.8-13.1c-27.6-5.9-41.5-8.8-54.1-6.9
	c-8.1,1.2-25.5,4.2-39.1,17.8c-5.5,5.5-8.7,11-13.4,19.3c-8.4,14.6-5.2,15.4-13.8,30.9c-4.3,7.9-7.8,12.4-7.3,19.5
	c0.1,1.4,0.6,8.6,5.4,11c3.8,1.9,8.3-0.2,9.6-0.8c10.6-4.9,10.1-18,19.6-37.6c5.8-12,10.7-22.1,21.4-28.4c10.9-6.4,22.4-5.7,33-5
	c9,0.6,9.5,1.9,34.4,7.9c23.4,5.6,25.2,4.9,34,8.6c10.3,4.4,10.3,6.3,24,12.9c7.8,3.7,11.1,4.7,28.3,11c31.6,11.7,29.8,12,40.3,15
	c14.1,4.1,23.5,6.8,36.5,7c19.1,0.3,33.5-4.9,42.6-8.4c18.5-6.9,31.1-16.4,40.8-23.6c5.7-4.3,9.6-7.2,14.3-12.1
	c9.3-9.9,15-17.6,15-17.6c3-4.1,5.3-7.7,9.9-9.1c2.3-0.7,2.9-0.2,8-0.3c8-0.2,13.3-0.3,16-3.5c1.2-1.5,1.3-4.1,1.5-9.4
	c0.2-5.9,0.3-10.4-2.5-14.1c-1.4-1.8-3.3-1.7-3.6-3.2c-0.4-1.9,1.7-3.5,3.7-5.7c3.4-3.7,4.8-7.5,7.6-14.9c2.5-6.5,2.5-9.7,4.8-10.3
	c1.6-0.4,3,1,5.6,2.9c1.8,1.3,5.6,3.2,13.3,7c2.4,1.2,4,1.9,5.4,2.4c2.5,1,3.2,0.9,5.1,1.9c0.4,0.2,0.9,0.4,4.7,2.7
	c4,2.4,3.8,2.4,4.8,2.9c1.9,1,2.3,1.1,5.3,2.6c1.7,0.9,2.9,1.5,3.2,1.7c8.5,3.9,16,4.6,19.4,4.9c8,0.6,13.6-0.6,23-2.6
	c10.7-2.3,18.3-3.9,26.4-9.4c4.5-3,8.2-6.7,9.9-8.3c5.2-5,7.7-8.7,8.6-9.9c1.6-2.3,2.5-4.2,2.8-4.9c1.4-2.8,2.2-5.2,2.9-7.6
	c1.6-5.3,2.8-10.5,3.7-14.9C590.4,237.6,591.6,229.4,588.9,219.1z M409.5,270.6c-4.2,7.7-8,14.4-11.3,20c-5.5,9.4-7,11.7-10.1,12.9
	c-5.4,2-10.8-0.9-19.5-5.4c-8.7-4.5-13.1-6.8-15.6-11.6c-4.5-8.5-0.8-18,1.9-24.8c2.1-5.4,5.4-13.8,12.5-15.8
	c2.7-0.7,5.3-0.3,10.1,0.5c3.9,0.7,6.6,1.6,11.9,3.5c10.7,3.8,7,3.7,17.1,7.6c3.1,1.2,4.8,2,5.6,3.9
	C413.6,264.9,410.6,269.2,409.5,270.6z M543.6,248c-3.8,5.3-8.5,8-11.1,9.3c-0.7,0.3-3.1,1.4-6.3,2.1c-13.6,3-28.1-3.5-32.9-5.8
	c-8.5-3.9-7.7-5.4-15-8c-8.4-3-13.4-2.5-14.6-5.5c-1.2-2.9,2-6.8,7.9-12.9c14.6-15.1,21.9-22.6,28.8-24.1
	c15.6-3.4,29.3,7.3,32.5,9.9c2.2,1.8,5.2,4.5,8.5,8.3c4.4,5,6.5,7.5,7.3,11.1C550,239.1,545.8,245,543.6,248z"/>
</svg>
