<?xml version="1.0" encoding="utf-8"?>
<!-- Generator: Adobe Illustrator 22.1.0, SVG Export Plug-In . SVG Version: 6.00 Build 0)  -->
<svg version="1.1" id="Layer_1" xmlns="http://www.w3.org/2000/svg" xmlns:xlink="http://www.w3.org/1999/xlink" x="0px" y="0px"
	 viewBox="0 0 540 540" style="enable-background:new 0 0 540 540;" xml:space="preserve">
<style type="text/css">
	.st0{opacity:0.36;}
</style>
<path class="st0" d="M533.3,170.3c1.4-8.5-12.1-16.4-14.6-17.9c-11.7-6.8-23.8-5.9-29.3-5.1c1.6-3.9,3.5-9.6,4-16.7
	c0.7-9.3-1.2-16.8-2.7-21.3c1.4-0.1,7-0.5,13.7-2.9c5.3-1.9,15-5.6,19.7-15.1c0.9-1.8,4.8-9.9,1.1-15.5c-3.3-5-10.8-5.1-15.1-5.2
	c-14.7-0.2-26,8.5-31.3,13.3c-1.3-2.8-4.1-7.7-9.3-12c-6-5-12.2-6.7-15.3-7.3c1.5-5.1,7.4-25.7,1.4-37.8c-0.9-1.8-2.6-5.4-6.2-6.4
	c-4.2-1.2-8.5,2-10.5,3.5c-11.5,8.7-12.6,28.8-12.8,34c-2.8-0.7-10.2-2-18.7,1.3c-6.8,2.7-10.8,7.1-12.7,9.3
	c-0.2-2.3-1.2-12.1-9.3-19.3c-7.5-6.6-19.9-10.3-24.7-6c-8.9,7.9,10,41.2,12,44.7c-4.9,8.9-10.8,18.6-18,28.7
	c-8.4,11.7-16.8,21.7-24.7,30c-7.6,8.1-18.4,17.7-24.7,14.7c-3.5-1.6-5.1-6.9-5.3-7.8c-1.4-4.4-0.4-8.3,0-10.3
	c1.6-7.7,1.1-14,0-25.5c-0.8-8.4-1.4-15.1-5.3-22.5c-4.2-7.9-10.2-12.7-14-15.3c3.8-2.3,15.3-10,21.3-25.3
	c5.8-14.7-16.2-28.7-28-17.3c-9.9,9.6-13.4,20.5-14.7,25.3c-8-3.1-16-6.2-24-9.3c3.8-7.2,10.7-23.1,5.5-39.5
	C239.6,10,238,5.2,234,3.6c-7.7-3-20.9,6.7-24.7,17c-4.9,13.3-3.6,24.9-2.7,30c-4.8-0.9-12.1-1.5-20.7,0c-6.1,1.1-11,3-14.7,4.7
	c-8.4-11.5-31.2-41.4-42.6-36.5c-7.2,3.1-9.4,20-4.1,32.5c6.2,14.6,20.7,18.8,22.7,19.3c-1.6,1.5-7.1,7.1-8,16
	c-0.6,5.8,1,10.4,2,12.7c-26.1-3-45.4-0.2-48.2,8.1c-0.5,1.7-0.6,4,1.1,7.4c4.6,3.3,15,9.8,29.8,11.2c11.6,1.1,20.9-1.5,26-3.3
	c5.7,8,12.5,16.6,20.7,25.3c11.8,12.7,47.4,48.2,52.1,54.6c9.5,13,12.2,17.1,10.6,20.8c-2,4.5-9.9,6.9-15.3,4.7
	c-6-2.5-6-9.4-12-23.3c-4.1-9.6-7.8-18.1-15.4-25.8c-3.2-3.2-14.3-14.4-29.4-13.6c-4.2,0.2-7.6,1.2-9.8,2.1c-3.3-6-7.2-9.7-9.8-11.8
	c-2.6-2.1-8.7-6.9-11.9-4.9c-2.5,1.6-2.3,6.8-2.3,7.4c0,0.6,0.1,2,0.6,3.6c0.4,1.1,1.2,2.4,3,4.8c1.1,1.5,3,3.6,5.8,5.7
	c-2.4,1.8-5.7,4.9-8.7,9.5c-2.6,4-3.9,7.8-4.7,10.5c-4-2.5-17-9.9-26.5-5.6c-1.3,0.6-5.1,2.3-5.4,5.1c-0.2,1.9,1.4,3.7,4.5,5.9
	c3.5,2.5,10.8,6.6,24,8.7c-0.9,2.4-2.2,7.3-1.3,13.3c0.7,4.9,2.6,8.6,3.8,10.7c-3.3,0.3-14.3,1.9-19.2,9.9c-0.8,1.3-1.9,3.2-1.3,5.1
	c1.3,4.2,10.5,5.2,16.7,4.3c5.5-0.9,9.6-3.5,12-5.3c3,3.6,7.8,8.4,14.7,12.7c8,4.9,15.5,7.1,20.4,8c0.4,0.1,7.3,2.7,8.9,10
	c1.1,5.1-0.9,10.5-5.2,13.8c-5.2-3-23.1-12.5-46.8-9.1c-23.4,3.3-37.7,17-42,21.3c-3.6-2.9-9.3-6.8-16.9-9.7
	c-12.6-4.8-30.6-6.7-33.1-1.1c-2.8,6.1,13.9,19.2,16.5,21.3c7.5,5.9,14.8,9.3,19.6,11.1c-1.9,3.6-4.5,9.5-5.4,17.1
	c-0.9,7-0.1,12.8,0.7,16.7c-2.1-0.3-36.5-4.2-50.7,17.3c-1.9,2.9-6.8,10.4-4.1,15c5.1,8.7,34.2,1.4,61.6-7.8
	c0.6,2.7,1.9,6.6,4.4,10.6c3.4,5.4,7.5,8.7,10.1,10.4c-9.1,4.7-23,13.9-28.5,29.4c-1.3,3.6-3.9,10.9-0.5,14.7
	c4.5,5,16.6,0.5,19.5-0.6c14.8-5.5,23.2-18.2,27.5-26.1c3.2,2.3,7.6,4.9,13.3,7c8.1,2.9,15.3,3.4,20,3.3c-1,4.3-2.2,11.5-0.3,19.9
	c1.7,7.7,6.9,20.2,12.8,20c6.2-0.2,10.2-14.7,11.4-19c2.7-9.7,2.2-18.2,1.5-23.5c5,0,13.4-0.6,22.7-4.7c7-3.1,12.1-7,15.3-10
	c2,6.8,7,19.7,19.3,27.3c2.6,1.6,14.3,8.9,20.7,4.3c4.3-3.1,4.1-10.2,4-12.3c-0.6-17.8-21.8-29.5-25.3-31.3
	c6.5-9,19.3-24.2,40.7-34.7c10.8-5.3,20.8-7.9,28.7-9.3c2.8-0.2,7.8,0,11.3,3.3c3.2,3,3.6,7.1,4,10.7c0.7,6.1,1.8,14.7,3.8,26.3
	c-0.1,7.2,0.3,15.7,1.8,25.2c1.4,9.1,3.4,17,5.6,23.7c0.9,4.2,2.5,9.6,5.5,15.5c4.6,9,10.5,15.1,14.7,18.7
	c-7.5,3.5-24.8,12.9-28.7,28.7c-0.6,2.5-2,8.1,0.9,11.1c3.8,3.8,12.5,0.6,16.3-0.8c6.1-2.3,18.1-8.2,28.8-25.2
	c2.5,1.7,5.4,3.4,8.7,5c6.3,3,12.1,4.8,16.9,5.8c-3.3,9.1-3.7,16.6-3.5,21.5c0.2,5,0.5,13,4.3,14.4c4,1.4,9.6-5.2,11.8-7.7
	c3.2-3.8,8.6-11.5,10.3-24.7c3.5,0.5,8.5,0.9,14.4,0c6.8-1.1,12.1-3.5,15.3-5.3c0.9,4.5,3.3,12.4,10,19.1c2,2,8.2,8.1,11.9,6.4
	c4-1.9,3.5-12.2,0.9-19.3c-2.4-6.5-6.7-10.7-9.4-12.9c2-0.9,5.2-2.6,8-6c4.5-5.3,5.2-11.2,5.3-13.3c2.2,1.9,13.2,11.3,24.7,8.2
	c1.3-0.4,8.2-2.2,9.1-6.7c0.9-4.2-3.7-8.2-5.8-10.1c-9.6-8.5-23.1-8.5-30-8c-0.6-2-1.3-4-2-6c-1.3-3.7-2.6-7.3-4-10.7
	c5.7-1,11.8-2.3,18.3-4.2c4.1-1.2,8-2.5,11.7-3.8c11.2-7.2,11.5-11,11.1-12.6c-1.3-5.6-16.8-7.5-28.4-5.4c-5.1,0.9-9.5,2.8-10.2,3
	c-4.2,1.8-7.5,3.9-9.8,5.7c-11.7-13.8-21-26.1-27.3-36c-9.4-14.7-16.3-28.6-21.3-40.7c-1.2-2.7-4.2-8-3.3-14.7
	c0.7-5.7,3.7-9.8,5.7-12.2c2.3-1.8,7.2-5.2,14.3-6.5c7.3-1.3,13.1,0.1,15.9,1c4,11.6,10.3,17.9,14.1,21c3.3,2.7,9.2,7.5,13.5,5.5
	c3.9-1.8,4.3-8,4.5-10.2c0.7-9.2-5.2-16.3-7.3-18.7c2.7-0.8,5.8-1.8,9.1-3.3c3.4-1.5,6.4-3.2,8.9-4.7c3.1,2.9,10.3,8.7,20,8.7
	c2.4,0,10.7,0,12.8-4.7c1.8-4.1-2.1-9.1-2.8-10c-5.6-7.2-15.8-6.8-17.3-6.7c1.4-1.2,4.6-4.2,6-9.3c1.9-6.7-0.6-12.3-1.3-13.7
	c6-0.9,16.9-3.5,24-12.3c1.8-2.2,4.7-5.9,3.7-9.3c-1.5-4.9-10.2-6.2-15-6c-9.3,0.3-15.7,6.3-18,8.7c-0.8-2.1-2.1-5.2-4.8-8.4
	c-3.1-3.7-6.5-5.8-8.6-7c1.6-1,13.8-8.7,14-21.3c0-1.2,0.1-9.7-4.9-12.5c-5.9-3.2-15.2,3.5-19.8,9.1c-4.5,5.6-5.7,11.7-6,14.7
	c-6.5,0-16.2-0.2-28-1.3c-17.2-1.7-29-2.8-29.9-7.4c-1.3-6.1,18-15.7,21.2-17.3c4-2,7.4-3.3,10.1-4.2c6.9-2.3,11.8-2.8,20.6-5.7
	c7.7-2.6,18.4-7.6,30-18.8c6,4.4,23.3,15.8,42.7,11.3C517.3,182,531.9,178.7,533.3,170.3z M128.5,364c-8.7,6.1-20.6,4-27.8-1.5
	c-3.6-2.7-5.6-5.9-6.7-8c-0.6-1.5-1.3-3.8-1.4-6.6c-0.1-1.5-0.2-7.7,4-13c4.5-5.8,11.2-6.8,13.4-7.1c9.4-1.5,19.2,3.1,24.3,10.6
	C140.4,347.4,137,358.1,128.5,364z M197.2,233.1c-1.4,3.9-4.5,6-6.6,7.4c-1.6,1-8.4,5.6-16.7,3.2c-1-0.3-9.2-2.9-11.6-10.5
	c-1.4-4.6,0-9,0.3-10.1c0.3-0.9,0.9-2.7,2.3-4.5c3.2-4.2,8.2-5.1,10.3-5.5c2.7-0.5,10.4-2,16.5,3.2
	C196.4,220.2,199.4,227.2,197.2,233.1z M224.3,318.9c-0.2,0.3-0.7,1-2.4,2.5c-0.7,0.6-1.8,1.5-3.1,2.4c-1.6,0.7-4.2,1.6-7.4,1.4
	c-2.1-0.1-5-0.2-7.4-2.3c-2.4-2.1-2.9-5-3.1-6c-0.6-3.9,1.1-7,1.9-8.1c2.7-4,6.9-4.9,7.8-5.1c1.2-0.4,4.8-1.3,8.8,0.4
	c0.7,0.3,5.9,2.6,6.6,7.1c0.3,2-0.3,4.1-0.5,5.1C225,317.8,224.5,318.7,224.3,318.9z M258.9,154c-5,0.3-11.3-2.4-14.3-8
	c-1.9-3.6-1.7-7.1-1.5-8.9c-0.1-1.8,0.1-5.9,2.8-9.6c3.8-5.2,11.2-7.4,18.6-5.4c0.6,0.2,8.7,3.5,10.6,12c1.2,5.5-0.5,11.5-4.2,14.9
	c-2,1.8-4.6,2.9-5.7,3.3C264,152.9,261.6,153.9,258.9,154z M259.4,221.6c-5.6-2.9-7.6-9.5-6.3-14.3c0.9-3.3,3.4-5.6,3.7-5.9
	c1.7-1.5,3.4-2.2,4.4-2.6c1.1-0.4,3.4-1,6.1-0.4c0.4,0.1,1.7,0.4,3.1,1.2c3.3,1.8,7,5.9,6.9,11.1c0,1.8-0.4,3.6-1.2,5.4
	C273.8,221.1,266,225,259.4,221.6z M298.6,307.7c-0.8,0.8-5.8,4-8,4.7c-3.2,1-6.2,0.9-8.2,0.6c-0.7,0-7.9-0.5-11.5-5.3
	c-1.7-2.3-2.5-5.2-2.5-5.2l0,0c-0.5-2.1-0.9-4.8-1.1-8.2c0.7-5.9,3.1-10.6,5.8-12.8c1.8-1.4,4-2.4,4-2.4c0.4-0.2,1.8-0.8,3.9-1.3
	c1.1-0.3,3.5-0.8,6.6-0.5c1.8,0.2,4.6,0.4,7.5,2.2c1.1,0.7,2.7,1.9,4.1,3.8c0.4,0.6,1.4,2.1,2.3,5c0.9,2.9,2.3,7.2,0.8,12.3
	C301.9,302.3,300.9,304.9,298.6,307.7z M322.6,227.8c-3.7-4.6-3.5-9.8-3.4-11.6c0.3-7.4,5.1-12.1,6.3-13.2c2.6-3,5.3-4.1,6.7-4.6
	c1.9-0.6,3.7-0.7,6.7-0.8c1.7-0.1,2.6-0.1,3.8,0.1c0.5,0.1,2.9,0.5,5.5,2.1c1.1,0.7,1.9,1.4,2.3,1.8c1.1,1,1.8,2,2.3,2.8
	c1,1.6,3.2,5.5,3.1,10.9c-0.1,7.4-4.4,12.2-5.5,13.4c-1.2,1-7.6,6.3-16.3,5.1C332.2,233.5,326.5,232.7,322.6,227.8z M333.8,286
	c0.3-1.5,2-8.8,9.1-12.5c5.2-2.7,10.3-1.7,11.8-1.4c1.8,0.3,4.4,1.1,7,3c2.8,2,4.2,4.4,4.6,5.2c1.6,2.9,1.1,9.8,0.2,11.7
	c-1.2,2.6-3.1,6.9-7.1,9.7c-1.1,0.8-8.1,5.4-16,2.5c-1.6-0.6-6-2.5-8.5-7.3C332.6,292.3,333.5,287.8,333.8,286z M372.1,381.9
	c-1.9,5.3-6.5,7.7-8.2,8.6c-6.4,3.3-12.5,1.9-13.9,1.5c-1.2-0.3-8.7-2.3-11.9-9.3c-1.7-3.7-1.5-7.2-1.4-8.3c0.3-2.8,1.2-5,1.9-6.2
	c0.5-1.1,3.1-6.5,9.3-8.6c3.8-1.3,7.1-0.8,8.7-0.5c1.3,0.2,9.2,1.8,13.5,9.1C371,369.7,374.4,375.5,372.1,381.9z M394.5,437.1
	c2-0.5,8.5-2.1,14.3,1.8c6,4.1,6.7,11.1,6.8,12.5c0.6,6.1-1.8,14-7.9,16.8c-2,0.9-4.3,1.2-7,0.7c-7.7-1.3-14.5-6.9-16.6-13.9
	c-0.4-1.4-0.6-2.5-0.6-3.3c-0.1-0.9-0.1-2.1,0.2-3.6c0.2-1.3,1-4.7,3.9-7.4C390,438.3,392.8,437.5,394.5,437.1z M407,273.8
	c2.6-5.6,8.5-9.9,15.2-9.7c6.3,0.2,10.3,4.3,10.9,5c6.1,6.5,3.6,15.4,3.4,16.3c-0.4,1.3-2.9,9.4-11.1,11.7c-8,2.2-14.2-3.1-14.6-3.5
	C405.2,288.6,404,280.2,407,273.8z M436.7,154.9c-1.4,1-5.6,3.5-11.3,3c-6.5-0.5-11.5-4.8-13.8-9c-1.2-2.3-1.6-4.3-1.7-4.8
	c-0.6-3.7,0.5-6.7,1.1-8.1c0.9-1.6,3-4.6,6.6-6.3c0.4-0.2,1.8-0.8,4.6-1.2c4.1-0.6,8.5-1.3,12.8,1c5.2,2.6,7.1,7.9,7.6,9.5
	c0.4,1.3,1.1,4,0.3,7.3C441.7,151.6,437.7,154.3,436.7,154.9z"/>
<path d="M455,215.5"/>
<path d="M-383.9-49.4"/>
</svg>
