<?xml version="1.0" encoding="utf-8"?>
<!-- Generator: Adobe Illustrator 22.1.0, SVG Export Plug-In . SVG Version: 6.00 Build 0)  -->
<svg version="1.1" id="Layer_1" xmlns="http://www.w3.org/2000/svg" xmlns:xlink="http://www.w3.org/1999/xlink" x="0px" y="0px"
	 viewBox="0 0 555 555" style="enable-background:new 0 0 555 555;" xml:space="preserve">
<path d="M94.5,158.8c2.3,4,8.6,13.6,55.3,30.2c38.9,13.9,43.9,10.6,45.7,8.2c1-1.3,2.7-4.3-2.9-24.4c-5.9-20.7-9.8-24.9-20.6-52.2
	c-6.1-15.4-6.7-18.9-11.4-22.4c-10.5-7.9-20.9-0.6-27.6-7.9c-6.8-7.3-6.4-25.7,4.1-36.1c10.1-10.1,26.5-9.5,33.9-2
	c5.8,5.8,3.2,12.8,5.3,26.7c2.3,15.4,10.9,28.5,28.1,54.7c21.1,32.1,28.1,33.4,31.5,33.5c12.3,0.5,21.5-12.7,22.4-14.1
	c6.3-9.3,3.6-15.1,4.4-52.2c0.6-27.6,2.3-34.3-2.9-44.4c-4.9-9.5-10.1-10.9-10.6-18.2c-0.8-11.8,11.2-28.5,27.2-28.2
	c14.6,0.4,25.7,14.9,25.8,26.4c0.1,6.8-3.7,9.2-8.1,18c-7.5,15-7.1,29.2-6.6,49.1c0.5,20.5,4.8,35,8.1,45.9
	c3.9,12.9,5.9,19.4,9.9,21.2c10.3,4.7,25.8-12.7,49.8-39.6c26.8-30,28.9-40.8,29.5-44.8c2.5-16.2-4-24.7,2.2-32.6
	c7-8.8,24.6-10,36.1-0.8c10.5,8.4,15.2,25.1,9.9,34.6c-4.1,7.4-11.4,5.3-22.5,10.6c-22.8,11-31.5,39.3-41.3,70.7
	c-5.9,19-8.7,28.6-4.2,33.6c5,5.5,21.5-0.9,54.6-13.6c4.4-1.7,16.3-8.7,40.2-22.8c1.6-1,5.3-3.2,7.9-7.7c1.3-2.3,1.8-4.4,2.1-5.7
	c0.3-2.2,0.7-5.4,1.2-9.2c0.8-6,1.2-9.1,1.6-9.8c4.8-7.2,22.4-7.8,33.1,1.8c12.1,10.9,13,32.7,5,40.6c-6.3,6.2-14.1-1.3-29.8,0
	c-5.1,0.4-15.9,2.2-51.7,33.7c-25.8,22.6-38.6,34.1-36.5,42.4c2.8,10.9,24,14.2,37.2,16.2c11.4,1.8,9.5-0.5,41.7-0.1
	c18.8,0.2,23.3,1,30.9-2.4c12.2-5.4,12.8-12.8,21.4-13.9c11.7-1.5,29.5,9.7,30.4,27.7c0.7,13.6-8.6,26.8-18.8,28.8
	c-9.7,2-14.7-7.3-29.8-14.1c-13.9-6.4-25.7-5.8-44.1-4.9c-16.7,0.8-62.6,3.1-66.7,21.2c-2.7,12,14,25.8,37.6,45.2
	c18.3,15,28.9,23.8,44.8,25.1c16.9,1.4,25.1-6.8,32.9-0.4c7.9,6.5,10.1,23.6,2.6,35.7c-6.8,11.1-20.3,15.9-29.8,12.2
	c-10.1-3.9-8.4-14.8-19.2-29.1c-8.5-11.2-23-17.3-51.9-29.5c-24.1-10.1-36.2-15.1-41.6-10.6c-11,9.1-0.8,40.3,3.3,53
	c5.5,17,12.6,38.6,30.9,48.7c11.4,6.2,18.9,3.6,23.6,11.4c5.6,9.3,2.4,25.3-7,34.6c-9.6,9.4-25.3,11.3-33.5,4.3
	c-8-6.7-3.3-16.9-7-36.5c-6-31.5-26.8-51.6-44.9-69.1c-13.7-13.2-21.1-20.4-28.6-18.2c-13.1,3.9-16,33.1-18.2,56.3
	c-2.4,24.7-4.1,42.4,4.8,60.9c5.2,10.8,10.9,15.3,9.2,22.8c-2.4,10.9-18.2,17.9-31.3,16.9c-9.3-0.7-22.1-5.9-23.9-14.9
	c-1.2-6.1,3.6-8.8,9.2-22.4c4.8-11.7,6.2-21.5,7-27.1c0.8-5.7,1.7-15.3-1.1-36.1c-4.2-31.7-7-52.5-17.3-55.8
	c-6.4-2-13.1,3.7-21.1,10.4c-9,7.5-13.7,15-23.8,32.4c-15.2,26.1-22.8,39.2-24.2,45.3c-4.8,21.3,2.8,30.5-5,38.8
	c-8.2,8.7-27.2,12.4-38.1,0c-9.1-10.3-8-26.6-1.7-35.3c5.4-7.3,13.5-2.9,23.2-10.6c4.6-3.7,7.2-8,12.6-20.2
	c10.5-24,15.8-36,18.8-53.8c3.6-21.6,5.4-32.4,0.1-37.2c-9-8.2-24.1,11.5-70.9,25.9c-9.3,2.9-19.3,5.3-25.2,14.7
	c-7,11.2-1.5,22.1-8.3,26.5c-8.7,5.7-26.1-0.7-33.1-14.1c-5.9-11.3-4.5-27.6,3.3-33.5c6.1-4.7,12.5,2.7,26.5,1.8
	c10-0.7,17.1-4.9,24.6-9.5c20.6-12.5,55.4-44.1,48.2-62.9c-3.6-9.5-16.9-12.8-33.2-16.8c-5.3-1.3-15.3-1.9-35.3-3.2
	c-20.9-1.3-23.8-0.9-27.5,0.6c-13.7,5.5-14,17.2-23.2,17.7c-11.7,0.5-27.5-14.2-26.5-31.8c0.8-13.3,11.1-25.2,21.5-26.5
	c8.4-1,12.6,5.9,23.2,12.4c16.5,10,32.7,9.7,50.2,9.2c4.5-0.1,56.7-1.7,60.4-20.4c1.7-8.5-12-20.5-39.4-44.4
	c-17.3-15.1-26.2-22.7-36.8-25.5c-19.1-5.1-29.6,3-37.7-5.4c-7.4-7.6-8.7-24.8,0-35.3c10-12,27.7-8.9,36.4-1.8
	C90.9,141.8,88.5,148.3,94.5,158.8z"/>
</svg>
