<?xml version="1.0" encoding="utf-8"?>
<!-- Generator: Adobe Illustrator 22.1.0, SVG Export Plug-In . SVG Version: 6.00 Build 0)  -->
<svg version="1.1" id="Layer_1" xmlns="http://www.w3.org/2000/svg" xmlns:xlink="http://www.w3.org/1999/xlink" x="0px" y="0px"
	 viewBox="0 0 1280 1024" style="enable-background:new 0 0 1280 1024;" xml:space="preserve">
<path d="M293,119c4.3-9.2,17.8-12.7,27.5-12c17.6,1.3,28.2,17.3,32.5,23c6.1,8.1,9.1,20.4,16,44.5c1.7,6.1,9,32.1,18.5,33.5
	c1,0.1,4.1,0.3,5.5,2.5c1.6,2.4,0.2,6,0,6.5c-7.3,20.8,54.5,93,54.5,93s50.5,59,88.5,77.5c1.2,0.6,2.6,1.1,2.6,1.1
	c2.6,0.9,11.1,4,18.8-0.1c6.6-3.6,8.8-10.5,9.2-11.7c1.3-4.1,0.9-7.8,0.3-14.8c-0.6-7.2-1.9-11.7,0.2-13c0.5-0.3,0.9-0.2,3.8,0
	c5.6,0.4,6,0,7.5,0.3c3.9,1,4.5,5,7.2,7.7c7,7,24.9,0.9,34.7-4.5c7.3-4,15.4-10.6,14.2-13.7c-0.8-2-5.9-4-10-3
	c-1.1,0.3-2.3,0.8-3.2,0.2c-1.1-0.8-0.5-2.8-0.5-4.3c0-3.9-3.8-6.1-8-10.2c-2.6-2.6-8.6-8.5-9.8-15.8c-0.3-1.5-1.9-8.5,1.5-11
	c2.9-2.1,7.9,0.3,11.4,2.1c3.3,1.6,12.1,6,17.8,16.3c4.2,7.6,3.6,12.8,8.5,15c3.2,1.4,6.4,0.4,7,0.3c5.3-1.7,7.2-7.4,7.5-8.3
	c1.6-5.1-1.3-6.6-0.3-13.8c0.3-2.4,1-6.5,4.3-9.8c2.6-2.6,6.6-4.3,7.8-3.3c0.8,0.8-0.1,2.7-2.8,9.3c-4,10.3-3.9,11.2-3.5,11.5
	c1.3,1.1,6.9-2.6,11.3-7c7.4-7.5,6.2-12.2,12.3-20c2.3-2.9,8.5-11,19-13.3c6.8-1.5,17.2-0.9,22.8,5.8c1.1,1.3,1.9,2.7,2.8,5
	c3.9,10.3,2.1,20,1.3,27.3c-1.5,13.1-0.5,22.8,0.5,32.5c0.7,6.2,2.8,25.1,9.3,26.3c1,0.2,2.4,0,3.5-0.4c1.9-0.7,3.2-2.1,6.4-7.3
	c3.1-4.9,2.8-5.1,3.8-5.7c3.2-2.2,8-1.4,11.1,0.4c0.8,0.4,4.8,2.7,5.5,6.8c0.2,1.3,0,2.1-2.4,8.8c-2.6,7.2-2.7,7.3-2.8,8.1
	c-0.4,4.9,1.8,7.9,0.1,9.6c-0.7,0.7-1.5,0.7-3.2,0.8c-3.7,0.3-2.4,0.8-11.3,2.6c-8.6,1.8-8.3,1-9.5,1.9c-4.3,2.9-5.8,10.2-4.5,15.9
	c0.8,3.3,4.1,7.3,10.6,15c5.9,6.9,6.6,7.1,7.3,9.4c1.6,6.3-2.7,9.9,0,15.1c1.6,3,4.5,4.5,5.4,4.9c2.3,1.1,5.8,1.9,6.6,0.8
	c0.3-0.4,0.2-1-0.8-3c-2.3-4.8-3.8-5.4-3.9-7.3c-0.2-2.6,2.6-5.4,5.5-6.4c3.9-1.3,8.4,0.6,10,3.9c1.1,2.1,0.9,4.9,0,6.9
	c-0.8,1.9-2.2,2.8-1.9,3.4c0.4,0.8,3.4-0.2,3.9-0.4c18.8-6.3,32-15.6,32-15.6c23.7-16.7,22.7-12.9,43.3-26.1c2-1.3,5.4-3.5,10.3-4.3
	c2.6-0.4,3.9-0.1,9-0.3c0,0,5.1-0.1,9.8-0.6c3.3-0.4,5.7-1,19.3-6.3c8.6-3.3,12.9-5,16.6-6.6c10.3-4.5,10.2-5.2,14.4-6.3
	c3.7-1,10.6-2.2,18.8-0.4c5.5,1.2,12.8,2.9,14.9,8.3c2,5.1-1.7,10.8-3.5,13.5c-5.5,8.5-13.4,11.9-26,17.6c-14.7,6.7-22,10-26.9,12.5
	c-11.4,5.8-19.9,11.8-37.1,23.9c-23.9,16.8-20.2,16.1-26.8,19.1c-15.7,7.2-36.8,10.6-37.5,17.5c-0.1,0.5-0.1,2-0.1,2.8
	c0,0.4-0.2,7.1,0.1,9.8c0.8,5.9,7.1,10,9.8,11.8c5.5,3.6,10.5,4.1,19.1,5.1c6.8,0.8,12.3,0.6,17.3,0.4c4.8-0.2,7.6-0.3,11.5-0.9
	c10.6-1.6,16.7-4.8,18.3-2.6c0.6,0.9,0.1,2.3,0,2.5c-0.7,1.7-2.9,2.9-13.9,4.3c0,0-5.4,0.7-13.1,2.8c-1.4,0.4-3.5,1-4.1,2.6
	c-0.7,1.9,0.8,4,1.3,4.6c0.3,0.5,2.3,3.2,5.9,3.8c5.3,0.8,8.6-4.1,14-3.1c1,0.2,1.8,0.5,2.1,1.1c0.6,1-0.4,2.1-1.1,4.9
	c-0.6,2.3-1,3.7-0.4,4.6c0.8,1.1,2.7,0.9,6,0.6c8.1-0.6,5,0.1,9.1-0.5c6.8-1,11.5-2.4,19.8-4.3c11.4-2.6,16-2.9,18.4-0.4
	c0.8,0.9,1,1.7,2.5,2.9c3.2,2.6,6.1,1.9,6.9,3.5c0.7,1.5-1.5,3.2-3.5,6.5c-2.8,4.6-4.3,10.6-3.4,15.4c0.7,3.6,2.7,6.4,5.6,9.3
	c8,7.9,17.6,10.9,37.9,17.9c13.6,4.7,19.6,6.9,22.8,13c0.5,0.9,2.8,5.6,1.3,10.3c-1.1,3.4-4.3,6.9-15.6,10.4
	c-8.9,2.8-14.6,2.9-32.6,4.3c-11,0.8-18.7,1.5-28.3,4.8c-5.7,2-10.2,4.2-12.9,8.8c-2.4,4.1,0.3,9.4-2.3,11c-1.2,0.8-2.7,0.2-4-0.1
	c-2.7-0.7-7.7-0.1-17.9,1.1c-13.8,1.7-15.3,3.3-15.6,4.5c-0.2,0.8,0,1.4,0.3,2c2.2,6.1,14.7,5.5,14.9,8.6c0.1,1.3-1.9,2.4-2.9,2.8
	c-3,1.2-6.2-0.7-8.4-2c-4.6-2.8-4.2-4.8-7.8-6.3c-0.6-0.2-5.1-2-8.9,0.4c-1.9,1.2-4.1,3.8-3.6,6.3c0.4,2,2.3,3.2,4,4.1
	c10.4,5.7,15.9,4.1,27.8,7.8c1.6,0.5,4.4,1.4,5.6,0.1c0.9-1,0.8-3.1-0.1-4.3c-1.5-1.8-4.7-1.3-4.8-1.5c0-0.2,4.1-1,8.3-0.8
	c13.8,0.9,26.6,13,25,16.4c-0.4,0.8-1.7,1.2-5.6,1.1c-13.9-0.1-25.2-4.4-29.8-6.3c-12.7-5.1-20.3-9.8-23.9-6.6
	c-0.5,0.4-0.3,0.5-1.1,1.5c-3.5,4.5-8.9,6.7-12.4,7.3c-4.3,0.6-7.1-1.1-14.3-4.8c-13.3-6.8-20-10.2-25.8-11.3c-5.7-1-10.8-0.4-21,1
	c-11.5,1.5-15.8,3.7-18.6,5.8c-2,1.4-5,3.5-6.9,7c-2.8,5.2-2.3,11.8,2.6,23.9c8.9,21.7,15.1,18.7,19.6,33.9
	c3.4,11.4,2.8,22.9,11.3,27.1c0.5,0.2,1.1,0.5,2.3,0.9c14.9,5.3,22.8,2.4,25.6,6.6c1.6,2.4,0,4.7-0.8,9.6
	c-1.6,11.1,3.8,20.4,12.9,35.9c6.1,10.4,8.7,12.3,13.9,23.1c1.7,3.6,7.6,16,5,17.9c-0.8,0.6-2.1-0.1-5.4-1.8
	c-13.9-7-13.7-6.9-13.9-7c-11.8-8.3-7.8-20.7-23.3-33.9c-0.7-0.6-1.1-0.9-2.5-2c-46.7-36.5-45.2-36.3-50.6-39.1
	c-13.1-6.9-30.2-12.4-42.6-20.4c-2.9-1.8-5-3.5-6.3-4.5c-7.5-6.1-8.7-9.8-13.4-14.5c0,0-10.6-10.6-28.9-11.6c-3.2-0.2-6.4,0.1-9.4,2
	c-1,0.6-4,2.8-5,6.5c-0.2,0.7-0.3,1.4,0,6.3c0.4,6.7,0.8,7.9-0.1,8.8c-1.5,1.4-3.9-0.5-7.8-0.1c-4.2,0.4-7.1,3.2-9.3,5.3
	c-9.4,9.1-7,21-13.8,23c-1.2,0.4-1.7,0.1-4.6-0.3c-7.4-0.9-13.6,0.2-25.6,2.4c-16.6,3-18.3,5.1-19,6.3c-1.3,2.1-0.6,3-1.4,11.1
	c-0.9,8.8-1.3,13.1-3.5,16.6c-4.3,6.7-12.4,8.4-13.8,8.6c-1.4,0.3-11.4,2.1-18.9-4.6c-0.3-0.3-5.7-5.3-6.6-12.9
	c-0.2-1.9,0.1-1.9,0.5-11.6c0.3-6.4,0.3-8.7-0.6-9c-0.8-0.3-1.6,1.3-4.3,4c-2.7,2.8-4.7,4-5.8,4.9c-3.8,3.2-4.5,9.6-5.4,23.3
	c-1.1,17-0.8,18.7-2.5,23c-3,7.6-8.6,14.3-10,13.6c-0.8-0.4-0.2-3.1,0.3-5.4c1.9-9.7,1.6-19.7,2.6-29.5c2.4-22.9,1.5-20.1,2.3-23
	c2.6-10.6,6.5-16.6,4.1-25.3c-0.9-3.2-2.2-5.3-3.6-7.6c-6.2-9.9-12.2-10.1-22.8-19.5c-10.8-9.6-12.6-16.6-20.3-17
	c-3.2-0.2-5.8,0.9-8.5,2c-7.3,3-11.5,8.1-14.1,11.5c-4.5,5.7-3.1,6.4-7.8,12.8c-1.5,2.1-5.7,7.4-12.5,12.3c-2.7,1.9-11.7,8.3-14.4,6
	c-1.8-1.6-0.1-6.7,1.3-9.4c2-4,6-7.1,13.9-13c8.9-6.7,11.1-8.3,12.8-11.9c1.9-4,2.8-9.7,0.6-11.1c-1.3-0.9-3.5,0-7.1,2.1
	c-11.8,6.9-18.6,14.9-18.6,14.9c-6.3,7.3-4.3,7.1-11.5,16c-6.2,7.6-10.8,11.5-16.3,14.3c-3.2,1.6-9.1,4-10.3,2.5
	c-1.1-1.4,2.6-5.8,4.6-8.3c7.5-9,15-12.4,14.3-14.3c-0.1-0.2-0.6-1.2-6.5-0.5c-11.1,1.3-18.9,6-19.3,6.3c-9.9,6.1-15.6,13.6-19.3,18
	c-13.4,16.3-27.6,26.3-41.5,36.1c-20.8,14.7-23.1,10.8-31.6,20.8c-5.1,6-10.2,14.3-20.6,17.5c-2.3,0.7-5,0.9-10.4,1.4
	c-2.5,0.2-10.9,0.8-25.3-0.5c-9.7-0.9-14.6-1.4-16.5-3.4c-6-6.3-0.9-19.8,0.3-22.9c4.3-11.6,12.8-21.3,34.9-35.8
	c12.5-8.2,14.2-7.9,43.6-24c1.1-0.6,23.4-12.8,48-30.4c1.5-1,12-8.7,20.5-22c2.2-3.5,8.2-12.9,5.4-16.3c-1.7-2-5.7-1.2-7.3-0.9
	c-5.5,1.1-6.5,4.4-12.5,7c-4.7,2-10.6,2.7-11.4,1.1c-0.9-1.9,5.6-6.8,6.4-7.4c7.7-5.7,11.8-4.3,18.8-9c3.3-2.2,9.3-6.3,10-12.6
	c0.9-8.8-9.3-15.4-10-15.9c-4.8-3.1-10.4-4.1-23.9-2.9c-12.6,1.1-20.4,3.1-39.3,7.3c-18,4-15.4,3.2-29.9,6.5
	c-18.5,4.2-20.8,5-31.8,7.1c-12.1,2.3-12.9,2-21.5,4c-5.9,1.4-10.9,2.8-19.1,4.1c-6.4,1-14.5,2.3-15,0.8c-0.4-1.2,3.5-4.1,7.5-5.6
	c4.9-1.8,10.9-1.9,18.6-3.9c0.6-0.2,1.6-0.4,1.6-0.9c0.1-1-5.3-2.1-12-3.6c-16.9-3.9-19.7-5.6-20.9-6.5c-5.9-4.2-8.8-10.2-8.3-10.8
	c0.4-0.4,2.3,2.3,5.5,2.4c2.8,0,3.6-2.1,6.9-3.6c6.1-2.9,12.3,0.4,13-1.4c0.4-0.9-1.3-1.7-2.8-5c-0.7-1.5-2-4.5-0.9-5.8
	c1-1.1,3.4-0.1,11.5,2.1c6.5,1.8,7.3,1.8,7.5,1.4c0.6-1-2.7-5.1-7.1-7.3c-2.5-1.2-3.9-1.1-12-1.5c-5.7-0.3-11.3-0.7-17-1
	c-6.2-0.4-7.2-0.4-9,0c-4.8,1.1-7.2,3.8-10.4,6.3c-2.4,1.8-8.1,4-19.6,8.4c-10,3.8-15,5.7-20.1,7.4c-6.6,2.2-13.3,4-26.9,7.6
	c-6.3,1.7-12.7,3.4-21.5,5.6c-12.6,3.2-20.7,5-26.9,6.3c-11.4,2.4-20.5,4.3-20.9,3.1c-0.3-1,6.2-3.8,9.3-5.1
	c14.7-6.4,27.2-9.2,32.4-10.3c24-5.1,29.2-3.2,35.9-9.6c3.3-3.2,3.9-5.5,9.5-10.5c3-2.7,6.2-5,15.6-10.5
	c13.2-7.6,23.8-12.8,27.6-20.8c0.6-1.3,1.2-2.8,0.5-4.1c-1.2-2.3-5.4-2.1-12-2c-15.8,0.3-17.7,0.2-17.9-0.4
	c-0.3-1.1,6.8-3.4,14.3-6.9c12.1-5.6,13.4-9,40.1-27.3c7.8-5.3,11.8-8,14.9-9.5c11.8-5.6,21.5-6.1,21.8-9.8c0.1-1.8-2.3-1.9-5-5.9
	c-2.4-3.6-1.3-4.8-3.8-16.5c-0.8-4-1.4-5.9-0.3-7.3c1-1.2,2.7-1,6.4-1c4.7,0,11.5,0.1,11.6-0.8c0.3-1.3-11.7-4.5-11.8-4.5
	c-24.5-6.6-49.7-8.4-62-9.3c-8.3-0.6-25.5-1.6-46.3-5c-3.4-0.6-15.5-2.6-26.1-11.1c-5.4-4.3-9.4-9.4-8.4-11c0.5-0.8,2-0.3,2.9-1.5
	c1.1-1.6-0.7-3.7,0.1-5c1-1.5,4.5-0.6,6.5-0.4c7.7,0.9,10.5-5.4,20.4-8.8c9.8-3.3,18.1-0.8,18.1-0.9c0-0.1-10.8-1.3-11.9,1.9
	c-0.4,1.1,0.5,2.3,0.9,2.8c5.7,7.7,41.4,12.7,50.9,14.1c17.2,2.5,17.5,3.3,37,6c11.4,1.6,18.6,2.6,28.5,3.4
	c11.4,0.9,26.6,2.1,46.4,0.8c13.8-1,23.5-2.7,33.4-4.5c16.9-3.1,36.7-6.6,36.8-11.5c0-1.3-1.5-2.5-8.5-5.6
	c-14.2-6.3-27.4-10.1-37.8-13.1c-10-2.9-14.6-4.4-20.4-8c-5.4-3.4-10.8-8.2-10.4-8.8c0.3-0.5,4.3,1.8,6.6,3
	c18.8,9.9,25.7,4.9,43.6,13.6c9.3,4.5,16.1,10.1,22.3,7.3c1.9-0.9,3.1-2.3,3.4-2.6c3.5-4.3,1.4-9.8,0.3-18.9
	c-2-14.9,1.3-18.1-2.6-23.6c-2.7-3.8-6.1-4.9-11.1-7.1c-11.5-5.1-7.1-5-29.6-17.5c-6.2-3.4-10.8-5.8-34.6-17.4
	c-36.9-17.9-40.4-19.4-50.3-25.1c-18.5-10.8-27.6-18.5-31.1-21.5c-11.6-10-26.3-25.5-24-28.5c0.8-1,3.4-0.3,4.5,0
	c45.1,12.7,43,11.6,45.8,13c37.7,18.7,31.6,23.5,47.5,26.5c12.7,2.4,32.5,2.4,35.1,10.4c0.2,0.8,0.4,1.7,1.1,4.4
	c0,0,1.8,6.5,4.5,12.3c4.7,10.3,38.2,21.5,52.4,26.1c20.7,6.8,28.7,9.2,40.1,10.8c15.4,2.1,22.3,0.9,27-0.5
	c4.6-1.4,17.4-5.1,23.6-16.5c3-5.5,3.4-11,4.1-21.9c0.6-8.9-0.1-15.7-0.3-17.5c-1-9.5-3.5-18.7-8-29.5c-4.2-10.1-8.5-17.5-23-39.4
	c-13.9-21-17.2-25.2-26.3-39.1c-7.3-11.2-14.6-22.4-22.9-37c-18.7-33.1-13.4-32.5-32.5-68.9C295,135.1,289.2,127.2,293,119z"/>
<path d="M184,790c-1-2.7,14.9-10.7,17.5-12c12.9-6.5,29.8-12.6,31-10.3c0.4,0.9-1.3,2.5-4.3,5.3c-4.6,4.3-16,14.6-34.8,17.3
	C190.1,790.7,184.6,791.5,184,790z"/>
<path d="M170.5,815.5c-1-1.3-0.3-4.1,1.3-5.5c1.3-1.2,2.4-0.6,3.5-1.8c1.6-1.7,0.1-4.1,1.5-5.3c1.1-1,3.5-0.7,4.8,0.5
	c2.2,2.1,1.2,7.2-1.5,10C177.1,816.5,171.9,817.3,170.5,815.5z"/>
<path d="M282.5,879.5c-1.7-1.6,2.9-9.5,6.8-14.5c2.6-3.3,5.2-5.7,18-14.8c16.6-11.7,17.9-11.6,20.8-15.8c3.2-4.6,5.1-9.6,7.8-9.3
	c1.6,0.2,3.1,2.4,3,4.3c-0.1,2.3-2.4,3.8-4.3,5.3c-3.8,2.9-6.5,7.2-10,10.5c-7.8,7.5-8.7,9.9-14.8,16
	C299.5,871.5,284.9,881.8,282.5,879.5z"/>
<path d="M345,821.3c0-0.1,2.1-0.5,4.3-2.5c1.8-1.7,1.5-2.5,3.5-5.8c0,0,3.9-6.1,8-7c0.1,0,0.2,0,0.2,0c0.7-0.1,2.6-0.4,2.8,0
	c0.2,0.5-2.2,1.2-3.8,3.5c-1,1.6-0.9,2.9-1.3,4C357.2,819.4,345.1,821.5,345,821.3z"/>
<path d="M291,980.3c-4.5-8.1-2.9-17-2-21.7c2.4-12.9,10.4-20.8,14.3-24.7c13-12.6,28.6-15.3,42-17.7c10.1-1.8,20.5-1.1,41.3,0.3
	c7.7,0.5,12.7,1.1,18,4.3c7.5,4.6,7.6,9.6,14.3,18.7c13,17.4,29.4,21.7,27.7,27.7c-0.4,1.5-1.7,2-5.7,4c-17.8,9-26.7,13.5-30.7,19.7
	c-2.8,4.3-3.4,8.4-8.3,11.3c-2.9,1.8-5.7,2.2-7,2.3c-38,5.1-51.9,9.3-69.3,0c-0.5-0.3-1.7-1-4-2.3C303.4,991.5,294.1,986,291,980.3z
	"/>
<path d="M458.8,969.4c-0.6,0.3-1.7-0.5-2.2-1.4c-0.7-1.5,0.1-3.3,0.8-4.5c1.2-2.4,2-2.2,2.4-3.7c0.6-2.5-1.4-4.3-0.5-5.2
	c0.6-0.7,2.1-0.2,3,0.1c1,0.3,2.6,0.8,3.1,2.1c0.6,1.8-1.6,4.2-3,5.8c-1.4,1.6-1.9,1.5-2.5,2.7C458.8,967.3,459.6,969.1,458.8,969.4
	z"/>
<path d="M503.9,909c-1-0.7-2.2,0.3-6-0.6c-3.3-0.8-4-1.9-5.6-2c-4.9-0.3-9.4,9.9-9.9,11.1c-2.9,6.8-3,12.8-3.3,24.8
	c0,0.7-0.2,10.7-1.3,21.3c-0.2,2-0.6,5.4-2.6,9c-0.6,1.1-1.8,2.9-5.6,6.5c-5.8,5.5-7,5.1-9.4,7.8c-2.9,3.4-3.6,7.5-5,15.8
	c-1.3,8-0.5,11.1-3.3,16.4c-0.7,1.3-2.1,3.7-1.8,4c0.3,0.2,1.8-1.3,3-2.5c9.1-9.2,8.3-8.3,9-9.1c8-9.4,12.4-18.7,13.9-22
	c1.4-3.2,2.1-5.1,3.5-9.1c1.7-4.8,5-13.1,11.6-29.6C500.7,926.8,507.3,911.2,503.9,909z"/>
<path d="M697.8,951.5c-5.1,1.8-8.4,2.9-10.2,6.3c-1.8,3.6-1.4,8.8,1.2,10.7c2,1.4,3.6-0.3,7.8,1c3.2,1,3.3,2.2,6.2,3.2
	c4.6,1.5,9.1-0.2,10.3-0.7c1.7-0.7,6.9-2.7,9-8c0.3-0.9,2.2-5.6-0.2-9.5c-2.2-3.7-6.7-4.3-10.5-4.8
	C705.6,948.8,701.1,950.4,697.8,951.5z"/>
<path d="M868.8,900.7c-2.3,0.3-3.3-0.7-4.2,0.1c-1.1,0.9-0.8,3.7,0.4,5.4c1.7,2.5,5.1,2.8,7.6,2.9c2.5,0.2,4.9,0.3,6.7-1.3
	c1.7-1.6,1.8-3.9,1.9-5.2c0.1-1.4,0.3-4-1.3-5.1c-1.5-1-3.8-0.1-6.1,0.8C871.1,899.5,870.9,900.4,868.8,900.7z"/>
<path d="M959.8,805.5c-1.1,1.2-1.1,3.6,0,5c1.3,1.6,3.6,1.3,5.8,1c2.9-0.4,6.8-1.8,6.8-3.3c-0.1-1.1-2.5-1.8-5-2.5
	C963.8,804.8,961.1,804,959.8,805.5z"/>
<path d="M1001.5,843.3c-3.9,1.5-5.8,4.7-6.3,5.5c-0.4,0.8-3.1,5.5-1,9c0.8,1.3,2.2,2.5,6.5,3.5c4,0.9,17,3.8,21.8-3.5
	c2.2-3.4,2.5-8.7,0-11.5c-1.2-1.4-4.4-1.9-10.8-2.8C1004.2,842.4,1002.7,842.8,1001.5,843.3z"/>
<path d="M1099.8,806c-5.1,2.8-8.2,4.6-9.8,8.5c-2.1,5.2-0.4,11.2,2.5,15c6,7.9,17.8,7,23.8,6.5c4.6-0.4,14.1-1.9,21.8-9
	c2.9-2.7,6.3-5.9,6-9.8c-0.3-4-4.4-7.1-11.3-12.3c-2.6-2-3.9-3-5-3.5C1117.2,796.3,1104.3,803.5,1099.8,806z"/>
<path d="M1216.1,888.8c-0.6-5.2,6.8-9.3,7.4-9.6c5-2.7,9.8-1.8,17.8-0.4c5.3,1,6.6,2,7.3,3.3c1.2,2.4-0.2,5.3-1.3,7.4
	c-0.8,1.5-3.1,6.4-8.8,8.5c-6.3,2.4-11.9-0.4-14.6-1.8C1220.8,894.6,1216.6,892.5,1216.1,888.8z"/>
<path d="M997.8,725.8c-0.1,0.2,1.3,0.8,3.3,1.8c5.4,2.6,8.2,4.7,10.6,6.1c3.9,2.3,10.8,3.5,24.4,5.8c10.1,1.7,12.2,1.6,12.4,1
	c0.3-0.9-2.8-2.6-4.6-3.6c-6.1-3.4-11.7-4.8-15.9-5.6c-7.2-1.5-6.9-0.8-14.8-2.3C1004.2,727.2,997.9,725.3,997.8,725.8z"/>
<path d="M934.8,521.8c0,0.2,1.7-0.2,5.5-0.8c6.2-1,10.9-1.4,20.3-2.3c4.8-0.4,12.1-1,26.5-2c0,0,7.1-0.5,20.8-3.3
	c2.7-0.5,5.5-1.2,5.5-1.8c-0.1-1-8.1-1.2-9.3-1.3c-7.5-0.2-13.3,0.5-15,0.8c-13.4,1.7-12.6,0.6-22.3,2
	C949.3,515.8,934.6,521.2,934.8,521.8z"/>
<path d="M1203.3,424c-1.6-2.3,1.5-6.7,1.7-7c2.2-3.1,5.9-4.3,13.3-6.3c8.6-2.4,9.9-1.6,10.3-1c1.2,1.5,0,4.2-0.3,5
	c-0.7,1.7-2.5,4.3-8.3,7C1216.1,423.4,1205.6,427.4,1203.3,424z"/>
<path d="M1248,175c-2.6,1.5-7.5,4.2-7.5,8c0,4.5,6.6,7.6,9.5,9c1.9,0.9,11.7,5.6,21.5,1c2.3-1.1,7.6-3.6,8.5-8.5
	c0.8-4.6-2.5-8.4-3-9C1270.5,168.2,1256.5,170.3,1248,175z"/>
<path d="M1186,59.3c-2.2,2.7-4.5,5.6-4.3,9c0.5,6.9,10.9,10.9,13.3,11.8c1.5,0.6,15.8,5.7,26.5-2.5c1.9-1.5,6.9-5.3,7.3-11.5
	c0.3-4.2-1.6-9-5.3-11.5c-1.7-1.1-3.3-1.4-5.3-1.8c-11.4-1.9-17.1-2.8-21-1.5C1190.8,53.4,1187.2,57.8,1186,59.3z"/>
<path d="M672.3,267.3c-0.7-0.5,0.8-2.8,3.8-11.3c3.8-10.6,3.2-11.8,6.3-20.5c4.2-12.1,7.1-20.1,12.5-21c3.1-0.5,6.9,1.4,7.5,3.8
	c0.6,2.4-2.2,4.3-4.8,8.3c-3.5,5.4-3.5,9.8-4.5,14.3C689.5,256.2,674,268.4,672.3,267.3z"/>
<path d="M706.5,63c-0.5,0.6,2.9,3,7.5,9c6.7,8.7,5.5,11.6,10.8,17.3c6,6.4,14.5,10,15.5,8.8c0.5-0.6-0.7-2.2-2.3-4.5
	c-11.7-16.9-9.8-15.9-13-19.3C717.2,66.2,707.3,62,706.5,63z"/>
<path d="M711,7.7c-2.6,2-6.3,4.9-8.3,10c-3.8,9.5,1,19,1.8,20.7c5.1,10.2,15.1,14.6,31,21.7c6,2.7,10.4,4.1,15.8,5.8
	c11.7,3.8,17.7,5.6,23.3,4.7c1.4-0.2,13.1-2.4,17.5-11.7c4.3-9-1.2-19.1-6-28c-6.8-12.6-16.2-19.2-19.7-21.5c-3.1-2-10-6.5-20.2-8.3
	C742.9,0.4,724.9-3,711,7.7z"/>
<path d="M183.8,440.5c-0.4,0.8,7.9,5.4,14.8,8.8c15.3,7.3,30.8,11.3,31.3,10.3c0.4-1.2-17.5-8.8-24-11.5
	C198.4,445,184.2,439.5,183.8,440.5z"/>
<path d="M133.8,418.8c-1.1,2,7,8.9,13.5,13c13.2,8.3,29.1,10.6,30,8.3c0.6-1.6-5.1-5.1-10.5-8.5C153,422.9,135.2,416.1,133.8,418.8z
	"/>
<path d="M82.1,734.5c-2,1.8-1.3,5.2-1.1,5.9c0.5,2.4,2.1,4,5.3,7c2.8,2.7,4.4,4.2,5.4,3.8c0.9-0.4,0.8-2.6,0.4-6.8
	c-0.5-5.1-0.7-7.7-2.1-9C87.9,733.5,84.1,732.7,82.1,734.5z"/>
<path d="M77.2,637.3c-5.2,1.2-7.8,1.8-8.8,3.7c-1.1,1.9-1.1,4.7,0.2,6.3c0.5,0.6,0.9,0.7,6.5,2.8c2.2,0.8,3.4,1.3,3.8,2.3
	c0.6,1.4-0.3,2.7,0.2,3c0.6,0.3,2.5-1.2,3.7-3.2c0.8-1.4,0.6-2,1.3-2.5c1.1-0.7,2.3,0.1,4.3,0.5c2.4,0.5,6.1,0.3,6.8-1.2
	c0.3-0.6,0.1-1.4-4.3-6.8c-4.1-5.1-5-5.5-5.8-5.8C83.3,635.9,81.3,636.4,77.2,637.3z"/>
<path d="M301.1,378.8c-0.2-1.3,2.4-3.2,5-3.8c1.8-0.4,3.6,0.2,7.1,1.3c4,1.2,6.6,2.1,6.6,3.3c0,1.1-2.3,1.9-2.8,2.1
	c-2.1,0.8-3.9,0.5-9.4-0.8C302,379.6,301.2,379.4,301.1,378.8z"/>
<path d="M147,154.5c-9.4,0.2-14.8,0.4-18,4.5c-2.6,3.4-3,8.6-1,12.5c1.7,3.3,4.8,4.7,8.5,6.3c4.6,2,12.9,5.5,21,1.5
	c1.3-0.6,8.9-4.4,9.3-11.5c0.3-6.4-5.5-10.6-6-11C157.3,154.3,153.8,154.3,147,154.5z"/>
</svg>
