<?xml version="1.0" encoding="utf-8"?>
<!-- Generator: Adobe Illustrator 22.1.0, SVG Export Plug-In . SVG Version: 6.00 Build 0)  -->
<svg version="1.1" id="Layer_1" xmlns="http://www.w3.org/2000/svg" xmlns:xlink="http://www.w3.org/1999/xlink" x="0px" y="0px"
	 viewBox="0 0 920 920" style="enable-background:new 0 0 920 920;" xml:space="preserve">
<path d="M284,399c10.6,5.2,30.1,14.8,32,30c2.2,18.2-19.9,33.7-26,38c-15.8,11.1-37.5,19.9-116,22c-51.5,1.4-70.4-1.6-78,11
	c-7.3,12.1-0.8,33.7,12,41c13.9,7.9,28-5.2,65-19c21.9-8.2,67.3-24.7,115-15c16.2,3.3,39.6,8,48,26c10,21.3-7.3,47.8-14,58
	c-22.2,33.8-57.2,47.4-75,54c-48.1,17.9-62.5,3.4-89,22c-29.7,20.8-48.7,65-34,86c13.7,19.7,51.7,14.2,67,12
	c10.4-1.5,34.9-5.7,54-25c13-13.1,14.3-24.1,22-40c13.6-28.2,33.1-43,70-71c43.1-32.7,65.2-49.5,97-48c6.4,0.3,33.6,2,54,22
	c32.4,31.9,22.8,85.8,21.3,93.4c-3,15.4-6.8,17.7-9.3,36.6c-2.8,20.8-5.4,40.1,6,57c8.7,13,27.2,26.7,47,23
	c14.7-2.8,27.3-14.6,32.4-28.3c7-18.5-3-31.4-23.5-92c-8.2-24.4-12.4-36.9-14-49.7c-2.6-20.7-6.7-53.9,12.4-76.5
	c16.5-19.5,42.2-21.6,68.4-23.7c47.6-3.8,85.4,11.9,95.2,16.2c48.6,21.3,64.4,51.2,82,43c13.4-6.2,19.4-29,14-45
	c-3.5-10.3-11.8-21.4-45-35c-68-27.9-104.5-11.6-125-38c-10.7-13.9-10-30.4-9-51c2.1-45.1,28-76.5,49-102c19.4-23.5,32.3-39.2,56-50
	c26.9-12.3,43.3-7.2,54-22c11.1-15.4,10.5-44.7-8-60c-20.8-17.3-51.9-6.4-66,8c-8.9,9-7.6,16-14,32c-17.9,44.8-58.6,67.1-64,70
	c-31.1,16.4-60.3,15.5-73,15c-23.1-1-57.7-2.5-73-25c-13.2-19.4-5.6-45.2,6-85c15.9-54.5,32.8-65.3,30-98c-2.2-24.8-15-54-30-55
	c-15.6-1-32.1,28.5-36,54c-2.6,17,2.3,23.3,4,44c2,24.5,5.5,66.2-18,98c-2.6,3.6-26.4,35.1-66,38c-47.2,3.5-79.1-36.2-87-46
	c-18.8-23.3-25.4-49.6-26-52c-6.4-26.2,0.3-36-9-50c-12.4-18.6-44.5-31.5-62-18c-17.3,13.4-12.3,49.5,4,66c9.7,9.8,16.1,5.5,31,16
	c15.9,11.2,22.4,26,34,53c13.2,30.7,19.5,46.2,13,57c-7.1,11.8-20.6,5.8-51.3,22c-11.5,6.1-32.4,17.1-31.2,28.9
	c1,9.7,16.7,15.8,18.5,16.5c2.9,1.1,2.9,0.7,25.1,2.8c10.3,1,15.9,1.6,23.1,3.9C274.8,395.2,279.3,396.7,284,399z"/>
<path d="M18,347c1.7,16.8,26.4,27.8,44,30c28.3,3.5,63-12.5,64-32c1-18.6-28.6-39-56-38C44.2,307.9,16.1,328,18,347z"/>
<path d="M824,735c-18.5,5.5-27.5,27.2-24,44c5.1,24.4,37.1,39.8,56,29c17-9.7,20.8-38.9,8-57C856.2,739.9,840.1,730.2,824,735z"/>
</svg>
