<?xml version="1.0" encoding="utf-8"?>
<!-- Generator: Adobe Illustrator 22.1.0, SVG Export Plug-In . SVG Version: 6.00 Build 0)  -->
<svg version="1.1" id="Layer_1" xmlns="http://www.w3.org/2000/svg" xmlns:xlink="http://www.w3.org/1999/xlink" x="0px" y="0px"
	 viewBox="0 0 1020 1020" style="enable-background:new 0 0 1020 1020;" xml:space="preserve">
<path d="M37.2,201.3c3.6-2.4,10.1-6.7,19.7-7.5c15.1-1.2,25.6,7.4,27.5,9c8.1,6.9,12.6,16.6,13.2,24.7c0.4,6.1,0.7,10.8-1.7,14.5
	c-0.5,0.8-1.9,2.6-1.3,3.7c0.6,1,2.6,0.7,3.5,0.8c5.2,0.5,11.5,2.3,15.5,5.3c5.6,4.1,4.3,7.6,8.8,9.3c4.4,1.7,7.4-1.3,13.4-2.5
	c9.4-1.9,17.6,2.2,23.5,5.2c5.1,2.5,14.5,8.4,20.8,19.8c5.9,10.7,7.8,24,5,31c-3.4,8.4-4.5,10-4.5,10c-1.4,1.9-3,3.6-2.5,5
	c0.4,1,1.5,1.3,3.8,2c2.4,0.7,4.7,1.8,7.2,2.3c4.7,1.1,16.5,9.9,22.8,23.9c1.7,3.7,8,19.1,1.8,36.8c-5.3,15-16.5,22.7-21,25.8
	c-3.8,2.5-11.5,7.5-22.8,8.8c-14.7,1.6-27.1-4.2-34.1-9.5c-6.1-4.7-9.2-7-11.2-11.3c-1.2-2.5-2-6.2-4.5-6.7
	c-1.5-0.3-2.9,0.7-3.6,1.1c-5,3.3-13.2,0.7-19.2-1.2c-12.9-4-20.2-13.4-21.3-14.8c-7.9-10.3-8.4-21-8.9-33.5
	c-0.3-6.7,0.4-10.6,1.5-13.9c1.7-5,2.6-8,5.4-10.9c1.1-1.2,2.7-2.4,2.3-3.3c-0.4-0.9-2.4-0.2-5-0.8c-4.2-0.9-8.6-4.7-10.5-9
	c-0.5-1.1-0.9-2.7-2-3c-0.8-0.2-1.2,0.4-3,1.3c-0.8,0.4-2.4,1.2-4.2,1.5c-2,0.3-2-0.1-4.8,0c-1.9,0.1-2.5,0.2-4,0
	c-0.6-0.1-10.5-1.6-19.1-8c-1-0.7-20.1-15.5-18.5-36.7c0.1-0.9,1-12.6,7-18.3c4.6-4.4,6.8-5.5,6.8-5.5c2.2-1.1,4.2-1.5,4.7-3.1
	c0.5-1.5-0.8-3.2-1.2-3.8c-3.8-5.3-2.1-17.2,1.7-24.8C27.7,207.7,33.2,204,37.2,201.3z"/>
<path d="M202.8,464.5c-6.9,1.2-12.2,4.3-14.3,5.5c-8.1,4.7-12.7,10.9-15,14c-2.9,4-12.5,17.2-11.3,35.3
	c1.9,26.9,27.2,40.9,28.3,41.5c2.6,1.4,22.7,11.7,44.5,2.8c14.3-5.9,27.2-19.1,27-26.3c0-0.9-0.3-4.3,1.8-6c1.5-1.3,3.7-1.1,4.5-1
	c5.7,0.6,22.7,1.2,32-0.8c11.1-2.3,18.3-9.9,20.8-12.5c4.4-4.7,7.4-7.9,8-12.8c0.2-2.2,0-4.7,1.3-5.3c1.3-0.6,3.2,1.8,5,3.3
	c4.1,3.3,8.9,3.3,16,3.3c4,0,15.7-0.1,27-7.5c18.5-12.1,20.9-34,21.3-38.3c0.3-4,1.9-22.2-11-37c-11.1-12.8-26.1-15.1-32.3-16
	c-7.7-1.2-15.8-2.6-24.3,1.3c-6.3,2.9-17.6,11-20.5,17.3c-0.2,0.5-1,2.3-2,2.3c-1.5-0.1-2.4-4.1-2.8-5.5c-1.9-6.9-9.3-11-16.8-15.3
	c-5.8-3.3-17.6-10-33.5-7.8c-2.7,0.4-21.2,3.3-32.8,20.3c-8.9,13.1-11,30.6-7,37.5c0.5,0.8,2.3,3.7,1.3,5.3c-0.8,1.2-2.9,0.9-6,1
	C212,463,210.8,463,202.8,464.5z"/>
<path d="M436.1,411.6c11.3-17,31.9-26.3,51.6-25.3c30.9,1.7,53.1,28.6,51.3,37.3c-0.1,0.6-0.9,3.9,0,4.3c0.9,0.5,2.6-2.3,6-4.7
	c0.7-0.5,2.8-1.9,8-3.3c11.4-3.2,19.2-5.3,29-4.5c19.7,1.7,32.8,14.4,37.3,18.9c4.7,4.6,14,13.7,16.3,25.8c1.8,9.4,2.7,14,1.7,19.2
	c-0.5,2.2-1.4,5.6,0,6.7c1.2,0.9,3-1.1,7.7-1.7c4-0.5,5.8,0.2,6.3-0.7c1.1-1.7-4.4-6.4-7.3-10c-10.3-12.8-4.4-33.9-2.7-40.3
	c2.2-8,7.7-21.7,21.3-32.3c3.9-3.1,17.2-13.2,36.7-13c25.1,0.2,40.7,17.5,44,21.3c3.2,3.8,13.6,16.3,14.3,35
	c0.8,20.1-10,34-14.3,39.7c-5.8,7.4-13.2,17-25.3,19.7c-6.1,1.3-14.2,1.2-14.3,3c-0.1,0.9,2,1.3,4.7,3.3c1,0.7,3.2,2.6,7,10.7
	c2.9,6.1,4.4,9.2,5.3,13.7c1.9,8.9,0,13.9,2.7,15.3c1.8,0.9,3.4-0.9,7.4-2.2c6.1-2,11.2-0.8,21.3,1.5c7.2,1.7,10.8,2.5,14.4,5
	c4.7,3.3,6.7,7,8.9,6.3c2.4-0.7,2.5-6.1,3-8.3c3.5-14.4,14.7-23.4,21.7-29c5.9-4.7,21-15.2,42.7-15.3c4,0,27.2,0.2,46.7,18
	c14.4,13.2,20.1,30,21,37c0.5,4.4,1.5,8.9,1.7,13.3c0.2,5.3-0.3,8,1.3,9.3c2.7,2.2,8.7-1.3,11-2.3c20.1-8.7,43.3,1.6,47.3,3.3
	c20.5,9.1,29.7,27.4,33.7,35.3c3.6,7.2,9,17.9,8,32c-0.2,3.3-1.5,21.4-9,27.3c-0.7,0.6-3.1,2.3-3.2,4.9c-0.1,2.8,2.6,5,3.2,5.5
	c5.8,5.1,8,28.3,1.3,48c-9,26.7-31.5,39-37.3,42c-6.2,3.1-23.5,11.6-46,7.3c-21.6-4.1-34.4-17.7-41-24.7
	c-5.3-5.6-11.5-12.2-14.7-22.7c-2.1-7,0.1-6-2.7-24c-0.6-4.2-1.3-8.1,0.3-12.7c1.6-4.5,4.7-7.1,4-8c-0.8-1-5.6,1.8-7.3,2.7
	c-11.5,6-25.3,2.8-38.7-0.3c0,0-16.5-3.9-30-13.3c-3.9-2.7-5.9-4.1-7.7-7c-1.5-2.4-1.7-4.1-3-4.3c-1.8-0.3-3,2.9-7,6.7
	c0,0-1.8,1.6-6,4.3s-24.3,11.7-49.7,6.3c-5.2-1.1-29.5-6.3-44.3-27c-7.1-9.9-14.2-19.9-13.3-32c0.2-3.2,1.2-8.6-2-11.7
	c-3.2-3.1-8.5-2-11.7-1.7c-16.7,1.7-32.3-12.3-38.3-17.7c-0.8-0.7-18.7-17-20.7-34.3c-1.5-13.1-0.7-18-0.7-18
	c0.7-4.1,1.9-7.3,0.3-8.7c-2-1.8-6.7,1-10,2.3c-15.4,6.2-37.1-5.5-48-16.3c-6.5-6.5-11.2-11.1-13.3-18.7c-0.9-3.2-1.7-8.3-4-8.7
	c-1.3-0.2-2.1,1.4-5,3.3c0,0-2.2,1.5-7,3c-3.6,1.1-16,3.5-31-1.3c-19.5-6.3-29.9-20.5-31.7-23s-11.2-16.1-11.3-36
	C426.9,439.6,427,425.3,436.1,411.6z"/>
</svg>
