<?xml version="1.0" encoding="utf-8"?>
<!-- Generator: Adobe Illustrator 22.1.0, SVG Export Plug-In . SVG Version: 6.00 Build 0)  -->
<svg version="1.1" id="Слой_2" xmlns="http://www.w3.org/2000/svg" xmlns:xlink="http://www.w3.org/1999/xlink" x="0px" y="0px"
	 viewBox="0 0 1575 1575" style="enable-background:new 0 0 1575 1575;" xml:space="preserve">
<path d="M1556.8,682.5c-11.4-11.4-27.7-18.7-42.3-25.3c-33-15.1-72.5-18.4-109.8-20.5c-92.9-5.4-192.4-14-286.2-4.6
	c-50.6,5-100.8,12.3-150.4,20.3c-35.6,5.7-92.6,14.8-120,39.4l-3.6-1.5c-4.1-9-12.6-21.7-23.7-20c7.6-9.4,12.2-20.8,9.3-32.7
	c-2.9-11.8-13.9-18.4-25.2-10.9c-0.5-3.8-0.7-7.8-0.4-11.8c1.2-1.1,2.3-2.1,2.9-2.6c29.4-26,59.4-52.6,87.8-80.7
	c14.8-14.7,29.8-29.7,44.1-44.9c15-15.9,78.4-77.5,95.1-92.1c14.3-12.5,30.1-25.4,40.4-41.1c6.6-9.9,2.3-19.9-10.6-13.5
	c-8.7,4.2-14,15.8-18.5,24c-10.3,18.6-25.2,34.7-40.8,49.4c-34.1,32.1-136.3,142.4-200.1,197c0.7-7.3,1.7-14.6,2.1-21.3
	c0.3-6,0.9-13-6.5-13c-4,0-8.2,3.6-10.6,6.9c0,0-6.8-6.2-10.7-6.4c-7.4-0.4-7.2,6.6-7.2,12.6c0,7.2,0.8,13.5,1.1,21.2
	c-59.6-57.6-156.7-176-189.2-211.1c-14.6-15.8-28.4-32.9-37.4-52.1c-4-8.5-8.6-20.4-17-25.2c-12.5-7.2-17.4,2.4-11.5,12.9
	c9.3,16.3,24.1,30.3,37.6,43.7c15.6,15.6,75,81.2,88.8,98.2c13.2,16.2,27.2,32.2,40.9,47.8c26.5,29.8,54.6,56.8,82.3,84.8
	c1.2,1.2,3.3,3.3,5.3,5.7c-0.1,3.6-0.4,8.5-1.1,11.8c-10.7-8.2-22.1-2.1-25.7,9.5c-3.6,11.8,0.4,23.5,7.4,33.1
	c-11-2.4-20.1,9.9-24.8,18.7l-3.7,1.2c-26-26-82.4-38.2-117.7-45.7c-48.9-10.6-98.7-20.5-149.1-28.4
	C364.8,600.9,264.9,604,172,604.4c-37.5,0.1-77,1.3-110.8,14.6C46.7,624.9,30,631.3,18,642c-4.2,3.8-15.6,11.9-13.8,18.5
	c1.3,4.5,16.4,8.9,20.9,11.4c-0.8,11,5.3,14.2,7.3,23.6c1.7,8.5,1.7,18,2.9,26.1c3.3,21.7,0,30.5-10.9,48
	c23.5,9.4,51.7-0.3,71.6,15.6c0.1,0.1,8.5,10.7,9.3,12.5c3.2,6.5,0.9,9.5,3.2,16c4.6,13.6,17.1,13.5,29.7,14.4
	c-0.8,7.7,9.4,18.5,11.7,26.5c4.5,15.5,5.6,10.5,16.7,20.7c7.7,7.2,8.3,17.6,14.2,25.3c7.4,9.7,15.6,11.4,25.4,15.9
	c21.2,9.4,37.5,18.2,62.4,19.6c21.6,1.3,42-4,62.9-9.9c21.1-6.1,17-5.6,34.7-14.3c-10.3,12.3-17.1,19.3-26.1,35
	c-12.6,21.9-11.9,35.8-14.4,60.3c-2.7,25.2-4.9,38.4,9.4,61.5c8.7,14.2,16.3,40.9,28,50.6c14.3,11.9,43.3,8.1,56.3,22.1
	c4,4.2,3.2,9.8,5.7,14.2c5.6,9.7-0.4,4.4,9.4,8.1c4.2,1.6,8.9-0.5,14.3,2.3c3.8,1.9,7.7,6.5,10.7,9.7c17,17,14.6,33,23.9,52.7
	c13.6,28.6,24.5-3,39-11c3.7-2,7.3-0.4,10.6-2c1.5-0.7,8.2-5.2,8.9-5.3c10.9-2.3,13,4,21.3,5.6c9.8,2,16.3-3.2,24.9-4.5
	c11.3-1.6,11-0.1,19.9,7c10.3-8.5,14-0.4,20.3,5c5.6,4.9,11.4,11.7,20.3,13.4c17.2,3.3,23.2-13.2,31.1-27.4c1.6,1.2,4.9,1.7,6.5,2.8
	c3.6-13.2,24.5,3.2,30.2,9.9c3.3-15.2,24-10.7,31.7-3.7c2.9-9.5,0-28,9-32.9c2.9-6.8,3-10.3,4.4-18.2c1.5-0.3,2.7,0.1,4-0.3
	c-3.6-11.4,2.4-23.6-0.1-36c4-3.6,3.4-13.8,2.1-19.7c7.7-3.3-2.9-7.4,0.9-16.8l13.6-0.8c3.3,9.5-6.9,13.1,0.5,17
	c-1.6,5.8-2.7,16,1.1,19.9c-3.3,12.2,2,24.6-2.1,35.9c1.3,0.5,2.5,0.1,4,0.4c0.8,7.8,0.8,11.4,3.3,18.3c8.7,5.4,4.8,23.6,7.3,33.3
	c8.2-6.6,28.9-9.9,31.4,5.4c6-6.5,27.8-21.7,30.6-8.3c1.6-1.1,5-1.5,6.6-2.5c7.2,14.6,12.2,31.5,29.5,29c8.9-1.2,15.2-7.7,20.9-12.2
	c6.5-5.2,10.6-12.9,20.5-4c9.3-6.6,9.1-8.1,20.3-5.8c8.5,1.7,14.7,7.2,24.6,5.8c8.3-1.2,10.9-7.3,21.6-4.4c0.8,0.3,7.2,5,8.6,5.8
	c3.2,1.7,6.9,0.3,10.5,2.5c14,8.7,23.1,40.9,38.3,13.1c10.3-19.1,8.9-35.4,26.8-51.3c3.2-2.9,7.3-7.3,11.3-9
	c5.6-2.4,10.1-0.1,14.4-1.5c9.9-3,3.7,1.9,9.8-7.6c2.8-4.2,2.3-9.8,6.5-13.8c13.8-13.4,42.4-8,57.4-19.1c12.2-9,21.2-35.4,30.6-49
	c15.4-22.1,13.9-35.4,12.7-60.7c-1.2-24.6,0.1-38.4-11.1-61.1c-8.1-16-14.4-23.5-24.1-36.3c17.2,9.5,13.1,8.9,33.8,16.2
	c20.3,7.2,40.4,13.5,62.3,13.4c24.8-0.1,41.6-8,63.3-16.3c10.1-3.8,18.4-5.2,26.4-14.4c6.4-7.4,7.6-17.9,15.6-24.5
	c11.7-9.7,12.5-4.5,17.8-19.7c2.8-7.8,13.5-18.2,13.1-25.8c12.7-0.3,25,0.5,30.5-12.9c2.5-6.4,0.5-9.5,4-15.9
	c0.9-1.7,9.8-11.9,9.9-11.9c20.5-14.8,48.2-3.6,72.3-11.8c-9.8-18.2-12.7-26.9-8.2-48.5c1.7-8.1,2.1-17.6,4.4-26
	c2.5-9.3,8.7-12.2,8.6-23.2c4.6-2.3,20-5.8,21.5-10.3C1571.8,695.3,1560.9,686.6,1556.8,682.5z"/>
</svg>
