<?xml version="1.0" encoding="utf-8"?>
<!-- Generator: Adobe Illustrator 22.1.0, SVG Export Plug-In . SVG Version: 6.00 Build 0)  -->
<svg version="1.1" id="Слой_2" xmlns="http://www.w3.org/2000/svg" xmlns:xlink="http://www.w3.org/1999/xlink" x="0px" y="0px"
	 viewBox="0 0 1590 1590" style="enable-background:new 0 0 1590 1590;" xml:space="preserve">
<path d="M1559.1,961.3c-8.5-9.9-27.7-13.1-39-17.6c-12.5-4.9-245.1-49.3-361.3-72.2c-0.5-7.8-1.3-17.9-2.3-30.5
	c-0.3-4.2-0.5-8.6-0.8-13.4c49.8,13.4,25.6-3.8-0.5-14.7c-0.3-10.2-0.4-21.1-0.5-32.3c42,5.3,17.4-8.1,0-15.4
	c0-12.3,0.1-24.8,0.1-36.8c30.2,5,13.9-6.2,0-13.6c0-11.7,0-22.8-0.1-32.9c25,7.6,11.7-5-0.3-13.8c-0.4-43.2,5.4-65.7,6-76.6
	c0.5-11.3-4.4-5.8-3.4-21.6c0.9-15.6-9.8-33.3-16.7-36.7c-6.9-3.4-10.7,2.4-14.7-1.5c-4-3.8-8.9-10.3-8.9-10.3s2-10.3,0-12.2
	s-12.2,0.9-12.2,0.9s-6.4-5.8-19.1-12.7s-24.5-8.3-31.4-2.4c-6.9,5.8-28,35.8-35.2,52.9c-7.2,17.1-14.2,21.6-45.6,64.7
	c-26.9,37-142.3,146-175,176.5c-29.9-7-51-11.9-55.1-13c-16.3-4.4-32.5-10.6-49-14.4c-15.4-3.6-32.5-8.9-48-10.1
	c-8.3-0.7-16.3-1.6-24.5-2.9c-6.2-1.1-16.6-1.5-21.5-4.6c8.9-1.7,13.5-3.3,20.7-8.1c-8.7-7.4-24.6-9.4-35.4-13.9
	c-11.9-5-24.5-9.3-36.2-13.5c-11-4-21.2-10.3-31.5-16.4c-11.5-6.9-23.7-6.2-35.8-1.3c1.7-9.9-3.6-13.8-11.7-17.8
	c-3.6-1.7-6.1-4.8-10.1-5.7c-4.4-1.1-10.1,0.3-14.6-0.1c-0.7-2.3-1.1-4.2-1.3-6.6c-7.7-0.7-13.9-0.8-20.7-3.8
	c-7-3.2-9.9-4.8-17.2-1.3c0.1-1.1-0.5-2.6-0.4-3.7c-10.9-5.4-22-4-34.1-3c-6.5,0.5-32.3,2.4-35.2,4.9l-6.6,3.7
	c-4-1.5-39.6-19.1-48.5-19.7c-5.4-0.4-11.7-1.2-17.6-0.8c-6.6,0.5-9.9,5-15.4,7.4c-4.9,2-11.7,1.3-17.1,2
	c-6.5,0.8-14.3,8.3-21.3,18.5c-18.7-23.5-81-100.7-107.5-145.2c-30.3-50.9-42.1-61.7-33.3-43.1s41.7,61.3,50,82l24.4,33.5
	c-2.3-2.5-4.2-4.5-5.8-5.8c-16.6-14.3-95-126.9-125.3-170s12.7,36.2,27.4,55.8s77.4,102.8,99,126.3c17.5,19.1,47.3,62.1,62.1,82.3
	c-6.6,13.1-11.3,27.3-11.3,37.4c0,12.5,5.3,24.5,4.4,36.7c-7.4,105.5,66.4,143.5,71,145.6c3.3,1.6,4,1.6,6.1,4.2
	c1.2,1.5,2.1,3.4,3.8,5c3.3,3,7.8,6.1,11.8,8.1c3.2,1.7,9.8,6.6,13.2,2.7c2.8-3.3-1.3-10.6-4.4-12.7c3.6-1.1,6.6-3,9.8-5
	c0.5,4.5,1.6,8,2.5,12.3c3.2,0.7,5.4-1.5,8-3c3.3-2.3,3.6-1.6,2.9-5.7c-0.9-5.7-2.4-11-0.5-16.8c1.6-5,4.5-9.4,5.8-14.7
	c1.3-5.4-0.5-12.3-1.5-17.8c1.6,1.5,5.2,2.4,6.4,3.8c1.7,2.1,0.7,5.3,0.9,7.9c0.5,5.7,3.4,8.9,5.8,13.9c2.3,4.8,2.7,8.6,0.1,13.4
	c-1.9,3.6-5.4,11-2.4,14.4l0.1,0.3c-21.5,7.3-69.8,25-79.9,32.7c-12.2,9.3-13.2,2-18.2,13.6c-4.9,11.8-4.9,11.8-4.9,11.8
	s-67,117-67.6,119s0,6.9,0,6.9s-22.5,18.5-26.9,19.6s-17.1-8.9-34.3-4.4S72,1122.6,65.6,1130c-6.4,7.4-13.2,10.3,0,11.3
	s23.1-4.4,23.1-7.8c0-3.4,2,6,10.7,0s12.7-13.8,17.1-11.8s-0.5-0.9-1.5,7.3c-0.9,8.3,12.6,16.2,20.5,12.3c2.5-1.2,4-8,4-8
	s4,8.2,10.7,3.8c6.8-4.4,31.8-26,33.3-31.4s0-7.8,3.4-9.3s12.2-27.4,28.9-57.2c16.7-29.8,24-49.4,29.8-54.9c5.8-5.4,9.8-4.9,10.3-2
	s8.9,4,14.2-4c5.3-7.9,2.4-6.4,8.9-6.4c5.2,0,55.4-26.1,73.1-35.4c2.3,1.5,4.5,2.9,6.6,4.4c0.4,0.3,0.9,0.5,1.3,0.8
	c-7.7,13.4-22.8,40.5-28.8,54.7c-7.8,19.1-12.2,31.4-15.6,33.3c-3.4,2-6.9,4.4-6.9,4.4s2,6.4,0,10.3c-2,4-2.9,8.9-6.4,6.4
	s5.4-5.4-5.4-10.7c-10.8-5.3-15.2-8.9-23.1-3.4c-7.8,5.4-9.3,5.4-14.2,10.7c-4.9,5.4-2.4,4.2,2.4,4.1c4.9-0.1-0.9,7.2,6.9,5.2
	s6.9-8.3,11.8-10.3s8.9,3.2,7.8,10.6c-0.9,7.6-2.9,11.9,3.4,14.3c15.2,5.7,22,9.3,28.4,0c6.4-9.3,13.6-18.5,13.2-23.1
	c-0.5-4.4,0.9-5.4,4-6.4c2.9-0.9,4-2,2.4-5.4c-1.3-3.2,16.4-57.2,35.4-86.3c4,2.5,9.8,6.6,13.4,5.8c1.3-4.5-4.2-11.3-5.3-15.6
	c4.2,1.3,8,4,12.3,5c4.2,1.1,8.5,0.8,12.6,2.1c-0.4,3.6-2,4.8-0.7,8.3c1.5,3.7,3.8,5,7.6,6.9c6.8,3.2,12.7,6.9,19.3,10.3
	c13.2,6.8,26.9,13.8,40.4,20.5c30.7,15.4,62.5,23.7,94.1,37c16.7,7,34.2,11.9,50.9,18.5c7.8,3,38.7,15,71.9,27.4
	c-0.7,25.3,0.3,64.5,1.1,65.6c0.9,1.5,12.7,5.4,15.6,16.7c2.9,11.3-2.3,19.1-8.5,23.1s-10.1,7.3,3,4.9c13.2-2.4,18.2-4.4,18.2-4.4
	s2.9,0.5,13.6,0c10.7-0.5,10.7-0.5,9.3-7.8c-1.5-7.3,1.5-15.2-6.9-24.5c-8.3-9.3-13.2-12.2-13.2-12.2s3.4,2-0.9-8.9
	c-3.7-9-5.3-21.6-7.4-43.5c36.4,13.5,70,25.6,73,25.3c7.4-0.7,8.1-4.8,8.1-4.8s36.4,7.7,51.1,10.5c13.4,2.5,27.6,6.8,41.1,8.1
	c7.8,0.8,15,1.7,22.5,2.9c6,1.1,15.5,2.8,17.8-4.8c9.7-0.9,110,18.4,115.5,2.9c3.4-0.9,88,13.1,85.1-4.1c0,0,6.2,1.5,14.8,3.3
	c-0.3,3,0,6.4-0.3,9c-0.4,5-0.4,9.4,0.7,14.2c1.1,4.6,2.4,9.5,6.1,12.9c2,1.9,7.6,5.3,10.3,4.6c-2.5-4.1-3.3-7.7-3.4-12.5
	c4.9,6.2,9.3,14.2,16.8,17.4c6.5,2.7,16.6,4.6,23.3,2.5c-2-1.1-6.1-1.6-5.3-5.2c5.8,1.5,11,5.8,17.1,6.4c6.8,0.5,14.6,0.3,20.9-1.6
	c-0.9-1.5-3.6-2.4-3.7-4.2c2.1,0.5,4.5,0.8,6.8,1.5c1.5,4.8,14,4.6,18.2,4.4c6-0.5,13-2.5,18-5.3c-3.2-0.7-6.5-1.1-9.7-2
	c2.4,0.5,5.6,0.5,7.8,0.9c3.7,0.7,6.4,0.5,10.3,0.5c5.2,0,15.1-0.4,18-5.3c-2.5-1.5-4.8-3.4-7.3-4.9c-2.9-1.6-6.5-2.5-9.3-4.4
	c3,0.9,7-1.7,9.8-3c3.2-1.5,6.5-3.2,9.8-4.1c7-2,15.5-3.7,22.5-2c3.6,0.9,6.9,2.5,10.2,3.6c1.9,0.7,3.4,1.2,4.9,1.9
	c2,0.9,3.6,1.7,5.8,2c4.1,0.3,8-0.4,11.8-0.9c3.6-0.5,7.9-1.1,11.3-2.5c2.9-1.2,3.2-2.4,2.4-5.3c-3.3,0.3-1.9-2-1.9-4
	c-0.1-2.4-0.9-3.2-2.9-4.5c-3.2-2.1-7.9-2.4-11.8-2.4c-2,0-4,0-5.8,0c-1.5,0-4.9,0.8-5.8,0.5c-1.5-0.4-2.6-2.8-3.6-3.8
	c-0.3-0.4-0.7-0.7-0.9-1.1c8.3-0.3,16-1.6,17.4-6.2c8.7-2.1,17,4.4,26.2,1.7c2.8-0.8,9.3-3.2,11-5.6c3.2-4.2-0.4-7.2,0.9-11.8
	c12.7-6.1,22.5-12.3,25.4-26.5c6.9-0.5,33.9,1.9,40.9,1.9c14.2,0,28.4-0.8,42.1-0.9c15.2-0.3,31.7-3.6,46-7.7
	c13.6-3.8,24.2-10.7,33.1-24C1598.2,1022.9,1563.4,966.3,1559.1,961.3z M1095,858.5c-11.3-3-91.3-21.6-172.1-40.3
	c2.5-3.6,5.4-8.1,8.9-13.4c0.1-0.1,0.1-0.3,0.3-0.4c8.2,11,12.7,10.1,5-7.2c3-4.4,7.3-10.1,12.2-17c20,19.9,26.1,20.3,6-8.1
	c2.1-2.9,4.4-6,6.6-9c4.5,5.8,7.7,6.9,3.6-4.9c6.8-9.1,14-19.1,21.6-29.3c10.2,11.8,20.1,19.5,5-6.9c7.2-9.7,14.4-19.5,21.5-29
	c11.5,12.7,16.6,13,5.3-7.2c7.7-10.5,15.1-20.4,21.7-29.3c7.6,7.8,15.4,14,6.1-8.1c8.1-10.7,14.6-19.3,18.4-24.2
	c21.6-28,31.4-19.1,43.1-27.4c11.8-8.3,15.6-19.6,15.6-19.6h3.4c0,0,1.5,5.8-1.5,32.9c-2.9,27-0.5,85.7-0.5,117
	c0,24.5,5.4,105.3,7.7,139.4C1112.7,862.3,1099,859.5,1095,858.5z M1272.7,1142.1c1.7-4.4-1.9-6-5.4-6.4c-3.4-0.3-6.9,1.5-9.8,3.4
	s-3.2,5.4-6.9,4.1c-1.7-0.5-3.2-2.1-4.9-2.7c-2-0.7-4.2-0.4-6.4-0.5c-8.2-0.7-16.7-0.4-25-0.4s-18.8,2.8-26.2-1.1
	c1.5-2.1,1.6-4.4,0.8-6.8c4.5,0.1,7.9-0.1,9.7-1.1c-0.1-1.3,0.7-3.3,0.4-4.6c5,2.9,32.9,4.9,39.8,6c13,2,26.4-1.2,38.4-0.3
	c2.8,0.3,7.3,0.7,12.1,0.9c-0.7,0.4-1.2,0.7-1.9,1.1C1282.2,1136.4,1277.4,1139.4,1272.7,1142.1z"/>
</svg>
